<?xml version="1.0" standalone="no"?>
<!DOCTYPE svg PUBLIC "-//W3C//DTD SVG 1.1//EN" "http://www.w3.org/Graphics/SVG/1.1/DTD/svg11.dtd" >
<svg xmlns="http://www.w3.org/2000/svg" xmlns:xlink="http://www.w3.org/1999/xlink" version="1.1">
<metadata>
Created by FontForge 20161116 at Tue Aug 30 21:26:33 2016
 By Jimmy Wärting
Designed for Typetype in 2016 by Ivan Gladkikh. TT Lakes is one of series of fontfamilies which were designed for use in web and mobile applications, print and multimedia environments. 
</metadata>
<defs>
<font id="TTLakes-Medium" horiz-adv-x="585" >
  <font-face 
    font-family="TT Lakes Light"
    font-weight="500"
    font-stretch="normal"
    units-per-em="1000"
    panose-1="2 0 8 3 0 0 0 2 0 4"
    ascent="800"
    descent="-200"
    x-height="510"
    cap-height="700"
    bbox="-119.962 -290 1130 985"
    underline-thickness="50"
    underline-position="-100"
    unicode-range="U+000D-F6D4"
  />
<missing-glyph horiz-adv-x="0" 
 />
    <glyph glyph-name=".notdef" horiz-adv-x="0" 
 />
    <glyph glyph-name="exclam" unicode="!" horiz-adv-x="290" 
d="M165 200h-40c-10 0 -14 5 -15 15l-10 155v315c0 10 5 15 15 15h60c10 0 15 -5 15 -15v-315l-10 -155c-1 -10 -5 -15 -15 -15zM175 0h-60c-10 0 -15 5 -15 15v60c0 10 5 15 15 15h60c10 0 15 -5 15 -15v-60c0 -10 -5 -15 -15 -15z" />
    <glyph glyph-name="quotedbl" unicode="&#x22;" horiz-adv-x="380" 
d="M130 470h-45c-10 0 -15 5 -15 15v200c0 10 5 15 15 15h45c10 0 15 -5 15 -15v-200c0 -10 -5 -15 -15 -15zM295 470h-45c-10 0 -15 5 -15 15v200c0 10 5 15 15 15h45c10 0 15 -5 15 -15v-200c0 -10 -5 -15 -15 -15z" />
    <glyph glyph-name="numbersign" unicode="#" horiz-adv-x="700" 
d="M240 250h165l55 200h-165zM385 170h-165l-46 -155c-3 -10 -9 -15 -18 -15h-66c-10 0 -13 5 -10 15l45 155h-80c-10 0 -15 5 -15 15v50c0 10 5 15 15 15h100l55 200h-85c-10 0 -15 5 -15 15v50c0 10 5 15 15 15h105l45 155c3 10 10 15 20 15h65c10 0 13 -5 10 -15
l-45 -155h165l46 155c3 10 9 15 18 15h66c10 0 13 -5 10 -15l-45 -155h80c10 0 15 -5 15 -15v-50c0 -10 -5 -15 -15 -15h-100l-55 -200h85c10 0 15 -5 15 -15v-50c0 -10 -5 -15 -15 -15h-105l-45 -155c-3 -10 -10 -15 -20 -15h-65c-10 0 -13 5 -10 15z" />
    <glyph glyph-name="dollar" unicode="$" horiz-adv-x="710" 
d="M410 -10v-75c0 -10 -5 -15 -15 -15h-65c-10 0 -15 5 -15 15v75h-65c-120 0 -180 60 -180 175v40c0 10 5 15 15 15h65c10 0 15 -5 15 -15v-40c0 -55 30 -85 85 -85h200c55 0 85 30 85 85v45c0 35 -20 54 -55 65l-300 95c-60 19 -100 60 -100 130v35c0 115 60 175 180 175
h55v75c0 10 5 15 15 15h65c10 0 15 -5 15 -15v-75h30c120 0 180 -60 180 -175v-40c0 -10 -5 -15 -15 -15h-65c-10 0 -15 5 -15 15v40c0 55 -30 85 -85 85h-180c-55 0 -85 -30 -85 -85v-25c0 -35 20 -54 55 -65l300 -95c60 -19 100 -60 100 -130v-55
c0 -115 -60 -175 -180 -175h-40z" />
    <glyph glyph-name="percent" unicode="%" horiz-adv-x="790" 
d="M340 575v-70c0 -90 -35 -125 -130 -125h-30c-95 0 -130 35 -130 125v70c0 90 35 125 130 125h30c95 0 130 -35 130 -125zM125 575v-70c0 -35 20 -55 55 -55h30c35 0 55 20 55 55v70c0 35 -20 55 -55 55h-30c-35 0 -55 -20 -55 -55zM740 195v-70c0 -90 -35 -125 -130 -125
h-30c-95 0 -130 35 -130 125v70c0 90 35 125 130 125h30c95 0 130 -35 130 -125zM525 195v-70c0 -35 20 -55 55 -55h30c35 0 55 20 55 55v70c0 35 -20 55 -55 55h-30c-35 0 -55 -20 -55 -55zM595 685l-310 -670c-5 -10 -10 -15 -20 -15h-60c-10 0 -15 5 -10 15l310 670
c5 10 10 15 20 15h60c10 0 15 -5 10 -15z" />
    <glyph glyph-name="ampersand" unicode="&#x26;" horiz-adv-x="688" 
d="M570 270l50 -45c5 -5 5 -10 0 -15l-60 -65l135 -130c6 -6 0 -15 -10 -15h-86c-10 0 -19 5 -29 15l-70 65s-75 -90 -185 -90h-65c-120 0 -180 60 -180 176v54c0 130 120 150 120 150v10s-60 40 -60 120v35c0 115 60 175 180 175h55c120 0 180 -60 180 -175v-10
c0 -10 -5 -15 -15 -15h-65c-10 0 -15 5 -15 15v10c0 55 -30 85 -85 85h-55c-55 0 -85 -30 -85 -85v-35c0 -44 55 -90 55 -90l215 -205l60 65c5 5 10 5 15 0zM250 80h65c70 0 120 65 120 65l-170 160h-15c-55 0 -85 -30 -85 -85v-54c0 -56 30 -86 85 -86z" />
    <glyph glyph-name="quotesingle" unicode="'" horiz-adv-x="215" 
d="M85 700h45c10 0 15 -5 15 -15v-200c0 -10 -5 -15 -15 -15h-45c-10 0 -15 5 -15 15v200c0 10 5 15 15 15z" />
    <glyph glyph-name="parenleft" unicode="(" horiz-adv-x="360" 
d="M90 25v510c0 125 70 195 200 195h25c10 0 15 -5 15 -15v-60c0 -10 -5 -15 -15 -15h-25c-65 0 -105 -40 -105 -105v-510c0 -65 40 -105 105 -105h25c10 0 15 -5 15 -15v-60c0 -10 -5 -15 -15 -15h-25c-130 0 -200 70 -200 195z" />
    <glyph glyph-name="parenright" unicode=")" horiz-adv-x="360" 
d="M270 535v-510c0 -125 -70 -195 -200 -195h-25c-10 0 -15 5 -15 15v60c0 10 5 15 15 15h25c65 0 105 40 105 105v510c0 65 -40 105 -105 105h-25c-10 0 -15 5 -15 15v60c0 10 5 15 15 15h25c130 0 200 -70 200 -195z" />
    <glyph glyph-name="asterisk" unicode="*" horiz-adv-x="370" 
d="M255 399l-70 86l-70 -86c-4 -5 -13 -5 -20 0l-29 25c-6 4 -6 14 0 21l69 80h-90c-10 0 -15 5 -15 15v35c0 10 5 15 15 15h105v95c0 10 5 15 15 15h40c10 0 15 -5 15 -15v-95h105c10 0 15 -5 15 -15v-35c0 -10 -5 -15 -15 -15h-90l69 -80c6 -7 6 -17 0 -21l-29 -25
c-7 -5 -16 -5 -20 0z" />
    <glyph glyph-name="plus" unicode="+" horiz-adv-x="455" 
d="M425 340v-60c0 -10 -5 -15 -15 -15h-135v-150c0 -10 -5 -15 -15 -15h-65c-10 0 -15 5 -15 15v150h-135c-10 0 -15 5 -15 15v60c0 10 5 15 15 15h135v150c0 10 5 15 15 15h65c10 0 15 -5 15 -15v-150h135c10 0 15 -5 15 -15z" />
    <glyph glyph-name="comma" unicode="," horiz-adv-x="166" 
d="M126 75v-55c0 -15 -10 -30 -10 -30l-40 -80c-3 -5 -10 -10 -15 -10h-25c-5 0 -7 5 -5 10l45 90h-25c-10 0 -15 5 -15 15v60c0 10 5 15 15 15h60c10 0 15 -5 15 -15z" />
    <glyph glyph-name="hyphen" unicode="-" horiz-adv-x="435" 
d="M405 340v-60c0 -10 -5 -15 -15 -15h-345c-10 0 -15 5 -15 15v60c0 10 5 15 15 15h345c10 0 15 -5 15 -15z" />
    <glyph glyph-name="period" unicode="." horiz-adv-x="170" 
d="M115 0h-60c-10 0 -15 5 -15 15v60c0 10 5 15 15 15h60c10 0 15 -5 15 -15v-60c0 -10 -5 -15 -15 -15z" />
    <glyph glyph-name="slash" unicode="/" horiz-adv-x="384" 
d="M362 685l-245 -670c-4 -10 -10 -15 -20 -15h-65c-10 0 -14 5 -10 15l245 670c4 10 10 15 20 15h65c10 0 14 -5 10 -15z" />
    <glyph glyph-name="zero" unicode="0" horiz-adv-x="740" 
d="M650 535v-370c0 -115 -60 -175 -180 -175h-200c-120 0 -180 60 -180 175v370c0 115 60 175 180 175h200c120 0 180 -60 180 -175zM185 535v-370c0 -55 30 -85 85 -85h200c55 0 85 30 85 85v370c0 55 -30 85 -85 85h-200c-55 0 -85 -30 -85 -85z" />
    <glyph glyph-name="one" unicode="1" horiz-adv-x="375" 
d="M275 685v-670c0 -10 -5 -15 -15 -15h-65c-10 0 -15 5 -15 15v595h-145c-10 0 -15 5 -15 15v60c0 10 5 15 15 15h225c10 0 15 -5 15 -15z" />
    <glyph glyph-name="two" unicode="2" horiz-adv-x="660" 
d="M580 490c0 -70 -40 -110 -75 -140l-295 -255v-5h355c10 0 15 -5 15 -15v-60c0 -9 -5 -15 -15 -15h-480c-10 0 -15 5 -15 15v55c0 15 5 21 15 30l355 310c30 26 45 40 45 80v45c0 55 -30 85 -85 85h-150c-55 0 -85 -30 -85 -85v-40c0 -10 -5 -15 -15 -15h-65
c-10 0 -15 5 -15 15v40c0 115 60 175 180 175h150c120 0 180 -60 180 -175v-45z" />
    <glyph glyph-name="three" unicode="3" horiz-adv-x="660" 
d="M355 420h45c120 0 180 -60 180 -175v-80c0 -115 -60 -175 -180 -175h-160c-120 0 -180 60 -180 175v40c0 10 5 15 15 15h65c10 0 15 -5 15 -15v-40c0 -55 30 -85 85 -85h160c55 0 85 30 85 85v80c0 55 -30 85 -85 85h-175c-10 0 -15 5 -15 15v40c0 15 10 25 20 35
l195 185v5h-330c-10 0 -15 5 -15 15v60c0 10 5 15 15 15h460c10 0 15 -5 15 -15v-40c0 -15 -10 -25 -20 -35l-195 -185v-5z" />
    <glyph glyph-name="four" unicode="4" horiz-adv-x="625" 
d="M595 245v-60c0 -10 -5 -15 -15 -15h-75v-155c0 -10 -5 -15 -15 -15h-65c-10 0 -15 5 -15 15v155h-375c-10 0 -15 5 -15 15v41c0 19 4 25 15 39l335 420c9 11 15 15 30 15h90c10 0 15 -5 15 -15v-425h75c10 0 15 -5 15 -15zM405 590l-260 -325v-5h265v330h-5z" />
    <glyph glyph-name="five" unicode="5" horiz-adv-x="660" 
d="M195 430h215c120 0 180 -60 180 -175v-90c0 -115 -60 -175 -180 -175h-160c-120 0 -180 60 -180 175v40c0 10 5 15 15 15h65c10 0 15 -5 15 -15v-40c0 -55 30 -85 85 -85h160c55 0 85 30 85 85v90c0 55 -30 85 -85 85h-295c-10 0 -15 5 -15 15v330c0 10 5 15 15 15h435
c10 0 15 -5 15 -15v-60c0 -10 -5 -15 -15 -15h-355v-180z" />
    <glyph glyph-name="six" unicode="6" horiz-adv-x="690" 
d="M430 330h-245v-165c0 -55 30 -85 85 -85h160c55 0 85 30 85 86v78c0 56 -30 86 -85 86zM185 535v-115h245c120 0 180 -60 180 -175v-80c0 -115 -60 -175 -180 -175h-160c-120 0 -180 60 -180 175v370c0 115 60 175 180 175h140c120 0 180 -60 180 -175v-30
c0 -10 -5 -15 -15 -15h-65c-10 0 -15 5 -15 15v30c0 55 -30 85 -85 85h-140c-55 0 -85 -30 -85 -85z" />
    <glyph glyph-name="seven" unicode="7" horiz-adv-x="560" 
d="M530 685v-41c0 -19 -3 -24 -10 -39l-270 -590c-5 -10 -15 -15 -25 -15h-65c-10 0 -15 5 -10 15l270 590v5h-375c-10 0 -15 5 -15 15v60c0 10 5 15 15 15h470c10 0 15 -5 15 -15z" />
    <glyph glyph-name="eight" unicode="8" horiz-adv-x="700" 
d="M440 -10h-180c-120 0 -180 60 -180 175v65c0 115 100 135 100 135v5s-90 20 -90 120v45c0 115 60 175 180 175h160c120 0 180 -60 180 -175v-45c0 -100 -90 -120 -90 -120v-5s100 -20 100 -135v-65c0 -115 -60 -175 -180 -175zM260 80h180c55 0 85 30 85 85v65
c0 55 -30 85 -85 85h-180c-55 0 -85 -30 -85 -85v-65c0 -55 30 -85 85 -85zM430 620h-160c-55 0 -85 -30 -85 -85v-45c0 -55 30 -85 85 -85h160c55 0 85 30 85 85v45c0 55 -30 85 -85 85z" />
    <glyph glyph-name="nine" unicode="9" horiz-adv-x="690" 
d="M260 370h245v165c0 55 -30 85 -85 85h-160c-55 0 -85 -30 -85 -86v-78c0 -56 30 -86 85 -86zM505 165v115h-245c-120 0 -180 60 -180 175v80c0 115 60 175 180 175h160c120 0 180 -60 180 -175v-370c0 -115 -60 -175 -180 -175h-140c-120 0 -180 60 -180 175v30
c0 10 5 15 15 15h65c10 0 15 -5 15 -15v-30c0 -55 30 -85 85 -85h140c55 0 85 30 85 85z" />
    <glyph glyph-name="colon" unicode=":" horiz-adv-x="190" 
d="M125 0h-60c-10 0 -15 5 -15 15v60c0 10 5 15 15 15h60c10 0 15 -5 15 -15v-60c0 -10 -5 -15 -15 -15zM125 420h-60c-10 0 -15 5 -15 15v60c0 10 5 15 15 15h60c10 0 15 -5 15 -15v-60c0 -10 -5 -15 -15 -15z" />
    <glyph glyph-name="semicolon" unicode=";" horiz-adv-x="186" 
d="M121 420h-60c-10 0 -15 5 -15 15v60c0 10 5 15 15 15h60c10 0 15 -5 15 -15v-60c0 -10 -5 -15 -15 -15zM136 75v-55c0 -15 -10 -30 -10 -30l-40 -80c-3 -5 -10 -10 -15 -10h-25c-5 0 -7 5 -5 10l45 90h-25c-10 0 -15 5 -15 15v60c0 10 5 15 15 15h60c10 0 15 -5 15 -15z
" />
    <glyph glyph-name="less" unicode="&#x3c;" horiz-adv-x="520" 
d="M40 225v45c0 10 5 15 15 20l410 185c10 4 15 0 15 -10v-55c0 -15 -5 -20 -15 -25l-310 -135v-5l310 -135c10 -4 15 -10 15 -25v-55c0 -10 -5 -14 -15 -10l-410 185c-10 4 -15 10 -15 20z" />
    <glyph glyph-name="equal" unicode="=" horiz-adv-x="445" 
d="M405 435v-60c0 -10 -5 -15 -15 -15h-335c-10 0 -15 5 -15 15v60c0 10 5 15 15 15h335c10 0 15 -5 15 -15zM405 225v-60c0 -10 -5 -15 -15 -15h-335c-10 0 -15 5 -15 15v60c0 10 5 15 15 15h335c10 0 15 -5 15 -15z" />
    <glyph glyph-name="greater" unicode="&#x3e;" horiz-adv-x="520" 
d="M480 270v-45c0 -10 -5 -16 -15 -20l-410 -185c-10 -4 -15 0 -15 10v55c0 15 5 21 15 25l310 135v5l-310 135c-10 5 -15 10 -15 25v55c0 10 5 14 15 10l410 -185c10 -5 15 -10 15 -20z" />
    <glyph glyph-name="question" unicode="?" horiz-adv-x="610" 
d="M370 270h-40l-10 -55c-2 -10 -5 -15 -15 -15h-40c-10 0 -14 5 -15 15l-15 130c0 10 5 15 15 15h120c55 0 85 30 85 85v90c0 55 -30 85 -85 85h-150c-55 0 -85 -30 -85 -85v-30c0 -10 -5 -15 -15 -15h-65c-10 0 -15 5 -15 15v30c0 115 60 175 180 175h150
c120 0 180 -60 180 -175v-90c0 -115 -60 -175 -180 -175zM315 0h-60c-10 0 -15 5 -15 15v60c0 10 5 15 15 15h60c10 0 15 -5 15 -15v-60c0 -10 -5 -15 -15 -15z" />
    <glyph glyph-name="at" unicode="@" horiz-adv-x="990" 
d="M410 345v-170c0 -25 10 -35 35 -35h90c30 0 45 15 45 45v150c0 30 -15 45 -45 45h-90c-25 0 -35 -10 -35 -35zM820 230v280c0 55 -30 85 -85 85h-470c-55 0 -85 -30 -85 -85v-500c0 -55 30 -85 85 -85h545c10 0 15 -5 15 -15v-55c0 -10 -5 -15 -15 -15h-545
c-115 0 -175 60 -175 170v500c0 110 60 170 175 170h470c115 0 175 -60 175 -170v-280c0 -115 -55 -170 -175 -170h-140c-10 0 -15 5 -15 15v15h-5s-15 -40 -65 -40h-65c-85 0 -130 45 -130 125v170c0 80 45 125 130 125h65c50 0 65 -40 65 -40h5v15c0 10 5 15 15 15h65
c10 0 15 -5 15 -15v-300h60c55 0 85 30 85 85z" />
    <glyph glyph-name="A" unicode="A" horiz-adv-x="664" 
d="M212 270h240l-118 320h-4zM487 180h-310l-60 -165c-4 -10 -10 -15 -25 -15h-70c-10 0 -14 5 -10 15l260 670c5 10 10 15 25 15h70c15 0 20 -5 25 -15l260 -670c4 -10 0 -15 -10 -15h-70c-15 0 -21 5 -25 15z" />
    <glyph glyph-name="B" unicode="B" horiz-adv-x="730" 
d="M525 505v20c0 55 -30 85 -85 85h-245v-190h245c55 0 85 30 85 85zM660 245v-70c0 -115 -60 -175 -180 -175h-365c-10 0 -15 5 -15 15v670c0 10 5 15 14 15h326c120 0 180 -60 180 -175v-20c0 -100 -75 -120 -75 -120v-5s115 -20 115 -135zM565 175v70c0 55 -30 85 -85 85
h-285v-240h285c55 0 85 30 85 85z" />
    <glyph glyph-name="C" unicode="C" horiz-adv-x="750" 
d="M90 165v370c0 115 60 175 180 175h230c120 0 180 -60 180 -175v-40c0 -10 -5 -15 -15 -15h-65c-10 0 -15 5 -15 15v40c0 55 -30 85 -85 85h-230c-55 0 -85 -30 -85 -85v-370c0 -55 30 -85 85 -85h230c55 0 85 30 85 85v40c0 10 5 15 15 15h65c10 0 15 -5 15 -15v-40
c0 -115 -60 -175 -180 -175h-230c-120 0 -180 60 -180 175z" />
    <glyph glyph-name="D" unicode="D" horiz-adv-x="780" 
d="M115 700h395c120 0 180 -60 180 -175v-350c0 -115 -60 -175 -180 -175h-330h-65c-10 0 -15 5 -15 15v670c0 10 5 15 15 15zM510 610h-315v-520h315c55 0 85 30 85 85v350c0 55 -30 85 -85 85z" />
    <glyph glyph-name="E" unicode="E" horiz-adv-x="680" 
d="M195 90h430c10 0 15 -5 15 -15v-60c0 -10 -5 -15 -14 -15h-511c-10 0 -15 5 -15 15v669c0 11 5 16 15 16h500c10 0 15 -5 15 -15v-60c0 -10 -5 -15 -14 -15h-421v-210h330c10 0 15 -5 15 -15v-60c0 -10 -5 -15 -14 -15h-331v-220z" />
    <glyph glyph-name="F" unicode="F" horiz-adv-x="650" 
d="M195 280v-265c0 -10 -5 -15 -15 -15h-65c-10 0 -15 5 -15 15v669c0 11 5 16 15 16h500c10 0 15 -5 15 -15v-60c0 -10 -5 -15 -14 -15h-421v-240h290c10 0 15 -5 15 -15v-60c0 -10 -5 -15 -14 -15h-291z" />
    <glyph glyph-name="G" unicode="G" horiz-adv-x="770" 
d="M90 165v370c0 115 60 175 180 175h230c120 0 180 -60 180 -175v-40c0 -10 -5 -15 -15 -15h-65c-10 0 -15 5 -15 15v40c0 55 -30 85 -85 85h-230c-55 0 -85 -30 -85 -85v-370c0 -55 30 -85 85 -85h230c55 0 85 30 85 85v115h-150c-10 0 -15 5 -15 15v60c0 10 5 15 15 15
h230c11 0 15 -5 15 -16v-189c0 -115 -60 -175 -180 -175h-230c-120 0 -180 60 -180 175z" />
    <glyph glyph-name="H" unicode="H" horiz-adv-x="760" 
d="M565 400v285c0 10 5 15 15 15h65c10 0 15 -5 15 -15v-670c0 -10 -5 -15 -15 -15h-65c-10 0 -15 5 -15 14v296h-370v-295c0 -10 -5 -15 -15 -15h-65c-10 0 -15 5 -15 15v670c0 10 5 15 15 15h65c10 0 15 -5 15 -15v-285h370z" />
    <glyph glyph-name="I" unicode="I" horiz-adv-x="295" 
d="M100 15v670c0 10 5 15 15 15h65c10 0 15 -5 15 -15v-670c0 -10 -5 -15 -15 -15h-65c-10 0 -15 5 -15 15z" />
    <glyph glyph-name="J" unicode="J" horiz-adv-x="660" 
d="M560 685v-520c0 -115 -60 -175 -180 -175h-160c-120 0 -180 60 -180 175v60c0 10 5 15 15 15h65c10 0 15 -5 15 -15v-60c0 -55 30 -85 85 -85h160c55 0 85 30 85 85v520c0 10 5 15 15 15h65c10 0 15 -5 15 -15z" />
    <glyph glyph-name="K" unicode="K" horiz-adv-x="692" 
d="M195 320v-305c0 -10 -5 -15 -15 -15h-65c-10 0 -15 5 -15 15v670c0 10 5 15 15 15h65c10 0 15 -5 15 -15v-275h190l150 275c5 10 10 15 25 15h70c10 0 15 -5 10 -15l-175 -315l195 -355c5 -10 0 -15 -10 -15h-70c-15 0 -20 5 -25 15l-165 305h-195z" />
    <glyph glyph-name="L" unicode="L" horiz-adv-x="640" 
d="M195 685v-595h410c10 0 15 -5 15 -15v-60c0 -10 -5 -15 -15 -15h-490c-10 0 -15 5 -15 16v669c0 10 5 15 15 15h65c10 0 15 -5 15 -15z" />
    <glyph glyph-name="M" unicode="M" horiz-adv-x="970" 
d="M500 0h-30c-20 0 -25 5 -30 15l-240 505h-5v-505c0 -10 -5 -15 -15 -15h-65c-10 0 -15 5 -15 15v670c0 10 5 15 15 15h75c20 0 25 -5 30 -15l263 -555h4l263 555c5 10 10 15 30 15h75c10 0 15 -5 15 -15v-670c0 -10 -5 -15 -15 -15h-65c-10 0 -15 5 -15 15v505h-5
l-240 -505c-5 -10 -10 -15 -30 -15z" />
    <glyph glyph-name="N" unicode="N" horiz-adv-x="780" 
d="M590 0c-15 0 -24 5 -30 15l-360 540h-5v-540c0 -10 -5 -15 -15 -15h-65c-10 0 -15 5 -15 15v670c0 11 5 15 15 15h75c15 0 24 -5 30 -15l360 -540h5v540c0 10 5 15 15 15h65c10 0 15 -5 15 -15v-670c0 -10 -5 -15 -15 -15h-75z" />
    <glyph glyph-name="O" unicode="O" horiz-adv-x="790" 
d="M90 165v370c0 115 60 175 180 175h250c120 0 180 -60 180 -175v-370c0 -115 -60 -175 -180 -175h-250c-120 0 -180 60 -180 175zM605 165v370c0 55 -30 85 -85 85h-250c-55 0 -85 -30 -85 -85v-370c0 -55 30 -85 85 -85h250c55 0 85 30 85 85z" />
    <glyph glyph-name="P" unicode="P" horiz-adv-x="730" 
d="M195 310h285c55 0 85 30 85 85v130c0 55 -30 85 -85 85h-285v-300zM480 220h-285v-205c0 -10 -5 -15 -15 -15h-65c-10 0 -15 5 -15 15v670c0 10 5 15 15 15h365c120 0 180 -60 180 -175v-130c0 -115 -60 -175 -180 -175z" />
    <glyph glyph-name="Q" unicode="Q" horiz-adv-x="789" 
d="M700 535v-370c0 -55 -20 -90 -20 -90l85 -95c5 -5 5 -15 0 -20l-45 -40c-6 -5 -15 -5 -20 0l-80 90s-40 -20 -100 -20h-250c-120 0 -180 60 -180 175v370c0 115 60 175 180 175h250c120 0 180 -60 180 -175zM605 155v380c0 55 -30 85 -85 85h-250c-55 0 -85 -30 -85 -85
v-370c0 -55 30 -85 85 -85h250c20 0 30 5 30 5l-50 55c-5 5 -5 15 0 20l45 40c6 5 15 5 20 0z" />
    <glyph glyph-name="R" unicode="R" horiz-adv-x="737" 
d="M535 250l130 -235c5 -10 0 -15 -10 -15h-70c-15 0 -20 5 -25 15l-120 225h-245v-225c0 -10 -5 -15 -15 -15h-65c-10 0 -15 5 -15 15v670c0 10 5 15 15 15h355c120 0 180 -60 180 -175v-110c0 -150 -115 -165 -115 -165zM195 330h275c55 0 85 30 85 85v110
c0 55 -30 85 -85 85h-275v-280z" />
    <glyph glyph-name="S" unicode="S" horiz-adv-x="710" 
d="M535 210c0 35 -20 54 -55 65l-300 95c-60 19 -100 60 -100 130v35c0 115 60 175 180 175h180c120 0 180 -60 180 -175v-40c0 -10 -5 -15 -15 -15h-65c-10 0 -15 5 -15 15v40c0 55 -30 85 -85 85h-180c-55 0 -85 -30 -85 -85v-25c0 -35 20 -54 55 -65l300 -95
c60 -19 100 -60 100 -130v-55c0 -115 -60 -175 -180 -175h-200c-120 0 -180 60 -180 175v40c0 10 5 15 15 15h65c10 0 15 -5 15 -15v-40c0 -55 30 -85 85 -85h200c55 0 85 30 85 85v45z" />
    <glyph glyph-name="T" unicode="T" 
d="M340 610v-595c0 -10 -5 -15 -15 -15h-65c-10 0 -15 5 -15 15v595h-220c-10 0 -15 5 -15 15v60c0 10 5 15 15 15h535c10 0 15 -5 15 -15v-60c0 -10 -5 -15 -15 -15h-220z" />
    <glyph glyph-name="U" unicode="U" horiz-adv-x="780" 
d="M680 685v-520c0 -115 -60 -175 -180 -175h-220c-120 0 -180 60 -180 175v520c0 10 5 15 15 15h65c10 0 15 -5 15 -15v-520c0 -55 30 -85 85 -85h220c55 0 85 30 85 85v520c0 10 5 15 15 15h65c10 0 15 -5 15 -15z" />
    <glyph glyph-name="V" unicode="V" horiz-adv-x="659" 
d="M357 0h-55c-15 0 -20 4 -25 15l-255 670c-4 10 0 15 10 15h70c15 0 21 -5 25 -15l200 -541h5l200 541c4 10 10 15 25 15h70c10 0 14 -5 10 -15l-255 -670c-5 -11 -10 -15 -25 -15z" />
    <glyph glyph-name="W" unicode="W" horiz-adv-x="924" 
d="M432 700h60c10 0 17 -5 20 -15l145 -525h5l145 525c3 10 10 15 20 15h65c10 0 13 -5 10 -15l-185 -670c-3 -10 -10 -15 -20 -15h-60c-10 0 -16 5 -20 15l-153 555h-4l-153 -555c-4 -10 -10 -15 -20 -15h-60c-10 0 -17 5 -20 15l-185 670c-3 10 0 15 10 15h65
c10 0 17 -5 20 -15l145 -525h5l145 525c3 9 10 15 20 15z" />
    <glyph glyph-name="X" unicode="X" horiz-adv-x="646" 
d="M323 445l160 240c7 10 15 15 25 15h80c10 0 16 -7 10 -15l-215 -315l240 -355c6 -9 0 -15 -10 -15h-80c-10 0 -18 5 -25 15l-185 280l-185 -280c-7 -10 -15 -15 -25 -15h-80c-10 0 -16 6 -10 15l240 355l-215 315c-6 8 0 15 10 15h80c10 0 18 -5 25 -15z" />
    <glyph glyph-name="Y" unicode="Y" horiz-adv-x="644" 
d="M122 685l200 -340l200 340c6 10 10 15 25 15h75c10 0 15 -6 10 -15l-265 -440v-231c0 -9 -5 -14 -15 -14h-60c-10 0 -15 5 -15 14v231l-265 440c-5 9 0 15 10 15h75c15 0 19 -5 25 -15z" />
    <glyph glyph-name="Z" unicode="Z" horiz-adv-x="630" 
d="M40 80c0 15 5 25 10 30l420 495v5h-405c-10 0 -15 5 -15 15v60c0 10 5 15 15 15h510c10 0 15 -5 15 -15v-65c0 -15 -5 -25 -10 -30l-420 -495v-5h415c10 0 15 -5 15 -15v-60c0 -10 -5 -15 -15 -15h-520c-10 0 -15 5 -15 15v65z" />
    <glyph glyph-name="bracketleft" unicode="[" horiz-adv-x="360" 
d="M195 -80h120c10 0 15 -5 15 -15v-60c0 -10 -5 -15 -15 -15h-200c-10 0 -15 5 -15 15v870c0 10 5 15 15 15h200c10 0 15 -5 15 -15v-60c0 -10 -5 -15 -15 -15h-120v-720z" />
    <glyph glyph-name="backslash" unicode="\" horiz-adv-x="384" 
d="M267 15l-245 670c-4 10 0 15 10 15h65c10 0 16 -5 20 -15l245 -670c4 -10 0 -15 -10 -15h-65c-10 0 -16 5 -20 15z" />
    <glyph glyph-name="bracketright" unicode="]" horiz-adv-x="360" 
d="M45 -80h120v720h-120c-10 0 -15 5 -15 15v60c0 10 5 15 15 15h200c10 0 15 -5 15 -15v-870c0 -10 -5 -15 -15 -15h-200c-10 0 -15 5 -15 15v60c0 10 5 15 15 15z" />
    <glyph glyph-name="asciicircum" unicode="^" horiz-adv-x="489" 
d="M222 700h45c15 0 20 -5 25 -15l165 -320c5 -11 0 -15 -10 -15h-60c-15 0 -20 5 -25 15l-115 225h-5l-115 -225c-5 -10 -10 -15 -25 -15h-60c-10 0 -15 4 -10 15l165 320c5 10 10 15 25 15z" />
    <glyph glyph-name="underscore" unicode="_" horiz-adv-x="375" 
d="M375 -125v-60c0 -10 -5 -15 -15 -15h-345c-10 0 -15 5 -15 15v60c0 10 5 15 15 15h345c10 0 15 -5 15 -15z" />
    <glyph glyph-name="grave" unicode="`" horiz-adv-x="225" 
d="M123 550l-90 135c-6 9 0 15 10 15h70c10 0 15 -5 20 -15l60 -135c4 -10 0 -15 -10 -15h-40c-10 0 -14 5 -20 15z" />
    <glyph glyph-name="a" unicode="a" horiz-adv-x="560" 
d="M60 135v20c0 95 50 145 150 145h185v65c0 45 -30 75 -75 75h-70c-45 0 -75 -30 -75 -75v0c0 -10 -5 -15 -15 -15h-55c-10 0 -15 5 -15 15v0c0 100 55 155 160 155h70c105 0 160 -55 160 -155v-350c0 -10 -5 -15 -15 -15h-55c-10 0 -15 5 -15 15v35h-5s-25 -60 -110 -60
h-70c-100 0 -150 50 -150 145zM145 155v-20c0 -40 25 -65 65 -65h80c60 0 105 45 105 105v45h-185c-40 0 -65 -25 -65 -65z" />
    <glyph glyph-name="b" unicode="b" 
d="M355 80c45 0 75 30 75 75v200c0 45 -30 75 -75 75h-190v-350h190zM355 0h-260c-10 0 -15 5 -15 15v670c0 10 5 15 15 15h55c10 0 15 -5 15 -15v-175h190c105 0 160 -55 160 -155v-200c0 -100 -55 -155 -160 -155z" />
    <glyph glyph-name="c" unicode="c" horiz-adv-x="565" 
d="M155 365v-220c0 -45 30 -75 75 -75h115c45 0 75 30 75 75v25c0 10 5 15 15 15h55c10 0 15 -5 15 -15v-25c0 -100 -55 -155 -160 -155h-115c-105 0 -160 55 -160 155v220c0 100 55 155 160 155h115c105 0 160 -55 160 -155v-25c0 -10 -5 -15 -15 -15h-55
c-10 0 -15 5 -15 15v25c0 45 -30 75 -75 75h-115c-45 0 -75 -30 -75 -75z" />
    <glyph glyph-name="d" unicode="d" 
d="M420 430h-190c-45 0 -75 -30 -75 -75v-210c0 -45 30 -75 75 -75h85c60 0 105 45 105 105v255zM230 510h190v175c0 10 5 15 15 15h55c10 0 15 -5 15 -15v-670c0 -10 -5 -15 -15 -15h-55c-10 0 -15 5 -15 15v35h-5s-25 -60 -110 -60h-75c-105 0 -160 55 -160 155v210
c0 100 55 155 160 155z" />
    <glyph glyph-name="e" unicode="e" horiz-adv-x="580" 
d="M155 300h270v65c0 45 -30 75 -75 75h-120c-45 0 -75 -30 -75 -75v-65zM495 220h-340v-75c0 -45 30 -75 75 -75h120c45 0 75 30 75 75v5c0 10 5 15 15 15h55c10 0 15 -5 15 -15v-5c0 -100 -55 -155 -160 -155h-120c-105 0 -160 55 -160 155v220c0 100 55 155 160 155h120
c105 0 160 -55 160 -155v-130c0 -10 -5 -15 -15 -15z" />
    <glyph glyph-name="f" unicode="f" horiz-adv-x="350" 
d="M120 400h-75c-10 0 -15 5 -15 15v50c0 10 5 15 15 15h75v70c0 95 55 150 155 150h60c10 0 15 -5 15 -15v-50c0 -10 -5 -15 -15 -15h-60c-40 0 -70 -30 -70 -70v-70h100c10 0 15 -5 15 -15v-50c0 -10 -5 -15 -15 -15h-100v-385c0 -10 -5 -15 -15 -15h-55
c-10 0 -15 5 -15 15v385z" />
    <glyph glyph-name="g" unicode="g" 
d="M420 40h-190c-105 0 -160 55 -160 155v170c0 100 55 155 160 155h75c85 0 110 -60 110 -60h5v35c0 10 5 15 15 15h55c10 0 15 -5 15 -15v-540c0 -100 -55 -155 -160 -155h-105c-105 0 -160 55 -160 155v15c0 10 5 15 15 15h55c10 0 15 -5 15 -15v-15c0 -45 30 -75 75 -75
h105c45 0 75 30 75 75v85zM230 120h190v215c0 60 -45 105 -105 105h-85c-45 0 -75 -30 -75 -75v-170c0 -45 30 -75 75 -75z" />
    <glyph glyph-name="h" unicode="h" horiz-adv-x="595" 
d="M430 15v340c0 45 -30 75 -75 75h-190v-415c0 -10 -5 -15 -15 -15h-55c-10 0 -15 5 -15 15v670c0 10 5 15 15 15h55c10 0 15 -5 15 -15v-175h190c105 0 160 -55 160 -155v-340c0 -10 -5 -15 -15 -15h-55c-10 0 -15 5 -15 15z" />
    <glyph glyph-name="i" unicode="i" horiz-adv-x="245" 
d="M95 700h55c10 0 15 -5 15 -15v-55c0 -10 -5 -15 -15 -15h-55c-10 0 -15 5 -15 15v55c0 10 5 15 15 15zM150 0h-55c-10 0 -15 5 -15 15v480c0 10 5 15 15 15h55c10 0 15 -5 15 -15v-480c0 -10 -5 -15 -15 -15z" />
    <glyph glyph-name="j" unicode="j" horiz-adv-x="245" 
d="M165 495v-545c0 -95 -55 -150 -155 -150h-55c-10 0 -15 5 -15 15v50c0 10 5 15 15 15h55c40 0 70 30 70 70v545c0 10 5 15 15 15h55c10 0 15 -5 15 -15zM95 700h55c10 0 15 -5 15 -15v-55c0 -10 -5 -15 -15 -15h-55c-10 0 -15 5 -15 15v55c0 10 5 15 15 15z" />
    <glyph glyph-name="k" unicode="k" horiz-adv-x="522" 
d="M405 15l-115 215h-125v-215c0 -10 -5 -15 -15 -15h-55c-10 0 -15 5 -15 15v670c0 10 5 15 15 15h55c10 0 15 -5 15 -15v-375h125l100 185c5 10 10 15 25 15h60c10 0 15 -5 10 -15l-125 -225l140 -255c5 -10 0 -15 -10 -15h-60c-15 0 -20 5 -25 15z" />
    <glyph glyph-name="l" unicode="l" horiz-adv-x="245" 
d="M150 0h-55c-10 0 -15 5 -15 15v670c0 10 5 15 15 15h55c10 0 15 -5 15 -15v-670c0 -10 -5 -15 -15 -15z" />
    <glyph glyph-name="m" unicode="m" horiz-adv-x="845" 
d="M465 365v-350c0 -10 -5 -15 -15 -15h-55c-10 0 -15 5 -15 15v350c0 45 -30 75 -75 75h-35c-60 0 -105 -45 -105 -105v-320c0 -10 -5 -15 -15 -15h-55c-10 0 -15 5 -15 15v480c0 10 5 15 15 15h55c10 0 15 -5 15 -15v-35h5s25 60 110 60h25c90 0 115 -60 115 -60h5
s25 60 115 60h65c105 0 160 -55 160 -155v-350c0 -10 -5 -15 -15 -15h-55c-10 0 -15 5 -15 15v350c0 45 -30 75 -75 75h-65c-45 0 -75 -30 -75 -75z" />
    <glyph glyph-name="n" unicode="n" horiz-adv-x="595" 
d="M280 520h75c105 0 160 -55 160 -155v-350c0 -10 -5 -15 -15 -15h-55c-10 0 -15 5 -15 15v350c0 45 -30 75 -75 75h-85c-60 0 -105 -45 -105 -105v-320c0 -10 -5 -15 -15 -15h-55c-10 0 -15 5 -15 15v480c0 10 5 15 15 15h55c10 0 15 -5 15 -15v-35h5s25 60 110 60z" />
    <glyph glyph-name="o" unicode="o" 
d="M430 145v220c0 45 -30 75 -75 75h-125c-45 0 -75 -30 -75 -75v-220c0 -45 30 -75 75 -75h125c45 0 75 30 75 75zM515 365v-220c0 -100 -55 -155 -160 -155h-125c-105 0 -160 55 -160 155v220c0 100 55 155 160 155h125c105 0 160 -55 160 -155z" />
    <glyph glyph-name="p" unicode="p" 
d="M165 80h190c45 0 75 30 75 75v210c0 45 -30 75 -75 75h-85c-60 0 -105 -45 -105 -105v-255zM355 0h-190v-175c0 -10 -5 -15 -15 -15h-55c-10 0 -15 5 -15 15v670c0 10 5 15 15 15h55c10 0 15 -5 15 -15v-35h5s25 60 110 60h75c105 0 160 -55 160 -155v-210
c0 -100 -55 -155 -160 -155z" />
    <glyph glyph-name="q" unicode="q" 
d="M230 430c-45 0 -75 -30 -75 -75v-200c0 -45 30 -75 75 -75h190v350h-190zM230 510h260c10 0 15 -5 15 -15v-670c0 -10 -5 -15 -15 -15h-55c-10 0 -15 5 -15 15v175h-190c-105 0 -160 55 -160 155v200c0 100 55 155 160 155z" />
    <glyph glyph-name="r" unicode="r" horiz-adv-x="360" 
d="M80 15v480c0 10 5 15 15 15h55c10 0 15 -5 15 -15v-35h5s25 60 110 60h55c10 0 15 -5 15 -15v-50c0 -10 -5 -15 -15 -15h-65c-60 0 -105 -45 -105 -105v-320c0 -10 -5 -15 -15 -15h-55c-10 0 -15 5 -15 15z" />
    <glyph glyph-name="s" unicode="s" horiz-adv-x="540" 
d="M60 365v10c0 95 50 145 150 145h100c105 0 160 -55 160 -155v-10c0 -10 -5 -15 -15 -15h-55c-10 0 -15 5 -15 15v10c0 45 -30 75 -75 75h-100c-40 0 -65 -25 -65 -65v-5c0 -20 15 -34 35 -40l220 -70c45 -14 80 -50 80 -110v-15c0 -95 -50 -145 -150 -145h-120
c-105 0 -160 55 -160 155v10c0 10 5 15 15 15h55c10 0 15 -5 15 -15v-10c0 -45 30 -75 75 -75h120c40 0 65 25 65 65v10c0 20 -15 34 -35 40l-220 70c-45 14 -80 50 -80 110z" />
    <glyph glyph-name="t" unicode="t" horiz-adv-x="400" 
d="M45 510h75v105c0 10 5 15 15 15h55c10 0 15 -5 15 -15v-105h100c10 0 15 -5 15 -15v-50c0 -10 -5 -15 -15 -15h-100v-280c0 -40 30 -70 70 -70h60c10 0 15 -5 15 -15v-50c0 -10 -5 -15 -15 -15h-60c-100 0 -155 55 -155 150v280h-75c-10 0 -15 5 -15 15v50
c0 10 5 15 15 15z" />
    <glyph glyph-name="u" unicode="u" horiz-adv-x="595" 
d="M315 -10h-75c-105 0 -160 55 -160 155v350c0 10 5 15 15 15h55c10 0 15 -5 15 -15v-350c0 -45 30 -75 75 -75h85c60 0 105 45 105 105v320c0 10 5 15 15 15h55c10 0 15 -5 15 -15v-480c0 -10 -5 -15 -15 -15h-55c-10 0 -15 5 -15 15v35h-5s-25 -60 -110 -60z" />
    <glyph glyph-name="v" unicode="v" horiz-adv-x="509" 
d="M277 0h-45c-15 0 -21 5 -25 15l-190 480c-4 10 0 15 10 15h60c15 0 21 -5 25 -15l140 -370h5l140 370c4 10 10 15 25 15h60c10 0 14 -5 10 -15l-190 -480c-4 -10 -10 -15 -25 -15z" />
    <glyph glyph-name="w" unicode="w" horiz-adv-x="709" 
d="M332 510h45c15 0 22 -5 25 -15l95 -345h5l95 345c3 10 10 15 25 15h55c10 0 13 -5 10 -15l-135 -480c-3 -10 -10 -15 -25 -15h-45c-15 0 -22 5 -25 15l-100 360h-5l-100 -360c-3 -10 -10 -15 -25 -15h-45c-15 0 -22 5 -25 15l-135 480c-3 10 0 15 10 15h55
c15 0 22 -5 25 -15l95 -345h5l95 345c3 10 10 15 25 15z" />
    <glyph glyph-name="x" unicode="x" horiz-adv-x="476" 
d="M128 495l110 -170l110 170c6 10 10 15 25 15h60c10 0 16 -5 10 -15l-150 -230l165 -250c6 -9 0 -15 -10 -15h-60c-15 0 -19 5 -25 15l-125 190l-125 -190c-6 -10 -10 -15 -25 -15h-60c-10 0 -16 6 -10 15l165 250l-150 230c-6 10 0 15 10 15h60c15 0 19 -5 25 -15z" />
    <glyph glyph-name="y" unicode="y" horiz-adv-x="509" 
d="M257 120l140 375c4 10 10 15 25 15h60c10 0 14 -5 10 -15l-195 -495c-55 -140 -105 -190 -195 -190h-20c-10 0 -15 5 -15 15v50c0 10 5 15 15 15h20c50 0 80 30 110 110l-195 495c-4 10 0 15 10 15h60c15 0 21 -5 25 -15l140 -375h5z" />
    <glyph glyph-name="z" unicode="z" horiz-adv-x="470" 
d="M335 425v5h-280c-10 0 -15 5 -15 15v50c0 10 5 15 15 15h370c10 0 15 -5 15 -15v-55c0 -15 -5 -25 -10 -30l-295 -325v-5h290c10 0 15 -5 15 -15v-50c0 -10 -5 -15 -15 -15h-380c-10 0 -15 5 -15 15v55c0 15 5 25 10 30z" />
    <glyph glyph-name="braceleft" unicode="{" horiz-adv-x="405" 
d="M180 283v-6s75 -17 75 -122v-150c0 -55 30 -85 85 -85h20c10 0 15 -5 15 -15v-60c0 -10 -5 -15 -15 -15h-20c-120 0 -180 60 -180 175v150c0 55 -30 85 -85 85h-10c-10 0 -15 5 -15 15v50c0 10 5 15 15 15h10c55 0 85 30 85 85v150c0 115 60 175 180 175h20
c10 0 15 -5 15 -15v-60c0 -10 -5 -15 -15 -15h-20c-55 0 -85 -30 -85 -85v-150c0 -105 -75 -122 -75 -122z" />
    <glyph glyph-name="bar" unicode="|" horiz-adv-x="335" 
d="M215 685v-860c0 -10 -5 -15 -15 -15h-65c-10 0 -15 5 -15 15v860c0 10 5 15 15 15h65c10 0 15 -5 15 -15z" />
    <glyph glyph-name="braceright" unicode="}" horiz-adv-x="405" 
d="M225 277v6s-75 17 -75 122v150c0 55 -30 85 -85 85h-20c-10 0 -15 5 -15 15v60c0 10 5 15 15 15h20c120 0 180 -60 180 -175v-150c0 -55 30 -85 85 -85h10c10 0 15 -5 15 -15v-50c0 -10 -5 -15 -15 -15h-10c-55 0 -85 -30 -85 -85v-150c0 -115 -60 -175 -180 -175h-20
c-10 0 -15 5 -15 15v60c0 10 5 15 15 15h20c55 0 85 30 85 85v150c0 105 75 122 75 122z" />
    <glyph glyph-name="asciitilde" unicode="~" horiz-adv-x="420" 
d="M300 230c-80 0 -130 100 -170 100c-10 0 -20 -10 -20 -20v-60c0 -15 -5 -20 -19 -20h-41c-15 0 -20 5 -20 20v60c0 60 40 100 90 100c80 0 130 -100 170 -100c10 0 20 10 20 20v60c0 15 5 20 19 20h41c15 0 20 -5 20 -20v-60c0 -60 -40 -100 -90 -100z" />
    <glyph glyph-name="afii10051" unicode="&#x402;" horiz-adv-x="755" 
d="M590 130v125c0 55 -30 85 -85 85h-235v-325c0 -10 -5 -15 -15 -15h-65c-10 0 -15 5 -15 15v595h-160c-10 0 -15 5 -15 15v60c0 10 5 15 15 15h425c10 0 15 -5 15 -15v-60c0 -10 -5 -15 -15 -15h-170v-180h235c120 0 180 -60 180 -175v-125c0 -100 -50 -150 -155 -150h-70
c-10 0 -15 5 -15 15v60c0 10 5 15 15 15h70c40 0 60 20 60 60z" />
    <glyph glyph-name="quotesinglbase" unicode="&#x201a;" horiz-adv-x="166" 
d="M126 75v-55c0 -15 -10 -30 -10 -30l-40 -80c-3 -5 -10 -10 -15 -10h-25c-5 0 -7 5 -5 10l45 90h-25c-10 0 -15 5 -15 15v60c0 10 5 15 15 15h60c10 0 15 -5 15 -15z" />
    <glyph glyph-name="quotedblbase" unicode="&#x201e;" horiz-adv-x="316" 
d="M126 75v-55c0 -15 -10 -30 -10 -30l-40 -80c-3 -5 -10 -10 -15 -10h-25c-5 0 -7 5 -5 10l45 90h-25c-10 0 -15 5 -15 15v60c0 10 5 15 15 15h60c10 0 15 -5 15 -15zM276 75v-55c0 -15 -10 -30 -10 -30l-40 -80c-3 -5 -10 -10 -15 -10h-25c-5 0 -7 5 -5 10l45 90h-25
c-10 0 -15 5 -15 15v60c0 10 5 15 15 15h60c10 0 15 -5 15 -15z" />
    <glyph glyph-name="ellipsis" unicode="&#x2026;" horiz-adv-x="570" 
d="M515 0h-60c-10 0 -15 5 -15 15v60c0 10 5 15 15 15h60c10 0 15 -5 15 -15v-60c0 -10 -5 -15 -15 -15zM315 0h-60c-10 0 -15 5 -15 15v60c0 10 5 15 15 15h60c10 0 15 -5 15 -15v-60c0 -10 -5 -15 -15 -15zM115 0h-60c-10 0 -15 5 -15 15v60c0 10 5 15 15 15h60
c10 0 15 -5 15 -15v-60c0 -10 -5 -15 -15 -15z" />
    <glyph glyph-name="dagger" unicode="&#x2020;" horiz-adv-x="515" 
d="M50 455v60c0 10 5 15 15 15h145v155c0 10 5 15 15 15h65c10 0 15 -5 15 -15v-155h145c10 0 15 -5 15 -15v-60c0 -10 -5 -15 -15 -15h-145v-425c0 -10 -5 -15 -15 -15h-65c-10 0 -15 5 -15 15v425h-145c-10 0 -15 5 -15 15z" />
    <glyph glyph-name="daggerdbl" unicode="&#x2021;" horiz-adv-x="515" 
d="M65 550h145v135c0 10 5 15 15 15h65c10 0 15 -5 15 -15v-135h145c10 0 15 -5 15 -15v-60c0 -10 -5 -15 -15 -15h-145v-220h145c10 0 15 -5 15 -15v-60c0 -10 -5 -15 -15 -15h-145v-135c0 -10 -5 -15 -15 -15h-65c-10 0 -15 5 -15 15v135h-145c-10 0 -15 5 -15 15v60
c0 10 5 15 15 15h145v220h-145c-10 0 -15 5 -15 15v60c0 10 5 15 15 15z" />
    <glyph glyph-name="Euro" unicode="&#x20ac;" horiz-adv-x="775" 
d="M470 305v-45c0 -10 -5 -15 -15 -15h-245v-80c0 -55 30 -85 85 -85h230c55 0 85 30 85 85v40c0 10 5 15 15 15h65c10 0 15 -5 15 -15v-40c0 -115 -60 -175 -180 -175h-230c-120 0 -180 60 -180 175v80h-50c-10 0 -15 5 -15 15v45c0 10 5 15 15 15h50v60h-50
c-10 0 -15 5 -15 15v45c0 10 5 15 15 15h50v80c0 115 60 175 180 175h230c120 0 180 -60 180 -175v-40c0 -10 -5 -15 -15 -15h-65c-10 0 -15 5 -15 15v40c0 55 -30 85 -85 85h-230c-55 0 -85 -30 -85 -85v-80h245c10 0 15 -5 15 -15v-45c0 -10 -5 -15 -15 -15h-245v-60h245
c10 0 15 -5 15 -15z" />
    <glyph glyph-name="perthousand" unicode="&#x2030;" horiz-adv-x="1110" 
d="M340 575v-70c0 -90 -35 -125 -130 -125h-30c-95 0 -130 35 -130 125v70c0 90 35 125 130 125h30c95 0 130 -35 130 -125zM125 575v-70c0 -35 20 -55 55 -55h30c35 0 55 20 55 55v70c0 35 -20 55 -55 55h-30c-35 0 -55 -20 -55 -55zM730 195v-70c0 -90 -35 -125 -130 -125
h-30c-95 0 -130 35 -130 125v70c0 90 35 125 130 125h30c95 0 130 -35 130 -125zM515 195v-70c0 -35 20 -55 55 -55h30c35 0 55 20 55 55v70c0 35 -20 55 -55 55h-30c-35 0 -55 -20 -55 -55zM595 685l-310 -670c-5 -10 -10 -15 -20 -15h-60c-10 0 -15 5 -10 15l310 670
c5 10 10 15 20 15h60c10 0 15 -5 10 -15zM1060 195v-70c0 -90 -35 -125 -130 -125h-30c-95 0 -130 35 -130 125v70c0 90 35 125 130 125h30c95 0 130 -35 130 -125zM845 195v-70c0 -35 20 -55 55 -55h30c35 0 55 20 55 55v70c0 35 -20 55 -55 55h-30c-35 0 -55 -20 -55 -55z
" />
    <glyph glyph-name="afii10058" unicode="&#x409;" horiz-adv-x="1115" 
d="M620 480h235c120 0 180 -60 180 -175v-130c0 -115 -60 -175 -180 -175h-315c-10 0 -15 5 -15 15v595h-210l-100 -455c-25 -115 -75 -165 -175 -165h-25c-9 0 -15 5 -15 15v60c0 10 5 15 15 15h25c45 0 69 25 80 75l115 530c2 10 10 15 25 15h346c7 0 14 -5 14 -15v-205z
M855 390h-235v-300h235c55 0 85 30 85 85v130c0 55 -30 85 -85 85z" />
    <glyph glyph-name="guilsinglleft" unicode="&#x2039;" horiz-adv-x="313" 
d="M270 465l-135 -210l135 -210c6 -10 0 -15 -10 -15h-60c-15 0 -19 6 -25 15l-135 210l135 210c6 9 10 15 25 15h60c10 0 16 -5 10 -15z" />
    <glyph glyph-name="afii10059" unicode="&#x40a;" horiz-adv-x="1125" 
d="M620 440h245c120 0 180 -60 180 -175v-90c0 -115 -60 -175 -180 -175h-325c-10 0 -15 5 -15 15v335h-330v-335c0 -10 -5 -15 -15 -15h-65c-10 0 -15 5 -15 15v670c0 10 5 15 15 15h65c10 0 15 -5 15 -15v-245h330v245c0 10 5 15 15 15h65c10 0 15 -5 15 -15v-245z
M865 350h-245v-260h245c55 0 85 30 85 85v90c0 55 -30 85 -85 85z" />
    <glyph glyph-name="afii10060" unicode="&#x40b;" horiz-adv-x="775" 
d="M270 610v-180h235c120 0 180 -60 180 -175v-240c0 -10 -5 -15 -15 -15h-65c-10 0 -15 5 -15 15v240c0 55 -30 85 -85 85h-235v-325c0 -10 -5 -15 -15 -15h-65c-10 0 -15 5 -15 15v595h-160c-10 0 -15 5 -15 15v60c0 10 5 15 15 15h425c10 0 15 -5 15 -15v-60
c0 -10 -5 -15 -15 -15h-170z" />
    <glyph glyph-name="afii10145" unicode="&#x40f;" horiz-adv-x="765" 
d="M335 0h-220c-10 0 -15 5 -15 15v670c0 10 5 15 15 15h65c10 0 15 -5 15 -15v-595h375v596c0 9 5 14 15 14h65c10 0 15 -5 15 -15v-670c0 -10 -5 -15 -15 -15h-220v-115c0 -10 -5 -15 -15 -15h-65c-10 0 -15 5 -15 15v115z" />
    <glyph glyph-name="afii10099" unicode="&#x452;" horiz-adv-x="595" 
d="M440 120v145c0 45 -30 75 -75 75h-190v-325c0 -10 -5 -15 -15 -15h-55c-10 0 -15 5 -15 15v505h-75c-10 0 -15 5 -15 15v50c0 10 5 15 15 15h75v85c0 10 5 15 15 15h55c10 0 15 -5 15 -15v-85h100c10 0 15 -5 15 -15v-50c0 -10 -5 -15 -15 -15h-100v-100h190
c105 0 160 -55 160 -155v-145c0 -95 -55 -150 -155 -150h-35c-10 0 -15 5 -15 15v50c0 10 5 15 15 15h35c40 0 70 30 70 70z" />
    <glyph glyph-name="quoteleft" unicode="&#x2018;" horiz-adv-x="166" 
d="M40 525v55c0 15 10 30 10 30l40 80c3 5 10 10 15 10h25c5 0 7 -5 5 -10l-45 -90h25c10 0 15 -5 15 -15v-60c0 -10 -5 -15 -15 -15h-60c-10 0 -15 5 -15 15z" />
    <glyph glyph-name="quoteright" unicode="&#x2019;" horiz-adv-x="166" 
d="M126 685v-55c0 -15 -10 -30 -10 -30l-40 -80c-3 -5 -10 -10 -15 -10h-25c-5 0 -7 5 -5 10l45 90h-25c-10 0 -15 5 -15 15v60c0 10 5 15 15 15h60c10 0 15 -5 15 -15z" />
    <glyph glyph-name="quotedblleft" unicode="&#x201c;" horiz-adv-x="316" 
d="M190 525v55c0 15 10 30 10 30l40 80c3 5 10 10 15 10h25c5 0 7 -5 5 -10l-45 -90h25c10 0 15 -5 15 -15v-60c0 -10 -5 -15 -15 -15h-60c-10 0 -15 5 -15 15zM40 525v55c0 15 10 30 10 30l40 80c3 5 10 10 15 10h25c5 0 7 -5 5 -10l-45 -90h25c10 0 15 -5 15 -15v-60
c0 -10 -5 -15 -15 -15h-60c-10 0 -15 5 -15 15z" />
    <glyph glyph-name="quotedblright" unicode="&#x201d;" horiz-adv-x="316" 
d="M126 685v-55c0 -15 -10 -30 -10 -30l-40 -80c-3 -5 -10 -10 -15 -10h-25c-5 0 -7 5 -5 10l45 90h-25c-10 0 -15 5 -15 15v60c0 10 5 15 15 15h60c10 0 15 -5 15 -15zM276 685v-55c0 -15 -10 -30 -10 -30l-40 -80c-3 -5 -10 -10 -15 -10h-25c-5 0 -7 5 -5 10l45 90h-25
c-10 0 -15 5 -15 15v60c0 10 5 15 15 15h60c10 0 15 -5 15 -15z" />
    <glyph glyph-name="bullet" unicode="&#x2022;" horiz-adv-x="350" 
d="M160 385h30c35 0 60 -25 60 -60v-25c0 -35 -25 -60 -60 -60h-30c-35 0 -60 25 -60 60v25c0 35 25 60 60 60z" />
    <glyph glyph-name="endash" unicode="&#x2013;" horiz-adv-x="590" 
d="M560 335v-60c0 -10 -5 -15 -15 -15h-500c-10 0 -15 5 -15 15v60c0 10 5 15 15 15h500c10 0 15 -5 15 -15z" />
    <glyph glyph-name="emdash" unicode="&#x2014;" horiz-adv-x="780" 
d="M30 275v60c0 10 5 15 15 15h690c10 0 15 -5 15 -15v-60c0 -10 -5 -15 -15 -15h-690c-10 0 -15 5 -15 15z" />
    <glyph glyph-name="uni20BD" unicode="&#x20bd;" horiz-adv-x="700" 
d="M550 205v-60c0 -10 -5 -15 -15 -15h-310v-115c0 -10 -5 -15 -15 -15h-65c-10 0 -15 5 -15 15v115h-65c-10 0 -15 5 -15 15v60c0 10 5 15 15 15h65v70h-65c-10 0 -15 5 -15 15v60c0 10 5 15 15 15h65v305c0 10 5 15 15 15h315c120 0 180 -60 180 -175v-60
c0 -115 -60 -175 -180 -175h-235v-70h310c10 0 15 -5 15 -15zM225 380h235c55 0 85 30 85 85v60c0 55 -30 85 -85 85h-235v-230z" />
    <glyph glyph-name="trademark" unicode="&#x2122;" horiz-adv-x="775" 
d="M115 630h-95c-5 0 -10 5 -10 10v50c0 5 5 10 10 10h265c5 0 10 -5 10 -10v-50c0 -5 -5 -10 -10 -10h-95v-250c0 -5 -5 -10 -10 -10h-55c-5 0 -10 5 -10 10v250zM528 460h4l98 230c2 5 5 10 20 10h65c5 0 10 -5 10 -10v-310c0 -5 -5 -10 -10 -10h-55c-5 0 -10 5 -10 10
v190h-4l-81 -190c-2 -5 -5 -10 -20 -10h-30c-15 0 -18 5 -20 10l-81 190h-4v-190c0 -5 -5 -10 -10 -10h-55c-5 0 -10 5 -10 10v310c0 5 5 10 10 10h65c15 0 18 -5 20 -10z" />
    <glyph glyph-name="afii10106" unicode="&#x459;" horiz-adv-x="840" 
d="M630 0h-215c-10 0 -15 5 -15 15v415h-155l-60 -295c-20 -100 -65 -145 -155 -145h-15c-10 0 -15 5 -15 15v50c0 10 5 15 15 15h15c35 0 61 24 70 65l75 360c2 10 10 15 25 15h270c10 0 15 -5 15 -15v-155h145c100 0 150 -50 150 -145v-50c0 -95 -50 -145 -150 -145z
M630 80c40 0 65 25 65 65v50c0 40 -25 65 -65 65h-145v-180h145z" />
    <glyph glyph-name="guilsinglright" unicode="&#x203a;" horiz-adv-x="313" 
d="M178 255l-135 210c-6 10 0 15 10 15h60c15 0 19 -5 25 -15l135 -210l-135 -210c-6 -10 -10 -15 -25 -15h-60c-10 0 -16 5 -10 15z" />
    <glyph glyph-name="afii10107" unicode="&#x45a;" horiz-adv-x="820" 
d="M380 495c0 10 5 15 15 15h55c10 0 15 -5 15 -15v-165h145c100 0 150 -50 150 -145v-40c0 -95 -50 -145 -150 -145h-215c-10 0 -15 5 -15 15v235h-215v-235c0 -10 -5 -15 -15 -15h-55c-10 0 -15 5 -15 15v480c0 10 5 15 15 15h55c10 0 15 -5 15 -15v-165h215v165zM610 80
c40 0 65 25 65 65v40c0 40 -25 65 -65 65h-145v-170h145z" />
    <glyph glyph-name="afii10108" unicode="&#x45b;" horiz-adv-x="605" 
d="M15 600h75v85c0 10 5 15 15 15h55c10 0 15 -5 15 -15v-85h100c10 0 15 -5 15 -15v-50c0 -10 -5 -15 -15 -15h-100v-100h190c105 0 160 -55 160 -155v-250c0 -10 -5 -15 -15 -15h-55c-10 0 -15 5 -15 15v250c0 45 -30 75 -75 75h-190v-325c0 -10 -5 -15 -15 -15h-55
c-10 0 -15 5 -15 15v505h-75c-10 0 -15 5 -15 15v50c0 10 5 15 15 15z" />
    <glyph glyph-name="afii10193" unicode="&#x45f;" 
d="M250 -95v95h-155c-10 0 -15 5 -15 15v480c0 10 5 15 15 15h55c10 0 15 -5 15 -15v-415h255v415c0 10 5 15 15 15h55c10 0 15 -5 15 -15v-480c0 -10 -5 -15 -15 -15h-155v-95c0 -10 -5 -15 -15 -15h-55c-10 0 -15 5 -15 15z" />
    <glyph glyph-name="afii10057" unicode="&#x408;" horiz-adv-x="660" 
d="M560 685v-520c0 -115 -60 -175 -180 -175h-160c-120 0 -180 60 -180 175v60c0 10 5 15 15 15h65c10 0 15 -5 15 -15v-60c0 -55 30 -85 85 -85h160c55 0 85 30 85 85v520c0 10 5 15 15 15h65c10 0 15 -5 15 -15z" />
    <glyph glyph-name="currency" unicode="&#xa4;" horiz-adv-x="700" 
d="M550 205v-60c0 -10 -5 -15 -15 -15h-310v-115c0 -10 -5 -15 -15 -15h-65c-10 0 -15 5 -15 15v115h-65c-10 0 -15 5 -15 15v60c0 10 5 15 15 15h65v70h-65c-10 0 -15 5 -15 15v60c0 10 5 15 15 15h65v305c0 10 5 15 15 15h315c120 0 180 -60 180 -175v-60
c0 -115 -60 -175 -180 -175h-235v-70h310c10 0 15 -5 15 -15zM225 380h235c55 0 85 30 85 85v60c0 55 -30 85 -85 85h-235v-230z" />
    <glyph glyph-name="afii10050" unicode="&#x490;" horiz-adv-x="580" 
d="M195 610v-595c0 -10 -5 -15 -15 -15h-65c-10 0 -15 5 -15 15v669c0 11 5 16 15 16h370v95c0 10 5 15 15 15h65c10 0 15 -5 15 -15v-170c0 -10 -5 -15 -15 -15h-370z" />
    <glyph glyph-name="brokenbar" unicode="&#xa6;" horiz-adv-x="335" 
d="M215 685v-330c0 -10 -5 -15 -15 -15h-65c-10 0 -15 5 -15 15v330c0 10 5 15 15 15h65c10 0 15 -5 15 -15zM215 155v-330c0 -10 -5 -15 -15 -15h-65c-10 0 -15 5 -15 15v330c0 10 5 15 15 15h65c10 0 15 -5 15 -15z" />
    <glyph glyph-name="section" unicode="&#xa7;" horiz-adv-x="580" 
d="M390 330l-160 50s-75 -15 -75 -95v-60c0 -25 15 -39 35 -45l160 -50s75 15 75 95v60c0 25 -15 38 -35 45zM80 525v20c0 100 55 155 160 155h100c105 0 160 -55 160 -155v-10c0 -10 -5 -15 -15 -15h-55c-10 0 -15 5 -15 15v10c0 45 -30 75 -75 75h-100
c-45 0 -75 -30 -75 -75v-20c0 -25 15 -38 35 -45l230 -75c46 -15 80 -45 80 -120v-60c0 -95 -80 -115 -80 -115v-10s70 -20 70 -115v-30c0 -100 -55 -155 -160 -155h-100c-105 0 -160 55 -160 155v10c0 10 5 15 15 15h55c10 0 15 -5 15 -15v-10c0 -45 30 -75 75 -75h100
c45 0 75 30 75 75v30c0 25 -15 38 -35 45l-230 75c-46 15 -80 45 -80 120v60c0 95 80 115 80 115v10s-70 20 -70 115z" />
    <glyph glyph-name="afii10023" unicode="&#x401;" horiz-adv-x="680" 
d="M195 90h430c10 0 15 -5 15 -15v-60c0 -10 -5 -15 -14 -15h-511c-10 0 -15 5 -15 15v669c0 11 5 16 15 16h500c10 0 15 -5 15 -15v-60c0 -10 -5 -15 -14 -15h-421v-210h330c10 0 15 -5 15 -15v-60c0 -10 -5 -15 -14 -15h-331v-220zM305 800h-60c-10 0 -15 5 -15 15v60
c0 10 5 15 15 15h60c10 0 15 -5 15 -15v-60c0 -10 -5 -15 -15 -15zM485 800h-60c-10 0 -15 5 -15 15v60c0 10 5 15 15 15h60c10 0 15 -5 15 -15v-60c0 -10 -5 -15 -15 -15z" />
    <glyph glyph-name="copyright" unicode="&#xa9;" horiz-adv-x="890" 
d="M90 175v350c0 115 60 175 180 175h350c120 0 180 -60 180 -175v-350c0 -115 -60 -175 -180 -175h-350c-120 0 -180 60 -180 175zM705 175v350c0 55 -30 85 -85 85h-350c-55 0 -85 -30 -85 -85v-350c0 -55 30 -85 85 -85h350c55 0 85 30 85 85zM375 420v-140
c0 -15 10 -25 25 -25h90c15 0 25 10 25 25v15c0 6 5 10 10 10h55c5 0 10 -4 10 -10v-15c0 -65 -35 -100 -100 -100h-90c-65 0 -100 35 -100 100v140c0 65 35 100 100 100h90c65 0 100 -35 100 -100v-15c0 -6 -5 -10 -10 -10h-55c-5 0 -10 4 -10 10v15c0 15 -10 25 -25 25
h-90c-15 0 -25 -10 -25 -25z" />
    <glyph glyph-name="afii10053" unicode="&#x404;" horiz-adv-x="750" 
d="M90 165v370c0 115 60 175 180 175h230c120 0 180 -60 180 -175v-40c0 -10 -5 -15 -15 -15h-65c-10 0 -15 5 -15 15v40c0 55 -30 85 -85 85h-230c-55 0 -85 -30 -85 -85v-135h240c10 0 15 -5 15 -15v-60c0 -10 -5 -15 -15 -15h-240v-145c0 -55 30 -85 85 -85h230
c55 0 85 30 85 85v40c0 10 5 15 15 15h65c10 0 15 -5 15 -15v-40c0 -115 -60 -175 -180 -175h-230c-120 0 -180 60 -180 175z" />
    <glyph glyph-name="guillemotleft" unicode="&#xab;" horiz-adv-x="493" 
d="M260 450l-125 -195l125 -195c6 -10 0 -15 -10 -15h-60c-15 0 -19 6 -25 15l-125 195l125 195c6 9 10 15 25 15h60c10 0 16 -5 10 -15zM450 450l-125 -195l125 -195c6 -10 0 -15 -10 -15h-60c-15 0 -19 6 -25 15l-125 195l125 195c6 9 10 15 25 15h60c10 0 16 -5 10 -15z
" />
    <glyph glyph-name="logicalnot" unicode="&#xac;" horiz-adv-x="445" 
d="M30 335v60c0 10 5 15 15 15h355c10 0 15 -5 15 -15v-170c0 -10 -5 -15 -15 -15h-55c-10 0 -15 5 -15 15v95h-285c-10 0 -15 5 -15 15z" />
    <glyph glyph-name="uni00AD" unicode="&#xad;" horiz-adv-x="435" 
d="M405 340v-60c0 -10 -5 -15 -15 -15h-345c-10 0 -15 5 -15 15v60c0 10 5 15 15 15h345c10 0 15 -5 15 -15z" />
    <glyph glyph-name="registered" unicode="&#xae;" horiz-adv-x="890" 
d="M515 420c0 15 -10 25 -25 25h-115v-85h115c15 0 25 10 25 25v35zM519 190l-54 95h-90v-95c0 -5 -5 -10 -10 -10h-55c-5 0 -10 5 -10 10v320c0 5 5 10 10 10h180c65 0 100 -35 100 -100v-35c0 -75 -55 -85 -55 -85l65 -110c3 -5 0 -10 -5 -10h-60c-5 0 -13 5 -16 10z
M90 175v350c0 115 60 175 180 175h350c120 0 180 -60 180 -175v-350c0 -115 -60 -175 -180 -175h-350c-120 0 -180 60 -180 175zM705 175v350c0 55 -30 85 -85 85h-350c-55 0 -85 -30 -85 -85v-350c0 -55 30 -85 85 -85h350c55 0 85 30 85 85z" />
    <glyph glyph-name="degree" unicode="&#xb0;" horiz-adv-x="400" 
d="M180 450h40c30 0 55 25 55 55v70c0 30 -25 55 -55 55h-40c-30 0 -55 -25 -55 -55v-70c0 -30 25 -55 55 -55zM220 380h-40c-90 0 -130 40 -130 125v70c0 85 40 125 130 125h40c90 0 130 -40 130 -125v-70c0 -85 -40 -125 -130 -125z" />
    <glyph glyph-name="plusminus" unicode="&#xb1;" horiz-adv-x="475" 
d="M190 170v150h-135c-10 0 -15 5 -15 15v60c0 10 5 15 15 15h135v150c0 10 5 15 15 15h65c10 0 15 -5 15 -15v-150h135c10 0 15 -5 15 -15v-60c0 -10 -5 -15 -15 -15h-135v-150h130c10 0 15 -5 15 -15v-60c0 -10 -5 -15 -15 -15h-355c-10 0 -15 5 -15 15v60
c0 10 5 15 15 15h130z" />
    <glyph glyph-name="afii10098" unicode="&#x491;" horiz-adv-x="440" 
d="M440 445c0 -10 -5 -15 -15 -15h-260v-415c0 -10 -5 -15 -15 -15h-55c-10 0 -15 5 -15 15v480c0 10 5 15 15 15h260v75c0 10 5 15 15 15h55c10 0 15 -5 15 -15v-140z" />
    <glyph glyph-name="mu" unicode="&#xb5;" horiz-adv-x="595" 
d="M315 -10h-75c-50 0 -75 35 -75 35v-200c0 -10 -5 -15 -15 -15h-55c-10 0 -15 5 -15 15v670c0 8 4 14 11 15h4h55c6 0 10 -2 12 -5s3 -6 3 -10v-350c0 -45 30 -75 75 -75h85c60 0 105 45 105 105v320c0 10 5 15 15 15h55c10 0 15 -5 15 -15v-480c0 -10 -5 -15 -15 -15h-55
c-10 0 -15 5 -15 15v35h-5s-25 -60 -110 -60z" />
    <glyph glyph-name="paragraph" unicode="&#xb6;" horiz-adv-x="650" 
d="M230 330c-110 0 -170 60 -170 170v30c0 110 60 170 175 170h300c10 0 15 -4 15 -15v-710c0 -115 -60 -175 -180 -175h-205c-10 0 -15 5 -15 15v55c0 10 5 15 15 15h50c10 0 15 5 15 15v430zM320 -115h50c60 0 90 30 90 90v640h-140v-730z" />
    <glyph glyph-name="periodcentered" unicode="&#xb7;" horiz-adv-x="200" 
d="M130 255h-60c-10 0 -15 5 -15 15v60c0 10 5 15 15 15h60c10 0 15 -5 15 -15v-60c0 -10 -5 -15 -15 -15z" />
    <glyph glyph-name="afii10071" unicode="&#x451;" horiz-adv-x="580" 
d="M225 610h-60c-10 0 -15 5 -15 15v60c0 10 5 15 15 15h60c10 0 15 -5 15 -15v-60c0 -10 -5 -15 -15 -15zM405 610h-60c-10 0 -15 5 -15 15v60c0 10 5 15 15 15h60c10 0 15 -5 15 -15v-60c0 -10 -5 -15 -15 -15zM155 300h270v65c0 45 -30 75 -75 75h-120
c-45 0 -75 -30 -75 -75v-65zM495 220h-340v-75c0 -45 30 -75 75 -75h120c45 0 75 30 75 75v5c0 10 5 15 15 15h55c10 0 15 -5 15 -15v-5c0 -100 -55 -155 -160 -155h-120c-105 0 -160 55 -160 155v220c0 100 55 155 160 155h120c105 0 160 -55 160 -155v-130
c0 -10 -5 -15 -15 -15z" />
    <glyph glyph-name="afii61352" unicode="&#x2116;" horiz-adv-x="1120" 
d="M590 0c-15 0 -24 5 -30 15l-360 540h-5v-540c0 -10 -5 -15 -15 -15h-65c-10 0 -15 5 -15 15v670c0 11 5 15 15 15h75c15 0 24 -5 30 -15l360 -540h5v540c0 10 5 15 15 15h65c10 0 15 -5 15 -15v-670c0 -10 -5 -15 -15 -15h-75zM760 325v70c0 90 35 125 130 125h30
c95 0 130 -35 130 -125v-70c0 -90 -35 -125 -130 -125h-30c-95 0 -130 35 -130 125zM975 325v70c0 35 -20 55 -55 55h-30c-35 0 -55 -20 -55 -55v-70c0 -35 20 -55 55 -55h30c35 0 55 20 55 55zM760 45v50c0 10 5 15 15 15h260c10 0 15 -5 15 -15v-50c0 -10 -5 -15 -15 -15
h-260c-10 0 -15 5 -15 15z" />
    <glyph glyph-name="afii10101" unicode="&#x454;" horiz-adv-x="565" 
d="M155 220v-75c0 -45 30 -75 75 -75h115c45 0 75 30 75 75v25c0 10 5 15 15 15h55c10 0 15 -5 15 -15v-25c0 -100 -55 -155 -160 -155h-115c-105 0 -160 55 -160 155v220c0 100 55 155 160 155h115c105 0 160 -55 160 -155v-25c0 -10 -5 -15 -15 -15h-55
c-10 0 -15 5 -15 15v25c0 45 -30 75 -75 75h-115c-45 0 -75 -30 -75 -75v-65h135c10 0 15 -5 15 -15v-50c0 -10 -5 -15 -15 -15h-135z" />
    <glyph glyph-name="guillemotright" unicode="&#xbb;" horiz-adv-x="493" 
d="M358 255l-125 195c-6 10 0 15 10 15h60c15 0 19 -6 25 -15l125 -195l-125 -195c-6 -9 -10 -15 -25 -15h-60c-10 0 -16 5 -10 15zM168 255l-125 195c-6 10 0 15 10 15h60c15 0 19 -6 25 -15l125 -195l-125 -195c-6 -9 -10 -15 -25 -15h-60c-10 0 -16 5 -10 15z" />
    <glyph glyph-name="afii10105" unicode="&#x458;" horiz-adv-x="245" 
d="M165 495v-545c0 -95 -55 -150 -155 -150h-55c-10 0 -15 5 -15 15v50c0 10 5 15 15 15h55c40 0 70 30 70 70v545c0 10 5 15 15 15h55c10 0 15 -5 15 -15zM95 700h55c10 0 15 -5 15 -15v-55c0 -10 -5 -15 -15 -15h-55c-10 0 -15 5 -15 15v55c0 10 5 15 15 15z" />
    <glyph glyph-name="afii10054" unicode="&#x405;" horiz-adv-x="710" 
d="M535 210c0 35 -20 54 -55 65l-300 95c-60 19 -100 60 -100 130v35c0 115 60 175 180 175h180c120 0 180 -60 180 -175v-40c0 -10 -5 -15 -15 -15h-65c-10 0 -15 5 -15 15v40c0 55 -30 85 -85 85h-180c-55 0 -85 -30 -85 -85v-25c0 -35 20 -54 55 -65l300 -95
c60 -19 100 -60 100 -130v-55c0 -115 -60 -175 -180 -175h-200c-120 0 -180 60 -180 175v40c0 10 5 15 15 15h65c10 0 15 -5 15 -15v-40c0 -55 30 -85 85 -85h200c55 0 85 30 85 85v45z" />
    <glyph glyph-name="afii10102" unicode="&#x455;" horiz-adv-x="540" 
d="M60 365v10c0 95 50 145 150 145h100c105 0 160 -55 160 -155v-10c0 -10 -5 -15 -15 -15h-55c-10 0 -15 5 -15 15v10c0 45 -30 75 -75 75h-100c-40 0 -65 -25 -65 -65v-5c0 -20 15 -34 35 -40l220 -70c45 -14 80 -50 80 -110v-15c0 -95 -50 -145 -150 -145h-120
c-105 0 -160 55 -160 155v10c0 10 5 15 15 15h55c10 0 15 -5 15 -15v-10c0 -45 30 -75 75 -75h120c40 0 65 25 65 65v10c0 20 -15 34 -35 40l-220 70c-45 14 -80 50 -80 110z" />
    <glyph glyph-name="afii10017" unicode="&#x410;" horiz-adv-x="664" 
d="M212 270h240l-118 320h-4zM487 180h-310l-60 -165c-4 -10 -10 -15 -25 -15h-70c-10 0 -14 5 -10 15l260 670c5 10 10 15 25 15h70c15 0 20 -5 25 -15l260 -670c4 -10 0 -15 -10 -15h-70c-15 0 -21 5 -25 15z" />
    <glyph glyph-name="afii10018" unicode="&#x411;" horiz-adv-x="730" 
d="M480 350h-285v-260h285c55 0 85 30 85 85v90c0 55 -30 85 -85 85zM195 440h285c120 0 180 -60 180 -175v-90c0 -115 -60 -175 -180 -175h-365c-10 0 -15 5 -15 15v670c0 10 5 15 15 15h480c10 0 15 -5 15 -15v-60c0 -10 -5 -15 -14 -15h-401v-170z" />
    <glyph glyph-name="afii10019" unicode="&#x412;" horiz-adv-x="730" 
d="M525 505v20c0 55 -30 85 -85 85h-245v-190h245c55 0 85 30 85 85zM660 245v-70c0 -115 -60 -175 -180 -175h-365c-10 0 -15 5 -15 15v670c0 10 5 15 14 15h326c120 0 180 -60 180 -175v-20c0 -100 -75 -120 -75 -120v-5s115 -20 115 -135zM565 175v70c0 55 -30 85 -85 85
h-285v-240h285c55 0 85 30 85 85z" />
    <glyph glyph-name="afii10020" unicode="&#x413;" horiz-adv-x="580" 
d="M195 610v-595c0 -10 -5 -15 -15 -15h-65c-10 0 -15 5 -15 15v669c0 11 5 16 15 16h450c10 0 15 -5 15 -15v-60c0 -10 -5 -15 -15 -15h-370z" />
    <glyph glyph-name="afii10021" unicode="&#x414;" horiz-adv-x="720" 
d="M280 610l-115 -520h355v520h-240zM220 700h380c10 0 15 -5 15 -15v-595h60c10 0 15 -5 15 -15v-190c0 -10 -5 -15 -15 -15h-65c-10 0 -15 5 -15 15v115h-500v-115c0 -10 -5 -15 -15 -15h-65c-10 0 -15 5 -15 15v190c0 10 5 15 15 15h55l130 595c2 10 10 15 20 15z" />
    <glyph glyph-name="afii10022" unicode="&#x415;" horiz-adv-x="680" 
d="M195 90h430c10 0 15 -5 15 -15v-60c0 -10 -5 -15 -14 -15h-511c-10 0 -15 5 -15 15v669c0 11 5 16 15 16h500c10 0 15 -5 15 -15v-60c0 -10 -5 -15 -14 -15h-421v-210h330c10 0 15 -5 15 -15v-60c0 -10 -5 -15 -14 -15h-331v-220z" />
    <glyph glyph-name="afii10024" unicode="&#x416;" horiz-adv-x="989" 
d="M542 685v-275h140l150 275c5 10 10 15 25 15h70c10 0 15 -5 10 -15l-175 -315l195 -355c5 -10 0 -15 -10 -15h-70c-15 0 -20 5 -25 15l-165 305h-145v-305c0 -10 -5 -15 -15 -15h-65c-10 0 -15 5 -15 15v305h-145l-165 -305c-5 -10 -10 -15 -25 -15h-70
c-10 0 -15 5 -10 15l195 355l-175 315c-5 10 0 15 10 15h70c15 0 20 -5 25 -15l150 -275h140v275c0 10 5 15 15 15h65c10 0 15 -5 15 -15z" />
    <glyph glyph-name="afii10025" unicode="&#x417;" horiz-adv-x="700" 
d="M450 80c55 0 85 30 85 85v65c0 55 -30 85 -85 85h-145c-10 0 -15 5 -15 16v59c0 10 5 15 15 15h135c55 0 85 30 85 85v45c0 55 -30 85 -85 85h-190c-55 0 -85 -30 -85 -85v-40c0 -10 -5 -15 -15 -15h-65c-10 0 -15 5 -15 15v40c0 115 60 175 180 175h190
c120 0 180 -60 180 -175v-45c0 -100 -90 -120 -90 -120v-5s100 -20 100 -135v-65c0 -115 -60 -175 -180 -175h-210c-120 0 -180 60 -180 175v40c0 10 5 15 15 15h65c10 0 15 -5 15 -15v-40c0 -55 30 -85 85 -85h210z" />
    <glyph glyph-name="afii10026" unicode="&#x418;" horiz-adv-x="780" 
d="M590 700h75c10 0 15 -5 15 -15v-670c0 -10 -5 -15 -15 -15h-65c-10 0 -15 5 -15 15v540h-5l-360 -540c-6 -10 -15 -15 -30 -15h-75c-10 0 -15 4 -15 15v670c0 10 5 15 15 15h65c10 0 15 -5 15 -15v-540h5l360 540c6 10 15 15 30 15z" />
    <glyph glyph-name="afii10027" unicode="&#x419;" horiz-adv-x="780" 
d="M360 870h60c30 0 50 20 50 50v15c0 10 5 15 15 15h55c10 0 15 -5 15 -15v-25c0 -80 -40 -120 -125 -120h-80c-85 0 -125 40 -125 120v25c0 10 5 15 15 15h55c10 0 15 -5 15 -15v-15c0 -30 20 -50 50 -50zM590 700h75c10 0 15 -5 15 -15v-670c0 -10 -5 -15 -15 -15h-65
c-10 0 -15 5 -15 15v540h-5l-360 -540c-6 -10 -15 -15 -30 -15h-75c-10 0 -15 4 -15 15v670c0 10 5 15 15 15h65c10 0 15 -5 15 -15v-540h5l360 540c6 10 15 15 30 15z" />
    <glyph glyph-name="afii10028" unicode="&#x41a;" horiz-adv-x="692" 
d="M195 320v-305c0 -10 -5 -15 -15 -15h-65c-10 0 -15 5 -15 15v670c0 10 5 15 15 15h65c10 0 15 -5 15 -15v-275h190l150 275c5 10 10 15 25 15h70c10 0 15 -5 10 -15l-175 -315l195 -355c5 -10 0 -15 -10 -15h-70c-15 0 -20 5 -25 15l-165 305h-195z" />
    <glyph glyph-name="afii10029" unicode="&#x41b;" horiz-adv-x="750" 
d="M15 80h25c45 0 69 25 80 75l115 530c2 10 10 15 25 15h376c7 0 14 -5 14 -15v-670c0 -10 -5 -15 -15 -15h-65c-10 0 -15 5 -15 15v595h-240l-100 -455c-25 -115 -75 -165 -175 -165h-25c-9 0 -15 5 -15 15v60c0 10 5 15 15 15z" />
    <glyph glyph-name="afii10030" unicode="&#x41c;" horiz-adv-x="970" 
d="M500 0h-30c-20 0 -25 5 -30 15l-240 505h-5v-505c0 -10 -5 -15 -15 -15h-65c-10 0 -15 5 -15 15v670c0 10 5 15 15 15h75c20 0 25 -5 30 -15l263 -555h4l263 555c5 10 10 15 30 15h75c10 0 15 -5 15 -15v-670c0 -10 -5 -15 -15 -15h-65c-10 0 -15 5 -15 15v505h-5
l-240 -505c-5 -10 -10 -15 -30 -15z" />
    <glyph glyph-name="afii10031" unicode="&#x41d;" horiz-adv-x="760" 
d="M565 400v285c0 10 5 15 15 15h65c10 0 15 -5 15 -15v-670c0 -10 -5 -15 -15 -15h-65c-10 0 -15 5 -15 14v296h-370v-295c0 -10 -5 -15 -15 -15h-65c-10 0 -15 5 -15 15v670c0 10 5 15 15 15h65c10 0 15 -5 15 -15v-285h370z" />
    <glyph glyph-name="afii10032" unicode="&#x41e;" horiz-adv-x="790" 
d="M90 165v370c0 115 60 175 180 175h250c120 0 180 -60 180 -175v-370c0 -115 -60 -175 -180 -175h-250c-120 0 -180 60 -180 175zM605 165v370c0 55 -30 85 -85 85h-250c-55 0 -85 -30 -85 -85v-370c0 -55 30 -85 85 -85h250c55 0 85 30 85 85z" />
    <glyph glyph-name="afii10033" unicode="&#x41f;" horiz-adv-x="760" 
d="M115 700h530c10 0 15 -5 15 -15v-670c0 -10 -5 -15 -15 -15h-65c-10 0 -15 5 -15 15v595h-370v-595c0 -10 -5 -15 -15 -15h-65c-10 0 -15 5 -15 15v670c0 10 5 15 15 15z" />
    <glyph glyph-name="afii10034" unicode="&#x420;" horiz-adv-x="730" 
d="M195 310h285c55 0 85 30 85 85v130c0 55 -30 85 -85 85h-285v-300zM480 220h-285v-205c0 -10 -5 -15 -15 -15h-65c-10 0 -15 5 -15 15v670c0 10 5 15 15 15h365c120 0 180 -60 180 -175v-130c0 -115 -60 -175 -180 -175z" />
    <glyph glyph-name="afii10035" unicode="&#x421;" horiz-adv-x="750" 
d="M90 165v370c0 115 60 175 180 175h230c120 0 180 -60 180 -175v-40c0 -10 -5 -15 -15 -15h-65c-10 0 -15 5 -15 15v40c0 55 -30 85 -85 85h-230c-55 0 -85 -30 -85 -85v-370c0 -55 30 -85 85 -85h230c55 0 85 30 85 85v40c0 10 5 15 15 15h65c10 0 15 -5 15 -15v-40
c0 -115 -60 -175 -180 -175h-230c-120 0 -180 60 -180 175z" />
    <glyph glyph-name="afii10036" unicode="&#x422;" 
d="M340 610v-595c0 -10 -5 -15 -15 -15h-65c-10 0 -15 5 -15 15v595h-220c-10 0 -15 5 -15 15v60c0 10 5 15 15 15h535c10 0 15 -5 15 -15v-60c0 -10 -5 -15 -15 -15h-220z" />
    <glyph glyph-name="afii10037" unicode="&#x423;" horiz-adv-x="624" 
d="M272 160l-260 525c-5 10 0 15 10 15h70c15 0 20 -5 25 -15l200 -415h5l185 415c4 10 10 15 25 15h70c10 0 14 -5 10 -15l-240 -525c-50 -110 -110 -170 -200 -170h-30c-9 0 -15 5 -15 15v60c0 10 5 15 15 15h30c50 0 75 25 100 80z" />
    <glyph glyph-name="afii10038" unicode="&#x424;" horiz-adv-x="935" 
d="M175 485v-260c0 -55 30 -85 85 -85h160v430h-160c-55 0 -85 -30 -85 -85zM435 760h65c10 0 15 -5 15 -15v-85h160c120 0 180 -60 180 -175v-260c0 -115 -60 -175 -180 -175h-160v-85c0 -10 -5 -15 -15 -15h-65c-10 0 -15 5 -15 15v85h-160c-120 0 -180 60 -180 175v260
c0 115 60 175 180 175h160v85c0 10 5 15 15 15zM760 225v260c0 55 -30 85 -85 85h-160v-430h160c55 0 85 30 85 85z" />
    <glyph glyph-name="afii10039" unicode="&#x425;" horiz-adv-x="646" 
d="M323 445l160 240c7 10 15 15 25 15h80c10 0 16 -7 10 -15l-215 -315l240 -355c6 -9 0 -15 -10 -15h-80c-10 0 -18 5 -25 15l-185 280l-185 -280c-7 -10 -15 -15 -25 -15h-80c-10 0 -16 6 -10 15l240 355l-215 315c-6 8 0 15 10 15h80c10 0 18 -5 25 -15z" />
    <glyph glyph-name="afii10040" unicode="&#x426;" horiz-adv-x="754" 
d="M580 0h-465c-10 0 -15 5 -15 15v670c0 10 5 15 15 15h65c10 0 15 -5 15 -15v-595h350v595c0 10 5 15 15 15h65c10 0 15 -5 15 -15v-610l100 -110c5 -5 5 -15 0 -20l-50 -45c-6 -5 -15 -5 -20 0z" />
    <glyph glyph-name="afii10041" unicode="&#x427;" horiz-adv-x="730" 
d="M535 330v355c0 10 5 15 15 15h65c10 0 15 -5 15 -15v-670c0 -10 -5 -15 -15 -15h-65c-10 0 -15 5 -15 15v225h-265c-120 0 -180 60 -180 175v270c0 10 5 15 15 15h65c10 0 15 -5 15 -15v-270c0 -55 30 -85 85 -85h265z" />
    <glyph glyph-name="afii10042" unicode="&#x428;" horiz-adv-x="1015" 
d="M900 0h-785c-10 0 -15 5 -15 15v670c0 10 5 15 15 15h65c10 0 15 -5 15 -15v-595h265v595c0 10 5 15 15 15h65c10 0 15 -5 15 -15v-595h265v595c0 10 5 15 15 15h65c10 0 15 -5 15 -15v-670c0 -10 -5 -15 -15 -15z" />
    <glyph glyph-name="afii10043" unicode="&#x429;" horiz-adv-x="1029" 
d="M1015 -55l-50 -45c-6 -5 -15 -5 -20 0l-90 100h-740c-10 0 -15 5 -15 15v670c0 10 5 15 15 15h65c10 0 15 -5 15 -15v-595h265v595c0 10 5 15 15 15h65c10 0 15 -5 15 -15v-595h265v595c0 10 5 15 15 15h65c10 0 15 -5 15 -15v-610l100 -110c5 -5 5 -15 0 -20z" />
    <glyph glyph-name="afii10044" unicode="&#x42a;" horiz-adv-x="750" 
d="M255 480h235c120 0 180 -60 180 -175v-130c0 -115 -60 -175 -180 -175h-315c-10 0 -15 5 -15 15v595h-145c-10 0 -15 5 -15 15v60c0 10 5 15 15 15h225c10 0 15 -5 15 -15v-205zM490 390h-235v-300h235c55 0 85 30 85 85v130c0 55 -30 85 -85 85z" />
    <glyph glyph-name="afii10045" unicode="&#x42b;" horiz-adv-x="915" 
d="M430 390h-235v-300h235c55 0 85 30 85 85v130c0 55 -30 85 -85 85zM195 480h235c120 0 180 -60 180 -175v-130c0 -115 -60 -175 -180 -175h-315c-10 0 -15 5 -15 15v670c0 10 5 15 15 15h65c10 0 15 -5 15 -15v-205zM815 685v-670c0 -10 -5 -15 -15 -15h-65
c-10 0 -15 5 -15 15v670c0 10 5 15 15 15h65c10 0 15 -5 15 -15z" />
    <glyph glyph-name="afii10046" unicode="&#x42c;" horiz-adv-x="730" 
d="M470 390h-275v-300h275c55 0 85 30 85 85v130c0 55 -30 85 -85 85zM195 480h275c120 0 180 -60 180 -175v-130c0 -115 -60 -175 -180 -175h-355c-10 0 -15 5 -15 15v670c0 10 5 15 15 15h65c10 0 15 -5 15 -15v-205z" />
    <glyph glyph-name="afii10047" unicode="&#x42d;" horiz-adv-x="750" 
d="M660 535v-370c0 -115 -60 -175 -180 -175h-230c-120 0 -180 60 -180 175v40c0 10 5 15 15 15h65c10 0 15 -5 15 -15v-40c0 -55 30 -85 85 -85h230c55 0 85 30 85 85v145h-240c-10 0 -15 5 -15 15v60c0 10 5 15 15 15h240v135c0 55 -30 85 -85 85h-230
c-55 0 -85 -30 -85 -85v-40c0 -10 -5 -15 -15 -15h-65c-10 0 -15 5 -15 15v40c0 115 60 175 180 175h230c120 0 180 -60 180 -175z" />
    <glyph glyph-name="afii10048" unicode="&#x42e;" horiz-adv-x="1005" 
d="M915 535v-370c0 -115 -60 -175 -180 -175h-200c-120 0 -180 60 -180 175v135h-160v-285c0 -10 -5 -15 -15 -15h-65c-10 0 -15 5 -15 15v670c0 10 5 15 15 15h65c10 0 15 -5 15 -15v-295h160v145c0 115 60 175 180 175h200c120 0 180 -60 180 -175zM450 535v-370
c0 -55 30 -85 85 -85h200c55 0 85 30 85 85v370c0 55 -30 85 -85 85h-200c-55 0 -85 -30 -85 -85z" />
    <glyph glyph-name="afii10049" unicode="&#x42f;" horiz-adv-x="737" 
d="M72 15l130 235s-115 15 -115 165v110c0 115 60 175 180 175h355c10 0 15 -5 15 -15v-670c0 -10 -5 -15 -15 -15h-65c-10 0 -15 5 -15 15v225h-245l-120 -225c-5 -10 -10 -15 -25 -15h-70c-10 0 -15 5 -10 15zM267 330h275v280h-275c-55 0 -85 -30 -85 -85v-110
c0 -55 30 -85 85 -85z" />
    <glyph glyph-name="afii10065" unicode="&#x430;" horiz-adv-x="560" 
d="M60 135v20c0 95 50 145 150 145h185v65c0 45 -30 75 -75 75h-70c-45 0 -75 -30 -75 -75v0c0 -10 -5 -15 -15 -15h-55c-10 0 -15 5 -15 15v0c0 100 55 155 160 155h70c105 0 160 -55 160 -155v-350c0 -10 -5 -15 -15 -15h-55c-10 0 -15 5 -15 15v35h-5s-25 -60 -110 -60
h-70c-100 0 -150 50 -150 145zM145 155v-20c0 -40 25 -65 65 -65h80c60 0 105 45 105 105v45h-185c-40 0 -65 -25 -65 -65z" />
    <glyph glyph-name="afii10066" unicode="&#x431;" horiz-adv-x="560" 
d="M155 350v-205c0 -45 30 -75 75 -75h110c45 0 75 30 75 75v130c0 45 -30 75 -75 75h-185zM70 145v325c0 100 55 156 160 165l120 10c30 3 45 20 45 45v5c0 10 5 15 15 15h55c10 0 15 -5 15 -15v-5c0 -85 -40 -123 -130 -130l-120 -10c-45 -4 -75 -35 -75 -80v-40h185
c105 0 160 -55 160 -155v-130c0 -100 -55 -155 -160 -155h-110c-105 0 -160 55 -160 155z" />
    <glyph glyph-name="afii10067" unicode="&#x432;" horiz-adv-x="555" 
d="M165 80h190c40 0 65 25 65 65v10c0 40 -25 65 -65 65h-190v-140zM165 300h160c40 0 65 25 65 65s-25 65 -65 65h-160v-130zM355 0h-260c-10 0 -15 5 -15 15v480c0 10 5 15 15 15h230c100 0 150 -50 150 -145c0 -80 -65 -95 -65 -95v-5s95 -15 95 -110v-10
c0 -95 -50 -145 -150 -145z" />
    <glyph glyph-name="afii10068" unicode="&#x433;" horiz-adv-x="440" 
d="M150 0h-55c-10 0 -15 5 -15 15v480c0 10 5 15 15 15h330c10 0 15 -5 15 -15v-50c0 -10 -5 -15 -15 -15h-260v-415c0 -10 -5 -15 -15 -15z" />
    <glyph glyph-name="afii10069" unicode="&#x434;" horiz-adv-x="560" 
d="M380 80v350h-165l-70 -350h235zM465 495v-415h50c10 0 15 -5 15 -15v-160c0 -10 -5 -15 -15 -15h-55c-10 0 -15 5 -15 15v95h-360v-95c0 -10 -5 -15 -15 -15h-55c-10 0 -15 5 -15 15v160c0 10 5 15 15 15h45l85 415c2 10 10 15 25 15h280c10 0 15 -5 15 -15z" />
    <glyph glyph-name="afii10070" unicode="&#x435;" horiz-adv-x="580" 
d="M155 300h270v65c0 45 -30 75 -75 75h-120c-45 0 -75 -30 -75 -75v-65zM495 220h-340v-75c0 -45 30 -75 75 -75h120c45 0 75 30 75 75v5c0 10 5 15 15 15h55c10 0 15 -5 15 -15v-5c0 -100 -55 -155 -160 -155h-120c-105 0 -160 55 -160 155v220c0 100 55 155 160 155h120
c105 0 160 -55 160 -155v-130c0 -10 -5 -15 -15 -15z" />
    <glyph glyph-name="afii10072" unicode="&#x436;" horiz-adv-x="739" 
d="M622 15l-115 215h-95v-215c0 -10 -5 -15 -15 -15h-55c-10 0 -15 5 -15 15v215h-95l-115 -215c-5 -10 -10 -15 -25 -15h-60c-10 0 -15 5 -10 15l140 255l-125 225c-5 10 0 15 10 15h60c15 0 20 -5 25 -15l100 -185h95v185c0 10 5 15 15 15h55c10 0 15 -5 15 -15v-185h95
l100 185c5 10 10 15 25 15h60c10 0 15 -5 10 -15l-125 -225l140 -255c5 -10 0 -15 -10 -15h-60c-15 0 -20 5 -25 15z" />
    <glyph glyph-name="afii10073" unicode="&#x437;" horiz-adv-x="550" 
d="M340 -10h-130c-105 0 -160 55 -160 155v25c0 10 5 15 15 15h55c10 0 15 -5 15 -15v-25c0 -45 30 -75 75 -75h130c40 0 65 25 65 65v20c0 40 -25 65 -65 65h-85c-10 0 -15 5 -15 15v50c0 10 5 15 15 15h75c40 0 65 25 65 65v10c0 40 -25 65 -65 65h-110
c-45 0 -75 -30 -75 -75v-25c0 -10 -5 -15 -15 -15h-55c-10 0 -15 5 -15 15v25c0 100 55 155 160 155h110c100 0 150 -50 150 -145v-10c0 -80 -75 -95 -75 -95v-5s85 -15 85 -110v-20c0 -95 -50 -145 -150 -145z" />
    <glyph glyph-name="afii10074" unicode="&#x438;" horiz-adv-x="595" 
d="M440 510h60c10 0 15 -5 15 -15v-480c0 -10 -5 -15 -15 -15h-55c-10 0 -15 5 -15 15v365h-5l-240 -365c-6 -10 -10 -15 -30 -15h-60c-10 0 -15 5 -15 15v480c0 10 5 15 15 15h55c10 0 15 -5 15 -15v-365h5l240 365c6 10 10 15 30 15z" />
    <glyph glyph-name="afii10075" unicode="&#x439;" horiz-adv-x="595" 
d="M325 590h-55c-75 0 -115 40 -115 110v25c0 10 5 15 15 15h45c10 0 15 -5 15 -15v-25c0 -25 15 -40 40 -40h55c25 0 40 15 40 40v25c0 10 5 15 15 15h45c10 0 15 -5 15 -15v-25c0 -70 -40 -110 -115 -110zM440 510h60c10 0 15 -5 15 -15v-480c0 -10 -5 -15 -15 -15h-55
c-10 0 -15 5 -15 15v365h-5l-240 -365c-6 -10 -10 -15 -30 -15h-60c-10 0 -15 5 -15 15v480c0 10 5 15 15 15h55c10 0 15 -5 15 -15v-365h5l240 365c6 10 10 15 30 15z" />
    <glyph glyph-name="afii10076" unicode="&#x43a;" horiz-adv-x="522" 
d="M405 15l-115 215h-125v-215c0 -10 -5 -15 -15 -15h-55c-10 0 -15 5 -15 15v480c0 10 5 15 15 15h55c10 0 15 -5 15 -15v-185h125l100 185c5 10 10 15 25 15h60c10 0 15 -5 10 -15l-125 -225l140 -255c5 -10 0 -15 -10 -15h-60c-15 0 -20 5 -25 15z" />
    <glyph glyph-name="afii10077" unicode="&#x43b;" horiz-adv-x="575" 
d="M245 430l-60 -295c-20 -100 -65 -145 -155 -145h-15c-10 0 -15 5 -15 15v50c0 10 5 15 15 15h15c35 0 61 24 70 65l75 360c2 10 10 15 25 15h280c10 0 15 -5 15 -15v-480c0 -10 -5 -15 -15 -15h-55c-10 0 -15 5 -15 15v415h-165z" />
    <glyph glyph-name="afii10078" unicode="&#x43c;" horiz-adv-x="735" 
d="M365 110h5l180 385c5 10 10 15 30 15h60c10 0 15 -5 15 -15v-480c0 -10 -5 -15 -15 -15h-55c-10 0 -15 5 -15 15v330h-5l-155 -330c-5 -10 -10 -15 -30 -15h-25c-20 0 -25 5 -30 15l-155 330h-5v-330c0 -10 -5 -15 -15 -15h-55c-10 0 -15 5 -15 15v480c0 10 5 15 15 15
h60c20 0 25 -5 30 -15z" />
    <glyph glyph-name="afii10079" unicode="&#x43d;" 
d="M420 220h-255v-205c0 -10 -5 -15 -15 -15h-55c-10 0 -15 5 -15 15v480c0 10 5 15 15 15h55c10 0 15 -5 15 -15v-200h255v200c0 10 5 15 15 15h55c10 0 15 -5 15 -15v-480c0 -10 -5 -15 -15 -15h-55c-10 0 -15 5 -15 15v205z" />
    <glyph glyph-name="afii10080" unicode="&#x43e;" 
d="M430 145v220c0 45 -30 75 -75 75h-125c-45 0 -75 -30 -75 -75v-220c0 -45 30 -75 75 -75h125c45 0 75 30 75 75zM515 365v-220c0 -100 -55 -155 -160 -155h-125c-105 0 -160 55 -160 155v220c0 100 55 155 160 155h125c105 0 160 -55 160 -155z" />
    <glyph glyph-name="afii10081" unicode="&#x43f;" 
d="M490 0h-55c-10 0 -15 5 -15 15v415h-255v-415c0 -10 -5 -15 -15 -15h-55c-10 0 -15 5 -15 15v480c0 10 5 15 15 15h395c10 0 15 -5 15 -15v-480c0 -10 -5 -15 -15 -15z" />
    <glyph glyph-name="afii10082" unicode="&#x440;" 
d="M165 80h190c45 0 75 30 75 75v210c0 45 -30 75 -75 75h-85c-60 0 -105 -45 -105 -105v-255zM355 0h-190v-175c0 -10 -5 -15 -15 -15h-55c-10 0 -15 5 -15 15v670c0 10 5 15 15 15h55c10 0 15 -5 15 -15v-35h5s25 60 110 60h75c105 0 160 -55 160 -155v-210
c0 -100 -55 -155 -160 -155z" />
    <glyph glyph-name="afii10083" unicode="&#x441;" horiz-adv-x="565" 
d="M155 365v-220c0 -45 30 -75 75 -75h115c45 0 75 30 75 75v25c0 10 5 15 15 15h55c10 0 15 -5 15 -15v-25c0 -100 -55 -155 -160 -155h-115c-105 0 -160 55 -160 155v220c0 100 55 155 160 155h115c105 0 160 -55 160 -155v-25c0 -10 -5 -15 -15 -15h-55
c-10 0 -15 5 -15 15v25c0 45 -30 75 -75 75h-115c-45 0 -75 -30 -75 -75z" />
    <glyph glyph-name="afii10084" unicode="&#x442;" horiz-adv-x="445" 
d="M250 0h-55c-10 0 -15 5 -15 15v415h-155c-10 0 -15 5 -15 15v50c0 10 5 15 15 15h395c10 0 15 -5 15 -15v-50c0 -10 -5 -15 -15 -15h-155v-415c0 -10 -5 -15 -15 -15z" />
    <glyph glyph-name="afii10085" unicode="&#x443;" horiz-adv-x="509" 
d="M257 120l140 375c4 10 10 15 25 15h60c10 0 14 -5 10 -15l-195 -495c-55 -140 -105 -190 -195 -190h-20c-10 0 -15 5 -15 15v50c0 10 5 15 15 15h20c50 0 80 30 110 110l-195 495c-4 10 0 15 10 15h60c15 0 21 -5 25 -15l140 -375h5z" />
    <glyph glyph-name="afii10086" unicode="&#x444;" horiz-adv-x="755" 
d="M230 510h105v175c0 10 5 15 15 15h55c10 0 15 -5 15 -15v-175h105c105 0 160 -55 160 -155v-200c0 -100 -55 -155 -160 -155h-105v-175c0 -10 -5 -15 -15 -15h-55c-10 0 -15 5 -15 15v175h-105c-105 0 -160 55 -160 155v200c0 100 55 155 160 155zM335 430h-105
c-45 0 -75 -30 -75 -75v-200c0 -45 30 -75 75 -75h105v350zM420 80h105c45 0 75 30 75 75v200c0 45 -30 75 -75 75h-105v-350z" />
    <glyph glyph-name="afii10087" unicode="&#x445;" horiz-adv-x="476" 
d="M128 495l110 -170l110 170c6 10 10 15 25 15h60c10 0 16 -5 10 -15l-150 -230l165 -250c6 -9 0 -15 -10 -15h-60c-15 0 -19 5 -25 15l-125 190l-125 -190c-6 -10 -10 -15 -25 -15h-60c-10 0 -16 6 -10 15l165 250l-150 230c-6 10 0 15 10 15h60c15 0 19 -5 25 -15z" />
    <glyph glyph-name="afii10088" unicode="&#x446;" horiz-adv-x="589" 
d="M435 0h-340c-10 0 -15 5 -15 15v480c0 10 5 15 15 15h55c10 0 15 -5 15 -15v-415h245v415c0 10 5 15 15 15h55c10 0 15 -5 15 -15v-430l90 -100c5 -5 5 -15 0 -20l-45 -40c-6 -5 -15 -5 -20 0z" />
    <glyph glyph-name="afii10089" unicode="&#x447;" horiz-adv-x="565" 
d="M155 495v-170c0 -45 30 -75 75 -75h170v245c0 10 5 15 15 15h55c10 0 15 -5 15 -15v-480c0 -10 -5 -15 -15 -15h-55c-10 0 -15 5 -15 15v155h-170c-105 0 -160 55 -160 155v170c0 10 5 15 15 15h55c10 0 15 -5 15 -15z" />
    <glyph glyph-name="afii10090" unicode="&#x448;" horiz-adv-x="805" 
d="M95 510h55c10 0 15 -5 15 -15v-415h195v415c0 10 5 15 15 15h55c10 0 15 -5 15 -15v-415h195v415c0 10 5 15 15 15h55c10 0 15 -5 15 -15v-480c0 -10 -5 -15 -15 -15h-615c-10 0 -15 5 -15 15v480c0 10 5 15 15 15z" />
    <glyph glyph-name="afii10091" unicode="&#x449;" horiz-adv-x="819" 
d="M665 0h-570c-10 0 -15 5 -15 15v480c0 10 5 15 15 15h55c10 0 15 -5 15 -15v-415h195v415c0 10 5 15 15 15h55c10 0 15 -5 15 -15v-415h195v415c0 10 5 15 15 15h55c10 0 15 -5 15 -15v-430l90 -100c5 -5 5 -15 0 -20l-45 -40c-6 -5 -15 -5 -20 0z" />
    <glyph glyph-name="afii10092" unicode="&#x44a;" 
d="M375 0h-225c-10 0 -15 5 -15 15v415h-120c-10 0 -15 5 -15 15v50c0 10 5 15 15 15h190c10 0 15 -5 15 -15v-155h155c100 0 150 -50 150 -145v-50c0 -95 -50 -145 -150 -145zM375 80c40 0 65 25 65 65v50c0 40 -25 65 -65 65h-155v-180h155z" />
    <glyph glyph-name="afii10093" unicode="&#x44b;" horiz-adv-x="720" 
d="M320 80c40 0 65 25 65 65v50c0 40 -25 65 -65 65h-155v-180h155zM320 0h-225c-10 0 -15 5 -15 15v480c0 10 5 15 15 15h55c10 0 15 -5 15 -15v-155h155c100 0 150 -50 150 -145v-50c0 -95 -50 -145 -150 -145zM640 495v-480c0 -10 -5 -15 -15 -15h-55c-10 0 -15 5 -15 15
v480c0 10 5 15 15 15h55c10 0 15 -5 15 -15z" />
    <glyph glyph-name="afii10094" unicode="&#x44c;" horiz-adv-x="550" 
d="M340 80c40 0 65 25 65 65v50c0 40 -25 65 -65 65h-175v-180h175zM340 0h-245c-10 0 -15 5 -15 15v480c0 10 5 15 15 15h55c10 0 15 -5 15 -15v-155h175c100 0 150 -50 150 -145v-50c0 -95 -50 -145 -150 -145z" />
    <glyph glyph-name="afii10095" unicode="&#x44d;" horiz-adv-x="565" 
d="M410 145v75h-135c-10 0 -15 5 -15 15v50c0 10 5 15 15 15h135v65c0 45 -30 75 -75 75h-115c-45 0 -75 -30 -75 -75v-25c0 -10 -5 -15 -15 -15h-55c-10 0 -15 5 -15 15v25c0 100 55 155 160 155h115c105 0 160 -55 160 -155v-220c0 -100 -55 -155 -160 -155h-115
c-105 0 -160 55 -160 155v25c0 10 5 15 15 15h55c10 0 15 -5 15 -15v-25c0 -45 30 -75 75 -75h115c45 0 75 30 75 75z" />
    <glyph glyph-name="afii10096" unicode="&#x44e;" horiz-adv-x="780" 
d="M710 365v-220c0 -100 -55 -155 -160 -155h-100c-105 0 -160 55 -160 155v75h-125v-205c0 -10 -5 -15 -15 -15h-55c-10 0 -15 5 -15 15v480c0 10 5 15 15 15h55c10 0 15 -5 15 -15v-200h125v70c0 100 55 155 160 155h100c105 0 160 -55 160 -155zM625 145v220
c0 45 -30 75 -75 75h-100c-45 0 -75 -30 -75 -75v-220c0 -45 30 -75 75 -75h100c45 0 75 30 75 75z" />
    <glyph glyph-name="afii10097" unicode="&#x44f;" horiz-adv-x="543" 
d="M203 510h245c10 0 15 -5 15 -15v-480c0 -10 -5 -15 -15 -15h-55c-10 0 -15 5 -15 15v155h-145l-85 -155c-5 -10 -10 -15 -25 -15h-60c-10 0 -16 5 -10 15l90 165s-90 15 -90 135v50c0 95 50 145 150 145zM203 430c-40 0 -65 -25 -65 -65v-50c0 -40 25 -65 65 -65h175v180
h-175z" />
    <glyph glyph-name="AE" unicode="&#xc6;" horiz-adv-x="1048" 
d="M603 90h390c10 0 15 -5 15 -15v-60c0 -10 -5 -15 -14 -15h-471c-10 0 -15 5 -15 15v165h-345l-65 -165c-5 -10 -10 -15 -25 -15h-60c-10 0 -15 5 -11 15l261 670c5 10 10 15 24 15h696c10 0 15 -5 15 -15v-60c0 -10 -5 -15 -14 -15h-381v-210h290c10 0 15 -5 15 -15v-60
c0 -10 -5 -15 -14 -15h-291v-220zM508 270v340h-180l-130 -340h310z" />
    <glyph glyph-name="Dcroat" unicode="&#x110;" horiz-adv-x="805" 
d="M140 700h395c120 0 180 -60 180 -175v-350c0 -115 -60 -175 -180 -175h-395c-10 0 -15 5 -15 15v285h-70c-10 0 -15 5 -15 15v60c0 10 5 15 15 15h70v295c0 10 5 15 15 15zM390 375v-60c0 -10 -5 -15 -15 -15h-155v-210h315c55 0 85 30 85 85v350c0 55 -30 85 -85 85
h-315v-220h155c10 0 15 -5 15 -15z" />
    <glyph glyph-name="Eth" unicode="&#xd0;" horiz-adv-x="805" 
d="M140 700h395c120 0 180 -60 180 -175v-350c0 -115 -60 -175 -180 -175h-395c-10 0 -15 5 -15 15v285h-70c-10 0 -15 5 -15 15v60c0 10 5 15 15 15h70v295c0 10 5 15 15 15zM390 375v-60c0 -10 -5 -15 -15 -15h-155v-210h315c55 0 85 30 85 85v350c0 55 -30 85 -85 85
h-315v-220h155c10 0 15 -5 15 -15z" />
    <glyph glyph-name="Lslash" unicode="&#x141;" horiz-adv-x="660" 
d="M120 375v310c0 10 5 15 15 15h65c10 0 15 -5 15 -15v-275l95 35c10 4 15 0 15 -10v-45c0 -10 -5 -16 -15 -20l-95 -35v-245h410c10 0 15 -5 15 -15v-60c0 -10 -5 -15 -15 -15h-490c-10 0 -15 5 -15 16v284l-95 -35c-10 -4 -15 0 -15 10v45c0 10 5 16 15 20z" />
    <glyph glyph-name="ae" unicode="&#xe6;" horiz-adv-x="880" 
d="M795 220h-315v-75c0 -45 30 -75 75 -75h95c45 0 75 30 75 75v5c0 10 5 15 15 15h55c10 0 15 -5 15 -15v-5c0 -100 -55 -155 -160 -155h-95c-85 0 -119 60 -120 60h-5s-35 -60 -140 -60h-80c-100 0 -150 50 -150 145v20c0 95 50 145 150 145h185v65c0 45 -30 75 -75 75
h-70c-45 0 -75 -30 -75 -75c0 -10 -5 -15 -15 -15h-55c-10 0 -15 5 -15 15c0 100 55 155 160 155h70c85 0 120 -60 120 -60h5s35 60 110 60h95c105 0 160 -55 160 -155v-130c0 -10 -5 -15 -15 -15zM145 155v-20c0 -40 25 -65 65 -65h80c60 0 105 45 105 105v45h-185
c-40 0 -65 -25 -65 -65zM480 300h245v65c0 45 -30 75 -75 75h-95c-45 0 -75 -30 -75 -75v-65z" />
    <glyph glyph-name="dcroat" unicode="&#x111;" horiz-adv-x="570" 
d="M570 585v-50c0 -10 -5 -15 -15 -15h-70v-505c0 -10 -5 -15 -15 -15h-55c-10 0 -15 5 -15 15v35h-5s-25 -60 -110 -60h-75c-105 0 -160 55 -160 155v130c0 100 55 155 160 155h190v90h-120c-10 0 -15 5 -15 15v50c0 10 5 15 15 15h120v85c0 10 5 15 15 15h55
c10 0 15 -5 15 -15v-85h70c10 0 15 -5 15 -15zM400 350h-190c-45 0 -75 -30 -75 -75v-130c0 -45 30 -75 75 -75h85c60 0 105 45 105 105v175z" />
    <glyph glyph-name="eth" unicode="&#xf0;" horiz-adv-x="560" 
d="M190 535l20 55l-75 25c-10 3 -14 10 -10 20l20 50c3 8 10 8 20 5l75 -25l20 55c3 10 10 14 20 10l50 -15c10 -4 13 -12 10 -20l-20 -55l45 -15c76 -25 125 -75 125 -165v-315c0 -100 -55 -155 -160 -155h-110c-105 0 -160 55 -160 155v110c0 100 55 155 160 155h185v50
c0 45 -30 73 -75 90l-40 15l-20 -55c-4 -10 -10 -13 -20 -10l-50 15c-11 3 -13 11 -10 20zM220 70h110c45 0 75 30 75 75v185h-185c-45 0 -75 -30 -75 -75v-110c0 -45 30 -75 75 -75z" />
    <glyph glyph-name="lslash" unicode="&#x142;" horiz-adv-x="305" 
d="M290 445c10 4 15 0 15 -10v-45c0 -10 -5 -16 -15 -20l-95 -35v-320c0 -10 -5 -15 -15 -15h-55c-10 0 -15 5 -15 15v290l-95 -35c-10 -4 -15 0 -15 10v45c0 10 5 16 15 20l95 35v305c0 10 5 15 15 15h55c10 0 15 -5 15 -15v-275z" />
    <glyph glyph-name="Oslash" unicode="&#xd8;" horiz-adv-x="790" 
d="M605 535c0 20 -5 30 -5 30l-360 -480s15 -5 30 -5h250c55 0 85 30 85 85v370zM185 535v-370c0 -20 5 -30 5 -30l360 480s-15 5 -30 5h-250c-55 0 -85 -30 -85 -85zM90 165v370c0 115 60 175 180 175h250c120 0 180 -60 180 -175v-370c0 -115 -60 -175 -180 -175h-250
c-120 0 -180 60 -180 175z" />
    <glyph glyph-name="OE" unicode="&#x152;" horiz-adv-x="1070" 
d="M625 90h390c10 0 15 -5 15 -15v-60c0 -10 -5 -15 -14 -15h-746c-120 0 -180 60 -180 175v350c0 115 60 175 180 175h735c10 0 15 -5 15 -15v-60c0 -10 -5 -15 -14 -15h-381v-210h290c10 0 15 -5 15 -15v-60c0 -10 -5 -15 -14 -15h-291v-220zM185 175c0 -55 30 -85 85 -85
h260v520h-260c-55 0 -85 -30 -85 -85v-350z" />
    <glyph glyph-name="Thorn" unicode="&#xde;" horiz-adv-x="765" 
d="M115 700h65c10 0 15 -5 15 -15v-75h310c120 0 180 -60 180 -175v-170c0 -115 -60 -175 -180 -175h-310v-75c0 -10 -5 -15 -15 -15h-65c-10 0 -15 5 -15 15v670c0 10 5 15 15 15zM590 265v170c0 55 -30 85 -85 85h-310v-340h310c55 0 85 30 85 85z" />
    <glyph glyph-name="oslash" unicode="&#xf8;" 
d="M515 365v-220c0 -100 -55 -155 -160 -155h-125c-105 0 -160 55 -160 155v220c0 100 55 155 160 155h125c105 0 160 -55 160 -155zM430 145v220c0 15 -5 25 -5 25l-230 -315s15 -5 35 -5h125c45 0 75 30 75 75zM155 145c0 -15 5 -25 5 -25l230 315s-15 5 -35 5h-125
c-45 0 -75 -30 -75 -75v-220z" />
    <glyph glyph-name="oe" unicode="&#x153;" horiz-adv-x="890" 
d="M405 145v220c0 45 -30 75 -75 75h-100c-45 0 -75 -30 -75 -75v-220c0 -45 30 -75 75 -75h100c45 0 75 30 75 75zM490 300h245v65c0 45 -30 75 -75 75h-95c-45 0 -75 -30 -75 -75v-65zM330 -10h-100c-105 0 -160 55 -160 155v220c0 100 55 155 160 155h100
c85 0 120 -60 120 -60h5s35 60 110 60h95c105 0 160 -55 160 -155v-130c0 -10 -5 -15 -15 -15h-315v-75c0 -45 30 -75 75 -75h95c45 0 75 30 75 75v5c0 10 5 15 15 15h55c10 0 15 -5 15 -15v-5c0 -100 -55 -155 -160 -155h-95c-75 0 -110 60 -110 60h-5s-36 -60 -120 -60z
" />
    <glyph glyph-name="thorn" unicode="&#xfe;" horiz-adv-x="580" 
d="M80 -175v860c0 10 5 15 15 15h55c10 0 15 -5 15 -15v-175h185c105 0 160 -55 160 -155v-200c0 -100 -55 -155 -160 -155h-185v-175c0 -10 -5 -15 -15 -15h-55c-10 0 -15 5 -15 15zM165 80h185c45 0 75 30 75 75v200c0 45 -30 75 -75 75h-185v-350z" />
    <glyph glyph-name="cent" unicode="&#xa2;" horiz-adv-x="565" 
d="M265 600h55c10 0 15 -5 15 -15v-65h10c105 0 160 -55 160 -155v-25c0 -10 -5 -15 -15 -15h-55c-10 0 -15 5 -15 15v25c0 45 -30 75 -75 75h-115c-45 0 -75 -30 -75 -75v-220c0 -45 30 -75 75 -75h115c45 0 75 30 75 75v25c0 10 5 15 15 15h55c10 0 15 -5 15 -15v-25
c0 -100 -55 -155 -160 -155h-10v-65c0 -10 -5 -15 -15 -15h-55c-10 0 -15 5 -15 15v65h-20c-105 0 -160 55 -160 155v220c0 100 55 155 160 155h20v65c0 10 5 15 15 15z" />
    <glyph glyph-name="florin" unicode="&#x192;" horiz-adv-x="360" 
d="M215 400v-450c0 -95 -55 -150 -155 -150h-55c-10 0 -15 5 -15 15v50c0 10 5 15 15 15h55c40 0 70 30 70 70v450h-75c-10 0 -15 5 -15 15v50c0 10 5 15 15 15h75v70c0 95 55 150 155 150h60c10 0 15 -5 15 -15v-50c0 -10 -5 -15 -15 -15h-60c-40 0 -70 -30 -70 -70v-70
h100c10 0 15 -5 15 -15v-50c0 -10 -5 -15 -15 -15h-100z" />
    <glyph glyph-name="germandbls" unicode="&#xdf;" horiz-adv-x="595" 
d="M165 545v-530c0 -10 -5 -15 -15 -15h-55c-10 0 -15 5 -15 15v530c0 100 55 155 160 155h85c105 0 160 -55 160 -155v-85c0 -75 -50 -90 -50 -90v-5s100 -15 100 -115v-95c0 -100 -55 -155 -160 -155h-50c-10 0 -15 5 -15 15v50c0 10 5 15 15 15h49c46 0 76 30 76 75v95
c0 40 -25 65 -65 65h-75c-10 0 -15 5 -15 15v50c0 10 5 15 15 15h25c40 0 65 25 65 65v85c0 45 -30 75 -75 75h-85c-45 0 -75 -30 -75 -75z" />
    <glyph glyph-name="Germandbls" horiz-adv-x="760" 
d="M280 700h1h379c10 0 15 -5 15 -15v-40c0 -15 -10 -25 -20 -35l-195 -185v-5h50c120 0 180 -60 180 -175v-70c0 -115 -60 -175 -180 -175h-135c-10 0 -15 5 -15 15v60c0 10 5 15 15 15h135c55 0 85 30 85 85v70c0 55 -30 85 -85 85h-175c-10 0 -15 5 -15 15v40
c0 15 10 25 20 35l195 185v5h-255c-55 0 -85 -30 -85 -85v-510c0 -10 -5 -15 -15 -15h-65c-10 0 -15 5 -15 15v510c0 115 60 175 180 175z" />
    <glyph glyph-name="uni1E9E" unicode="&#x1e9e;" horiz-adv-x="760" 
d="M280 700h1h379c10 0 15 -5 15 -15v-40c0 -15 -10 -25 -20 -35l-195 -185v-5h50c120 0 180 -60 180 -175v-70c0 -115 -60 -175 -180 -175h-135c-10 0 -15 5 -15 15v60c0 10 5 15 15 15h135c55 0 85 30 85 85v70c0 55 -30 85 -85 85h-175c-10 0 -15 5 -15 15v40
c0 15 10 25 20 35l195 185v5h-255c-55 0 -85 -30 -85 -85v-510c0 -10 -5 -15 -15 -15h-65c-10 0 -15 5 -15 15v510c0 115 60 175 180 175z" />
    <glyph glyph-name="yen" unicode="&#xa5;" horiz-adv-x="644" 
d="M507 100h-140v-86c0 -9 -5 -14 -15 -14h-60c-10 0 -15 5 -15 14v86h-140c-10 0 -15 5 -15 15v50c0 10 5 15 15 15h140v55h-140c-10 0 -15 5 -15 15v50c0 10 5 15 15 15h100l-225 370c-5 9 0 15 10 15h75c15 0 19 -5 25 -15l200 -340l200 340c6 10 10 15 25 15h75
c10 0 15 -6 10 -15l-225 -370h100c10 0 15 -5 15 -15v-50c0 -10 -5 -15 -15 -15h-140v-55h140c10 0 15 -5 15 -15v-50c0 -10 -5 -15 -15 -15z" />
    <glyph glyph-name="sterling" unicode="&#xa3;" horiz-adv-x="540" 
d="M525 0h-490c-10 0 -15 5 -15 15v60c0 10 5 15 15 15h115v220h-65c-10 0 -15 5 -15 15v60c0 10 5 15 15 15h65v125c0 115 60 175 180 175h75c10 0 15 -5 15 -15v-60c0 -10 -5 -15 -15 -15h-75c-55 0 -85 -30 -85 -85v-125h120c10 0 15 -5 15 -15v-60c0 -10 -5 -15 -15 -15
h-120v-220h280c10 0 15 -5 15 -15v-60c0 -10 -5 -15 -15 -15z" />
    <glyph glyph-name="uni20B4" unicode="&#x20b4;" horiz-adv-x="770" 
d="M85 460h465v75c0 55 -30 85 -85 85h-165c-55 0 -85 -30 -85 -85v-20c0 -10 -5 -15 -15 -15h-65c-10 0 -15 5 -15 15v20c0 115 60 175 180 175h165c120 0 180 -60 180 -175v-75h40c10 0 15 -5 15 -15v-50c0 -10 -5 -15 -15 -15h-600c-10 0 -15 5 -15 15v50
c0 10 5 15 15 15zM685 240h-465v-75c0 -55 30 -85 85 -85h165c55 0 85 30 85 85v20c0 10 5 15 15 15h65c10 0 15 -5 15 -15v-20c0 -115 -60 -175 -180 -175h-165c-120 0 -180 60 -180 175v75h-40c-10 0 -15 5 -15 15v50c0 10 5 15 15 15h600c10 0 15 -5 15 -15v-50
c0 -10 -5 -15 -15 -15z" />
    <glyph glyph-name="exclamdown" unicode="&#xa1;" horiz-adv-x="290" 
d="M125 310h40c10 0 14 -5 15 -15l10 -155v-315c0 -10 -5 -15 -15 -15h-60c-10 0 -15 5 -15 15v315l10 155c1 10 5 15 15 15zM115 510h60c10 0 15 -5 15 -15v-60c0 -10 -5 -15 -15 -15h-60c-10 0 -15 5 -15 15v60c0 10 5 15 15 15z" />
    <glyph glyph-name="questiondown" unicode="&#xbf;" horiz-adv-x="580" 
d="M240 240h40l10 55c2 10 5 15 15 15h40c10 0 14 -5 15 -15l15 -130c0 -10 -5 -15 -15 -15h-120c-55 0 -85 -30 -85 -85v-90c0 -55 30 -85 85 -85h150c55 0 85 30 85 85v30c0 10 5 15 15 15h65c10 0 15 -5 15 -15v-30c0 -115 -60 -175 -180 -175h-150
c-120 0 -180 60 -180 175v90c0 115 60 175 180 175zM295 510h60c10 0 15 -5 15 -15v-60c0 -10 -5 -15 -15 -15h-60c-10 0 -15 5 -15 15v60c0 10 5 15 15 15z" />
    <glyph glyph-name="acute" unicode="&#xb4;" horiz-adv-x="225" 
d="M192 685l-90 -135c-6 -10 -10 -15 -20 -15h-40c-10 0 -14 5 -10 15l60 135c5 10 10 15 20 15h70c10 0 16 -6 10 -15z" />
    <glyph glyph-name="hungarumlaut" unicode="&#x2dd;" horiz-adv-x="370" 
d="M182 685l-90 -140c-6 -10 -12 -15 -20 -15h-30c-10 0 -14 5 -10 15l60 140c4 10 10 15 20 15h60c10 0 16 -5 10 -15zM337 685l-90 -140c-6 -10 -12 -15 -20 -15h-30c-10 0 -14 5 -10 15l60 140c4 10 10 15 20 15h60c10 0 16 -5 10 -15z" />
    <glyph glyph-name="afii57929" unicode="&#x2bc;" horiz-adv-x="156" 
d="M126 685v-55c0 -15 -10 -30 -10 -30l-40 -80c-3 -5 -10 -10 -15 -10h-25c-5 0 -7 5 -5 10l45 90h-25c-10 0 -15 5 -15 15v60c0 10 5 15 15 15h60c10 0 15 -5 15 -15z" />
    <glyph glyph-name="breve" unicode="&#x2d8;" horiz-adv-x="345" 
d="M200 550h-55c-75 0 -115 40 -115 110v25c0 10 5 15 15 15h45c10 0 15 -5 15 -15v-25c0 -25 15 -40 40 -40h55c25 0 40 15 40 40v25c0 10 5 15 15 15h45c10 0 15 -5 15 -15v-25c0 -70 -40 -110 -115 -110z" />
    <glyph glyph-name="caron" unicode="&#x2c7;" horiz-adv-x="381" 
d="M213 525h-45c-10 0 -17 5 -25 15l-110 145c-7 9 0 15 10 15h55c5 0 13 -5 20 -15l70 -95h5l70 95c7 10 15 15 20 15h55c10 0 17 -6 10 -15l-110 -145c-8 -10 -15 -15 -25 -15z" />
    <glyph glyph-name="circumflex" unicode="&#x2c6;" horiz-adv-x="381" 
d="M168 700h45c10 0 17 -5 25 -15l110 -145c7 -9 0 -15 -10 -15h-55c-5 0 -13 5 -20 15l-70 95h-5l-70 -95c-7 -10 -15 -15 -20 -15h-55c-10 0 -17 6 -10 15l110 145c8 10 15 15 25 15z" />
    <glyph glyph-name="dieresis" unicode="&#xa8;" horiz-adv-x="330" 
d="M105 610h-60c-10 0 -15 5 -15 15v60c0 10 5 15 15 15h60c10 0 15 -5 15 -15v-60c0 -10 -5 -15 -15 -15zM285 610h-60c-10 0 -15 5 -15 15v60c0 10 5 15 15 15h60c10 0 15 -5 15 -15v-60c0 -10 -5 -15 -15 -15z" />
    <glyph glyph-name="dotaccent" unicode="&#x2d9;" horiz-adv-x="150" 
d="M105 610h-60c-10 0 -15 5 -15 15v60c0 10 5 15 15 15h60c10 0 15 -5 15 -15v-60c0 -10 -5 -15 -15 -15z" />
    <glyph glyph-name="tilde" unicode="&#x2dc;" horiz-adv-x="330" 
d="M230 555c-70 0 -90 80 -115 80c-10 0 -20 -10 -20 -20v-45c0 -10 -5 -15 -15 -15h-35c-11 0 -15 5 -15 15v60c0 40 30 70 70 70c70 0 90 -80 115 -80c10 0 20 10 20 20v45c0 10 5 15 15 15h35c11 0 15 -5 15 -15v-60c0 -40 -30 -70 -70 -70z" />
    <glyph glyph-name="ring" unicode="&#x2da;" horiz-adv-x="280" 
d="M90 605v-25c0 -25 15 -40 40 -40h20c25 0 40 15 40 40v25c0 25 -15 40 -40 40h-20c-25 0 -40 -15 -40 -40zM30 580v25c0 55 40 95 100 95h20c60 0 100 -40 100 -95v-25c0 -55 -40 -95 -100 -95h-20c-60 0 -100 40 -100 95z" />
    <glyph glyph-name="cyrbreve" unicode="&#xf6d4;" horiz-adv-x="345" 
d="M200 600h-55c-75 0 -115 40 -115 110v25c0 10 5 15 15 15h45c10 0 15 -5 15 -15v-25c0 -25 15 -40 40 -40h55c25 0 40 15 40 40v25c0 10 5 15 15 15h45c10 0 15 -5 15 -15v-25c0 -70 -40 -110 -115 -110z" />
    <glyph glyph-name="cyrBreve" unicode="&#xf6d1;" horiz-adv-x="390" 
d="M165 880h60c30 0 50 20 50 50v15c0 10 5 15 15 15h55c10 0 15 -5 15 -15v-25c0 -80 -40 -120 -125 -120h-80c-85 0 -125 40 -125 120v25c0 10 5 15 15 15h55c10 0 15 -5 15 -15v-15c0 -30 20 -50 50 -50z" />
    <glyph glyph-name="macron" unicode="&#xaf;" horiz-adv-x="340" 
d="M310 685v-40c0 -10 -5 -15 -15 -15h-250c-10 0 -15 5 -15 15v40c0 10 5 15 15 15h250c10 0 15 -5 15 -15z" />
    <glyph glyph-name="minus" unicode="&#x2212;" horiz-adv-x="435" 
d="M405 340v-60c0 -10 -5 -15 -15 -15h-345c-10 0 -15 5 -15 15v60c0 10 5 15 15 15h345c10 0 15 -5 15 -15z" />
    <glyph glyph-name="multiply" unicode="&#xd7;" horiz-adv-x="418" 
d="M374 415l-105 -105l105 -105c5 -5 5 -15 0 -20l-40 -40c-5 -5 -15 -5 -20 0l-105 105l-105 -105c-5 -5 -15 -5 -20 0l-40 40c-5 5 -5 15 0 20l105 105l-105 105c-5 5 -5 15 0 20l40 40c5 5 15 5 20 0l105 -105l105 105c5 5 15 5 20 0l40 -40c5 -5 5 -15 0 -20z" />
    <glyph glyph-name="divide" unicode="&#xf7;" horiz-adv-x="430" 
d="M400 340v-60c0 -10 -5 -15 -15 -15h-340c-10 0 -15 5 -15 15v60c0 10 5 15 15 15h340c10 0 15 -5 15 -15zM245 70h-60c-10 0 -15 5 -15 15v60c0 10 5 15 15 15h60c10 0 15 -5 15 -15v-60c0 -10 -5 -15 -15 -15zM245 460h-60c-10 0 -15 5 -15 15v60c0 10 5 15 15 15h60
c10 0 15 -5 15 -15v-60c0 -10 -5 -15 -15 -15z" />
    <glyph glyph-name="cedilla" unicode="&#xb8;" horiz-adv-x="245" 
d="M45 -200h75c20 0 35 15 35 35v10c0 20 -15 35 -35 35h-65c-10 0 -15 5 -15 15v35c0 20 10 30 10 30l25 40h55l-35 -60h25c55 0 95 -40 95 -95v-10c0 -55 -40 -95 -95 -95h-75c-10 0 -15 5 -15 15v30c0 10 5 15 15 15z" />
    <glyph glyph-name="ogonek" unicode="&#x2db;" horiz-adv-x="230" 
d="M140 0h60s-110 -50 -110 -120c0 -25 20 -45 45 -45h50c10 0 15 -5 15 -15v-35c0 -10 -5 -15 -15 -15h-50c-65 0 -105 40 -105 100c0 90 110 130 110 130z" />
    <glyph glyph-name="commaaccent" unicode="&#xf6c3;" horiz-adv-x="156" 
d="M126 -115v-55c0 -15 -10 -30 -10 -30l-40 -80c-3 -5 -10 -10 -15 -10h-25c-5 0 -7 5 -5 10l45 90h-25c-10 0 -15 5 -15 15v60c0 10 5 15 15 15h60c10 0 15 -5 15 -15z" />
    <glyph glyph-name="ordfeminine" unicode="&#xaa;" horiz-adv-x="375" 
d="M260 495v15h-120c-15 0 -25 -10 -25 -25v-15c0 -15 10 -25 25 -25h70c30 0 50 20 50 50zM125 600c0 -7 -3 -10 -10 -10h-55c-7 0 -10 3 -10 10c0 65 35 100 110 100h55c90 0 120 -30 120 -115v-185c0 -7 -3 -10 -10 -10h-55c-7 0 -10 3 -10 10v18h-5s-15 -38 -65 -38h-40
c-75 0 -110 35 -110 90v10c0 55 35 90 100 90h120v15c0 30 -15 45 -45 45h-55c-20 0 -35 -15 -35 -30z" />
    <glyph glyph-name="ordmasculine" unicode="&#xba;" horiz-adv-x="350" 
d="M320 575v-70c0 -90 -35 -125 -130 -125h-30c-95 0 -130 35 -130 125v70c0 90 35 125 130 125h30c95 0 130 -35 130 -125zM105 575v-70c0 -35 20 -55 55 -55h30c35 0 55 20 55 55v70c0 35 -20 55 -55 55h-30c-35 0 -55 -20 -55 -55z" />
    <glyph glyph-name="onesuperior" unicode="&#xb9;" horiz-adv-x="235" 
d="M120 730h-80c-7 0 -10 3 -10 10v50c0 7 3 10 10 10h145c7 0 10 -3 10 -10v-300c0 -7 -3 -10 -10 -10h-55c-7 0 -10 3 -10 10v240z" />
    <glyph glyph-name="twosuperior" unicode="&#xb2;" horiz-adv-x="325" 
d="M295 695c0 -40 -25 -63 -45 -75l-115 -65v-5h140c7 0 10 -3 10 -10v-50c0 -7 -3 -10 -10 -10h-235c-7 0 -10 3 -10 10v60c0 15 5 20 15 25l145 85s30 15 30 35v5c0 20 -10 30 -30 30h-50c-20 0 -35 -15 -35 -30c0 -7 -3 -10 -10 -10h-55c-7 0 -10 3 -10 10
c0 65 35 100 110 100h50c80 0 105 -25 105 -100v-5z" />
    <glyph glyph-name="threesuperior" unicode="&#xb3;" horiz-adv-x="325" 
d="M110 685l65 40v5h-130c-7 0 -10 3 -10 10v50c0 7 3 10 10 10h235c7 0 10 -3 10 -10v-50c0 -10 -5 -15 -15 -20l-65 -40v-5c60 0 85 -25 85 -75v-20c0 -75 -25 -100 -105 -100h-50c-75 0 -110 35 -110 100c0 7 3 10 10 10h55c7 0 10 -3 10 -10c0 -15 15 -30 35 -30h50
c20 0 30 10 30 30v20c0 20 -10 30 -30 30h-85c-5 0 -10 5 -10 10v25c0 10 5 15 15 20z" />
    <glyph glyph-name="foursuperior" unicode="&#x2074;" horiz-adv-x="320" 
d="M255 790v-180h35c7 0 10 -3 10 -10v-40c0 -7 -3 -10 -10 -10h-35v-60c0 -7 -3 -10 -10 -10h-55c-7 0 -10 3 -10 10v60h-160c-7 0 -10 3 -10 10v35c0 10 10 25 10 25l125 170c4 5 10 10 20 10h80c7 0 10 -3 10 -10zM90 610h90v120h-5l-85 -115v-5z" />
    <glyph glyph-name="fraction" unicode="&#x2044;" horiz-adv-x="179" 
d="M-118 15l315 670c5 10 10 15 20 15h70c10 0 15 -5 10 -15l-315 -670c-5 -10 -10 -15 -20 -15h-70c-10 0 -15 5 -10 15z" />
    <glyph glyph-name="onehalf" unicode="&#xbd;" horiz-adv-x="730" 
d="M125 15l315 670c5 10 10 15 20 15h70c10 0 15 -5 10 -15l-315 -670c-5 -10 -10 -15 -20 -15h-70c-10 0 -15 5 -10 15zM110 630h-80c-7 0 -10 3 -10 10v50c0 7 3 10 10 10h145c7 0 10 -3 10 -10v-300c0 -7 -3 -10 -10 -10h-55c-7 0 -10 3 -10 10v240zM690 215
c0 -40 -25 -63 -45 -75l-115 -65v-5h140c7 0 10 -3 10 -10v-50c0 -7 -3 -10 -10 -10h-235c-7 0 -10 3 -10 10v60c0 15 5 20 15 25l145 85s30 15 30 35v5c0 20 -10 30 -30 30h-50c-20 0 -35 -15 -35 -30c0 -7 -3 -10 -10 -10h-55c-7 0 -10 3 -10 10c0 65 35 100 110 100h50
c80 0 105 -25 105 -100v-5z" />
    <glyph glyph-name="onequarter" unicode="&#xbc;" horiz-adv-x="715" 
d="M125 15l315 670c5 10 10 15 20 15h70c10 0 15 -5 10 -15l-315 -670c-5 -10 -10 -15 -20 -15h-70c-10 0 -15 5 -10 15zM110 630h-80c-7 0 -10 3 -10 10v50c0 7 3 10 10 10h145c7 0 10 -3 10 -10v-300c0 -7 -3 -10 -10 -10h-55c-7 0 -10 3 -10 10v240zM630 310v-180h35
c7 0 10 -3 10 -10v-40c0 -7 -3 -10 -10 -10h-35v-60c0 -7 -3 -10 -10 -10h-55c-7 0 -10 3 -10 10v60h-160c-7 0 -10 3 -10 10v35c0 10 10 25 10 25l125 170c4 5 10 10 20 10h80c7 0 10 -3 10 -10zM465 130h90v120h-5l-85 -115v-5z" />
    <glyph glyph-name="threequarters" unicode="&#xbe;" horiz-adv-x="770" 
d="M180 15l315 670c5 10 10 15 20 15h70c10 0 15 -5 10 -15l-315 -670c-5 -10 -10 -15 -20 -15h-70c-10 0 -15 5 -10 15zM685 310v-180h35c7 0 10 -3 10 -10v-40c0 -7 -3 -10 -10 -10h-35v-60c0 -7 -3 -10 -10 -10h-55c-7 0 -10 3 -10 10v60h-160c-7 0 -10 3 -10 10v35
c0 10 10 25 10 25l125 170c4 5 10 10 20 10h80c7 0 10 -3 10 -10zM520 130h90v120h-5l-85 -115v-5zM100 585l65 40v5h-130c-7 0 -10 3 -10 10v50c0 7 3 10 10 10h235c7 0 10 -3 10 -10v-50c0 -10 -5 -15 -15 -20l-65 -40v-5c55 0 85 -30 85 -75v-20
c0 -75 -25 -100 -105 -100h-50c-75 0 -110 35 -110 100c0 7 3 10 10 10h55c7 0 10 -3 10 -10c0 -15 15 -30 35 -30h50c20 0 30 10 30 30v20c0 20 -10 30 -30 30h-85c-5 0 -10 5 -10 10v25c0 10 5 15 15 20z" />
    <glyph glyph-name=".null" horiz-adv-x="0" 
 />
    <glyph glyph-name=".null" horiz-adv-x="0" 
 />
    <glyph glyph-name="CR" unicode="&#xd;" horiz-adv-x="0" 
 />
    <glyph glyph-name="foundryicon" horiz-adv-x="1230" 
d="M100 -110v920h1030v-920h-1030zM1110 -90v880h-990v-880h990zM635 610h110c50 0 80 -30 80 -65s-30 -65 -80 -65h-55v-80h-55v210zM635 300h110c50 0 80 -30 80 -65s-30 -65 -80 -65h-55v-80h-55v210zM495 170l-75 130h60l40 -75h5l40 75h65l-80 -130v-80h-55v80z
M495 480l-75 130h60l40 -75h5l40 75h65l-80 -130v-80h-55v80zM300 255h-65v45h165l25 -45h-70v-165h-55v165zM300 565h-65v45h165l25 -45h-70v-165h-55v165zM790 400v65c25 5 55 30 60 60h80v-45h-85v-35h120v-45h-175zM790 90v65c25 5 55 30 60 60h80v-45h-85v-35h120v-45
h-175zM810 300h155v-45h-115c-5 20 -20 40 -40 45zM810 610h155v-45h-115c-5 20 -20 40 -40 45zM765 545c0 10 -10 20 -20 20h-55v-40h55c10 0 20 9 20 20zM765 235c0 10 -10 20 -20 20h-55v-40h55c10 0 20 9 20 20z" />
    <glyph glyph-name="afii10062" unicode="&#x40e;" horiz-adv-x="624" 
d="M272 160l-260 525c-5 10 0 15 10 15h70c15 0 20 -5 25 -15l200 -415h5l185 415c4 10 10 15 25 15h70c10 0 14 -5 10 -15l-240 -525c-50 -110 -110 -170 -200 -170h-30c-9 0 -15 5 -15 15v60c0 10 5 15 15 15h30c50 0 75 25 100 80zM295 870h60c30 0 50 20 50 50v15
c0 10 5 15 15 15h55c10 0 15 -5 15 -15v-25c0 -80 -40 -120 -125 -120h-80c-85 0 -125 40 -125 120v25c0 10 5 15 15 15h55c10 0 15 -5 15 -15v-15c0 -30 20 -50 50 -50z" />
    <glyph glyph-name="afii10110" unicode="&#x45e;" horiz-adv-x="509" 
d="M257 120l140 375c4 10 10 15 25 15h60c10 0 14 -5 10 -15l-195 -495c-55 -140 -105 -190 -195 -190h-20c-10 0 -15 5 -15 15v50c0 10 5 15 15 15h20c50 0 80 30 110 110l-195 495c-4 10 0 15 10 15h60c15 0 21 -5 25 -15l140 -375h5zM285 590h-55c-75 0 -115 40 -115 110
v25c0 10 5 15 15 15h45c10 0 15 -5 15 -15v-25c0 -25 15 -40 40 -40h55c25 0 40 15 40 40v25c0 10 5 15 15 15h45c10 0 15 -5 15 -15v-25c0 -70 -40 -110 -115 -110z" />
    <glyph glyph-name="afii10052" unicode="&#x403;" horiz-adv-x="580" 
d="M195 610v-595c0 -10 -5 -15 -15 -15h-65c-10 0 -15 5 -15 15v669c0 11 5 16 15 16h450c10 0 15 -5 15 -15v-60c0 -10 -5 -15 -15 -15h-370zM469 930l-90 -135c-6 -10 -10 -15 -20 -15h-40c-10 0 -14 5 -10 15l60 135c5 10 10 15 20 15h70c10 0 16 -6 10 -15z" />
    <glyph glyph-name="afii10061" unicode="&#x40c;" horiz-adv-x="692" 
d="M195 320v-305c0 -10 -5 -15 -15 -15h-65c-10 0 -15 5 -15 15v670c0 10 5 15 15 15h65c10 0 15 -5 15 -15v-275h190l150 275c5 10 10 15 25 15h70c10 0 15 -5 10 -15l-175 -315l195 -355c5 -10 0 -15 -10 -15h-70c-15 0 -20 5 -25 15l-165 305h-195zM485 930l-90 -135
c-6 -10 -10 -15 -20 -15h-40c-10 0 -14 5 -10 15l60 135c5 10 10 15 20 15h70c10 0 16 -6 10 -15z" />
    <glyph glyph-name="afii10100" unicode="&#x453;" horiz-adv-x="440" 
d="M150 0h-55c-10 0 -15 5 -15 15v480c0 10 5 15 15 15h330c10 0 15 -5 15 -15v-50c0 -10 -5 -15 -15 -15h-260v-415c0 -10 -5 -15 -15 -15zM391 730l-90 -135c-6 -10 -10 -15 -20 -15h-40c-10 0 -14 5 -10 15l60 135c5 10 10 15 20 15h70c10 0 16 -6 10 -15z" />
    <glyph glyph-name="afii10109" unicode="&#x45c;" horiz-adv-x="522" 
d="M405 15l-115 215h-125v-215c0 -10 -5 -15 -15 -15h-55c-10 0 -15 5 -15 15v480c0 10 5 15 15 15h55c10 0 15 -5 15 -15v-185h125l100 185c5 10 10 15 25 15h60c10 0 15 -5 10 -15l-125 -225l140 -255c5 -10 0 -15 -10 -15h-60c-15 0 -20 5 -25 15zM400 730l-90 -135
c-6 -10 -10 -15 -20 -15h-40c-10 0 -14 5 -10 15l60 135c5 10 10 15 20 15h70c10 0 16 -6 10 -15z" />
    <glyph glyph-name="afii10055" unicode="&#x406;" horiz-adv-x="295" 
d="M100 15v670c0 10 5 15 15 15h65c10 0 15 -5 15 -15v-670c0 -10 -5 -15 -15 -15h-65c-10 0 -15 5 -15 15z" />
    <glyph glyph-name="afii10103" unicode="&#x456;" horiz-adv-x="245" 
d="M95 700h55c10 0 15 -5 15 -15v-55c0 -10 -5 -15 -15 -15h-55c-10 0 -15 5 -15 15v55c0 10 5 15 15 15zM150 0h-55c-10 0 -15 5 -15 15v480c0 10 5 15 15 15h55c10 0 15 -5 15 -15v-480c0 -10 -5 -15 -15 -15z" />
    <glyph glyph-name="afii10056" unicode="&#x407;" horiz-adv-x="290" 
d="M100 15v670c0 10 5 15 15 15h65c10 0 15 -5 15 -15v-670c0 -10 -5 -15 -15 -15h-65c-10 0 -15 5 -15 15zM85 790h-60c-10 0 -15 5 -15 15v60c0 10 5 15 15 15h60c10 0 15 -5 15 -15v-60c0 -10 -5 -15 -15 -15zM265 790h-60c-10 0 -15 5 -15 15v60c0 10 5 15 15 15h60
c10 0 15 -5 15 -15v-60c0 -10 -5 -15 -15 -15z" />
    <glyph glyph-name="afii10104" unicode="&#x457;" horiz-adv-x="250" 
d="M150 0h-55c-10 0 -15 5 -15 15v480c0 10 5 15 15 15h55c10 0 15 -5 15 -15v-480c0 -10 -5 -15 -15 -15zM65 610h-60c-10 0 -15 5 -15 15v60c0 10 5 15 15 15h60c10 0 15 -5 15 -15v-60c0 -10 -5 -15 -15 -15zM245 610h-60c-10 0 -15 5 -15 15v60c0 10 5 15 15 15h60
c10 0 15 -5 15 -15v-60c0 -10 -5 -15 -15 -15z" />
    <glyph glyph-name="Agrave" unicode="&#xc0;" horiz-adv-x="664" 
d="M212 270h240l-118 320h-4zM487 180h-310l-60 -165c-4 -10 -10 -15 -25 -15h-70c-10 0 -14 5 -10 15l260 670c5 10 10 15 25 15h70c15 0 20 -5 25 -15l260 -670c4 -10 0 -15 -10 -15h-70c-15 0 -21 5 -25 15zM282 795l-90 135c-6 9 0 15 10 15h70c10 0 15 -5 20 -15
l60 -135c4 -10 0 -15 -10 -15h-40c-10 0 -14 5 -20 15z" />
    <glyph glyph-name="Aacute" unicode="&#xc1;" horiz-adv-x="664" 
d="M212 270h240l-118 320h-4zM487 180h-310l-60 -165c-4 -10 -10 -15 -25 -15h-70c-10 0 -14 5 -10 15l260 670c5 10 10 15 25 15h70c15 0 20 -5 25 -15l260 -670c4 -10 0 -15 -10 -15h-70c-15 0 -21 5 -25 15zM472 930l-90 -135c-6 -10 -10 -15 -20 -15h-40
c-10 0 -14 5 -10 15l60 135c5 10 10 15 20 15h70c10 0 16 -6 10 -15z" />
    <glyph glyph-name="Abreve" unicode="&#x102;" horiz-adv-x="664" 
d="M212 270h240l-118 320h-4zM487 180h-310l-60 -165c-4 -10 -10 -15 -25 -15h-70c-10 0 -14 5 -10 15l260 670c5 10 10 15 25 15h70c15 0 20 -5 25 -15l260 -670c4 -10 0 -15 -10 -15h-70c-15 0 -21 5 -25 15zM360 780h-55c-75 0 -115 40 -115 110v25c0 10 5 15 15 15h45
c10 0 15 -5 15 -15v-25c0 -25 15 -40 40 -40h55c25 0 40 15 40 40v25c0 10 5 15 15 15h45c10 0 15 -5 15 -15v-25c0 -70 -40 -110 -115 -110z" />
    <glyph glyph-name="Acircumflex" unicode="&#xc2;" horiz-adv-x="664" 
d="M212 270h240l-118 320h-4zM487 180h-310l-60 -165c-4 -10 -10 -15 -25 -15h-70c-10 0 -14 5 -10 15l260 670c5 10 10 15 25 15h70c15 0 20 -5 25 -15l260 -670c4 -10 0 -15 -10 -15h-70c-15 0 -21 5 -25 15zM309 955h45c10 0 17 -5 25 -15l110 -145c7 -9 0 -15 -10 -15
h-55c-5 0 -13 5 -20 15l-70 95h-5l-70 -95c-7 -10 -15 -15 -20 -15h-55c-10 0 -17 6 -10 15l110 145c8 10 15 15 25 15z" />
    <glyph glyph-name="Adieresis" unicode="&#xc4;" horiz-adv-x="664" 
d="M212 270h240l-118 320h-4zM487 180h-310l-60 -165c-4 -10 -10 -15 -25 -15h-70c-10 0 -14 5 -10 15l260 670c5 10 10 15 25 15h70c15 0 20 -5 25 -15l260 -670c4 -10 0 -15 -10 -15h-70c-15 0 -21 5 -25 15zM275 800h-60c-10 0 -15 5 -15 15v60c0 10 5 15 15 15h60
c10 0 15 -5 15 -15v-60c0 -10 -5 -15 -15 -15zM455 800h-60c-10 0 -15 5 -15 15v60c0 10 5 15 15 15h60c10 0 15 -5 15 -15v-60c0 -10 -5 -15 -15 -15z" />
    <glyph glyph-name="Amacron" unicode="&#x100;" horiz-adv-x="664" 
d="M212 270h240l-118 320h-4zM487 180h-310l-60 -165c-4 -10 -10 -15 -25 -15h-70c-10 0 -14 5 -10 15l260 670c5 10 10 15 25 15h70c15 0 20 -5 25 -15l260 -670c4 -10 0 -15 -10 -15h-70c-15 0 -21 5 -25 15zM475 865v-40c0 -10 -5 -15 -15 -15h-250c-10 0 -15 5 -15 15
v40c0 10 5 15 15 15h250c10 0 15 -5 15 -15z" />
    <glyph glyph-name="Aogonek" unicode="&#x104;" horiz-adv-x="664" 
d="M582 0h-10c-15 0 -21 5 -25 15l-60 165h-310l-60 -165c-4 -10 -10 -15 -25 -15h-70c-10 0 -14 5 -10 15l260 670c5 10 10 15 25 15h70c15 0 20 -5 25 -15l260 -670c4 -10 0 -14 -10 -15c0 0 -110 -50 -110 -120c0 -25 20 -45 45 -45h50c10 0 15 -5 15 -15v-35
c0 -10 -5 -15 -15 -15h-50c-65 0 -105 40 -105 100c0 90 110 130 110 130zM212 270h240l-118 320h-4z" />
    <glyph glyph-name="Aring" unicode="&#xc5;" horiz-adv-x="664" 
d="M212 270h240l-118 320h-4zM487 180h-310l-60 -165c-4 -10 -10 -15 -25 -15h-70c-10 0 -14 5 -10 15l260 670c5 10 10 15 25 15h70c15 0 20 -5 25 -15l260 -670c4 -10 0 -15 -10 -15h-70c-15 0 -21 5 -25 15zM280 890v-25c0 -25 15 -40 40 -40h20c25 0 40 15 40 40v25
c0 25 -15 40 -40 40h-20c-25 0 -40 -15 -40 -40zM220 865v25c0 55 40 95 100 95h20c60 0 100 -40 100 -95v-25c0 -55 -40 -95 -100 -95h-20c-60 0 -100 40 -100 95z" />
    <glyph glyph-name="Atilde" unicode="&#xc3;" horiz-adv-x="664" 
d="M212 270h240l-118 320h-4zM487 180h-310l-60 -165c-4 -10 -10 -15 -25 -15h-70c-10 0 -14 5 -10 15l260 670c5 10 10 15 25 15h70c15 0 20 -5 25 -15l260 -670c4 -10 0 -15 -10 -15h-70c-15 0 -21 5 -25 15zM400 780c-70 0 -90 80 -115 80c-10 0 -20 -10 -20 -20v-45
c0 -10 -5 -15 -15 -15h-35c-11 0 -15 5 -15 15v60c0 40 30 70 70 70c70 0 90 -80 115 -80c10 0 20 10 20 20v45c0 10 5 15 15 15h35c11 0 15 -5 15 -15v-60c0 -40 -30 -70 -70 -70z" />
    <glyph glyph-name="Cacute" unicode="&#x106;" horiz-adv-x="750" 
d="M90 165v370c0 115 60 175 180 175h230c120 0 180 -60 180 -175v-40c0 -10 -5 -15 -15 -15h-65c-10 0 -15 5 -15 15v40c0 55 -30 85 -85 85h-230c-55 0 -85 -30 -85 -85v-370c0 -55 30 -85 85 -85h230c55 0 85 30 85 85v40c0 10 5 15 15 15h65c10 0 15 -5 15 -15v-40
c0 -115 -60 -175 -180 -175h-230c-120 0 -180 60 -180 175zM511 930l-90 -135c-6 -10 -10 -15 -20 -15h-40c-10 0 -14 5 -10 15l60 135c5 10 10 15 20 15h70c10 0 16 -6 10 -15z" />
    <glyph glyph-name="Ccaron" unicode="&#x10c;" horiz-adv-x="750" 
d="M90 165v370c0 115 60 175 180 175h230c120 0 180 -60 180 -175v-40c0 -10 -5 -15 -15 -15h-65c-10 0 -15 5 -15 15v40c0 55 -30 85 -85 85h-230c-55 0 -85 -30 -85 -85v-370c0 -55 30 -85 85 -85h230c55 0 85 30 85 85v40c0 10 5 15 15 15h65c10 0 15 -5 15 -15v-40
c0 -115 -60 -175 -180 -175h-230c-120 0 -180 60 -180 175zM408 780h-45c-10 0 -17 5 -25 15l-110 145c-7 9 0 15 10 15h55c5 0 13 -5 20 -15l70 -95h5l70 95c7 10 15 15 20 15h55c10 0 17 -6 10 -15l-110 -145c-8 -10 -15 -15 -25 -15z" />
    <glyph glyph-name="Ccedilla" unicode="&#xc7;" horiz-adv-x="750" 
d="M327 -200h75c20 0 35 15 35 35v10c0 20 -15 35 -35 35h-65c-10 0 -15 5 -15 15v35c0 20 10 30 10 30l18 30h-80c-120 0 -180 60 -180 175v370c0 115 60 175 180 175h230c120 0 180 -60 180 -175v-40c0 -10 -5 -15 -15 -15h-65c-10 0 -15 5 -15 15v40c0 55 -30 85 -85 85
h-230c-55 0 -85 -30 -85 -85v-370c0 -55 30 -85 85 -85h230c55 0 85 30 85 85v40c0 10 5 15 15 15h65c10 0 15 -5 15 -15v-40c0 -115 -60 -175 -180 -175h-95l-28 -50h25c55 0 95 -40 95 -95v-10c0 -55 -40 -95 -95 -95h-75c-10 0 -15 5 -15 15v30c0 10 5 15 15 15z" />
    <glyph glyph-name="Ccircumflex" unicode="&#x108;" horiz-adv-x="750" 
d="M90 165v370c0 115 60 175 180 175h230c120 0 180 -60 180 -175v-40c0 -10 -5 -15 -15 -15h-65c-10 0 -15 5 -15 15v40c0 55 -30 85 -85 85h-230c-55 0 -85 -30 -85 -85v-370c0 -55 30 -85 85 -85h230c55 0 85 30 85 85v40c0 10 5 15 15 15h65c10 0 15 -5 15 -15v-40
c0 -115 -60 -175 -180 -175h-230c-120 0 -180 60 -180 175zM367 955h45c10 0 17 -5 25 -15l110 -145c7 -9 0 -15 -10 -15h-55c-5 0 -13 5 -20 15l-70 95h-5l-70 -95c-7 -10 -15 -15 -20 -15h-55c-10 0 -17 6 -10 15l110 145c8 10 15 15 25 15z" />
    <glyph glyph-name="Dcaron" unicode="&#x10e;" horiz-adv-x="780" 
d="M115 700h395c120 0 180 -60 180 -175v-350c0 -115 -60 -175 -180 -175h-330h-65c-10 0 -15 5 -15 15v670c0 10 5 15 15 15zM510 610h-315v-520h315c55 0 85 30 85 85v350c0 55 -30 85 -85 85zM403 780h-45c-10 0 -17 5 -25 15l-110 145c-7 9 0 15 10 15h55
c5 0 13 -5 20 -15l70 -95h5l70 95c7 10 15 15 20 15h55c10 0 17 -6 10 -15l-110 -145c-8 -10 -15 -15 -25 -15z" />
    <glyph glyph-name="Egrave" unicode="&#xc8;" horiz-adv-x="680" 
d="M195 90h430c10 0 15 -5 15 -15v-60c0 -10 -5 -15 -14 -15h-511c-10 0 -15 5 -15 15v669c0 11 5 16 15 16h500c10 0 15 -5 15 -15v-60c0 -10 -5 -15 -14 -15h-421v-210h330c10 0 15 -5 15 -15v-60c0 -10 -5 -15 -14 -15h-331v-220zM338 795l-90 135c-6 9 0 15 10 15h70
c10 0 15 -5 20 -15l60 -135c4 -10 0 -15 -10 -15h-40c-10 0 -14 5 -20 15z" />
    <glyph glyph-name="Eacute" unicode="&#xc9;" horiz-adv-x="680" 
d="M195 90h430c10 0 15 -5 15 -15v-60c0 -10 -5 -15 -14 -15h-511c-10 0 -15 5 -15 15v669c0 11 5 16 15 16h500c10 0 15 -5 15 -15v-60c0 -10 -5 -15 -14 -15h-421v-210h330c10 0 15 -5 15 -15v-60c0 -10 -5 -15 -14 -15h-331v-220zM491 930l-90 -135
c-6 -10 -10 -15 -20 -15h-40c-10 0 -14 5 -10 15l60 135c5 10 10 15 20 15h70c10 0 16 -6 10 -15z" />
    <glyph glyph-name="Ecaron" unicode="&#x11a;" horiz-adv-x="680" 
d="M195 90h430c10 0 15 -5 15 -15v-60c0 -10 -5 -15 -14 -15h-511c-10 0 -15 5 -15 15v669c0 11 5 16 15 16h500c10 0 15 -5 15 -15v-60c0 -10 -5 -15 -14 -15h-421v-210h330c10 0 15 -5 15 -15v-60c0 -10 -5 -15 -14 -15h-331v-220zM393 780h-45c-10 0 -17 5 -25 15
l-110 145c-7 9 0 15 10 15h55c5 0 13 -5 20 -15l70 -95h5l70 95c7 10 15 15 20 15h55c10 0 17 -6 10 -15l-110 -145c-8 -10 -15 -15 -25 -15z" />
    <glyph glyph-name="Ecircumflex" unicode="&#xca;" horiz-adv-x="680" 
d="M195 90h430c10 0 15 -5 15 -15v-60c0 -10 -5 -15 -14 -15h-511c-10 0 -15 5 -15 15v669c0 11 5 16 15 16h500c10 0 15 -5 15 -15v-60c0 -10 -5 -15 -14 -15h-421v-210h330c10 0 15 -5 15 -15v-60c0 -10 -5 -15 -14 -15h-331v-220zM348 955h45c10 0 17 -5 25 -15l110 -145
c7 -9 0 -15 -10 -15h-55c-5 0 -13 5 -20 15l-70 95h-5l-70 -95c-7 -10 -15 -15 -20 -15h-55c-10 0 -17 6 -10 15l110 145c8 10 15 15 25 15z" />
    <glyph glyph-name="Edieresis" unicode="&#xcb;" horiz-adv-x="680" 
d="M195 90h430c10 0 15 -5 15 -15v-60c0 -10 -5 -15 -14 -15h-511c-10 0 -15 5 -15 15v669c0 11 5 16 15 16h500c10 0 15 -5 15 -15v-60c0 -10 -5 -15 -14 -15h-421v-210h330c10 0 15 -5 15 -15v-60c0 -10 -5 -15 -14 -15h-331v-220zM305 810h-60c-10 0 -15 5 -15 15v60
c0 10 5 15 15 15h60c10 0 15 -5 15 -15v-60c0 -10 -5 -15 -15 -15zM485 810h-60c-10 0 -15 5 -15 15v60c0 10 5 15 15 15h60c10 0 15 -5 15 -15v-60c0 -10 -5 -15 -15 -15z" />
    <glyph glyph-name="Edotaccent" unicode="&#x116;" horiz-adv-x="680" 
d="M195 90h430c10 0 15 -5 15 -15v-60c0 -10 -5 -15 -14 -15h-511c-10 0 -15 5 -15 15v669c0 11 5 16 15 16h500c10 0 15 -5 15 -15v-60c0 -10 -5 -15 -14 -15h-421v-210h330c10 0 15 -5 15 -15v-60c0 -10 -5 -15 -14 -15h-331v-220zM405 810h-60c-10 0 -15 5 -15 15v60
c0 10 5 15 15 15h60c10 0 15 -5 15 -15v-60c0 -10 -5 -15 -15 -15z" />
    <glyph glyph-name="Emacron" unicode="&#x112;" horiz-adv-x="680" 
d="M195 90h430c10 0 15 -5 15 -15v-60c0 -10 -5 -15 -14 -15h-511c-10 0 -15 5 -15 15v669c0 11 5 16 15 16h500c10 0 15 -5 15 -15v-60c0 -10 -5 -15 -14 -15h-421v-210h330c10 0 15 -5 15 -15v-60c0 -10 -5 -15 -14 -15h-331v-220zM510 865v-40c0 -10 -5 -15 -15 -15h-250
c-10 0 -15 5 -15 15v40c0 10 5 15 15 15h250c10 0 15 -5 15 -15z" />
    <glyph glyph-name="Eogonek" unicode="&#x118;" horiz-adv-x="680" 
d="M370 0h-255c-10 0 -15 5 -15 15v669c0 11 5 16 15 16h500c10 0 15 -5 15 -15v-60c0 -10 -5 -15 -14 -15h-421v-210h330c10 0 15 -5 15 -15v-60c0 -10 -5 -15 -14 -15h-331v-220h430c10 0 15 -5 15 -15v-60c0 -10 -5 -15 -14 -15h-196s-110 -50 -110 -120
c0 -25 20 -45 45 -45h50c10 0 15 -5 15 -15v-35c0 -10 -5 -15 -15 -15h-50c-65 0 -105 40 -105 100c0 90 110 130 110 130z" />
    <glyph glyph-name="Gbreve" unicode="&#x11e;" horiz-adv-x="770" 
d="M90 165v370c0 115 60 175 180 175h230c120 0 180 -60 180 -175v-40c0 -10 -5 -15 -15 -15h-65c-10 0 -15 5 -15 15v40c0 55 -30 85 -85 85h-230c-55 0 -85 -30 -85 -85v-370c0 -55 30 -85 85 -85h230c55 0 85 30 85 85v115h-150c-10 0 -15 5 -15 15v60c0 10 5 15 15 15
h230c11 0 15 -5 15 -16v-189c0 -115 -60 -175 -180 -175h-230c-120 0 -180 60 -180 175zM410 790h-55c-75 0 -115 40 -115 110v25c0 10 5 15 15 15h45c10 0 15 -5 15 -15v-25c0 -25 15 -40 40 -40h55c25 0 40 15 40 40v25c0 10 5 15 15 15h45c10 0 15 -5 15 -15v-25
c0 -70 -40 -110 -115 -110z" />
    <glyph glyph-name="Gcommaaccent" unicode="&#x122;" horiz-adv-x="770" 
d="M90 165v370c0 115 60 175 180 175h230c120 0 180 -60 180 -175v-40c0 -10 -5 -15 -15 -15h-65c-10 0 -15 5 -15 15v40c0 55 -30 85 -85 85h-230c-55 0 -85 -30 -85 -85v-370c0 -55 30 -85 85 -85h230c55 0 85 30 85 85v115h-150c-10 0 -15 5 -15 15v60c0 10 5 15 15 15
h230c11 0 15 -5 15 -16v-189c0 -115 -60 -175 -180 -175h-230c-120 0 -180 60 -180 175zM440 -105v-55c0 -15 -10 -30 -10 -30l-40 -80c-3 -5 -10 -10 -15 -10h-25c-5 0 -7 5 -5 10l45 90h-25c-10 0 -15 5 -15 15v60c0 10 5 15 15 15h60c10 0 15 -5 15 -15z" />
    <glyph glyph-name="Kcommaaccent" unicode="&#x136;" horiz-adv-x="692" 
d="M195 320v-305c0 -10 -5 -15 -15 -15h-65c-10 0 -15 5 -15 15v670c0 10 5 15 15 15h65c10 0 15 -5 15 -15v-275h190l150 275c5 10 10 15 25 15h70c10 0 15 -5 10 -15l-175 -315l195 -355c5 -10 0 -15 -10 -15h-70c-15 0 -20 5 -25 15l-165 305h-195zM420 -105v-55
c0 -15 -10 -30 -10 -30l-40 -80c-3 -5 -10 -10 -15 -10h-25c-5 0 -7 5 -5 10l45 90h-25c-10 0 -15 5 -15 15v60c0 10 5 15 15 15h60c10 0 15 -5 15 -15z" />
    <glyph glyph-name="Lacute" unicode="&#x139;" horiz-adv-x="640" 
d="M195 685v-595h410c10 0 15 -5 15 -15v-60c0 -10 -5 -15 -15 -15h-490c-10 0 -15 5 -15 16v669c0 10 5 15 15 15h65c10 0 15 -5 15 -15zM278 930l-90 -135c-6 -10 -10 -15 -20 -15h-40c-10 0 -14 5 -10 15l60 135c5 10 10 15 20 15h70c10 0 16 -6 10 -15z" />
    <glyph glyph-name="Lcaron" unicode="&#x13d;" horiz-adv-x="640" 
d="M195 685v-595h410c10 0 15 -5 15 -15v-60c0 -10 -5 -15 -15 -15h-490c-10 0 -15 5 -15 16v669c0 10 5 15 15 15h65c10 0 15 -5 15 -15zM370 685v-55c0 -15 -10 -30 -10 -30l-40 -80c-3 -5 -10 -10 -15 -10h-25c-5 0 -7 5 -5 10l45 90h-25c-10 0 -15 5 -15 15v60
c0 10 5 15 15 15h60c10 0 15 -5 15 -15z" />
    <glyph glyph-name="Lcommaaccent" unicode="&#x13b;" horiz-adv-x="640" 
d="M195 685v-595h410c10 0 15 -5 15 -15v-60c0 -10 -5 -15 -15 -15h-490c-10 0 -15 5 -15 16v669c0 10 5 15 15 15h65c10 0 15 -5 15 -15zM410 -105v-55c0 -15 -10 -30 -10 -30l-40 -80c-3 -5 -10 -10 -15 -10h-25c-5 0 -7 5 -5 10l45 90h-25c-10 0 -15 5 -15 15v60
c0 10 5 15 15 15h60c10 0 15 -5 15 -15z" />
    <glyph glyph-name="agrave" unicode="&#xe0;" horiz-adv-x="560" 
d="M60 135v20c0 95 50 145 150 145h185v65c0 45 -30 75 -75 75h-70c-45 0 -75 -30 -75 -75v0c0 -10 -5 -15 -15 -15h-55c-10 0 -15 5 -15 15v0c0 100 55 155 160 155h70c105 0 160 -55 160 -155v-350c0 -10 -5 -15 -15 -15h-55c-10 0 -15 5 -15 15v35h-5s-25 -60 -110 -60
h-70c-100 0 -150 50 -150 145zM145 155v-20c0 -40 25 -65 65 -65h80c60 0 105 45 105 105v45h-185c-40 0 -65 -25 -65 -65zM258 605l-90 135c-6 9 0 15 10 15h70c10 0 15 -5 20 -15l60 -135c4 -10 0 -15 -10 -15h-40c-10 0 -14 5 -20 15z" />
    <glyph glyph-name="aacute" unicode="&#xe1;" horiz-adv-x="560" 
d="M60 135v20c0 95 50 145 150 145h185v65c0 45 -30 75 -75 75h-70c-45 0 -75 -30 -75 -75v0c0 -10 -5 -15 -15 -15h-55c-10 0 -15 5 -15 15v0c0 100 55 155 160 155h70c105 0 160 -55 160 -155v-350c0 -10 -5 -15 -15 -15h-55c-10 0 -15 5 -15 15v35h-5s-25 -60 -110 -60
h-70c-100 0 -150 50 -150 145zM145 155v-20c0 -40 25 -65 65 -65h80c60 0 105 45 105 105v45h-185c-40 0 -65 -25 -65 -65zM422 740l-90 -135c-6 -10 -10 -15 -20 -15h-40c-10 0 -14 5 -10 15l60 135c5 10 10 15 20 15h70c10 0 16 -6 10 -15z" />
    <glyph glyph-name="abreve" unicode="&#x103;" horiz-adv-x="560" 
d="M60 135v20c0 95 50 145 150 145h185v65c0 45 -30 75 -75 75h-70c-45 0 -75 -30 -75 -75v0c0 -10 -5 -15 -15 -15h-55c-10 0 -15 5 -15 15v0c0 100 55 155 160 155h70c105 0 160 -55 160 -155v-350c0 -10 -5 -15 -15 -15h-55c-10 0 -15 5 -15 15v35h-5s-25 -60 -110 -60
h-70c-100 0 -150 50 -150 145zM145 155v-20c0 -40 25 -65 65 -65h80c60 0 105 45 105 105v45h-185c-40 0 -65 -25 -65 -65zM315 590h-55c-75 0 -115 40 -115 110v25c0 10 5 15 15 15h45c10 0 15 -5 15 -15v-25c0 -25 15 -40 40 -40h55c25 0 40 15 40 40v25c0 10 5 15 15 15
h45c10 0 15 -5 15 -15v-25c0 -70 -40 -110 -115 -110z" />
    <glyph glyph-name="acircumflex" unicode="&#xe2;" horiz-adv-x="560" 
d="M60 135v20c0 95 50 145 150 145h185v65c0 45 -30 75 -75 75h-70c-45 0 -75 -30 -75 -75v0c0 -10 -5 -15 -15 -15h-55c-10 0 -15 5 -15 15v0c0 100 55 155 160 155h70c105 0 160 -55 160 -155v-350c0 -10 -5 -15 -15 -15h-55c-10 0 -15 5 -15 15v35h-5s-25 -60 -110 -60
h-70c-100 0 -150 50 -150 145zM145 155v-20c0 -40 25 -65 65 -65h80c60 0 105 45 105 105v45h-185c-40 0 -65 -25 -65 -65zM267 765h45c10 0 17 -5 25 -15l110 -145c7 -9 0 -15 -10 -15h-55c-5 0 -13 5 -20 15l-70 95h-5l-70 -95c-7 -10 -15 -15 -20 -15h-55
c-10 0 -17 6 -10 15l110 145c8 10 15 15 25 15z" />
    <glyph glyph-name="adieresis" unicode="&#xe4;" horiz-adv-x="560" 
d="M60 135v20c0 95 50 145 150 145h185v65c0 45 -30 75 -75 75h-70c-45 0 -75 -30 -75 -75v0c0 -10 -5 -15 -15 -15h-55c-10 0 -15 5 -15 15v0c0 100 55 155 160 155h70c105 0 160 -55 160 -155v-350c0 -10 -5 -15 -15 -15h-55c-10 0 -15 5 -15 15v35h-5s-25 -60 -110 -60
h-70c-100 0 -150 50 -150 145zM145 155v-20c0 -40 25 -65 65 -65h80c60 0 105 45 105 105v45h-185c-40 0 -65 -25 -65 -65zM225 620h-60c-10 0 -15 5 -15 15v60c0 10 5 15 15 15h60c10 0 15 -5 15 -15v-60c0 -10 -5 -15 -15 -15zM405 620h-60c-10 0 -15 5 -15 15v60
c0 10 5 15 15 15h60c10 0 15 -5 15 -15v-60c0 -10 -5 -15 -15 -15z" />
    <glyph glyph-name="amacron" unicode="&#x101;" horiz-adv-x="560" 
d="M60 135v20c0 95 50 145 150 145h185v65c0 45 -30 75 -75 75h-70c-45 0 -75 -30 -75 -75v0c0 -10 -5 -15 -15 -15h-55c-10 0 -15 5 -15 15v0c0 100 55 155 160 155h70c105 0 160 -55 160 -155v-350c0 -10 -5 -15 -15 -15h-55c-10 0 -15 5 -15 15v35h-5s-25 -60 -110 -60
h-70c-100 0 -150 50 -150 145zM145 155v-20c0 -40 25 -65 65 -65h80c60 0 105 45 105 105v45h-185c-40 0 -65 -25 -65 -65zM430 675v-40c0 -10 -5 -15 -15 -15h-250c-10 0 -15 5 -15 15v40c0 10 5 15 15 15h250c10 0 15 -5 15 -15z" />
    <glyph glyph-name="aogonek" unicode="&#x105;" horiz-adv-x="560" 
d="M60 135v20c0 95 50 145 150 145h185v65c0 45 -30 75 -75 75h-70c-45 0 -75 -30 -75 -75c0 -10 -5 -15 -15 -15h-55c-10 0 -15 5 -15 15c0 100 55 155 160 155h70c105 0 160 -55 160 -155v-350c0 -10 -5 -10 -15 -15c0 0 -110 -50 -110 -120c0 -25 20 -45 45 -45h50
c10 0 15 -5 15 -15v-35c0 -10 -5 -15 -15 -15h-50c-65 0 -105 40 -105 100c0 90 105 130 105 130s-5 5 -5 15v35h-5s-25 -60 -110 -60h-70c-100 0 -150 50 -150 145zM145 155v-20c0 -40 25 -65 65 -65h80c60 0 105 45 105 105v45h-185c-40 0 -65 -25 -65 -65z" />
    <glyph glyph-name="aring" unicode="&#xe5;" horiz-adv-x="560" 
d="M60 135v20c0 95 50 145 150 145h185v65c0 45 -30 75 -75 75h-70c-45 0 -75 -30 -75 -75v0c0 -10 -5 -15 -15 -15h-55c-10 0 -15 5 -15 15v0c0 100 55 155 160 155h70c105 0 160 -55 160 -155v-350c0 -10 -5 -15 -15 -15h-55c-10 0 -15 5 -15 15v35h-5s-25 -60 -110 -60
h-70c-100 0 -150 50 -150 145zM145 155v-20c0 -40 25 -65 65 -65h80c60 0 105 45 105 105v45h-185c-40 0 -65 -25 -65 -65zM240 700v-25c0 -25 15 -40 40 -40h20c25 0 40 15 40 40v25c0 25 -15 40 -40 40h-20c-25 0 -40 -15 -40 -40zM180 675v25c0 55 40 95 100 95h20
c60 0 100 -40 100 -95v-25c0 -55 -40 -95 -100 -95h-20c-60 0 -100 40 -100 95z" />
    <glyph glyph-name="atilde" unicode="&#xe3;" horiz-adv-x="560" 
d="M60 135v20c0 95 50 145 150 145h185v65c0 45 -30 75 -75 75h-70c-45 0 -75 -30 -75 -75v0c0 -10 -5 -15 -15 -15h-55c-10 0 -15 5 -15 15v0c0 100 55 155 160 155h70c105 0 160 -55 160 -155v-350c0 -10 -5 -15 -15 -15h-55c-10 0 -15 5 -15 15v35h-5s-25 -60 -110 -60
h-70c-100 0 -150 50 -150 145zM145 155v-20c0 -40 25 -65 65 -65h80c60 0 105 45 105 105v45h-185c-40 0 -65 -25 -65 -65zM345 580c-70 0 -90 80 -115 80c-10 0 -20 -10 -20 -20v-45c0 -10 -5 -15 -15 -15h-35c-11 0 -15 5 -15 15v60c0 40 30 70 70 70c70 0 90 -80 115 -80
c10 0 20 10 20 20v45c0 10 5 15 15 15h35c11 0 15 -5 15 -15v-60c0 -40 -30 -70 -70 -70z" />
    <glyph glyph-name="cacute" unicode="&#x107;" horiz-adv-x="565" 
d="M155 365v-220c0 -45 30 -75 75 -75h115c45 0 75 30 75 75v25c0 10 5 15 15 15h55c10 0 15 -5 15 -15v-25c0 -100 -55 -155 -160 -155h-115c-105 0 -160 55 -160 155v220c0 100 55 155 160 155h115c105 0 160 -55 160 -155v-25c0 -10 -5 -15 -15 -15h-55
c-10 0 -15 5 -15 15v25c0 45 -30 75 -75 75h-115c-45 0 -75 -30 -75 -75zM421 740l-90 -135c-6 -10 -10 -15 -20 -15h-40c-10 0 -14 5 -10 15l60 135c5 10 10 15 20 15h70c10 0 16 -6 10 -15z" />
    <glyph glyph-name="ccaron" unicode="&#x10d;" horiz-adv-x="565" 
d="M155 365v-220c0 -45 30 -75 75 -75h115c45 0 75 30 75 75v25c0 10 5 15 15 15h55c10 0 15 -5 15 -15v-25c0 -100 -55 -155 -160 -155h-115c-105 0 -160 55 -160 155v220c0 100 55 155 160 155h115c105 0 160 -55 160 -155v-25c0 -10 -5 -15 -15 -15h-55
c-10 0 -15 5 -15 15v25c0 45 -30 75 -75 75h-115c-45 0 -75 -30 -75 -75zM308 590h-45c-10 0 -17 5 -25 15l-110 145c-7 9 0 15 10 15h55c5 0 13 -5 20 -15l70 -95h5l70 95c7 10 15 15 20 15h55c10 0 17 -6 10 -15l-110 -145c-8 -10 -15 -15 -25 -15z" />
    <glyph glyph-name="ccedilla" unicode="&#xe7;" horiz-adv-x="565" 
d="M235 -200h75c20 0 35 15 35 35v10c0 20 -15 35 -35 35h-65c-10 0 -15 5 -15 15v35c0 20 10 30 10 30l20 30h-30c-105 0 -160 55 -160 155v220c0 100 55 155 160 155h115c105 0 160 -55 160 -155v-25c0 -10 -5 -15 -15 -15h-55c-10 0 -15 5 -15 15v25c0 45 -30 75 -75 75
h-115c-45 0 -75 -30 -75 -75v-220c0 -45 30 -75 75 -75h115c45 0 75 30 75 75v25c0 10 5 15 15 15h55c10 0 15 -5 15 -15v-25c0 -100 -55 -155 -160 -155h-30l-30 -50h25c55 0 95 -40 95 -95v-10c0 -55 -40 -95 -95 -95h-75c-10 0 -15 5 -15 15v30c0 10 5 15 15 15z" />
    <glyph glyph-name="ccircumflex" unicode="&#x109;" horiz-adv-x="565" 
d="M155 365v-220c0 -45 30 -75 75 -75h115c45 0 75 30 75 75v25c0 10 5 15 15 15h55c10 0 15 -5 15 -15v-25c0 -100 -55 -155 -160 -155h-115c-105 0 -160 55 -160 155v220c0 100 55 155 160 155h115c105 0 160 -55 160 -155v-25c0 -10 -5 -15 -15 -15h-55
c-10 0 -15 5 -15 15v25c0 45 -30 75 -75 75h-115c-45 0 -75 -30 -75 -75zM263 765h45c10 0 17 -5 25 -15l110 -145c7 -9 0 -15 -10 -15h-55c-5 0 -13 5 -20 15l-70 95h-5l-70 -95c-7 -10 -15 -15 -20 -15h-55c-10 0 -17 6 -10 15l110 145c8 10 15 15 25 15z" />
    <glyph glyph-name="dcaron" unicode="&#x10f;" horiz-adv-x="630" 
d="M420 430h-190c-45 0 -75 -30 -75 -75v-210c0 -45 30 -75 75 -75h85c60 0 105 45 105 105v255zM230 510h190v175c0 10 5 15 15 15h55c10 0 15 -5 15 -15v-670c0 -10 -5 -15 -15 -15h-55c-10 0 -15 5 -15 15v35h-5s-25 -60 -110 -60h-75c-105 0 -160 55 -160 155v210
c0 100 55 155 160 155zM670 685v-55c0 -15 -10 -30 -10 -30l-40 -80c-3 -5 -10 -10 -15 -10h-25c-5 0 -7 5 -5 10l45 90h-25c-10 0 -15 5 -15 15v60c0 10 5 15 15 15h60c10 0 15 -5 15 -15z" />
    <glyph glyph-name="egrave" unicode="&#xe8;" horiz-adv-x="580" 
d="M155 300h270v65c0 45 -30 75 -75 75h-120c-45 0 -75 -30 -75 -75v-65zM495 220h-340v-75c0 -45 30 -75 75 -75h120c45 0 75 30 75 75v5c0 10 5 15 15 15h55c10 0 15 -5 15 -15v-5c0 -100 -55 -155 -160 -155h-120c-105 0 -160 55 -160 155v220c0 100 55 155 160 155h120
c105 0 160 -55 160 -155v-130c0 -10 -5 -15 -15 -15zM258 605l-90 135c-6 9 0 15 10 15h70c10 0 15 -5 20 -15l60 -135c4 -10 0 -15 -10 -15h-40c-10 0 -14 5 -20 15z" />
    <glyph glyph-name="eacute" unicode="&#xe9;" horiz-adv-x="580" 
d="M155 300h270v65c0 45 -30 75 -75 75h-120c-45 0 -75 -30 -75 -75v-65zM495 220h-340v-75c0 -45 30 -75 75 -75h120c45 0 75 30 75 75v5c0 10 5 15 15 15h55c10 0 15 -5 15 -15v-5c0 -100 -55 -155 -160 -155h-120c-105 0 -160 55 -160 155v220c0 100 55 155 160 155h120
c105 0 160 -55 160 -155v-130c0 -10 -5 -15 -15 -15zM417 740l-90 -135c-6 -10 -10 -15 -20 -15h-40c-10 0 -14 5 -10 15l60 135c5 10 10 15 20 15h70c10 0 16 -6 10 -15z" />
    <glyph glyph-name="ecaron" unicode="&#x11b;" horiz-adv-x="580" 
d="M155 300h270v65c0 45 -30 75 -75 75h-120c-45 0 -75 -30 -75 -75v-65zM495 220h-340v-75c0 -45 30 -75 75 -75h120c45 0 75 30 75 75v5c0 10 5 15 15 15h55c10 0 15 -5 15 -15v-5c0 -100 -55 -155 -160 -155h-120c-105 0 -160 55 -160 155v220c0 100 55 155 160 155h120
c105 0 160 -55 160 -155v-130c0 -10 -5 -15 -15 -15zM313 590h-45c-10 0 -17 5 -25 15l-110 145c-7 9 0 15 10 15h55c5 0 13 -5 20 -15l70 -95h5l70 95c7 10 15 15 20 15h55c10 0 17 -6 10 -15l-110 -145c-8 -10 -15 -15 -25 -15z" />
    <glyph glyph-name="ecircumflex" unicode="&#xea;" horiz-adv-x="580" 
d="M155 300h270v65c0 45 -30 75 -75 75h-120c-45 0 -75 -30 -75 -75v-65zM495 220h-340v-75c0 -45 30 -75 75 -75h120c45 0 75 30 75 75v5c0 10 5 15 15 15h55c10 0 15 -5 15 -15v-5c0 -100 -55 -155 -160 -155h-120c-105 0 -160 55 -160 155v220c0 100 55 155 160 155h120
c105 0 160 -55 160 -155v-130c0 -10 -5 -15 -15 -15zM268 765h45c10 0 17 -5 25 -15l110 -145c7 -9 0 -15 -10 -15h-55c-5 0 -13 5 -20 15l-70 95h-5l-70 -95c-7 -10 -15 -15 -20 -15h-55c-10 0 -17 6 -10 15l110 145c8 10 15 15 25 15z" />
    <glyph glyph-name="edieresis" unicode="&#xeb;" horiz-adv-x="580" 
d="M155 300h270v65c0 45 -30 75 -75 75h-120c-45 0 -75 -30 -75 -75v-65zM495 220h-340v-75c0 -45 30 -75 75 -75h120c45 0 75 30 75 75v5c0 10 5 15 15 15h55c10 0 15 -5 15 -15v-5c0 -100 -55 -155 -160 -155h-120c-105 0 -160 55 -160 155v220c0 100 55 155 160 155h120
c105 0 160 -55 160 -155v-130c0 -10 -5 -15 -15 -15zM230 620h-60c-10 0 -15 5 -15 15v60c0 10 5 15 15 15h60c10 0 15 -5 15 -15v-60c0 -10 -5 -15 -15 -15zM410 620h-60c-10 0 -15 5 -15 15v60c0 10 5 15 15 15h60c10 0 15 -5 15 -15v-60c0 -10 -5 -15 -15 -15z" />
    <glyph glyph-name="edotaccent" unicode="&#x117;" horiz-adv-x="580" 
d="M155 300h270v65c0 45 -30 75 -75 75h-120c-45 0 -75 -30 -75 -75v-65zM495 220h-340v-75c0 -45 30 -75 75 -75h120c45 0 75 30 75 75v5c0 10 5 15 15 15h55c10 0 15 -5 15 -15v-5c0 -100 -55 -155 -160 -155h-120c-105 0 -160 55 -160 155v220c0 100 55 155 160 155h120
c105 0 160 -55 160 -155v-130c0 -10 -5 -15 -15 -15zM320 620h-60c-10 0 -15 5 -15 15v60c0 10 5 15 15 15h60c10 0 15 -5 15 -15v-60c0 -10 -5 -15 -15 -15z" />
    <glyph glyph-name="emacron" unicode="&#x113;" horiz-adv-x="580" 
d="M155 300h270v65c0 45 -30 75 -75 75h-120c-45 0 -75 -30 -75 -75v-65zM495 220h-340v-75c0 -45 30 -75 75 -75h120c45 0 75 30 75 75v5c0 10 5 15 15 15h55c10 0 15 -5 15 -15v-5c0 -100 -55 -155 -160 -155h-120c-105 0 -160 55 -160 155v220c0 100 55 155 160 155h120
c105 0 160 -55 160 -155v-130c0 -10 -5 -15 -15 -15zM430 685v-40c0 -10 -5 -15 -15 -15h-250c-10 0 -15 5 -15 15v40c0 10 5 15 15 15h250c10 0 15 -5 15 -15z" />
    <glyph glyph-name="eogonek" unicode="&#x119;" horiz-adv-x="580" 
d="M495 220h-340v-75c0 -45 30 -75 75 -75h120c45 0 75 30 75 75v5c0 10 5 15 15 15h55c10 0 15 -5 15 -15v-5c0 -100 -55 -155 -160 -155c-31 -17 -90 -57 -90 -110c0 -25 20 -45 45 -45h50c10 0 15 -5 15 -15v-35c0 -10 -5 -15 -15 -15h-50c-65 0 -105 40 -105 100
c0 80 90 120 90 120h-60c-105 0 -160 55 -160 155v220c0 100 55 155 160 155h120c105 0 160 -55 160 -155v-130c0 -10 -5 -15 -15 -15zM155 300h270v65c0 45 -30 75 -75 75h-120c-45 0 -75 -30 -75 -75v-65z" />
    <glyph glyph-name="gbreve" unicode="&#x11f;" 
d="M420 40h-190c-105 0 -160 55 -160 155v170c0 100 55 155 160 155h75c85 0 110 -60 110 -60h5v35c0 10 5 15 15 15h55c10 0 15 -5 15 -15v-540c0 -100 -55 -155 -160 -155h-105c-105 0 -160 55 -160 155v15c0 10 5 15 15 15h55c10 0 15 -5 15 -15v-15c0 -45 30 -75 75 -75
h105c45 0 75 30 75 75v85zM230 120h190v215c0 60 -45 105 -105 105h-85c-45 0 -75 -30 -75 -75v-170c0 -45 30 -75 75 -75zM320 600h-55c-75 0 -115 40 -115 110v25c0 10 5 15 15 15h45c10 0 15 -5 15 -15v-25c0 -25 15 -40 40 -40h55c25 0 40 15 40 40v25c0 10 5 15 15 15
h45c10 0 15 -5 15 -15v-25c0 -70 -40 -110 -115 -110z" />
    <glyph glyph-name="gcommaaccent" unicode="&#x123;" 
d="M250 615v55c0 15 10 30 10 30l40 80c3 5 10 10 15 10h25c5 0 7 -5 5 -10l-45 -90h25c10 0 15 -5 15 -15v-60c0 -10 -5 -15 -15 -15h-60c-10 0 -15 5 -15 15zM420 40h-190c-105 0 -160 55 -160 155v170c0 100 55 155 160 155h75c85 0 110 -60 110 -60h5v35
c0 10 5 15 15 15h55c10 0 15 -5 15 -15v-540c0 -100 -55 -155 -160 -155h-105c-105 0 -160 55 -160 155v15c0 10 5 15 15 15h55c10 0 15 -5 15 -15v-15c0 -45 30 -75 75 -75h105c45 0 75 30 75 75v85zM230 120h190v215c0 60 -45 105 -105 105h-85c-45 0 -75 -30 -75 -75
v-170c0 -45 30 -75 75 -75z" />
    <glyph glyph-name="kcommaaccent" unicode="&#x137;" horiz-adv-x="522" 
d="M405 15l-115 215h-125v-215c0 -10 -5 -15 -15 -15h-55c-10 0 -15 5 -15 15v670c0 10 5 15 15 15h55c10 0 15 -5 15 -15v-375h125l100 185c5 10 10 15 25 15h60c10 0 15 -5 10 -15l-125 -225l140 -255c5 -10 0 -15 -10 -15h-60c-15 0 -20 5 -25 15zM320 -95v-55
c0 -15 -10 -30 -10 -30l-40 -80c-3 -5 -10 -10 -15 -10h-25c-5 0 -7 5 -5 10l45 90h-25c-10 0 -15 5 -15 15v60c0 10 5 15 15 15h60c10 0 15 -5 15 -15z" />
    <glyph glyph-name="lacute" unicode="&#x13a;" horiz-adv-x="245" 
d="M150 0h-55c-10 0 -15 5 -15 15v670c0 10 5 15 15 15h55c10 0 15 -5 15 -15v-670c0 -10 -5 -15 -15 -15zM252 930l-90 -135c-6 -10 -10 -15 -20 -15h-40c-10 0 -14 5 -10 15l60 135c5 10 10 15 20 15h70c10 0 16 -6 10 -15z" />
    <glyph glyph-name="lcaron" unicode="&#x13e;" horiz-adv-x="290" 
d="M150 0h-55c-10 0 -15 5 -15 15v670c0 10 5 15 15 15h55c10 0 15 -5 15 -15v-670c0 -10 -5 -15 -15 -15zM330 685v-55c0 -15 -10 -30 -10 -30l-40 -80c-3 -5 -10 -10 -15 -10h-25c-5 0 -7 5 -5 10l45 90h-25c-10 0 -15 5 -15 15v60c0 10 5 15 15 15h60c10 0 15 -5 15 -15z
" />
    <glyph glyph-name="lcommaaccent" unicode="&#x13c;" horiz-adv-x="246" 
d="M151 0h-55c-10 0 -15 5 -15 15v670c0 10 5 15 15 15h55c10 0 15 -5 15 -15v-670c0 -10 -5 -15 -15 -15zM166 -105v-55c0 -15 -10 -30 -10 -30l-40 -80c-3 -5 -10 -10 -15 -10h-25c-5 0 -7 5 -5 10l45 90h-25c-10 0 -15 5 -15 15v60c0 10 5 15 15 15h60c10 0 15 -5 15 -15
z" />
    <glyph glyph-name="Igrave" unicode="&#xcc;" horiz-adv-x="290" 
d="M95 15v670c0 10 5 15 15 15h65c10 0 15 -5 15 -15v-670c0 -10 -5 -15 -15 -15h-65c-10 0 -15 5 -15 15zM103 795l-90 135c-6 9 0 15 10 15h70c10 0 15 -5 20 -15l60 -135c4 -10 0 -15 -10 -15h-40c-10 0 -14 5 -20 15z" />
    <glyph glyph-name="Iacute" unicode="&#xcd;" horiz-adv-x="295" 
d="M100 15v670c0 10 5 15 15 15h65c10 0 15 -5 15 -15v-670c0 -10 -5 -15 -15 -15h-65c-10 0 -15 5 -15 15zM282 930l-90 -135c-6 -10 -10 -15 -20 -15h-40c-10 0 -14 5 -10 15l60 135c5 10 10 15 20 15h70c10 0 16 -6 10 -15z" />
    <glyph glyph-name="Icircumflex" unicode="&#xce;" horiz-adv-x="301" 
d="M100 15v670c0 10 5 15 15 15h65c10 0 15 -5 15 -15v-670c0 -10 -5 -15 -15 -15h-65c-10 0 -15 5 -15 15zM128 955h45c10 0 17 -5 25 -15l110 -145c7 -9 0 -15 -10 -15h-55c-5 0 -13 5 -20 15l-70 95h-5l-70 -95c-7 -10 -15 -15 -20 -15h-55c-10 0 -17 6 -10 15l110 145
c8 10 15 15 25 15z" />
    <glyph glyph-name="Idieresis" unicode="&#xcf;" horiz-adv-x="290" 
d="M95 15v670c0 10 5 15 15 15h65c10 0 15 -5 15 -15v-670c0 -10 -5 -15 -15 -15h-65c-10 0 -15 5 -15 15zM85 800h-60c-10 0 -15 5 -15 15v60c0 10 5 15 15 15h60c10 0 15 -5 15 -15v-60c0 -10 -5 -15 -15 -15zM265 800h-60c-10 0 -15 5 -15 15v60c0 10 5 15 15 15h60
c10 0 15 -5 15 -15v-60c0 -10 -5 -15 -15 -15z" />
    <glyph glyph-name="Idotaccent" unicode="&#x130;" horiz-adv-x="295" 
d="M100 15v670c0 10 5 15 15 15h65c10 0 15 -5 15 -15v-670c0 -10 -5 -15 -15 -15h-65c-10 0 -15 5 -15 15zM180 800h-60c-10 0 -15 5 -15 15v60c0 10 5 15 15 15h60c10 0 15 -5 15 -15v-60c0 -10 -5 -15 -15 -15z" />
    <glyph glyph-name="Imacron" unicode="&#x12a;" horiz-adv-x="300" 
d="M100 15v670c0 10 5 15 15 15h65c10 0 15 -5 15 -15v-670c0 -10 -5 -15 -15 -15h-65c-10 0 -15 5 -15 15zM290 875v-40c0 -10 -5 -15 -15 -15h-250c-10 0 -15 5 -15 15v40c0 10 5 15 15 15h250c10 0 15 -5 15 -15z" />
    <glyph glyph-name="Iogonek" unicode="&#x12e;" horiz-adv-x="295" 
d="M120 0h-5c-10 0 -15 5 -15 15v670c0 10 5 15 15 15h65c10 0 15 -5 15 -15v-670c0 -10 -5 -15 -15 -15c0 0 -110 -50 -110 -120c0 -25 20 -45 45 -45h50c10 0 15 -5 15 -15v-35c0 -10 -5 -15 -15 -15h-50c-65 0 -105 40 -105 100c0 90 110 130 110 130z" />
    <glyph glyph-name="Nacute" unicode="&#x143;" horiz-adv-x="780" 
d="M590 0c-15 0 -24 5 -30 15l-360 540h-5v-540c0 -10 -5 -15 -15 -15h-65c-10 0 -15 5 -15 15v670c0 11 5 15 15 15h75c15 0 24 -5 30 -15l360 -540h5v540c0 10 5 15 15 15h65c10 0 15 -5 15 -15v-670c0 -10 -5 -15 -15 -15h-75zM512 930l-90 -135c-6 -10 -10 -15 -20 -15
h-40c-10 0 -14 5 -10 15l60 135c5 10 10 15 20 15h70c10 0 16 -6 10 -15z" />
    <glyph glyph-name="Ncaron" unicode="&#x147;" horiz-adv-x="780" 
d="M590 0c-15 0 -24 5 -30 15l-360 540h-5v-540c0 -10 -5 -15 -15 -15h-65c-10 0 -15 5 -15 15v670c0 11 5 15 15 15h75c15 0 24 -5 30 -15l360 -540h5v540c0 10 5 15 15 15h65c10 0 15 -5 15 -15v-670c0 -10 -5 -15 -15 -15h-75zM423 780h-45c-10 0 -17 5 -25 15l-110 145
c-7 9 0 15 10 15h55c5 0 13 -5 20 -15l70 -95h5l70 95c7 10 15 15 20 15h55c10 0 17 -6 10 -15l-110 -145c-8 -10 -15 -15 -25 -15z" />
    <glyph glyph-name="Ncommaaccent" unicode="&#x145;" horiz-adv-x="780" 
d="M590 0c-15 0 -24 5 -30 15l-360 540h-5v-540c0 -10 -5 -15 -15 -15h-65c-10 0 -15 5 -15 15v670c0 11 5 15 15 15h75c15 0 24 -5 30 -15l360 -540h5v540c0 10 5 15 15 15h65c10 0 15 -5 15 -15v-670c0 -10 -5 -15 -15 -15h-75zM440 -105v-55c0 -15 -10 -30 -10 -30
l-40 -80c-3 -5 -10 -10 -15 -10h-25c-5 0 -7 5 -5 10l45 90h-25c-10 0 -15 5 -15 15v60c0 10 5 15 15 15h60c10 0 15 -5 15 -15z" />
    <glyph glyph-name="Ntilde" unicode="&#xd1;" horiz-adv-x="780" 
d="M590 0c-15 0 -24 5 -30 15l-360 540h-5v-540c0 -10 -5 -15 -15 -15h-65c-10 0 -15 5 -15 15v670c0 11 5 15 15 15h75c15 0 24 -5 30 -15l360 -540h5v540c0 10 5 15 15 15h65c10 0 15 -5 15 -15v-670c0 -10 -5 -15 -15 -15h-75zM460 780c-70 0 -90 80 -115 80
c-10 0 -20 -10 -20 -20v-45c0 -10 -5 -15 -15 -15h-35c-11 0 -15 5 -15 15v60c0 40 30 70 70 70c70 0 90 -80 115 -80c10 0 20 10 20 20v45c0 10 5 15 15 15h35c11 0 15 -5 15 -15v-60c0 -40 -30 -70 -70 -70z" />
    <glyph glyph-name="Ograve" unicode="&#xd2;" horiz-adv-x="790" 
d="M90 165v370c0 115 60 175 180 175h250c120 0 180 -60 180 -175v-370c0 -115 -60 -175 -180 -175h-250c-120 0 -180 60 -180 175zM605 165v370c0 55 -30 85 -85 85h-250c-55 0 -85 -30 -85 -85v-370c0 -55 30 -85 85 -85h250c55 0 85 30 85 85zM358 805l-90 135
c-6 9 0 15 10 15h70c10 0 15 -5 20 -15l60 -135c4 -10 0 -15 -10 -15h-40c-10 0 -14 5 -20 15z" />
    <glyph glyph-name="Oacute" unicode="&#xd3;" horiz-adv-x="790" 
d="M90 165v370c0 115 60 175 180 175h250c120 0 180 -60 180 -175v-370c0 -115 -60 -175 -180 -175h-250c-120 0 -180 60 -180 175zM605 165v370c0 55 -30 85 -85 85h-250c-55 0 -85 -30 -85 -85v-370c0 -55 30 -85 85 -85h250c55 0 85 30 85 85zM532 940l-90 -135
c-6 -10 -10 -15 -20 -15h-40c-10 0 -14 5 -10 15l60 135c5 10 10 15 20 15h70c10 0 16 -6 10 -15z" />
    <glyph glyph-name="Ocircumflex" unicode="&#xd4;" horiz-adv-x="790" 
d="M90 165v370c0 115 60 175 180 175h250c120 0 180 -60 180 -175v-370c0 -115 -60 -175 -180 -175h-250c-120 0 -180 60 -180 175zM605 165v370c0 55 -30 85 -85 85h-250c-55 0 -85 -30 -85 -85v-370c0 -55 30 -85 85 -85h250c55 0 85 30 85 85zM373 965h45
c10 0 17 -5 25 -15l110 -145c7 -9 0 -15 -10 -15h-55c-5 0 -13 5 -20 15l-70 95h-5l-70 -95c-7 -10 -15 -15 -20 -15h-55c-10 0 -17 6 -10 15l110 145c8 10 15 15 25 15z" />
    <glyph glyph-name="Odieresis" unicode="&#xd6;" horiz-adv-x="790" 
d="M90 165v370c0 115 60 175 180 175h250c120 0 180 -60 180 -175v-370c0 -115 -60 -175 -180 -175h-250c-120 0 -180 60 -180 175zM605 165v370c0 55 -30 85 -85 85h-250c-55 0 -85 -30 -85 -85v-370c0 -55 30 -85 85 -85h250c55 0 85 30 85 85zM335 820h-60
c-10 0 -15 5 -15 15v60c0 10 5 15 15 15h60c10 0 15 -5 15 -15v-60c0 -10 -5 -15 -15 -15zM515 820h-60c-10 0 -15 5 -15 15v60c0 10 5 15 15 15h60c10 0 15 -5 15 -15v-60c0 -10 -5 -15 -15 -15z" />
    <glyph glyph-name="Ohungarumlaut" unicode="&#x150;" horiz-adv-x="790" 
d="M90 165v370c0 115 60 175 180 175h250c120 0 180 -60 180 -175v-370c0 -115 -60 -175 -180 -175h-250c-120 0 -180 60 -180 175zM605 165v370c0 55 -30 85 -85 85h-250c-55 0 -85 -30 -85 -85v-370c0 -55 30 -85 85 -85h250c55 0 85 30 85 85zM441 945l-90 -140
c-6 -10 -12 -15 -20 -15h-30c-10 0 -14 5 -10 15l60 140c4 10 10 15 20 15h60c10 0 16 -5 10 -15zM596 945l-90 -140c-6 -10 -12 -15 -20 -15h-30c-10 0 -14 5 -10 15l60 140c4 10 10 15 20 15h60c10 0 16 -5 10 -15z" />
    <glyph glyph-name="Omacron" unicode="&#x14c;" horiz-adv-x="790" 
d="M90 165v370c0 115 60 175 180 175h250c120 0 180 -60 180 -175v-370c0 -115 -60 -175 -180 -175h-250c-120 0 -180 60 -180 175zM605 165v370c0 55 -30 85 -85 85h-250c-55 0 -85 -30 -85 -85v-370c0 -55 30 -85 85 -85h250c55 0 85 30 85 85zM535 875v-40
c0 -10 -5 -15 -15 -15h-250c-10 0 -15 5 -15 15v40c0 10 5 15 15 15h250c10 0 15 -5 15 -15z" />
    <glyph glyph-name="Otilde" unicode="&#xd5;" horiz-adv-x="790" 
d="M90 165v370c0 115 60 175 180 175h250c120 0 180 -60 180 -175v-370c0 -115 -60 -175 -180 -175h-250c-120 0 -180 60 -180 175zM605 165v370c0 55 -30 85 -85 85h-250c-55 0 -85 -30 -85 -85v-370c0 -55 30 -85 85 -85h250c55 0 85 30 85 85zM460 780
c-70 0 -90 80 -115 80c-10 0 -20 -10 -20 -20v-45c0 -10 -5 -15 -15 -15h-35c-11 0 -15 5 -15 15v60c0 40 30 70 70 70c70 0 90 -80 115 -80c10 0 20 10 20 20v45c0 10 5 15 15 15h35c11 0 15 -5 15 -15v-60c0 -40 -30 -70 -70 -70z" />
    <glyph glyph-name="Racute" unicode="&#x154;" horiz-adv-x="737" 
d="M535 250l130 -235c5 -10 0 -15 -10 -15h-70c-15 0 -20 5 -25 15l-120 225h-245v-225c0 -10 -5 -15 -15 -15h-65c-10 0 -15 5 -15 15v670c0 10 5 15 15 15h355c120 0 180 -60 180 -175v-110c0 -150 -115 -165 -115 -165zM195 330h275c55 0 85 30 85 85v110
c0 55 -30 85 -85 85h-275v-280zM492 930l-90 -135c-6 -10 -10 -15 -20 -15h-40c-10 0 -14 5 -10 15l60 135c5 10 10 15 20 15h70c10 0 16 -6 10 -15z" />
    <glyph glyph-name="Rcaron" unicode="&#x158;" horiz-adv-x="737" 
d="M535 250l130 -235c5 -10 0 -15 -10 -15h-70c-15 0 -20 5 -25 15l-120 225h-245v-225c0 -10 -5 -15 -15 -15h-65c-10 0 -15 5 -15 15v670c0 10 5 15 15 15h355c120 0 180 -60 180 -175v-110c0 -150 -115 -165 -115 -165zM195 330h275c55 0 85 30 85 85v110
c0 55 -30 85 -85 85h-275v-280zM392 780h-45c-10 0 -17 5 -25 15l-110 145c-7 9 0 15 10 15h55c5 0 13 -5 20 -15l70 -95h5l70 95c7 10 15 15 20 15h55c10 0 17 -6 10 -15l-110 -145c-8 -10 -15 -15 -25 -15z" />
    <glyph glyph-name="Rcommaaccent" unicode="&#x156;" horiz-adv-x="737" 
d="M535 250l130 -235c5 -10 0 -15 -10 -15h-70c-15 0 -20 5 -25 15l-120 225h-245v-225c0 -10 -5 -15 -15 -15h-65c-10 0 -15 5 -15 15v670c0 10 5 15 15 15h355c120 0 180 -60 180 -175v-110c0 -150 -115 -165 -115 -165zM195 330h275c55 0 85 30 85 85v110
c0 55 -30 85 -85 85h-275v-280zM420 -95v-55c0 -15 -10 -30 -10 -30l-40 -80c-3 -5 -10 -10 -15 -10h-25c-5 0 -7 5 -5 10l45 90h-25c-10 0 -15 5 -15 15v60c0 10 5 15 15 15h60c10 0 15 -5 15 -15z" />
    <glyph glyph-name="Sacute" unicode="&#x15a;" horiz-adv-x="710" 
d="M535 210c0 35 -20 54 -55 65l-300 95c-60 19 -100 60 -100 130v35c0 115 60 175 180 175h180c120 0 180 -60 180 -175v-40c0 -10 -5 -15 -15 -15h-65c-10 0 -15 5 -15 15v40c0 55 -30 85 -85 85h-180c-55 0 -85 -30 -85 -85v-25c0 -35 20 -54 55 -65l300 -95
c60 -19 100 -60 100 -130v-55c0 -115 -60 -175 -180 -175h-200c-120 0 -180 60 -180 175v40c0 10 5 15 15 15h65c10 0 15 -5 15 -15v-40c0 -55 30 -85 85 -85h200c55 0 85 30 85 85v45zM482 930l-90 -135c-6 -10 -10 -15 -20 -15h-40c-10 0 -14 5 -10 15l60 135
c5 10 10 15 20 15h70c10 0 16 -6 10 -15z" />
    <glyph glyph-name="Scaron" unicode="&#x160;" horiz-adv-x="710" 
d="M535 210c0 35 -20 54 -55 65l-300 95c-60 19 -100 60 -100 130v35c0 115 60 175 180 175h180c120 0 180 -60 180 -175v-40c0 -10 -5 -15 -15 -15h-65c-10 0 -15 5 -15 15v40c0 55 -30 85 -85 85h-180c-55 0 -85 -30 -85 -85v-25c0 -35 20 -54 55 -65l300 -95
c60 -19 100 -60 100 -130v-55c0 -115 -60 -175 -180 -175h-200c-120 0 -180 60 -180 175v40c0 10 5 15 15 15h65c10 0 15 -5 15 -15v-40c0 -55 30 -85 85 -85h200c55 0 85 30 85 85v45zM377 780h-45c-10 0 -17 5 -25 15l-110 145c-7 9 0 15 10 15h55c5 0 13 -5 20 -15
l70 -95h5l70 95c7 10 15 15 20 15h55c10 0 17 -6 10 -15l-110 -145c-8 -10 -15 -15 -25 -15z" />
    <glyph glyph-name="Scedilla" unicode="&#x15e;" horiz-adv-x="710" 
d="M295 -200h75c20 0 35 15 35 35v10c0 20 -15 35 -35 35h-65c-10 0 -15 5 -15 15v35c0 20 10 30 10 30l20 30h-70c-120 0 -180 60 -180 175v40c0 10 5 15 15 15h65c10 0 15 -5 15 -15v-40c0 -55 30 -85 85 -85h200c55 0 85 30 85 85v45c0 35 -20 54 -55 65l-300 95
c-60 19 -100 60 -100 130v35c0 115 60 175 180 175h180c120 0 180 -60 180 -175v-40c0 -10 -5 -15 -15 -15h-65c-10 0 -15 5 -15 15v40c0 55 -30 85 -85 85h-180c-55 0 -85 -30 -85 -85v-25c0 -35 20 -54 55 -65l300 -95c60 -19 100 -60 100 -130v-55
c0 -115 -60 -175 -180 -175h-75l-30 -50h25c55 0 95 -40 95 -95v-10c0 -55 -40 -95 -95 -95h-75c-10 0 -15 5 -15 15v30c0 10 5 15 15 15z" />
    <glyph glyph-name="Scommaaccent" unicode="&#x218;" horiz-adv-x="710" 
d="M535 210c0 35 -20 54 -55 65l-300 95c-60 19 -100 60 -100 130v35c0 115 60 175 180 175h180c120 0 180 -60 180 -175v-40c0 -10 -5 -15 -15 -15h-65c-10 0 -15 5 -15 15v40c0 55 -30 85 -85 85h-180c-55 0 -85 -30 -85 -85v-25c0 -35 20 -54 55 -65l300 -95
c60 -19 100 -60 100 -130v-55c0 -115 -60 -175 -180 -175h-200c-120 0 -180 60 -180 175v40c0 10 5 15 15 15h65c10 0 15 -5 15 -15v-40c0 -55 30 -85 85 -85h200c55 0 85 30 85 85v45zM410 -95v-55c0 -15 -10 -30 -10 -30l-40 -80c-3 -5 -10 -10 -15 -10h-25
c-5 0 -7 5 -5 10l45 90h-25c-10 0 -15 5 -15 15v60c0 10 5 15 15 15h60c10 0 15 -5 15 -15z" />
    <glyph glyph-name="Tcaron" unicode="&#x164;" 
d="M340 610v-595c0 -10 -5 -15 -15 -15h-65c-10 0 -15 5 -15 15v595h-220c-10 0 -15 5 -15 15v60c0 10 5 15 15 15h535c10 0 15 -5 15 -15v-60c0 -10 -5 -15 -15 -15h-220zM313 780h-45c-10 0 -17 5 -25 15l-110 145c-7 9 0 15 10 15h55c5 0 13 -5 20 -15l70 -95h5l70 95
c7 10 15 15 20 15h55c10 0 17 -6 10 -15l-110 -145c-8 -10 -15 -15 -25 -15z" />
    <glyph glyph-name="Tcommaaccent" unicode="&#x162;" 
d="M340 610v-595c0 -10 -5 -15 -15 -15h-65c-10 0 -15 5 -15 15v595h-220c-10 0 -15 5 -15 15v60c0 10 5 15 15 15h535c10 0 15 -5 15 -15v-60c0 -10 -5 -15 -15 -15h-220zM340 -95v-55c0 -15 -10 -30 -10 -30l-40 -80c-3 -5 -10 -10 -15 -10h-25c-5 0 -7 5 -5 10l45 90h-25
c-10 0 -15 5 -15 15v60c0 10 5 15 15 15h60c10 0 15 -5 15 -15z" />
    <glyph glyph-name="Yacute" unicode="&#xdd;" horiz-adv-x="644" 
d="M122 685l200 -340l200 340c6 10 10 15 25 15h75c10 0 15 -6 10 -15l-265 -440v-231c0 -9 -5 -14 -15 -14h-60c-10 0 -15 5 -15 14v231l-265 440c-5 9 0 15 10 15h75c15 0 19 -5 25 -15zM461 930l-90 -135c-6 -10 -10 -15 -20 -15h-40c-10 0 -14 5 -10 15l60 135
c5 10 10 15 20 15h70c10 0 16 -6 10 -15z" />
    <glyph glyph-name="Ydieresis" unicode="&#x178;" horiz-adv-x="644" 
d="M122 685l200 -340l200 340c6 10 10 15 25 15h75c10 0 15 -6 10 -15l-265 -440v-231c0 -9 -5 -14 -15 -14h-60c-10 0 -15 5 -15 14v231l-265 440c-5 9 0 15 10 15h75c15 0 19 -5 25 -15zM260 810h-60c-10 0 -15 5 -15 15v60c0 10 5 15 15 15h60c10 0 15 -5 15 -15v-60
c0 -10 -5 -15 -15 -15zM440 810h-60c-10 0 -15 5 -15 15v60c0 10 5 15 15 15h60c10 0 15 -5 15 -15v-60c0 -10 -5 -15 -15 -15z" />
    <glyph glyph-name="dotlessi" unicode="&#x131;" horiz-adv-x="245" 
d="M150 0h-55c-10 0 -15 5 -15 15v480c0 10 5 15 15 15h55c10 0 15 -5 15 -15v-480c0 -10 -5 -15 -15 -15z" />
    <glyph glyph-name="igrave" unicode="&#xec;" horiz-adv-x="245" 
d="M150 0h-55c-10 0 -15 5 -15 15v480c0 10 5 15 15 15h55c10 0 15 -5 15 -15v-480c0 -10 -5 -15 -15 -15zM83 605l-90 135c-6 9 0 15 10 15h70c10 0 15 -5 20 -15l60 -135c4 -10 0 -15 -10 -15h-40c-10 0 -14 5 -20 15z" />
    <glyph glyph-name="iacute" unicode="&#xed;" horiz-adv-x="250" 
d="M150 0h-55c-10 0 -15 5 -15 15v480c0 10 5 15 15 15h55c10 0 15 -5 15 -15v-480c0 -10 -5 -15 -15 -15zM257 740l-90 -135c-6 -10 -10 -15 -20 -15h-40c-10 0 -14 5 -10 15l60 135c5 10 10 15 20 15h70c10 0 16 -6 10 -15z" />
    <glyph glyph-name="icircumflex" unicode="&#xee;" horiz-adv-x="261" 
d="M160 0h-55c-10 0 -15 5 -15 15v480c0 10 5 15 15 15h55c10 0 15 -5 15 -15v-480c0 -10 -5 -15 -15 -15zM108 765h45c10 0 17 -5 25 -15l110 -145c7 -9 0 -15 -10 -15h-55c-5 0 -13 5 -20 15l-70 95h-5l-70 -95c-7 -10 -15 -15 -20 -15h-55c-10 0 -17 6 -10 15l110 145
c8 10 15 15 25 15z" />
    <glyph glyph-name="idieresis" unicode="&#xef;" horiz-adv-x="250" 
d="M155 0h-55c-10 0 -15 5 -15 15v480c0 10 5 15 15 15h55c10 0 15 -5 15 -15v-480c0 -10 -5 -15 -15 -15zM65 620h-60c-10 0 -15 5 -15 15v60c0 10 5 15 15 15h60c10 0 15 -5 15 -15v-60c0 -10 -5 -15 -15 -15zM245 620h-60c-10 0 -15 5 -15 15v60c0 10 5 15 15 15h60
c10 0 15 -5 15 -15v-60c0 -10 -5 -15 -15 -15z" />
    <glyph glyph-name="imacron" unicode="&#x12b;" horiz-adv-x="260" 
d="M160 0h-55c-10 0 -15 5 -15 15v480c0 10 5 15 15 15h55c10 0 15 -5 15 -15v-480c0 -10 -5 -15 -15 -15zM270 685v-40c0 -10 -5 -15 -15 -15h-250c-10 0 -15 5 -15 15v40c0 10 5 15 15 15h250c10 0 15 -5 15 -15z" />
    <glyph glyph-name="iogonek" unicode="&#x12f;" horiz-adv-x="245" 
d="M90 0h1c-7 1 -11 6 -11 15v480c0 10 5 15 15 15h55c10 0 15 -5 15 -15v-480c0 -10 -5 -15 -15 -15c0 0 -110 -50 -110 -120c0 -25 20 -45 45 -45h50c10 0 15 -5 15 -15v-35c0 -10 -5 -15 -15 -15h-50c-65 0 -105 40 -105 100c0 90 110 130 110 130zM95 700h55
c10 0 15 -5 15 -15v-55c0 -10 -5 -15 -15 -15h-55c-10 0 -15 5 -15 15v55c0 10 5 15 15 15z" />
    <glyph glyph-name="nacute" unicode="&#x144;" horiz-adv-x="595" 
d="M280 520h75c105 0 160 -55 160 -155v-350c0 -10 -5 -15 -15 -15h-55c-10 0 -15 5 -15 15v350c0 45 -30 75 -75 75h-85c-60 0 -105 -45 -105 -105v-320c0 -10 -5 -15 -15 -15h-55c-10 0 -15 5 -15 15v480c0 10 5 15 15 15h55c10 0 15 -5 15 -15v-35h5s25 60 110 60z
M431 740l-90 -135c-6 -10 -10 -15 -20 -15h-40c-10 0 -14 5 -10 15l60 135c5 10 10 15 20 15h70c10 0 16 -6 10 -15z" />
    <glyph glyph-name="ncaron" unicode="&#x148;" horiz-adv-x="595" 
d="M280 520h75c105 0 160 -55 160 -155v-350c0 -10 -5 -15 -15 -15h-55c-10 0 -15 5 -15 15v350c0 45 -30 75 -75 75h-85c-60 0 -105 -45 -105 -105v-320c0 -10 -5 -15 -15 -15h-55c-10 0 -15 5 -15 15v480c0 10 5 15 15 15h55c10 0 15 -5 15 -15v-35h5s25 60 110 60z
M320 590h-45c-10 0 -17 5 -25 15l-110 145c-7 9 0 15 10 15h55c5 0 13 -5 20 -15l70 -95h5l70 95c7 10 15 15 20 15h55c10 0 17 -6 10 -15l-110 -145c-8 -10 -15 -15 -25 -15z" />
    <glyph glyph-name="ncommaaccent" unicode="&#x146;" horiz-adv-x="595" 
d="M280 520h75c105 0 160 -55 160 -155v-350c0 -10 -5 -15 -15 -15h-55c-10 0 -15 5 -15 15v350c0 45 -30 75 -75 75h-85c-60 0 -105 -45 -105 -105v-320c0 -10 -5 -15 -15 -15h-55c-10 0 -15 5 -15 15v480c0 10 5 15 15 15h55c10 0 15 -5 15 -15v-35h5s25 60 110 60z
M350 -95v-55c0 -15 -10 -30 -10 -30l-40 -80c-3 -5 -10 -10 -15 -10h-25c-5 0 -7 5 -5 10l45 90h-25c-10 0 -15 5 -15 15v60c0 10 5 15 15 15h60c10 0 15 -5 15 -15z" />
    <glyph glyph-name="ntilde" unicode="&#xf1;" horiz-adv-x="595" 
d="M280 520h75c105 0 160 -55 160 -155v-350c0 -10 -5 -15 -15 -15h-55c-10 0 -15 5 -15 15v350c0 45 -30 75 -75 75h-85c-60 0 -105 -45 -105 -105v-320c0 -10 -5 -15 -15 -15h-55c-10 0 -15 5 -15 15v480c0 10 5 15 15 15h55c10 0 15 -5 15 -15v-35h5s25 60 110 60z
M360 590c-70 0 -90 80 -115 80c-10 0 -20 -10 -20 -20v-45c0 -10 -5 -15 -15 -15h-35c-11 0 -15 5 -15 15v60c0 40 30 70 70 70c70 0 90 -80 115 -80c10 0 20 10 20 20v45c0 10 5 15 15 15h35c11 0 15 -5 15 -15v-60c0 -40 -30 -70 -70 -70z" />
    <glyph glyph-name="ograve" unicode="&#xf2;" 
d="M430 145v220c0 45 -30 75 -75 75h-125c-45 0 -75 -30 -75 -75v-220c0 -45 30 -75 75 -75h125c45 0 75 30 75 75zM515 365v-220c0 -100 -55 -155 -160 -155h-125c-105 0 -160 55 -160 155v220c0 100 55 155 160 155h125c105 0 160 -55 160 -155zM258 605l-90 135
c-6 9 0 15 10 15h70c10 0 15 -5 20 -15l60 -135c4 -10 0 -15 -10 -15h-40c-10 0 -14 5 -20 15z" />
    <glyph glyph-name="oacute" unicode="&#xf3;" 
d="M430 145v220c0 45 -30 75 -75 75h-125c-45 0 -75 -30 -75 -75v-220c0 -45 30 -75 75 -75h125c45 0 75 30 75 75zM515 365v-220c0 -100 -55 -155 -160 -155h-125c-105 0 -160 55 -160 155v220c0 100 55 155 160 155h125c105 0 160 -55 160 -155zM421 740l-90 -135
c-6 -10 -10 -15 -20 -15h-40c-10 0 -14 5 -10 15l60 135c5 10 10 15 20 15h70c10 0 16 -6 10 -15z" />
    <glyph glyph-name="ocircumflex" unicode="&#xf4;" 
d="M430 145v220c0 45 -30 75 -75 75h-125c-45 0 -75 -30 -75 -75v-220c0 -45 30 -75 75 -75h125c45 0 75 30 75 75zM515 365v-220c0 -100 -55 -155 -160 -155h-125c-105 0 -160 55 -160 155v220c0 100 55 155 160 155h125c105 0 160 -55 160 -155zM268 765h45
c10 0 17 -5 25 -15l110 -145c7 -9 0 -15 -10 -15h-55c-5 0 -13 5 -20 15l-70 95h-5l-70 -95c-7 -10 -15 -15 -20 -15h-55c-10 0 -17 6 -10 15l110 145c8 10 15 15 25 15z" />
    <glyph glyph-name="odieresis" unicode="&#xf6;" 
d="M430 145v220c0 45 -30 75 -75 75h-125c-45 0 -75 -30 -75 -75v-220c0 -45 30 -75 75 -75h125c45 0 75 30 75 75zM515 365v-220c0 -100 -55 -155 -160 -155h-125c-105 0 -160 55 -160 155v220c0 100 55 155 160 155h125c105 0 160 -55 160 -155zM235 630h-60
c-10 0 -15 5 -15 15v60c0 10 5 15 15 15h60c10 0 15 -5 15 -15v-60c0 -10 -5 -15 -15 -15zM415 630h-60c-10 0 -15 5 -15 15v60c0 10 5 15 15 15h60c10 0 15 -5 15 -15v-60c0 -10 -5 -15 -15 -15z" />
    <glyph glyph-name="ohungarumlaut" unicode="&#x151;" 
d="M430 145v220c0 45 -30 75 -75 75h-125c-45 0 -75 -30 -75 -75v-220c0 -45 30 -75 75 -75h125c45 0 75 30 75 75zM515 365v-220c0 -100 -55 -155 -160 -155h-125c-105 0 -160 55 -160 155v220c0 100 55 155 160 155h125c105 0 160 -55 160 -155zM342 745l-90 -140
c-6 -10 -12 -15 -20 -15h-30c-10 0 -14 5 -10 15l60 140c4 10 10 15 20 15h60c10 0 16 -5 10 -15zM497 745l-90 -140c-6 -10 -12 -15 -20 -15h-30c-10 0 -14 5 -10 15l60 140c4 10 10 15 20 15h60c10 0 16 -5 10 -15z" />
    <glyph glyph-name="omacron" unicode="&#x14d;" 
d="M430 145v220c0 45 -30 75 -75 75h-125c-45 0 -75 -30 -75 -75v-220c0 -45 30 -75 75 -75h125c45 0 75 30 75 75zM515 365v-220c0 -100 -55 -155 -160 -155h-125c-105 0 -160 55 -160 155v220c0 100 55 155 160 155h125c105 0 160 -55 160 -155zM430 685v-40
c0 -10 -5 -15 -15 -15h-250c-10 0 -15 5 -15 15v40c0 10 5 15 15 15h250c10 0 15 -5 15 -15z" />
    <glyph glyph-name="otilde" unicode="&#xf5;" 
d="M430 145v220c0 45 -30 75 -75 75h-125c-45 0 -75 -30 -75 -75v-220c0 -45 30 -75 75 -75h125c45 0 75 30 75 75zM515 365v-220c0 -100 -55 -155 -160 -155h-125c-105 0 -160 55 -160 155v220c0 100 55 155 160 155h125c105 0 160 -55 160 -155zM360 590
c-70 0 -90 80 -115 80c-10 0 -20 -10 -20 -20v-45c0 -10 -5 -15 -15 -15h-35c-11 0 -15 5 -15 15v60c0 40 30 70 70 70c70 0 90 -80 115 -80c10 0 20 10 20 20v45c0 10 5 15 15 15h35c11 0 15 -5 15 -15v-60c0 -40 -30 -70 -70 -70z" />
    <glyph glyph-name="racute" unicode="&#x155;" horiz-adv-x="360" 
d="M80 15v480c0 10 5 15 15 15h55c10 0 15 -5 15 -15v-35h5s25 60 110 60h55c10 0 15 -5 15 -15v-50c0 -10 -5 -15 -15 -15h-65c-60 0 -105 -45 -105 -105v-320c0 -10 -5 -15 -15 -15h-55c-10 0 -15 5 -15 15zM342 740l-90 -135c-6 -10 -10 -15 -20 -15h-40
c-10 0 -14 5 -10 15l60 135c5 10 10 15 20 15h70c10 0 16 -6 10 -15z" />
    <glyph glyph-name="rcaron" unicode="&#x159;" horiz-adv-x="361" 
d="M85 15v480c0 10 5 15 15 15h55c10 0 15 -5 15 -15v-35h5s25 60 110 60h55c10 0 15 -5 15 -15v-50c0 -10 -5 -15 -15 -15h-65c-60 0 -105 -45 -105 -105v-320c0 -10 -5 -15 -15 -15h-55c-10 0 -15 5 -15 15zM243 590h-45c-10 0 -17 5 -25 15l-110 145c-7 9 0 15 10 15h55
c5 0 13 -5 20 -15l70 -95h5l70 95c7 10 15 15 20 15h55c10 0 17 -6 10 -15l-110 -145c-8 -10 -15 -15 -25 -15z" />
    <glyph glyph-name="rcommaaccent" unicode="&#x157;" horiz-adv-x="366" 
d="M86 15v480c0 10 5 15 15 15h55c10 0 15 -5 15 -15v-35h5s25 60 110 60h55c10 0 15 -5 15 -15v-50c0 -10 -5 -15 -15 -15h-65c-60 0 -105 -45 -105 -105v-320c0 -10 -5 -15 -15 -15h-55c-10 0 -15 5 -15 15zM176 -95v-55c0 -15 -10 -30 -10 -30l-40 -80
c-3 -5 -10 -10 -15 -10h-25c-5 0 -7 5 -5 10l45 90h-25c-10 0 -15 5 -15 15v60c0 10 5 15 15 15h60c10 0 15 -5 15 -15z" />
    <glyph glyph-name="sacute" unicode="&#x15b;" horiz-adv-x="540" 
d="M60 365v10c0 95 50 145 150 145h100c105 0 160 -55 160 -155v-10c0 -10 -5 -15 -15 -15h-55c-10 0 -15 5 -15 15v10c0 45 -30 75 -75 75h-100c-40 0 -65 -25 -65 -65v-5c0 -20 15 -34 35 -40l220 -70c45 -14 80 -50 80 -110v-15c0 -95 -50 -145 -150 -145h-120
c-105 0 -160 55 -160 155v10c0 10 5 15 15 15h55c10 0 15 -5 15 -15v-10c0 -45 30 -75 75 -75h120c40 0 65 25 65 65v10c0 20 -15 34 -35 40l-220 70c-45 14 -80 50 -80 110zM391 740l-90 -135c-6 -10 -10 -15 -20 -15h-40c-10 0 -14 5 -10 15l60 135c5 10 10 15 20 15h70
c10 0 16 -6 10 -15z" />
    <glyph glyph-name="scaron" unicode="&#x161;" horiz-adv-x="540" 
d="M60 365v10c0 95 50 145 150 145h100c105 0 160 -55 160 -155v-10c0 -10 -5 -15 -15 -15h-55c-10 0 -15 5 -15 15v10c0 45 -30 75 -75 75h-100c-40 0 -65 -25 -65 -65v-5c0 -20 15 -34 35 -40l220 -70c45 -14 80 -50 80 -110v-15c0 -95 -50 -145 -150 -145h-120
c-105 0 -160 55 -160 155v10c0 10 5 15 15 15h55c10 0 15 -5 15 -15v-10c0 -45 30 -75 75 -75h120c40 0 65 25 65 65v10c0 20 -15 34 -35 40l-220 70c-45 14 -80 50 -80 110zM283 590h-45c-10 0 -17 5 -25 15l-110 145c-7 9 0 15 10 15h55c5 0 13 -5 20 -15l70 -95h5l70 95
c7 10 15 15 20 15h55c10 0 17 -6 10 -15l-110 -145c-8 -10 -15 -15 -25 -15z" />
    <glyph glyph-name="scedilla" unicode="&#x15f;" horiz-adv-x="540" 
d="M215 -200h75c20 0 35 15 35 35v10c0 20 -15 35 -35 35h-65c-10 0 -15 5 -15 15v35c0 20 10 30 10 30l20 30h-30c-105 0 -160 55 -160 155v10c0 10 5 15 15 15h55c10 0 15 -5 15 -15v-10c0 -45 30 -75 75 -75h120c40 0 65 25 65 65v10c0 20 -15 34 -35 40l-220 70
c-45 14 -80 50 -80 110v10c0 95 50 145 150 145h100c105 0 160 -55 160 -155v-10c0 -10 -5 -15 -15 -15h-55c-10 0 -15 5 -15 15v10c0 45 -30 75 -75 75h-100c-40 0 -65 -25 -65 -65v-5c0 -20 15 -34 35 -40l220 -70c45 -14 80 -50 80 -110v-15c0 -95 -50 -145 -150 -145
h-35l-30 -50h25c55 0 95 -40 95 -95v-10c0 -55 -40 -95 -95 -95h-75c-10 0 -15 5 -15 15v30c0 10 5 15 15 15z" />
    <glyph glyph-name="scommaaccent" unicode="&#x219;" horiz-adv-x="540" 
d="M60 365v10c0 95 50 145 150 145h100c105 0 160 -55 160 -155v-10c0 -10 -5 -15 -15 -15h-55c-10 0 -15 5 -15 15v10c0 45 -30 75 -75 75h-100c-40 0 -65 -25 -65 -65v-5c0 -20 15 -34 35 -40l220 -70c45 -14 80 -50 80 -110v-15c0 -95 -50 -145 -150 -145h-120
c-105 0 -160 55 -160 155v10c0 10 5 15 15 15h55c10 0 15 -5 15 -15v-10c0 -45 30 -75 75 -75h120c40 0 65 25 65 65v10c0 20 -15 34 -35 40l-220 70c-45 14 -80 50 -80 110zM320 -95v-55c0 -15 -10 -30 -10 -30l-40 -80c-3 -5 -10 -10 -15 -10h-25c-5 0 -7 5 -5 10l45 90
h-25c-10 0 -15 5 -15 15v60c0 10 5 15 15 15h60c10 0 15 -5 15 -15z" />
    <glyph glyph-name="tcaron" unicode="&#x165;" horiz-adv-x="400" 
d="M45 510h75v105c0 10 5 15 15 15h55c10 0 15 -5 15 -15v-105h100c10 0 15 -5 15 -15v-50c0 -10 -5 -15 -15 -15h-100v-280c0 -40 30 -70 70 -70h60c10 0 15 -5 15 -15v-50c0 -10 -5 -15 -15 -15h-60c-100 0 -155 55 -155 150v280h-75c-10 0 -15 5 -15 15v50
c0 10 5 15 15 15zM440 685v-55c0 -15 -10 -30 -10 -30l-40 -80c-3 -5 -10 -10 -15 -10h-25c-5 0 -7 5 -5 10l45 90h-25c-10 0 -15 5 -15 15v60c0 10 5 15 15 15h60c10 0 15 -5 15 -15z" />
    <glyph glyph-name="tcommaaccent" unicode="&#x163;" horiz-adv-x="400" 
d="M45 510h75v105c0 10 5 15 15 15h55c10 0 15 -5 15 -15v-105h100c10 0 15 -5 15 -15v-50c0 -10 -5 -15 -15 -15h-100v-280c0 -40 30 -70 70 -70h60c10 0 15 -5 15 -15v-50c0 -10 -5 -15 -15 -15h-60c-100 0 -155 55 -155 150v280h-75c-10 0 -15 5 -15 15v50
c0 10 5 15 15 15zM290 -105v-55c0 -15 -10 -30 -10 -30l-40 -80c-3 -5 -10 -10 -15 -10h-25c-5 0 -7 5 -5 10l45 90h-25c-10 0 -15 5 -15 15v60c0 10 5 15 15 15h60c10 0 15 -5 15 -15z" />
    <glyph glyph-name="yacute" unicode="&#xfd;" horiz-adv-x="509" 
d="M257 120l140 375c4 10 10 15 25 15h60c10 0 14 -5 10 -15l-195 -495c-55 -140 -105 -190 -195 -190h-20c-10 0 -15 5 -15 15v50c0 10 5 15 15 15h20c50 0 80 30 110 110l-195 495c-4 10 0 15 10 15h60c15 0 21 -5 25 -15l140 -375h5zM386 740l-90 -135
c-6 -10 -10 -15 -20 -15h-40c-10 0 -14 5 -10 15l60 135c5 10 10 15 20 15h70c10 0 16 -6 10 -15z" />
    <glyph glyph-name="ydieresis" unicode="&#xff;" horiz-adv-x="509" 
d="M257 120l140 375c4 10 10 15 25 15h60c10 0 14 -5 10 -15l-195 -495c-55 -140 -105 -190 -195 -190h-20c-10 0 -15 5 -15 15v50c0 10 5 15 15 15h20c50 0 80 30 110 110l-195 495c-4 10 0 15 10 15h60c15 0 21 -5 25 -15l140 -375h5zM190 630h-60c-10 0 -15 5 -15 15v60
c0 10 5 15 15 15h60c10 0 15 -5 15 -15v-60c0 -10 -5 -15 -15 -15zM370 630h-60c-10 0 -15 5 -15 15v60c0 10 5 15 15 15h60c10 0 15 -5 15 -15v-60c0 -10 -5 -15 -15 -15z" />
    <glyph glyph-name="Ugrave" unicode="&#xd9;" horiz-adv-x="780" 
d="M680 685v-520c0 -115 -60 -175 -180 -175h-220c-120 0 -180 60 -180 175v520c0 10 5 15 15 15h65c10 0 15 -5 15 -15v-520c0 -55 30 -85 85 -85h220c55 0 85 30 85 85v520c0 10 5 15 15 15h65c10 0 15 -5 15 -15zM359 795l-90 135c-6 9 0 15 10 15h70c10 0 15 -5 20 -15
l60 -135c4 -10 0 -15 -10 -15h-40c-10 0 -14 5 -20 15z" />
    <glyph glyph-name="Uacute" unicode="&#xda;" horiz-adv-x="780" 
d="M680 685v-520c0 -115 -60 -175 -180 -175h-220c-120 0 -180 60 -180 175v520c0 10 5 15 15 15h65c10 0 15 -5 15 -15v-520c0 -55 30 -85 85 -85h220c55 0 85 30 85 85v520c0 10 5 15 15 15h65c10 0 15 -5 15 -15zM511 930l-90 -135c-6 -10 -10 -15 -20 -15h-40
c-10 0 -14 5 -10 15l60 135c5 10 10 15 20 15h70c10 0 16 -6 10 -15z" />
    <glyph glyph-name="Ucircumflex" unicode="&#xdb;" horiz-adv-x="780" 
d="M680 685v-520c0 -115 -60 -175 -180 -175h-220c-120 0 -180 60 -180 175v520c0 10 5 15 15 15h65c10 0 15 -5 15 -15v-520c0 -55 30 -85 85 -85h220c55 0 85 30 85 85v520c0 10 5 15 15 15h65c10 0 15 -5 15 -15zM368 965h45c10 0 17 -5 25 -15l110 -145
c7 -9 0 -15 -10 -15h-55c-5 0 -13 5 -20 15l-70 95h-5l-70 -95c-7 -10 -15 -15 -20 -15h-55c-10 0 -17 6 -10 15l110 145c8 10 15 15 25 15z" />
    <glyph glyph-name="Udieresis" unicode="&#xdc;" horiz-adv-x="780" 
d="M680 685v-520c0 -115 -60 -175 -180 -175h-220c-120 0 -180 60 -180 175v520c0 10 5 15 15 15h65c10 0 15 -5 15 -15v-520c0 -55 30 -85 85 -85h220c55 0 85 30 85 85v520c0 10 5 15 15 15h65c10 0 15 -5 15 -15zM325 820h-60c-10 0 -15 5 -15 15v60c0 10 5 15 15 15h60
c10 0 15 -5 15 -15v-60c0 -10 -5 -15 -15 -15zM505 820h-60c-10 0 -15 5 -15 15v60c0 10 5 15 15 15h60c10 0 15 -5 15 -15v-60c0 -10 -5 -15 -15 -15z" />
    <glyph glyph-name="Uhungarumlaut" unicode="&#x170;" horiz-adv-x="780" 
d="M680 685v-520c0 -115 -60 -175 -180 -175h-220c-120 0 -180 60 -180 175v520c0 10 5 15 15 15h65c10 0 15 -5 15 -15v-520c0 -55 30 -85 85 -85h220c55 0 85 30 85 85v520c0 10 5 15 15 15h65c10 0 15 -5 15 -15zM432 935l-90 -140c-6 -10 -12 -15 -20 -15h-30
c-10 0 -14 5 -10 15l60 140c4 10 10 15 20 15h60c10 0 16 -5 10 -15zM587 935l-90 -140c-6 -10 -12 -15 -20 -15h-30c-10 0 -14 5 -10 15l60 140c4 10 10 15 20 15h60c10 0 16 -5 10 -15z" />
    <glyph glyph-name="Umacron" unicode="&#x16a;" horiz-adv-x="780" 
d="M680 685v-520c0 -115 -60 -175 -180 -175h-220c-120 0 -180 60 -180 175v520c0 10 5 15 15 15h65c10 0 15 -5 15 -15v-520c0 -55 30 -85 85 -85h220c55 0 85 30 85 85v520c0 10 5 15 15 15h65c10 0 15 -5 15 -15zM530 875v-40c0 -10 -5 -15 -15 -15h-250
c-10 0 -15 5 -15 15v40c0 10 5 15 15 15h250c10 0 15 -5 15 -15z" />
    <glyph glyph-name="Uogonek" unicode="&#x172;" horiz-adv-x="780" 
d="M680 685v-520c0 -115 -60 -175 -180 -175h-50s-90 -50 -90 -110c0 -25 20 -45 45 -45h50c10 0 15 -5 15 -15v-35c0 -10 -5 -15 -15 -15h-50c-65 0 -105 40 -105 100c0 70 90 120 90 120h-110c-120 0 -180 60 -180 175v520c0 10 5 15 15 15h65c10 0 15 -5 15 -15v-520
c0 -55 30 -85 85 -85h220c55 0 85 30 85 85v520c0 10 5 15 15 15h65c10 0 15 -5 15 -15z" />
    <glyph glyph-name="Uring" unicode="&#x16e;" horiz-adv-x="780" 
d="M680 685v-520c0 -115 -60 -175 -180 -175h-220c-120 0 -180 60 -180 175v520c0 10 5 15 15 15h65c10 0 15 -5 15 -15v-520c0 -55 30 -85 85 -85h220c55 0 85 30 85 85v520c0 10 5 15 15 15h65c10 0 15 -5 15 -15zM340 890v-25c0 -25 15 -40 40 -40h20c25 0 40 15 40 40
v25c0 25 -15 40 -40 40h-20c-25 0 -40 -15 -40 -40zM280 865v25c0 55 40 95 100 95h20c60 0 100 -40 100 -95v-25c0 -55 -40 -95 -100 -95h-20c-60 0 -100 40 -100 95z" />
    <glyph glyph-name="Zacute" unicode="&#x179;" horiz-adv-x="630" 
d="M40 80c0 15 5 25 10 30l420 495v5h-405c-10 0 -15 5 -15 15v60c0 10 5 15 15 15h510c10 0 15 -5 15 -15v-65c0 -15 -5 -25 -10 -30l-420 -495v-5h415c10 0 15 -5 15 -15v-60c0 -10 -5 -15 -15 -15h-520c-10 0 -15 5 -15 15v65zM444 930l-90 -135c-6 -10 -10 -15 -20 -15
h-40c-10 0 -14 5 -10 15l60 135c5 10 10 15 20 15h70c10 0 16 -6 10 -15z" />
    <glyph glyph-name="Zcaron" unicode="&#x17d;" horiz-adv-x="630" 
d="M40 80c0 15 5 25 10 30l420 495v5h-405c-10 0 -15 5 -15 15v60c0 10 5 15 15 15h510c10 0 15 -5 15 -15v-65c0 -15 -5 -25 -10 -30l-420 -495v-5h415c10 0 15 -5 15 -15v-60c0 -10 -5 -15 -15 -15h-520c-10 0 -15 5 -15 15v65zM343 780h-45c-10 0 -17 5 -25 15l-110 145
c-7 9 0 15 10 15h55c5 0 13 -5 20 -15l70 -95h5l70 95c7 10 15 15 20 15h55c10 0 17 -6 10 -15l-110 -145c-8 -10 -15 -15 -25 -15z" />
    <glyph glyph-name="Zdotaccent" unicode="&#x17b;" horiz-adv-x="630" 
d="M40 80c0 15 5 25 10 30l420 495v5h-405c-10 0 -15 5 -15 15v60c0 10 5 15 15 15h510c10 0 15 -5 15 -15v-65c0 -15 -5 -25 -10 -30l-420 -495v-5h415c10 0 15 -5 15 -15v-60c0 -10 -5 -15 -15 -15h-520c-10 0 -15 5 -15 15v65zM345 810h-60c-10 0 -15 5 -15 15v60
c0 10 5 15 15 15h60c10 0 15 -5 15 -15v-60c0 -10 -5 -15 -15 -15z" />
    <glyph glyph-name="ugrave" unicode="&#xf9;" horiz-adv-x="595" 
d="M315 -10h-75c-105 0 -160 55 -160 155v350c0 10 5 15 15 15h55c10 0 15 -5 15 -15v-350c0 -45 30 -75 75 -75h85c60 0 105 45 105 105v320c0 10 5 15 15 15h55c10 0 15 -5 15 -15v-480c0 -10 -5 -15 -15 -15h-55c-10 0 -15 5 -15 15v35h-5s-25 -60 -110 -60zM268 595
l-90 135c-6 9 0 15 10 15h70c10 0 15 -5 20 -15l60 -135c4 -10 0 -15 -10 -15h-40c-10 0 -14 5 -20 15z" />
    <glyph glyph-name="uacute" unicode="&#xfa;" horiz-adv-x="595" 
d="M315 -10h-75c-105 0 -160 55 -160 155v350c0 10 5 15 15 15h55c10 0 15 -5 15 -15v-350c0 -45 30 -75 75 -75h85c60 0 105 45 105 105v320c0 10 5 15 15 15h55c10 0 15 -5 15 -15v-480c0 -10 -5 -15 -15 -15h-55c-10 0 -15 5 -15 15v35h-5s-25 -60 -110 -60zM421 730
l-90 -135c-6 -10 -10 -15 -20 -15h-40c-10 0 -14 5 -10 15l60 135c5 10 10 15 20 15h70c10 0 16 -6 10 -15z" />
    <glyph glyph-name="ucircumflex" unicode="&#xfb;" horiz-adv-x="595" 
d="M315 -10h-75c-105 0 -160 55 -160 155v350c0 10 5 15 15 15h55c10 0 15 -5 15 -15v-350c0 -45 30 -75 75 -75h85c60 0 105 45 105 105v320c0 10 5 15 15 15h55c10 0 15 -5 15 -15v-480c0 -10 -5 -15 -15 -15h-55c-10 0 -15 5 -15 15v35h-5s-25 -60 -110 -60zM277 755h45
c10 0 17 -5 25 -15l110 -145c7 -9 0 -15 -10 -15h-55c-5 0 -13 5 -20 15l-70 95h-5l-70 -95c-7 -10 -15 -15 -20 -15h-55c-10 0 -17 6 -10 15l110 145c8 10 15 15 25 15z" />
    <glyph glyph-name="udieresis" unicode="&#xfc;" horiz-adv-x="595" 
d="M315 -10h-75c-105 0 -160 55 -160 155v350c0 10 5 15 15 15h55c10 0 15 -5 15 -15v-350c0 -45 30 -75 75 -75h85c60 0 105 45 105 105v320c0 10 5 15 15 15h55c10 0 15 -5 15 -15v-480c0 -10 -5 -15 -15 -15h-55c-10 0 -15 5 -15 15v35h-5s-25 -60 -110 -60zM240 610h-60
c-10 0 -15 5 -15 15v60c0 10 5 15 15 15h60c10 0 15 -5 15 -15v-60c0 -10 -5 -15 -15 -15zM420 610h-60c-10 0 -15 5 -15 15v60c0 10 5 15 15 15h60c10 0 15 -5 15 -15v-60c0 -10 -5 -15 -15 -15z" />
    <glyph glyph-name="uhungarumlaut" unicode="&#x171;" horiz-adv-x="595" 
d="M315 -10h-75c-105 0 -160 55 -160 155v350c0 10 5 15 15 15h55c10 0 15 -5 15 -15v-350c0 -45 30 -75 75 -75h85c60 0 105 45 105 105v320c0 10 5 15 15 15h55c10 0 15 -5 15 -15v-480c0 -10 -5 -15 -15 -15h-55c-10 0 -15 5 -15 15v35h-5s-25 -60 -110 -60zM337 735
l-90 -140c-6 -10 -12 -15 -20 -15h-30c-10 0 -14 5 -10 15l60 140c4 10 10 15 20 15h60c10 0 16 -5 10 -15zM492 735l-90 -140c-6 -10 -12 -15 -20 -15h-30c-10 0 -14 5 -10 15l60 140c4 10 10 15 20 15h60c10 0 16 -5 10 -15z" />
    <glyph glyph-name="umacron" unicode="&#x16b;" horiz-adv-x="595" 
d="M315 -10h-75c-105 0 -160 55 -160 155v350c0 10 5 15 15 15h55c10 0 15 -5 15 -15v-350c0 -45 30 -75 75 -75h85c60 0 105 45 105 105v320c0 10 5 15 15 15h55c10 0 15 -5 15 -15v-480c0 -10 -5 -15 -15 -15h-55c-10 0 -15 5 -15 15v35h-5s-25 -60 -110 -60zM440 685v-40
c0 -10 -5 -15 -15 -15h-250c-10 0 -15 5 -15 15v40c0 10 5 15 15 15h250c10 0 15 -5 15 -15z" />
    <glyph glyph-name="uogonek" unicode="&#x173;" horiz-adv-x="595" 
d="M315 -10h-75c-105 0 -160 55 -160 155v350c0 10 5 15 15 15h55c10 0 15 -5 15 -15v-350c0 -45 30 -75 75 -75h85c60 0 105 45 105 105v320c0 10 5 15 15 15h55c10 0 15 -5 15 -15v-480c0 -10 -5 -15 -15 -15c0 0 -110 -50 -110 -120c0 -25 20 -45 45 -45h50
c10 0 15 -5 15 -15v-35c0 -10 -5 -15 -15 -15h-50c-65 0 -105 40 -105 100c0 90 105 130 105 130s-5 6 -5 15v35h-5s-25 -60 -110 -60z" />
    <glyph glyph-name="uring" unicode="&#x16f;" horiz-adv-x="595" 
d="M315 -10h-75c-105 0 -160 55 -160 155v350c0 10 5 15 15 15h55c10 0 15 -5 15 -15v-350c0 -45 30 -75 75 -75h85c60 0 105 45 105 105v320c0 10 5 15 15 15h55c10 0 15 -5 15 -15v-480c0 -10 -5 -15 -15 -15h-55c-10 0 -15 5 -15 15v35h-5s-25 -60 -110 -60zM250 700v-25
c0 -25 15 -40 40 -40h20c25 0 40 15 40 40v25c0 25 -15 40 -40 40h-20c-25 0 -40 -15 -40 -40zM190 675v25c0 55 40 95 100 95h20c60 0 100 -40 100 -95v-25c0 -55 -40 -95 -100 -95h-20c-60 0 -100 40 -100 95z" />
    <glyph glyph-name="zacute" unicode="&#x17a;" horiz-adv-x="470" 
d="M335 425v5h-280c-10 0 -15 5 -15 15v50c0 10 5 15 15 15h370c10 0 15 -5 15 -15v-55c0 -15 -5 -25 -10 -30l-295 -325v-5h290c10 0 15 -5 15 -15v-50c0 -10 -5 -15 -15 -15h-380c-10 0 -15 5 -15 15v55c0 15 5 25 10 30zM362 730l-90 -135c-6 -10 -10 -15 -20 -15h-40
c-10 0 -14 5 -10 15l60 135c5 10 10 15 20 15h70c10 0 16 -6 10 -15z" />
    <glyph glyph-name="zcaron" unicode="&#x17e;" horiz-adv-x="470" 
d="M335 425v5h-280c-10 0 -15 5 -15 15v50c0 10 5 15 15 15h370c10 0 15 -5 15 -15v-55c0 -15 -5 -25 -10 -30l-295 -325v-5h290c10 0 15 -5 15 -15v-50c0 -10 -5 -15 -15 -15h-380c-10 0 -15 5 -15 15v55c0 15 5 25 10 30zM268 580h-45c-10 0 -17 5 -25 15l-110 145
c-7 9 0 15 10 15h55c5 0 13 -5 20 -15l70 -95h5l70 95c7 10 15 15 20 15h55c10 0 17 -6 10 -15l-110 -145c-8 -10 -15 -15 -25 -15z" />
    <glyph glyph-name="zdotaccent" unicode="&#x17c;" horiz-adv-x="470" 
d="M335 425v5h-280c-10 0 -15 5 -15 15v50c0 10 5 15 15 15h370c10 0 15 -5 15 -15v-55c0 -15 -5 -25 -10 -30l-295 -325v-5h290c10 0 15 -5 15 -15v-50c0 -10 -5 -15 -15 -15h-380c-10 0 -15 5 -15 15v55c0 15 5 25 10 30zM275 620h-60c-10 0 -15 5 -15 15v60
c0 10 5 15 15 15h60c10 0 15 -5 15 -15v-60c0 -10 -5 -15 -15 -15z" />
    <glyph glyph-name="space" unicode=" " horiz-adv-x="200" 
 />
    <glyph glyph-name="zero.tab" horiz-adv-x="740" 
d="M650 535v-370c0 -115 -60 -175 -180 -175h-200c-120 0 -180 60 -180 175v370c0 115 60 175 180 175h200c120 0 180 -60 180 -175zM185 535v-370c0 -55 30 -85 85 -85h200c55 0 85 30 85 85v370c0 55 -30 85 -85 85h-200c-55 0 -85 -30 -85 -85z" />
    <glyph glyph-name="one.tab" horiz-adv-x="740" 
d="M420 685v-595h170c10 0 15 -5 15 -15v-60c0 -10 -5 -15 -15 -15h-435c-10 0 -15 5 -15 15v60c0 10 5 15 15 15h170v520h-145c-10 0 -15 5 -15 15v60c0 10 5 15 15 15h225c10 0 15 -5 15 -15z" />
    <glyph glyph-name="two.tab" horiz-adv-x="740" 
d="M625 490c0 -70 -40 -110 -75 -140l-295 -255v-5h355c10 0 15 -5 15 -15v-60c0 -9 -5 -15 -15 -15h-480c-10 0 -15 5 -15 15v55c0 15 5 21 15 30l355 310c30 26 45 40 45 80v45c0 55 -30 85 -85 85h-150c-55 0 -85 -30 -85 -85v-40c0 -10 -5 -15 -15 -15h-65
c-10 0 -15 5 -15 15v40c0 115 60 175 180 175h150c120 0 180 -60 180 -175v-45z" />
    <glyph glyph-name="three.tab" horiz-adv-x="740" 
d="M400 420h45c120 0 180 -60 180 -175v-80c0 -115 -60 -175 -180 -175h-160c-120 0 -180 60 -180 175v40c0 10 5 15 15 15h65c10 0 15 -5 15 -15v-40c0 -55 30 -85 85 -85h160c55 0 85 30 85 85v80c0 55 -30 85 -85 85h-175c-10 0 -15 5 -15 15v40c0 15 10 25 20 35
l195 185v5h-330c-10 0 -15 5 -15 15v60c0 10 5 15 15 15h460c10 0 15 -5 15 -15v-40c0 -15 -10 -25 -20 -35l-195 -185v-5z" />
    <glyph glyph-name="four.tab" horiz-adv-x="740" 
d="M655 245v-60c0 -10 -5 -15 -15 -15h-75v-155c0 -10 -5 -15 -15 -15h-65c-10 0 -15 5 -15 15v155h-375c-10 0 -15 5 -15 15v41c0 19 4 25 15 39l335 420c9 11 15 15 30 15h90c10 0 15 -5 15 -15v-425h75c10 0 15 -5 15 -15zM465 590l-260 -325v-5h265v330h-5z" />
    <glyph glyph-name="five.tab" horiz-adv-x="740" 
d="M230 430h215c120 0 180 -60 180 -175v-90c0 -115 -60 -175 -180 -175h-160c-120 0 -180 60 -180 175v40c0 10 5 15 15 15h65c10 0 15 -5 15 -15v-40c0 -55 30 -85 85 -85h160c55 0 85 30 85 85v90c0 55 -30 85 -85 85h-295c-10 0 -15 5 -15 15v330c0 10 5 15 15 15h435
c10 0 15 -5 15 -15v-60c0 -10 -5 -15 -15 -15h-355v-180z" />
    <glyph glyph-name="six.tab" horiz-adv-x="740" 
d="M450 330h-245v-165c0 -55 30 -85 85 -85h160c55 0 85 30 85 86v78c0 56 -30 86 -85 86zM205 535v-115h245c120 0 180 -60 180 -175v-80c0 -115 -60 -175 -180 -175h-160c-120 0 -180 60 -180 175v370c0 115 60 175 180 175h140c120 0 180 -60 180 -175v-30
c0 -10 -5 -15 -15 -15h-65c-10 0 -15 5 -15 15v30c0 55 -30 85 -85 85h-140c-55 0 -85 -30 -85 -85z" />
    <glyph glyph-name="seven.tab" horiz-adv-x="740" 
d="M620 685v-41c0 -19 -3 -24 -10 -39l-270 -590c-5 -10 -15 -15 -25 -15h-65c-10 0 -15 5 -10 15l270 590v5h-375c-10 0 -15 5 -15 15v60c0 10 5 15 15 15h470c10 0 15 -5 15 -15z" />
    <glyph glyph-name="eight.tab" horiz-adv-x="740" 
d="M460 -10h-180c-120 0 -180 60 -180 175v65c0 115 100 135 100 135v5s-90 20 -90 120v45c0 115 60 175 180 175h160c120 0 180 -60 180 -175v-45c0 -100 -90 -120 -90 -120v-5s100 -20 100 -135v-65c0 -115 -60 -175 -180 -175zM280 80h180c55 0 85 30 85 85v65
c0 55 -30 85 -85 85h-180c-55 0 -85 -30 -85 -85v-65c0 -55 30 -85 85 -85zM450 620h-160c-55 0 -85 -30 -85 -85v-45c0 -55 30 -85 85 -85h160c55 0 85 30 85 85v45c0 55 -30 85 -85 85z" />
    <glyph glyph-name="nine.tab" horiz-adv-x="740" 
d="M290 370h245v165c0 55 -30 85 -85 85h-160c-55 0 -85 -30 -85 -86v-78c0 -56 30 -86 85 -86zM535 165v115h-245c-120 0 -180 60 -180 175v80c0 115 60 175 180 175h160c120 0 180 -60 180 -175v-370c0 -115 -60 -175 -180 -175h-140c-120 0 -180 60 -180 175v30
c0 10 5 15 15 15h65c10 0 15 -5 15 -15v-30c0 -55 30 -85 85 -85h140c55 0 85 30 85 85z" />
    <glyph glyph-name="zerosuperior" unicode="&#x2070;" horiz-adv-x="350" 
d="M320 675v-70c0 -90 -35 -125 -130 -125h-30c-95 0 -130 35 -130 125v70c0 90 35 125 130 125h30c95 0 130 -35 130 -125zM105 675v-70c0 -35 20 -55 55 -55h30c35 0 55 20 55 55v70c0 35 -20 55 -55 55h-30c-35 0 -55 -20 -55 -55z" />
    <glyph glyph-name="fivesuperior" unicode="&#x2075;" horiz-adv-x="335" 
d="M55 630v160c0 7 3 10 10 10h220c7 0 10 -3 10 -10v-50c0 -7 -3 -10 -10 -10h-155v-45h70c80 0 105 -25 105 -100v-5c0 -75 -25 -100 -105 -100h-50c-75 0 -110 35 -110 100c0 7 3 10 10 10h55c7 0 10 -3 10 -10c0 -15 15 -30 35 -30h50c20 0 30 10 30 30v10
c0 20 -10 30 -30 30h-135c-5 0 -10 5 -10 10z" />
    <glyph glyph-name="sixsuperior" unicode="&#x2076;" horiz-adv-x="330" 
d="M195 615h-80v-40c0 -20 10 -30 30 -30h50c20 0 30 10 30 30v10c0 20 -10 30 -30 30zM300 580v-5c0 -70 -25 -95 -105 -95h-50c-80 0 -105 25 -105 100v110c0 80 30 110 115 110h30c75 0 110 -35 110 -100c0 -7 -3 -10 -10 -10h-55c-7 0 -10 3 -10 10c0 15 -15 30 -35 30
h-30c-25 0 -40 -15 -40 -40v-15h80c80 0 105 -25 105 -95z" />
    <glyph glyph-name="sevensuperior" unicode="&#x2077;" horiz-adv-x="275" 
d="M190 730h-160c-7 0 -10 3 -10 10v50c0 7 3 10 10 10h235c7 0 10 -3 10 -10v-40c0 -25 -5 -30 -10 -40l-100 -220c-2 -5 -5 -10 -15 -10h-65c-5 0 -7 5 -5 10z" />
    <glyph glyph-name="eightsuperior" unicode="&#x2078;" horiz-adv-x="340" 
d="M300 705c0 -50 -35 -60 -35 -60s45 -15 45 -65v-5c0 -70 -25 -95 -105 -95h-70c-80 0 -105 25 -105 95v5c0 50 45 65 45 65s-35 10 -35 60c0 70 25 95 105 95h50c80 0 105 -25 105 -95zM205 615h-70c-20 0 -30 -10 -30 -30v-10c0 -20 10 -30 30 -30h70c20 0 30 10 30 30
v10c0 20 -10 30 -30 30zM195 740h-50c-20 0 -30 -10 -30 -30v-5c0 -20 10 -30 30 -30h50c20 0 30 10 30 30v5c0 20 -10 30 -30 30z" />
    <glyph glyph-name="ninesuperior" unicode="&#x2079;" horiz-adv-x="330" 
d="M135 665h80v40c0 20 -10 30 -30 30h-50c-20 0 -30 -10 -30 -30v-10c0 -20 10 -30 30 -30zM30 700v5c0 70 25 95 105 95h50c80 0 105 -25 105 -100v-49v-1v-60c0 -80 -30 -110 -115 -110h-30c-75 0 -110 35 -110 100c0 7 3 10 10 10h55c7 0 10 -3 10 -10
c0 -15 15 -30 35 -30h30c25 0 40 15 40 40v15h-80c-80 0 -105 25 -105 95z" />
    <glyph glyph-name="zeroinferior" unicode="&#x2080;" horiz-adv-x="350" 
d="M320 95v-70c0 -90 -35 -125 -130 -125h-30c-95 0 -130 35 -130 125v70c0 90 35 125 130 125h30c95 0 130 -35 130 -125zM105 95v-70c0 -35 20 -55 55 -55h30c35 0 55 20 55 55v70c0 35 -20 55 -55 55h-30c-35 0 -55 -20 -55 -55z" />
    <glyph glyph-name="oneinferior" unicode="&#x2081;" horiz-adv-x="235" 
d="M120 150h-80c-7 0 -10 3 -10 10v50c0 7 3 10 10 10h145c7 0 10 -3 10 -10v-300c0 -7 -3 -10 -10 -10h-55c-7 0 -10 3 -10 10v240z" />
    <glyph glyph-name="twoinferior" unicode="&#x2082;" horiz-adv-x="325" 
d="M295 115c0 -40 -25 -63 -45 -75l-115 -65v-5h140c7 0 10 -3 10 -10v-50c0 -7 -3 -10 -10 -10h-235c-7 0 -10 3 -10 10v60c0 15 5 20 15 25l145 85s30 15 30 35v5c0 20 -10 30 -30 30h-50c-20 0 -35 -15 -35 -30c0 -7 -3 -10 -10 -10h-55c-7 0 -10 3 -10 10
c0 65 35 100 110 100h50c80 0 105 -25 105 -100v-5z" />
    <glyph glyph-name="threeinferior" unicode="&#x2083;" horiz-adv-x="325" 
d="M110 105l65 40v5h-130c-7 0 -10 3 -10 10v50c0 7 3 10 10 10h235c7 0 10 -3 10 -10v-50c0 -10 -5 -15 -15 -20l-65 -40v-5c60 0 85 -25 85 -75v-20c0 -75 -25 -100 -105 -100h-50c-75 0 -110 35 -110 100c0 7 3 10 10 10h55c7 0 10 -3 10 -10c0 -15 15 -30 35 -30h50
c20 0 30 10 30 30v20c0 20 -10 30 -30 30h-85c-5 0 -10 5 -10 10v25c0 10 5 15 15 20z" />
    <glyph glyph-name="fourinferior" unicode="&#x2084;" horiz-adv-x="320" 
d="M255 210v-180h35c7 0 10 -3 10 -10v-40c0 -7 -3 -10 -10 -10h-35v-60c0 -7 -3 -10 -10 -10h-55c-7 0 -10 3 -10 10v60h-160c-7 0 -10 3 -10 10v35c0 10 10 25 10 25l125 170c4 5 10 10 20 10h80c7 0 10 -3 10 -10zM90 30h90v120h-5l-85 -115v-5z" />
    <glyph glyph-name="fiveinferior" unicode="&#x2085;" horiz-adv-x="335" 
d="M55 50v160c0 7 3 10 10 10h220c7 0 10 -3 10 -10v-50c0 -7 -3 -10 -10 -10h-155v-45h70c80 0 105 -25 105 -100v-5c0 -75 -25 -100 -105 -100h-50c-75 0 -110 35 -110 100c0 7 3 10 10 10h55c7 0 10 -3 10 -10c0 -15 15 -30 35 -30h50c20 0 30 10 30 30v10
c0 20 -10 30 -30 30h-135c-5 0 -10 5 -10 10z" />
    <glyph glyph-name="sixinferior" unicode="&#x2086;" horiz-adv-x="330" 
d="M195 35h-80v-40c0 -20 10 -30 30 -30h50c20 0 30 10 30 30v10c0 20 -10 30 -30 30zM300 0v-5c0 -70 -25 -95 -105 -95h-50c-80 0 -105 25 -105 100v110c0 80 30 110 115 110h30c75 0 110 -35 110 -100c0 -7 -3 -10 -10 -10h-55c-7 0 -10 3 -10 10c0 15 -15 30 -35 30h-30
c-25 0 -40 -15 -40 -40v-15h80c80 0 105 -25 105 -95z" />
    <glyph glyph-name="seveninferior" unicode="&#x2087;" horiz-adv-x="275" 
d="M190 150h-160c-7 0 -10 3 -10 10v50c0 7 3 10 10 10h235c7 0 10 -3 10 -10v-40c0 -25 -5 -30 -10 -40l-100 -220c-2 -5 -5 -10 -15 -10h-65c-5 0 -7 5 -5 10z" />
    <glyph glyph-name="eightinferior" unicode="&#x2088;" horiz-adv-x="340" 
d="M300 125c0 -50 -35 -60 -35 -60s45 -15 45 -65v-5c0 -70 -25 -95 -105 -95h-70c-80 0 -105 25 -105 95v5c0 50 45 65 45 65s-35 10 -35 60c0 70 25 95 105 95h50c80 0 105 -25 105 -95zM205 35h-70c-20 0 -30 -10 -30 -30v-10c0 -20 10 -30 30 -30h70c20 0 30 10 30 30
v10c0 20 -10 30 -30 30zM195 160h-50c-20 0 -30 -10 -30 -30v-5c0 -20 10 -30 30 -30h50c20 0 30 10 30 30v5c0 20 -10 30 -30 30z" />
    <glyph glyph-name="nineinferior" unicode="&#x2089;" horiz-adv-x="330" 
d="M135 85h80v40c0 20 -10 30 -30 30h-50c-20 0 -30 -10 -30 -30v-10c0 -20 10 -30 30 -30zM30 120v5c0 70 25 95 105 95h50c80 0 105 -25 105 -100v-49v-1v-60c0 -80 -30 -110 -115 -110h-30c-75 0 -110 35 -110 100c0 7 3 10 10 10h55c7 0 10 -3 10 -10
c0 -15 15 -30 35 -30h30c25 0 40 15 40 40v15h-80c-80 0 -105 25 -105 95z" />
    <glyph glyph-name="zero.numr" unicode="&#xf64d;" horiz-adv-x="350" 
d="M320 575v-70c0 -90 -35 -125 -130 -125h-30c-95 0 -130 35 -130 125v70c0 90 35 125 130 125h30c95 0 130 -35 130 -125zM105 575v-70c0 -35 20 -55 55 -55h30c35 0 55 20 55 55v70c0 35 -20 55 -55 55h-30c-35 0 -55 -20 -55 -55z" />
    <glyph glyph-name="one.numr" unicode="&#xf64e;" horiz-adv-x="235" 
d="M120 630h-80c-7 0 -10 3 -10 10v50c0 7 3 10 10 10h145c7 0 10 -3 10 -10v-300c0 -7 -3 -10 -10 -10h-55c-7 0 -10 3 -10 10v240z" />
    <glyph glyph-name="two.numr" unicode="&#xf64f;" horiz-adv-x="325" 
d="M295 595c0 -40 -25 -63 -45 -75l-115 -65v-5h140c7 0 10 -3 10 -10v-50c0 -7 -3 -10 -10 -10h-235c-7 0 -10 3 -10 10v60c0 15 5 20 15 25l145 85s30 15 30 35v5c0 20 -10 30 -30 30h-50c-20 0 -35 -15 -35 -30c0 -7 -3 -10 -10 -10h-55c-7 0 -10 3 -10 10
c0 65 35 100 110 100h50c80 0 105 -25 105 -100v-5z" />
    <glyph glyph-name="three.numr" unicode="&#xf650;" horiz-adv-x="325" 
d="M110 585l65 40v5h-130c-7 0 -10 3 -10 10v50c0 7 3 10 10 10h235c7 0 10 -3 10 -10v-50c0 -10 -5 -15 -15 -20l-65 -40v-5c60 0 85 -25 85 -75v-20c0 -75 -25 -100 -105 -100h-50c-75 0 -110 35 -110 100c0 7 3 10 10 10h55c7 0 10 -3 10 -10c0 -15 15 -30 35 -30h50
c20 0 30 10 30 30v20c0 20 -10 30 -30 30h-85c-5 0 -10 5 -10 10v25c0 10 5 15 15 20z" />
    <glyph glyph-name="four.numr" unicode="&#xf651;" horiz-adv-x="320" 
d="M255 690v-180h35c7 0 10 -3 10 -10v-40c0 -7 -3 -10 -10 -10h-35v-60c0 -7 -3 -10 -10 -10h-55c-7 0 -10 3 -10 10v60h-160c-7 0 -10 3 -10 10v35c0 10 10 25 10 25l125 170c4 5 10 10 20 10h80c7 0 10 -3 10 -10zM90 510h90v120h-5l-85 -115v-5z" />
    <glyph glyph-name="five.numr" unicode="&#xf652;" horiz-adv-x="335" 
d="M55 530v160c0 7 3 10 10 10h220c7 0 10 -3 10 -10v-50c0 -7 -3 -10 -10 -10h-155v-45h70c80 0 105 -25 105 -100v-5c0 -75 -25 -100 -105 -100h-50c-75 0 -110 35 -110 100c0 7 3 10 10 10h55c7 0 10 -3 10 -10c0 -15 15 -30 35 -30h50c20 0 30 10 30 30v10
c0 20 -10 30 -30 30h-135c-5 0 -10 5 -10 10z" />
    <glyph glyph-name="six.numr" unicode="&#xf653;" horiz-adv-x="330" 
d="M195 515h-80v-40c0 -20 10 -30 30 -30h50c20 0 30 10 30 30v10c0 20 -10 30 -30 30zM300 480v-5c0 -70 -25 -95 -105 -95h-50c-80 0 -105 25 -105 100v110c0 80 30 110 115 110h30c75 0 110 -35 110 -100c0 -7 -3 -10 -10 -10h-55c-7 0 -10 3 -10 10c0 15 -15 30 -35 30
h-30c-25 0 -40 -15 -40 -40v-15h80c80 0 105 -25 105 -95z" />
    <glyph glyph-name="seven.numr" unicode="&#xf654;" horiz-adv-x="275" 
d="M190 630h-160c-7 0 -10 3 -10 10v50c0 7 3 10 10 10h235c7 0 10 -3 10 -10v-40c0 -25 -5 -30 -10 -40l-100 -220c-2 -5 -5 -10 -15 -10h-65c-5 0 -7 5 -5 10z" />
    <glyph glyph-name="eight.numr" unicode="&#xf655;" horiz-adv-x="340" 
d="M300 605c0 -50 -35 -60 -35 -60s45 -15 45 -65v-5c0 -70 -25 -95 -105 -95h-70c-80 0 -105 25 -105 95v5c0 50 45 65 45 65s-35 10 -35 60c0 70 25 95 105 95h50c80 0 105 -25 105 -95zM205 515h-70c-20 0 -30 -10 -30 -30v-10c0 -20 10 -30 30 -30h70c20 0 30 10 30 30
v10c0 20 -10 30 -30 30zM195 640h-50c-20 0 -30 -10 -30 -30v-5c0 -20 10 -30 30 -30h50c20 0 30 10 30 30v5c0 20 -10 30 -30 30z" />
    <glyph glyph-name="nine.numr" unicode="&#xf656;" horiz-adv-x="330" 
d="M135 565h80v40c0 20 -10 30 -30 30h-50c-20 0 -30 -10 -30 -30v-10c0 -20 10 -30 30 -30zM30 600v5c0 70 25 95 105 95h50c80 0 105 -25 105 -100v-49v-1v-60c0 -80 -30 -110 -115 -110h-30c-75 0 -110 35 -110 100c0 7 3 10 10 10h55c7 0 10 -3 10 -10
c0 -15 15 -30 35 -30h30c25 0 40 15 40 40v15h-80c-80 0 -105 25 -105 95z" />
    <glyph glyph-name="zero.dnom" unicode="&#xf643;" horiz-adv-x="350" 
d="M320 195v-70c0 -90 -35 -125 -130 -125h-30c-95 0 -130 35 -130 125v70c0 90 35 125 130 125h30c95 0 130 -35 130 -125zM105 195v-70c0 -35 20 -55 55 -55h30c35 0 55 20 55 55v70c0 35 -20 55 -55 55h-30c-35 0 -55 -20 -55 -55z" />
    <glyph glyph-name="one.dnom" unicode="&#xf644;" horiz-adv-x="235" 
d="M120 250h-80c-7 0 -10 3 -10 10v50c0 7 3 10 10 10h145c7 0 10 -3 10 -10v-300c0 -7 -3 -10 -10 -10h-55c-7 0 -10 3 -10 10v240z" />
    <glyph glyph-name="two.dnom" unicode="&#xf645;" horiz-adv-x="325" 
d="M295 215c0 -40 -25 -63 -45 -75l-115 -65v-5h140c7 0 10 -3 10 -10v-50c0 -7 -3 -10 -10 -10h-235c-7 0 -10 3 -10 10v60c0 15 5 20 15 25l145 85s30 15 30 35v5c0 20 -10 30 -30 30h-50c-20 0 -35 -15 -35 -30c0 -7 -3 -10 -10 -10h-55c-7 0 -10 3 -10 10
c0 65 35 100 110 100h50c80 0 105 -25 105 -100v-5z" />
    <glyph glyph-name="three.dnom" unicode="&#xf646;" horiz-adv-x="325" 
d="M110 205l65 40v5h-130c-7 0 -10 3 -10 10v50c0 7 3 10 10 10h235c7 0 10 -3 10 -10v-50c0 -10 -5 -15 -15 -20l-65 -40v-5c60 0 85 -25 85 -75v-20c0 -75 -25 -100 -105 -100h-50c-75 0 -110 35 -110 100c0 7 3 10 10 10h55c7 0 10 -3 10 -10c0 -15 15 -30 35 -30h50
c20 0 30 10 30 30v20c0 20 -10 30 -30 30h-85c-5 0 -10 5 -10 10v25c0 10 5 15 15 20z" />
    <glyph glyph-name="four.dnom" unicode="&#xf647;" horiz-adv-x="320" 
d="M255 310v-180h35c7 0 10 -3 10 -10v-40c0 -7 -3 -10 -10 -10h-35v-60c0 -7 -3 -10 -10 -10h-55c-7 0 -10 3 -10 10v60h-160c-7 0 -10 3 -10 10v35c0 10 10 25 10 25l125 170c4 5 10 10 20 10h80c7 0 10 -3 10 -10zM90 130h90v120h-5l-85 -115v-5z" />
    <glyph glyph-name="five.dnom" unicode="&#xf648;" horiz-adv-x="335" 
d="M55 150v160c0 7 3 10 10 10h220c7 0 10 -3 10 -10v-50c0 -7 -3 -10 -10 -10h-155v-45h70c80 0 105 -25 105 -100v-5c0 -75 -25 -100 -105 -100h-50c-75 0 -110 35 -110 100c0 7 3 10 10 10h55c7 0 10 -3 10 -10c0 -15 15 -30 35 -30h50c20 0 30 10 30 30v10
c0 20 -10 30 -30 30h-135c-5 0 -10 5 -10 10z" />
    <glyph glyph-name="six.dnom" unicode="&#xf649;" horiz-adv-x="330" 
d="M195 135h-80v-40c0 -20 10 -30 30 -30h50c20 0 30 10 30 30v10c0 20 -10 30 -30 30zM300 100v-5c0 -70 -25 -95 -105 -95h-50c-80 0 -105 25 -105 100v110c0 80 30 110 115 110h30c75 0 110 -35 110 -100c0 -7 -3 -10 -10 -10h-55c-7 0 -10 3 -10 10c0 15 -15 30 -35 30
h-30c-25 0 -40 -15 -40 -40v-15h80c80 0 105 -25 105 -95z" />
    <glyph glyph-name="seven.dnom" unicode="&#xf64a;" horiz-adv-x="275" 
d="M190 250h-160c-7 0 -10 3 -10 10v50c0 7 3 10 10 10h235c7 0 10 -3 10 -10v-40c0 -25 -5 -30 -10 -40l-100 -220c-2 -5 -5 -10 -15 -10h-65c-5 0 -7 5 -5 10z" />
    <glyph glyph-name="eight.dnom" unicode="&#xf64b;" horiz-adv-x="340" 
d="M300 225c0 -50 -35 -60 -35 -60s45 -15 45 -65v-5c0 -70 -25 -95 -105 -95h-70c-80 0 -105 25 -105 95v5c0 50 45 65 45 65s-35 10 -35 60c0 70 25 95 105 95h50c80 0 105 -25 105 -95zM205 135h-70c-20 0 -30 -10 -30 -30v-10c0 -20 10 -30 30 -30h70c20 0 30 10 30 30
v10c0 20 -10 30 -30 30zM195 260h-50c-20 0 -30 -10 -30 -30v-5c0 -20 10 -30 30 -30h50c20 0 30 10 30 30v5c0 20 -10 30 -30 30z" />
    <glyph glyph-name="nine.dnom" unicode="&#xf64c;" horiz-adv-x="330" 
d="M135 185h80v40c0 20 -10 30 -30 30h-50c-20 0 -30 -10 -30 -30v-10c0 -20 10 -30 30 -30zM30 220v5c0 70 25 95 105 95h50c80 0 105 -25 105 -100v-49v-1v-60c0 -80 -30 -110 -115 -110h-30c-75 0 -110 35 -110 100c0 7 3 10 10 10h55c7 0 10 -3 10 -10
c0 -15 15 -30 35 -30h30c25 0 40 15 40 40v15h-80c-80 0 -105 25 -105 95z" />
    <glyph glyph-name="at.cap" horiz-adv-x="990" 
d="M410 395v-170c0 -25 10 -35 35 -35h90c30 0 45 15 45 45v150c0 30 -15 45 -45 45h-90c-25 0 -35 -10 -35 -35zM820 280v280c0 55 -30 85 -85 85h-470c-55 0 -85 -30 -85 -85v-500c0 -55 30 -85 85 -85h545c10 0 15 -5 15 -15v-55c0 -10 -5 -15 -15 -15h-545
c-115 0 -175 60 -175 170v500c0 110 60 170 175 170h470c115 0 175 -60 175 -170v-280c0 -115 -55 -170 -175 -170h-140c-10 0 -15 5 -15 15v15h-5s-15 -40 -65 -40h-65c-85 0 -130 45 -130 125v170c0 80 45 125 130 125h65c50 0 65 -40 65 -40h5v15c0 10 5 15 15 15h65
c10 0 15 -5 15 -15v-300h60c55 0 85 30 85 85z" />
    <glyph glyph-name="parenleft.cap" horiz-adv-x="360" 
d="M90 75v510c0 125 70 195 200 195h25c10 0 15 -5 15 -15v-60c0 -10 -5 -15 -15 -15h-25c-65 0 -105 -40 -105 -105v-510c0 -65 40 -105 105 -105h25c10 0 15 -5 15 -15v-60c0 -10 -5 -15 -15 -15h-25c-130 0 -200 70 -200 195z" />
    <glyph glyph-name="parenright.cap" horiz-adv-x="360" 
d="M270 585v-510c0 -125 -70 -195 -200 -195h-25c-10 0 -15 5 -15 15v60c0 10 5 15 15 15h25c65 0 105 40 105 105v510c0 65 -40 105 -105 105h-25c-10 0 -15 5 -15 15v60c0 10 5 15 15 15h25c130 0 200 -70 200 -195z" />
    <glyph glyph-name="bracketleft.cap" horiz-adv-x="360" 
d="M195 -30h120c10 0 15 -5 15 -15v-60c0 -10 -5 -15 -15 -15h-200c-10 0 -15 5 -15 15v870c0 10 5 15 15 15h200c10 0 15 -5 15 -15v-60c0 -10 -5 -15 -15 -15h-120v-720z" />
    <glyph glyph-name="bracketright.cap" horiz-adv-x="360" 
d="M45 -30h120v720h-120c-10 0 -15 5 -15 15v60c0 10 5 15 15 15h200c10 0 15 -5 15 -15v-870c0 -10 -5 -15 -15 -15h-200c-10 0 -15 5 -15 15v60c0 10 5 15 15 15z" />
    <glyph glyph-name="braceleft.cap" horiz-adv-x="405" 
d="M180 333v-6s75 -17 75 -122v-150c0 -55 30 -85 85 -85h20c10 0 15 -5 15 -15v-60c0 -10 -5 -15 -15 -15h-20c-120 0 -180 60 -180 175v150c0 55 -30 85 -85 85h-10c-10 0 -15 5 -15 15v50c0 10 5 15 15 15h10c55 0 85 30 85 85v150c0 115 60 175 180 175h20
c10 0 15 -5 15 -15v-60c0 -10 -5 -15 -15 -15h-20c-55 0 -85 -30 -85 -85v-150c0 -105 -75 -122 -75 -122z" />
    <glyph glyph-name="braceright.cap" horiz-adv-x="405" 
d="M225 327v6s-75 17 -75 122v150c0 55 -30 85 -85 85h-20c-10 0 -15 5 -15 15v60c0 10 5 15 15 15h20c120 0 180 -60 180 -175v-150c0 -55 30 -85 85 -85h10c10 0 15 -5 15 -15v-50c0 -10 -5 -15 -15 -15h-10c-55 0 -85 -30 -85 -85v-150c0 -115 -60 -175 -180 -175h-20
c-10 0 -15 5 -15 15v60c0 10 5 15 15 15h20c55 0 85 30 85 85v150c0 105 75 122 75 122z" />
    <glyph glyph-name="exclamdown.cap" horiz-adv-x="290" 
d="M125 500h40c10 0 14 -5 15 -15l10 -155v-315c0 -10 -5 -15 -15 -15h-60c-10 0 -15 5 -15 15v315l10 155c1 10 5 15 15 15zM115 700h60c10 0 15 -5 15 -15v-60c0 -10 -5 -15 -15 -15h-60c-10 0 -15 5 -15 15v60c0 10 5 15 15 15z" />
    <glyph glyph-name="questiondown.cap" horiz-adv-x="610" 
d="M240 430h40l10 55c2 10 5 15 15 15h40c10 0 14 -5 15 -15l15 -130c0 -10 -5 -15 -15 -15h-120c-55 0 -85 -30 -85 -85v-90c0 -55 30 -85 85 -85h150c55 0 85 30 85 85v30c0 10 5 15 15 15h65c10 0 15 -5 15 -15v-30c0 -115 -60 -175 -180 -175h-150
c-120 0 -180 60 -180 175v90c0 115 60 175 180 175zM295 700h60c10 0 15 -5 15 -15v-60c0 -10 -5 -15 -15 -15h-60c-10 0 -15 5 -15 15v60c0 10 5 15 15 15z" />
    <glyph glyph-name="guillemotleft.cap" horiz-adv-x="493" 
d="M260 500l-125 -195l125 -195c6 -10 0 -15 -10 -15h-60c-15 0 -19 6 -25 15l-125 195l125 195c6 9 10 15 25 15h60c10 0 16 -5 10 -15zM450 500l-125 -195l125 -195c6 -10 0 -15 -10 -15h-60c-15 0 -19 6 -25 15l-125 195l125 195c6 9 10 15 25 15h60c10 0 16 -5 10 -15z
" />
    <glyph glyph-name="guillemotright.cap" horiz-adv-x="493" 
d="M358 305l-125 195c-6 10 0 15 10 15h60c15 0 19 -6 25 -15l125 -195l-125 -195c-6 -9 -10 -15 -25 -15h-60c-10 0 -16 5 -10 15zM168 305l-125 195c-6 10 0 15 10 15h60c15 0 19 -6 25 -15l125 -195l-125 -195c-6 -9 -10 -15 -25 -15h-60c-10 0 -16 5 -10 15z" />
    <glyph glyph-name="guilsinglleft.cap" horiz-adv-x="313" 
d="M270 515l-135 -210l135 -210c6 -10 0 -15 -10 -15h-60c-15 0 -19 6 -25 15l-135 210l135 210c6 9 10 15 25 15h60c10 0 16 -5 10 -15z" />
    <glyph glyph-name="guilsinglright.cap" horiz-adv-x="313" 
d="M178 305l-135 210c-6 10 0 15 10 15h60c15 0 19 -5 25 -15l135 -210l-135 -210c-6 -10 -10 -15 -25 -15h-60c-10 0 -16 5 -10 15z" />
    <glyph glyph-name="hyphen.cap" horiz-adv-x="435" 
d="M405 390v-60c0 -10 -5 -15 -15 -15h-345c-10 0 -15 5 -15 15v60c0 10 5 15 15 15h345c10 0 15 -5 15 -15z" />
    <glyph glyph-name="endash.cap" horiz-adv-x="590" 
d="M560 385v-60c0 -10 -5 -15 -15 -15h-500c-10 0 -15 5 -15 15v60c0 10 5 15 15 15h500c10 0 15 -5 15 -15z" />
    <glyph glyph-name="emdash.cap" horiz-adv-x="780" 
d="M30 325v60c0 10 5 15 15 15h690c10 0 15 -5 15 -15v-60c0 -10 -5 -15 -15 -15h-690c-10 0 -15 5 -15 15z" />
    <glyph glyph-name="periodcentered.cap" horiz-adv-x="200" 
d="M130 305h-60c-10 0 -15 5 -15 15v60c0 10 5 15 15 15h60c10 0 15 -5 15 -15v-60c0 -10 -5 -15 -15 -15z" />
    <glyph glyph-name="nbspace" unicode="&#xa0;" horiz-adv-x="200" 
 />
    </font>
</defs>
</svg>
