<?xml version="1.0" standalone="no"?>
<!DOCTYPE svg PUBLIC "-//W3C//DTD SVG 1.1//EN" "http://www.w3.org/Graphics/SVG/1.1/DTD/svg11.dtd" >
<svg xmlns="http://www.w3.org/2000/svg" xmlns:xlink="http://www.w3.org/1999/xlink" version="1.1">
<metadata>
Created by FontForge 20161116 at Tue Aug 30 21:25:18 2016
 By Jimmy Warting
Designed for Typetype in 2016 by Ivan Gladkikh. TT Lakes is one of series of fontfamilies which were designed for use in web and mobile applications, print and multimedia environments. 
</metadata>
<defs>
<font id="TTLakesCondensed-Bold" horiz-adv-x="525" >
  <font-face 
    font-family="TT Lakes Condensed"
    font-weight="700"
    font-stretch="condensed"
    units-per-em="1000"
    panose-1="2 0 8 3 3 0 0 2 0 4"
    ascent="800"
    descent="-200"
    x-height="510"
    cap-height="700"
    bbox="-114.704 -335 1130 990"
    underline-thickness="50"
    underline-position="-100"
    stemh="135"
    stemv="150"
    unicode-range="U+000D-F6D4"
  />
<missing-glyph horiz-adv-x="0" 
 />
    <glyph glyph-name=".notdef" horiz-adv-x="0" 
 />
    <glyph glyph-name="quotedbl" unicode="&#x22;" horiz-adv-x="370" 
d="M230 700h60c15 0 25 -10 25 -25v-190c0 -15 -10 -25 -25 -25h-60c-15 0 -25 10 -25 25v190c0 15 10 25 25 25zM80 700h60c15 0 25 -10 25 -25v-190c0 -15 -10 -25 -25 -25h-60c-15 0 -25 10 -25 25v190c0 15 10 25 25 25z" />
    <glyph glyph-name="numbersign" unicode="#" horiz-adv-x="625" 
d="M100 550h75l30 125c5 20 10 25 35 25h85c15 0 20 -5 15 -25l-30 -125h90l30 125c5 20 10 25 25 25h95c15 0 20 -5 15 -25l-30 -125h45c15 0 25 -10 25 -25v-75c0 -15 -10 -25 -25 -25h-70l-35 -150h50c15 0 25 -10 25 -25v-75c0 -15 -10 -25 -25 -25h-75l-30 -125
c-5 -20 -10 -25 -35 -25h-85c-15 0 -20 5 -15 25l30 125h-90l-30 -125c-5 -20 -10 -25 -25 -25h-95c-15 0 -20 5 -15 25l30 125h-45c-15 0 -25 10 -25 25v75c0 15 10 25 25 25h70l35 150h-50c-15 0 -25 10 -25 25v75c0 15 10 25 25 25zM285 425l-35 -150h90l35 150h-90z" />
    <glyph glyph-name="dollar" unicode="$" horiz-adv-x="615" 
d="M420 175v30c0 25 -10 35 -35 45l-220 85c-75 29 -110 65 -110 150v70c0 105 50 155 155 155h195c105 0 155 -50 155 -155v-65c0 -15 -10 -25 -25 -25h-100c-15 0 -25 10 -25 25v35c0 30 -20 50 -50 50h-105c-30 0 -50 -20 -50 -50v-30c0 -25 10 -35 35 -45l220 -85
c75 -29 110 -65 110 -150v-70c0 -105 -50 -155 -155 -155h-35v-55c0 -15 -10 -25 -25 -25h-90c-15 0 -25 10 -25 25v55h-40c-105 0 -155 50 -155 155v65c0 15 10 25 25 25h100c15 0 25 -10 25 -25v-35c0 -30 20 -50 50 -50h125c30 0 50 20 50 50zM380 710h-140v55
c0 15 10 25 25 25h90c15 0 25 -10 25 -25v-55z" />
    <glyph glyph-name="percent" unicode="%" horiz-adv-x="750" 
d="M180 25l250 650c6 15 15 25 40 25h85c10 0 21 -10 15 -25l-250 -650c-6 -15 -15 -25 -40 -25h-85c-10 0 -21 10 -15 25zM30 480v120c0 80 30 110 110 110h50c80 0 110 -30 110 -110v-120c0 -80 -30 -110 -110 -110h-50c-80 0 -110 30 -110 110zM130 580v-80
c0 -25 10 -35 35 -35s35 10 35 35v80c0 25 -10 35 -35 35s-35 -10 -35 -35zM720 220v-120c0 -80 -30 -110 -110 -110h-50c-80 0 -110 30 -110 110v120c0 80 30 110 110 110h50c80 0 110 -30 110 -110zM620 120v80c0 25 -10 35 -35 35s-35 -10 -35 -35v-80
c0 -25 10 -35 35 -35s35 10 35 35z" />
    <glyph glyph-name="ampersand" unicode="&#x26;" horiz-adv-x="615" 
d="M275 435l150 -175l40 45c9 11 20 10 30 0l60 -60c10 -10 10 -19 0 -30l-45 -50l125 -140c10 -11 0 -25 -15 -25h-120c-30 0 -42 10 -55 25l-30 35s-53 -70 -145 -70h-70c-105 0 -155 50 -155 155v72c0 132 100 143 100 143v10s-50 30 -50 105v80c0 105 50 155 155 155h95
c105 0 155 -50 155 -155v-45c0 -15 -10 -25 -25 -25h-90c-15 0 -25 10 -25 25v15c0 30 -20 50 -50 50h-15c-30 0 -50 -20 -50 -50v-30c0 -25 13 -40 30 -60zM240 125h30c35 0 60 35 60 35l-100 115s-40 -5 -40 -50v-50c0 -30 20 -50 50 -50z" />
    <glyph glyph-name="quotesingle" unicode="'" horiz-adv-x="220" 
d="M80 700h60c15 0 25 -10 25 -25v-190c0 -15 -10 -25 -25 -25h-60c-15 0 -25 10 -25 25v190c0 15 10 25 25 25z" />
    <glyph glyph-name="parenleft" unicode="(" horiz-adv-x="360" 
d="M75 5v550c0 115 60 175 175 175h55c15 0 25 -10 25 -25v-80c0 -15 -10 -25 -25 -25h-20c-40 0 -65 -25 -65 -65v-510c0 -40 25 -65 65 -65h20c15 0 25 -10 25 -25v-80c0 -15 -10 -25 -25 -25h-55c-115 0 -175 60 -175 175z" />
    <glyph glyph-name="parenright" unicode=")" horiz-adv-x="360" 
d="M285 555v-550c0 -115 -60 -175 -175 -175h-55c-15 0 -25 10 -25 25v80c0 15 10 25 25 25h20c40 0 65 25 65 65v510c0 40 -25 65 -65 65h-20c-15 0 -25 10 -25 25v80c0 15 10 25 25 25h55c115 0 175 -60 175 -175z" />
    <glyph glyph-name="asterisk" unicode="*" horiz-adv-x="375" 
d="M165 700h45c15 0 25 -10 25 -25v-75h80c15 0 25 -10 25 -25v-45c0 -15 -10 -25 -25 -25h-50l45 -50c9 -11 10 -25 0 -35l-35 -35c-10 -10 -26 -11 -35 0l-53 60l-52 -60c-10 -11 -25 -10 -35 0l-35 35c-10 10 -10 24 0 35l45 50h-50c-15 0 -25 10 -25 25v45
c0 15 10 25 25 25h80v75c0 15 10 25 25 25z" />
    <glyph glyph-name="plus" unicode="+" horiz-adv-x="440" 
d="M280 255v-120c0 -15 -10 -25 -25 -25h-70c-15 0 -25 10 -25 25v120h-110c-15 0 -25 10 -25 25v70c0 15 10 25 25 25h110v120c0 15 10 25 25 25h70c15 0 25 -10 25 -25v-120h110c15 0 25 -10 25 -25v-70c0 -15 -10 -25 -25 -25h-110z" />
    <glyph glyph-name="comma" unicode="," horiz-adv-x="200" 
d="M165 110v-75c0 -30 -6 -35 -15 -55l-30 -70c-4 -10 -15 -20 -30 -20h-20c-15 0 -21 5 -15 20l35 90h-30c-15 0 -25 10 -25 25v85c0 15 10 25 25 25h80c15 0 25 -10 25 -25z" />
    <glyph glyph-name="hyphen" unicode="-" horiz-adv-x="395" 
d="M345 250h-295c-15 0 -25 10 -25 25v75c0 15 10 25 25 25h295c15 0 25 -10 25 -25v-75c0 -15 -10 -25 -25 -25z" />
    <glyph glyph-name="slash" unicode="/" horiz-adv-x="389" 
d="M22 25l195 650c5 15 15 25 35 25h100c10 0 20 -10 15 -25l-195 -650c-5 -15 -15 -25 -35 -25h-100c-10 0 -20 10 -15 25z" />
    <glyph glyph-name="zero" unicode="0" horiz-adv-x="640" 
d="M575 555v-410c0 -105 -50 -155 -155 -155h-200c-105 0 -155 50 -155 155v410c0 105 50 155 155 155h200c105 0 155 -50 155 -155zM425 175v350c0 30 -20 50 -50 50h-110c-30 0 -50 -20 -50 -50v-350c0 -30 20 -50 50 -50h110c30 0 50 20 50 50z" />
    <glyph glyph-name="one" unicode="1" horiz-adv-x="355" 
d="M130 25v540h-95c-15 0 -25 10 -25 25v85c0 15 10 25 25 25h220c15 0 25 -10 25 -25v-650c0 -15 -10 -25 -25 -25h-100c-15 0 -25 10 -25 25z" />
    <glyph glyph-name="two" unicode="2" horiz-adv-x="575" 
d="M85 170l255 255c25 25 35 35 35 70v30c0 30 -20 50 -50 50h-70c-30 0 -50 -20 -50 -50v-35c0 -15 -10 -25 -25 -25h-100c-15 0 -25 10 -25 25v65c0 105 50 155 155 155h160c105 0 155 -50 155 -155v-80c0 -65 -35 -100 -70 -135l-195 -195v-10h240c15 0 25 -10 25 -25
v-85c0 -15 -10 -25 -25 -25h-425c-15 0 -25 10 -25 25v70c0 40 10 50 35 75z" />
    <glyph glyph-name="three" unicode="3" horiz-adv-x="570" 
d="M175 330v42c0 30 10 43 20 53l125 130v10h-240c-15 0 -25 10 -25 25v85c0 15 10 25 25 25h405c15 0 25 -10 25 -25v-60c0 -30 -10 -40 -25 -55l-125 -130v-10c110 0 160 -50 160 -155v-120c0 -105 -50 -155 -155 -155h-175c-112 0 -155 50 -155 155v60c0 15 10 25 25 25
h100c15 0 25 -10 25 -25v-30c0 -30 20 -50 50 -50h85c30 0 50 20 50 50v80c0 30 -20 50 -50 50h-120c-15 0 -25 10 -25 25z" />
    <glyph glyph-name="four" unicode="4" horiz-adv-x="565" 
d="M540 265v-85c0 -15 -10 -25 -25 -25h-40v-130c0 -15 -10 -25 -25 -25h-100c-15 0 -25 10 -25 25v130h-285c-15 0 -25 10 -25 25v70c0 25 4 30 20 55l235 370c10 15 18 25 50 25h130c15 0 25 -10 25 -25v-385h40c15 0 25 -10 25 -25zM315 520l-140 -220v-10h150v230h-10z
" />
    <glyph glyph-name="five" unicode="5" horiz-adv-x="580" 
d="M225 565v-125h150c105 0 155 -50 155 -155v-140c0 -105 -50 -155 -155 -155h-170c-105 0 -155 50 -155 155v55c0 15 10 25 25 25h100c15 0 25 -10 25 -25v-25c0 -30 20 -50 50 -50h80c30 0 50 20 50 50v80c0 30 -20 50 -50 50h-230c-15 0 -25 10 -25 25v345
c0 15 10 25 25 25h380c15 0 25 -10 25 -25v-85c0 -15 -10 -25 -25 -25h-255z" />
    <glyph glyph-name="six" unicode="6" horiz-adv-x="595" 
d="M530 555v-50c0 -15 -10 -25 -25 -25h-100c-15 0 -25 10 -25 25v20c0 30 -20 50 -50 50h-65c-30 0 -50 -20 -50 -50v-100h170c105 0 155 -50 155 -155v-125c0 -105 -50 -155 -155 -155h-165c-105 0 -155 50 -155 155v410c0 105 50 155 155 155h155c105 0 155 -50 155 -155
zM265 125h75c30 0 50 20 50 50v65c0 30 -20 50 -50 50h-125v-115c0 -30 20 -50 50 -50z" />
    <glyph glyph-name="seven" unicode="7" horiz-adv-x="500" 
d="M480 675v-50c0 -55 -9 -65 -15 -80l-195 -520c-6 -15 -15 -25 -30 -25h-110c-10 0 -21 10 -15 25l200 530v10h-270c-15 0 -25 10 -25 25v85c0 15 10 25 25 25h410c15 0 25 -10 25 -25z" />
    <glyph glyph-name="eight" unicode="8" horiz-adv-x="605" 
d="M540 555v-85c0 -90 -80 -100 -80 -100v-10s90 -10 90 -120v-95c0 -105 -50 -155 -155 -155h-185c-105 0 -155 50 -155 155v95c0 110 90 120 90 120v10s-80 10 -80 100v85c0 105 50 155 155 155h165c105 0 155 -50 155 -155zM350 290h-95c-30 0 -50 -20 -50 -50v-65
c0 -30 20 -50 50 -50h95c30 0 50 20 50 50v65c0 30 -20 50 -50 50zM340 575h-75c-30 0 -50 -20 -50 -50v-55c0 -30 20 -50 50 -50h75c30 0 50 20 50 50v55c0 30 -20 50 -50 50z" />
    <glyph glyph-name="nine" unicode="9" horiz-adv-x="595" 
d="M65 145v50c0 15 10 25 25 25h100c15 0 25 -10 25 -25v-20c0 -30 20 -50 50 -50h65c30 0 50 20 50 50v100h-170c-105 0 -155 50 -155 155v125c0 105 50 155 155 155h165c105 0 155 -50 155 -155v-410c0 -105 -50 -155 -155 -155h-155c-105 0 -155 50 -155 155zM330 575
h-75c-30 0 -50 -20 -50 -50v-65c0 -30 20 -50 50 -50h125v115c0 30 -20 50 -50 50z" />
    <glyph glyph-name="colon" unicode=":" horiz-adv-x="200" 
d="M60 135h80c15 0 25 -10 25 -25v-85c0 -15 -10 -25 -25 -25h-80c-15 0 -25 10 -25 25v85c0 15 10 25 25 25zM60 510h80c15 0 25 -10 25 -25v-85c0 -15 -10 -25 -25 -25h-80c-15 0 -25 10 -25 25v85c0 15 10 25 25 25z" />
    <glyph glyph-name="semicolon" unicode=";" horiz-adv-x="200" 
d="M165 110v-75c0 -30 -6 -35 -15 -55l-30 -70c-4 -10 -15 -20 -30 -20h-20c-15 0 -21 5 -15 20l35 90h-30c-15 0 -25 10 -25 25v85c0 15 10 25 25 25h80c15 0 25 -10 25 -25zM60 510h80c15 0 25 -10 25 -25v-85c0 -15 -10 -25 -25 -25h-80c-15 0 -25 10 -25 25v85
c0 15 10 25 25 25z" />
    <glyph glyph-name="less" unicode="&#x3c;" horiz-adv-x="460" 
d="M30 220v60c0 20 10 27 25 35l350 175c15 8 25 0 25 -15v-80c0 -15 -10 -28 -25 -35l-215 -105v-10l215 -105c15 -7 25 -20 25 -35v-80c0 -15 -10 -23 -25 -15l-350 175c-15 8 -25 15 -25 35z" />
    <glyph glyph-name="equal" unicode="=" horiz-adv-x="400" 
d="M340 350h-280c-15 0 -25 10 -25 25v70c0 15 10 25 25 25h280c15 0 25 -10 25 -25v-70c0 -15 -10 -25 -25 -25zM340 140h-280c-15 0 -25 10 -25 25v70c0 15 10 25 25 25h280c15 0 25 -10 25 -25v-70c0 -15 -10 -25 -25 -25z" />
    <glyph glyph-name="greater" unicode="&#x3e;" horiz-adv-x="460" 
d="M430 280v-60c0 -20 -10 -27 -25 -35l-350 -175c-15 -8 -25 0 -25 15v80c0 15 10 28 25 35l215 105v10l-215 105c-15 7 -25 20 -25 35v80c0 15 10 23 25 15l350 -175c15 -8 25 -15 25 -35z" />
    <glyph glyph-name="question" unicode="?" horiz-adv-x="550" 
d="M30 510v45c0 105 50 155 155 155h165c105 0 155 -50 155 -155v-135c0 -105 -50 -155 -155 -155h-30l-5 -25c-3 -15 -10 -25 -30 -25h-40c-20 0 -28 10 -30 25l-20 120v10c0 15 10 25 25 25h85c30 0 50 20 50 50v80c0 30 -20 50 -50 50h-75c-30 0 -50 -20 -50 -50v-15
c0 -15 -10 -25 -25 -25h-100c-15 0 -25 10 -25 25zM225 135h80c15 0 25 -10 25 -25v-85c0 -15 -10 -25 -25 -25h-80c-15 0 -25 10 -25 25v85c0 15 10 25 25 25z" />
    <glyph glyph-name="at" unicode="@" horiz-adv-x="895" 
d="M400 325v-130c0 -20 10 -30 30 -30h40c20 0 30 10 30 30v130c0 20 -10 30 -30 30h-40c-20 0 -30 -10 -30 -30zM675 55h-140c-15 0 -25 10 -25 25v5h-10s-5 -35 -60 -35h-50c-70 0 -110 40 -110 110v200c0 70 40 110 110 110h40c55 0 60 -35 60 -35h10v5c0 15 10 25 25 25
h70c15 0 25 -10 25 -25v-270h40c30 0 50 20 50 50v310c0 30 -20 50 -50 50h-415c-30 0 -50 -20 -50 -50v-540c0 -30 20 -50 50 -50h460c15 0 25 -10 25 -25v-65c0 -15 -10 -25 -25 -25h-475c-105 0 -155 50 -155 155v560c0 105 50 155 155 155h445c105 0 155 -50 155 -155
v-330c0 -105 -50 -155 -155 -155z" />
    <glyph glyph-name="A" unicode="A" horiz-adv-x="614" 
d="M417 145h-220l-35 -120c-4 -15 -15 -25 -35 -25h-110c-13 0 -20 10 -15 25l210 650c5 15 15 25 35 25h120c20 0 30 -10 35 -25l210 -650c5 -15 -3 -25 -15 -25h-110c-20 0 -30 10 -35 25zM237 280h140l-65 220h-10z" />
    <glyph glyph-name="B" unicode="B" horiz-adv-x="645" 
d="M75 25v650c0 15 10 25 25 25h310c105 0 155 -50 155 -155v-65c0 -85 -65 -100 -65 -100v-10s100 -15 100 -120v-95c0 -105 -50 -155 -155 -155h-345c-15 0 -25 10 -25 25zM225 135h175c30 0 50 20 50 50v65c0 30 -20 50 -50 50h-175v-165zM365 565h-140v-135h140
c30 0 50 20 50 50v35c0 30 -20 50 -50 50z" />
    <glyph glyph-name="C" unicode="C" horiz-adv-x="660" 
d="M610 555v-65c0 -15 -10 -25 -25 -25h-100c-15 0 -25 10 -25 25v35c0 30 -20 50 -50 50h-145c-30 0 -50 -20 -50 -50v-350c0 -30 20 -50 50 -50h145c30 0 50 20 50 50v35c0 15 10 25 25 25h100c15 0 25 -10 25 -25v-65c0 -105 -50 -155 -155 -155h-235
c-105 0 -155 50 -155 155v410c0 105 50 155 155 155h235c105 0 155 -50 155 -155z" />
    <glyph glyph-name="D" unicode="D" horiz-adv-x="685" 
d="M100 700h365c105 0 155 -50 155 -155v-390c0 -105 -50 -155 -155 -155h-365c-15 0 -25 10 -25 25v650c0 15 10 25 25 25zM225 565v-430h195c30 0 50 20 50 50v330c0 30 -20 50 -50 50h-195z" />
    <glyph glyph-name="E" unicode="E" horiz-adv-x="595" 
d="M225 290v-155h320c15 0 25 -10 25 -25v-85c0 -15 -10 -25 -25 -25h-445c-15 0 -25 10 -25 25v650c0 15 10 25 25 25h435c15 0 25 -10 25 -25v-85c0 -15 -10 -25 -25 -25h-310v-140h235c15 0 25 -10 25 -25v-85c0 -15 -10 -25 -25 -25h-235z" />
    <glyph glyph-name="F" unicode="F" horiz-adv-x="580" 
d="M225 260v-235c0 -15 -10 -25 -25 -25h-100c-15 0 -25 10 -25 25v650c0 15 10 25 25 25h440c15 0 25 -10 25 -25v-85c0 -15 -10 -25 -25 -25h-315v-170h205c15 0 25 -10 25 -25v-85c0 -15 -10 -25 -25 -25h-205z" />
    <glyph glyph-name="G" unicode="G" horiz-adv-x="675" 
d="M610 365v-220c0 -105 -50 -155 -155 -155h-235c-105 0 -155 50 -155 155v410c0 105 50 155 155 155h235c105 0 155 -50 155 -155v-65c0 -15 -10 -25 -25 -25h-100c-15 0 -25 10 -25 25v35c0 30 -20 50 -50 50h-145c-30 0 -50 -20 -50 -50v-350c0 -30 20 -50 50 -50h145
c30 0 50 20 50 50v80h-95c-15 0 -25 10 -25 25v85c0 15 10 25 25 25h220c15 0 25 -10 25 -25z" />
    <glyph glyph-name="H" unicode="H" horiz-adv-x="685" 
d="M225 675v-260h235v260c0 15 10 25 25 25h100c15 0 25 -10 25 -25v-650c0 -15 -10 -25 -25 -25h-100c-15 0 -25 10 -25 25v255h-235v-255c0 -15 -10 -25 -25 -25h-100c-15 0 -25 10 -25 25v650c0 15 10 25 25 25h100c15 0 25 -10 25 -25z" />
    <glyph glyph-name="I" unicode="I" horiz-adv-x="300" 
d="M225 675v-650c0 -15 -10 -25 -25 -25h-100c-15 0 -25 10 -25 25v650c0 15 10 25 25 25h100c15 0 25 -10 25 -25z" />
    <glyph glyph-name="J" unicode="J" horiz-adv-x="605" 
d="M530 675v-530c0 -105 -50 -155 -155 -155h-190c-105 0 -155 50 -155 155v85c0 15 10 25 25 25h100c15 0 25 -10 25 -25v-55c0 -30 20 -50 50 -50h100c30 0 50 20 50 50v500c0 15 10 25 25 25h100c15 0 25 -10 25 -25z" />
    <glyph glyph-name="K" unicode="K" horiz-adv-x="618" 
d="M225 675v-240h95l110 240c7 15 15 25 35 25h110c13 0 22 -10 15 -25l-140 -305l160 -345c7 -15 -5 -25 -20 -25h-100c-20 0 -33 10 -40 25l-125 275h-100v-275c0 -15 -10 -25 -25 -25h-100c-15 0 -25 10 -25 25v650c0 15 10 25 25 25h100c15 0 25 -10 25 -25z" />
    <glyph glyph-name="L" unicode="L" horiz-adv-x="550" 
d="M225 675v-540h300c15 0 25 -10 25 -25v-85c0 -15 -10 -25 -25 -25h-425c-15 0 -25 10 -25 25v650c0 15 10 25 25 25h100c15 0 25 -10 25 -25z" />
    <glyph glyph-name="M" unicode="M" horiz-adv-x="860" 
d="M460 0h-60c-20 0 -30 10 -35 25l-130 380h-10v-380c0 -15 -10 -25 -25 -25h-100c-15 0 -25 10 -25 25v650c0 15 10 25 25 25h140c20 0 30 -10 35 -25l150 -430h10l150 430c5 15 15 25 35 25h140c15 0 25 -10 25 -25v-650c0 -15 -10 -25 -25 -25h-100c-15 0 -25 10 -25 25
v380h-10l-130 -380c-5 -15 -15 -25 -35 -25z" />
    <glyph glyph-name="N" unicode="N" horiz-adv-x="700" 
d="M465 265h10v410c0 15 10 25 25 25h100c15 0 25 -10 25 -25v-650c0 -15 -10 -25 -25 -25h-125c-20 0 -27 10 -35 25l-205 410h-10v-410c0 -15 -10 -25 -25 -25h-100c-15 0 -25 10 -25 25v650c0 15 10 25 25 25h125c20 0 27 -10 35 -25z" />
    <glyph glyph-name="O" unicode="O" horiz-adv-x="685" 
d="M620 555v-410c0 -105 -50 -155 -155 -155h-245c-105 0 -155 50 -155 155v410c0 105 50 155 155 155h245c105 0 155 -50 155 -155zM470 175v350c0 30 -20 50 -50 50h-155c-30 0 -50 -20 -50 -50v-350c0 -30 20 -50 50 -50h155c30 0 50 20 50 50z" />
    <glyph glyph-name="P" unicode="P" horiz-adv-x="650" 
d="M440 205h-215v-180c0 -15 -10 -25 -25 -25h-100c-15 0 -25 10 -25 25v650c0 15 10 25 25 25h340c105 0 155 -50 155 -155v-185c0 -105 -50 -155 -155 -155zM395 565h-170v-225h170c30 0 50 20 50 50v125c0 30 -20 50 -50 50z" />
    <glyph glyph-name="Q" unicode="Q" horiz-adv-x="688" 
d="M620 555v-410c0 -35 -5 -50 -5 -50l80 -85c10 -10 10 -25 0 -35l-70 -65c-10 -10 -26 -11 -35 0l-80 85s-20 -5 -45 -5h-245c-105 0 -155 50 -155 155v410c0 105 50 155 155 155h247c105 0 153 -50 153 -155zM470 175v350c0 30 -20 50 -50 50h-155c-30 0 -50 -20 -50 -50
v-350c0 -30 20 -50 50 -50h155c30 0 50 20 50 50z" />
    <glyph glyph-name="R" unicode="R" horiz-adv-x="658" 
d="M600 375c0 -135 -95 -145 -95 -145l100 -205c7 -15 -5 -25 -15 -25h-108c-22 0 -30 10 -37 25l-90 195h-130v-195c0 -15 -10 -25 -25 -25h-100c-15 0 -25 10 -25 25v650c0 15 10 25 25 25h345c105 0 155 -50 155 -155v-170zM400 565h-175v-210h175c30 0 50 20 50 50v110
c0 30 -20 50 -50 50z" />
    <glyph glyph-name="S" unicode="S" horiz-adv-x="615" 
d="M420 175v30c0 25 -10 35 -35 45l-220 85c-75 29 -110 65 -110 150v70c0 105 50 155 155 155h195c105 0 155 -50 155 -155v-65c0 -15 -10 -25 -25 -25h-100c-15 0 -25 10 -25 25v35c0 30 -20 50 -50 50h-105c-30 0 -50 -20 -50 -50v-30c0 -25 10 -35 35 -45l220 -85
c75 -29 110 -65 110 -150v-70c0 -105 -50 -155 -155 -155h-215c-105 0 -155 50 -155 155v65c0 15 10 25 25 25h100c15 0 25 -10 25 -25v-35c0 -30 20 -50 50 -50h125c30 0 50 20 50 50z" />
    <glyph glyph-name="T" unicode="T" horiz-adv-x="540" 
d="M345 565v-540c0 -15 -10 -25 -25 -25h-100c-15 0 -25 10 -25 25v540h-160c-15 0 -25 10 -25 25v85c0 15 10 25 25 25h470c15 0 25 -10 25 -25v-85c0 -15 -10 -25 -25 -25h-160z" />
    <glyph glyph-name="U" unicode="U" horiz-adv-x="685" 
d="M75 145v530c0 15 10 25 25 25h100c15 0 25 -10 25 -25v-500c0 -30 20 -50 50 -50h135c30 0 50 20 50 50v500c0 15 10 25 25 25h100c15 0 25 -10 25 -25v-530c0 -105 -50 -155 -155 -155h-225c-105 0 -155 50 -155 155z" />
    <glyph glyph-name="V" unicode="V" horiz-adv-x="594" 
d="M162 675l130 -410h10l130 410c4 15 15 25 35 25h110c12 0 20 -10 15 -25l-225 -650c-5 -15 -15 -25 -35 -25h-70c-20 0 -30 10 -35 25l-225 650c-5 15 2 25 15 25h110c20 0 30 -10 35 -25z" />
    <glyph glyph-name="W" unicode="W" horiz-adv-x="824" 
d="M417 425h-10l-90 -400c-3 -15 -15 -25 -35 -25h-70c-20 0 -31 10 -35 25l-165 650c-4 15 3 25 15 25h105c20 0 32 -10 35 -25l85 -370h10l80 370c3 15 15 25 35 25h70c20 0 32 -10 35 -25l80 -370h10l85 370c3 15 15 25 35 25h105c13 0 19 -10 15 -25l-165 -650
c-4 -15 -15 -25 -35 -25h-70c-20 0 -32 10 -35 25z" />
    <glyph glyph-name="X" unicode="X" horiz-adv-x="576" 
d="M283 490h10l95 185c8 15 20 25 40 25h110c15 0 23 -10 15 -25l-170 -305l190 -345c8 -15 -2 -25 -15 -25h-115c-20 0 -32 10 -40 25l-110 220h-10l-110 -220c-8 -15 -20 -25 -40 -25h-115c-12 0 -23 10 -15 25l190 345l-170 305c-9 15 0 25 15 25h110c20 0 32 -10 40 -25
z" />
    <glyph glyph-name="Y" unicode="Y" horiz-adv-x="578" 
d="M164 675l120 -260h10l120 260c7 15 15 25 40 25h110c15 0 23 -10 15 -25l-215 -435v-215c0 -15 -10 -25 -25 -25h-100c-15 0 -25 10 -25 25v215l-215 435c-8 15 0 25 15 25h110c25 0 33 -10 40 -25z" />
    <glyph glyph-name="Z" unicode="Z" horiz-adv-x="565" 
d="M350 555v10h-285c-15 0 -25 10 -25 25v85c0 15 10 25 25 25h440c15 0 25 -10 25 -25v-85c0 -40 -8 -50 -20 -65l-300 -380v-10h300c15 0 25 -10 25 -25v-85c0 -15 -10 -25 -25 -25h-455c-15 0 -25 10 -25 25v85c0 40 8 50 20 65z" />
    <glyph glyph-name="bracketleft" unicode="[" horiz-adv-x="345" 
d="M220 600v-640h75c15 0 25 -10 25 -25v-80c0 -15 -10 -25 -25 -25h-195c-15 0 -25 10 -25 25v850c0 15 10 25 25 25h195c15 0 25 -10 25 -25v-80c0 -15 -10 -25 -25 -25h-75z" />
    <glyph glyph-name="backslash" unicode="\" horiz-adv-x="389" 
d="M172 675l195 -650c5 -15 -5 -25 -15 -25h-100c-20 0 -30 10 -35 25l-195 650c-5 15 5 25 15 25h100c20 0 30 -10 35 -25z" />
    <glyph glyph-name="bracketright" unicode="]" horiz-adv-x="345" 
d="M125 -40v640h-75c-15 0 -25 10 -25 25v80c0 15 10 25 25 25h195c15 0 25 -10 25 -25v-850c0 -15 -10 -25 -25 -25h-195c-15 0 -25 10 -25 25v80c0 15 10 25 25 25h75z" />
    <glyph glyph-name="asciicircum" unicode="^" horiz-adv-x="464" 
d="M227 530l-65 -170c-6 -15 -15 -25 -35 -25h-80c-15 0 -26 10 -20 25l130 315c6 15 15 25 35 25h80c20 0 29 -10 35 -25l130 -315c6 -15 -5 -25 -20 -25h-80c-20 0 -29 10 -35 25l-65 170h-10z" />
    <glyph glyph-name="underscore" unicode="_" horiz-adv-x="345" 
d="M320 -210h-295c-15 0 -25 10 -25 25v75c0 15 10 25 25 25h295c15 0 25 -10 25 -25v-75c0 -15 -10 -25 -25 -25z" />
    <glyph glyph-name="grave" unicode="`" horiz-adv-x="241" 
d="M109 545l-75 130c-9 15 0 25 15 25h80c20 0 30 -10 35 -25l45 -130c5 -15 -2 -25 -15 -25h-50c-15 0 -26 10 -35 25z" />
    <glyph glyph-name="a" unicode="a" horiz-adv-x="495" 
d="M260 400h-35c-25 0 -35 -10 -35 -35c0 -15 -10 -25 -25 -25h-80c-15 0 -25 10 -25 25v25c0 80 50 130 130 130h115c80 0 130 -50 130 -130v-365c0 -15 -10 -25 -25 -25h-80c-15 0 -25 10 -25 25v15h-10s-15 -50 -85 -50h-40c-80 0 -130 50 -130 130v55
c0 80 50 130 130 130h135v50c0 30 -15 45 -45 45zM170 160v-15c0 -30 15 -45 45 -45h35c35 0 55 20 55 55v50h-90c-30 0 -45 -15 -45 -45z" />
    <glyph glyph-name="b" unicode="b" 
d="M340 0h-250c-15 0 -25 10 -25 25v650c0 15 10 25 25 25h80c15 0 25 -10 25 -25v-165h145c80 0 130 -50 130 -130v-250c0 -80 -50 -130 -130 -130zM295 390h-100v-270h100c30 0 45 15 45 45v180c0 30 -15 45 -45 45z" />
    <glyph glyph-name="c" unicode="c" horiz-adv-x="505" 
d="M460 390v-60c0 -15 -10 -25 -25 -25h-80c-15 0 -25 10 -25 25v25c0 30 -15 45 -45 45h-55c-30 0 -45 -15 -45 -45v-200c0 -30 15 -45 45 -45h55c30 0 45 15 45 45v25c0 15 10 25 25 25h80c15 0 25 -10 25 -25v-60c0 -80 -50 -130 -130 -130h-145c-80 0 -130 50 -130 130
v270c0 80 50 130 130 130h145c80 0 130 -50 130 -130z" />
    <glyph glyph-name="d" unicode="d" 
d="M235 -10h-50c-80 0 -130 50 -130 130v260c0 80 50 130 130 130h145v165c0 15 10 25 25 25h80c15 0 25 -10 25 -25v-650c0 -15 -10 -25 -25 -25h-80c-15 0 -25 10 -25 25v15h-10s-15 -50 -85 -50zM330 390h-100c-30 0 -45 -15 -45 -45v-190c0 -30 15 -45 45 -45h45
c35 0 55 20 55 55v225z" />
    <glyph glyph-name="e" unicode="e" horiz-adv-x="515" 
d="M230 110h60c25 0 35 10 35 35c0 15 10 25 25 25h80c15 0 25 -10 25 -25v-25c0 -80 -50 -130 -130 -130h-140c-80 0 -130 50 -130 130v270c0 80 50 130 130 130h145c80 0 130 -50 130 -130v-155c0 -15 -10 -25 -25 -25h-250v-55c0 -30 15 -45 45 -45zM185 360v-45h145v45
c0 30 -15 45 -45 45h-55c-30 0 -45 -15 -45 -45z" />
    <glyph glyph-name="f" unicode="f" horiz-adv-x="335" 
d="M285 360h-60v-335c0 -15 -10 -25 -25 -25h-80c-15 0 -25 10 -25 25v335h-40c-15 0 -25 10 -25 25v70c0 15 10 25 25 25h40v90c0 80 50 130 130 130h75c15 0 25 -10 25 -25v-70c0 -15 -10 -25 -25 -25h-30c-30 0 -45 -15 -45 -45v-55h60c15 0 25 -10 25 -25v-70
c0 -15 -10 -25 -25 -25z" />
    <glyph glyph-name="g" unicode="g" horiz-adv-x="520" 
d="M330 -35v75h-145c-80 0 -130 50 -130 130v220c0 80 50 130 130 130h50c70 0 85 -50 85 -50h10v15c0 15 10 25 25 25h80c15 0 25 -10 25 -25v-555c0 -80 -50 -130 -130 -130h-135c-80 0 -130 50 -130 130v40c0 15 10 25 25 25h80c15 0 25 -10 25 -25v-5
c0 -30 15 -45 45 -45h45c30 0 45 15 45 45zM230 160h100v185c0 35 -20 55 -55 55h-45c-30 0 -45 -15 -45 -45v-150c0 -30 15 -45 45 -45z" />
    <glyph glyph-name="h" unicode="h" horiz-adv-x="530" 
d="M195 675v-165h145c80 0 130 -50 130 -130v-355c0 -15 -10 -25 -25 -25h-80c-15 0 -25 10 -25 25v320c0 30 -15 45 -45 45h-100v-365c0 -15 -10 -25 -25 -25h-80c-15 0 -25 10 -25 25v650c0 15 10 25 25 25h80c15 0 25 -10 25 -25z" />
    <glyph glyph-name="i" unicode="i" horiz-adv-x="250" 
d="M85 500h80c15 0 25 -10 25 -25v-450c0 -15 -10 -25 -25 -25h-80c-15 0 -25 10 -25 25v450c0 15 10 25 25 25zM85 710h80c15 0 25 -10 25 -25v-80c0 -15 -10 -25 -25 -25h-80c-15 0 -25 10 -25 25v80c0 15 10 25 25 25z" />
    <glyph glyph-name="j" unicode="j" horiz-adv-x="250" 
d="M-40 -175v70c0 15 10 25 25 25h30c30 0 45 15 45 45v510c0 15 10 25 25 25h80c15 0 25 -10 25 -25v-545c0 -80 -50 -130 -130 -130h-75c-15 0 -25 10 -25 25zM85 710h80c15 0 25 -10 25 -25v-80c0 -15 -10 -25 -25 -25h-80c-15 0 -25 10 -25 25v80c0 15 10 25 25 25z" />
    <glyph glyph-name="k" unicode="k" horiz-adv-x="478" 
d="M90 700h80c15 0 25 -10 25 -25v-350h55l70 160c7 15 15 25 35 25h90c15 0 22 -10 15 -25l-105 -215l115 -245c7 -15 0 -25 -15 -25h-90c-20 0 -28 10 -35 25l-80 180h-55v-180c0 -15 -10 -25 -25 -25h-80c-15 0 -25 10 -25 25v650c0 15 10 25 25 25z" />
    <glyph glyph-name="l" unicode="l" horiz-adv-x="260" 
d="M90 700h80c15 0 25 -10 25 -25v-650c0 -15 -10 -25 -25 -25h-80c-15 0 -25 10 -25 25v650c0 15 10 25 25 25z" />
    <glyph glyph-name="m" unicode="m" horiz-adv-x="730" 
d="M280 520h45c65 0 80 -50 80 -50h10s15 50 80 50h45c80 0 130 -50 130 -130v-365c0 -15 -10 -25 -25 -25h-80c-15 0 -25 10 -25 25v330c0 30 -15 45 -45 45h-20c-30 0 -45 -15 -45 -45v-330c0 -15 -10 -25 -25 -25h-80c-15 0 -25 10 -25 25v330c0 30 -15 45 -45 45h-10
c-35 0 -55 -20 -55 -55v-320c0 -15 -10 -25 -25 -25h-80c-15 0 -25 10 -25 25v460c0 15 10 25 25 25h80c15 0 25 -10 25 -25v-15h10s15 50 80 50z" />
    <glyph glyph-name="n" unicode="n" 
d="M285 520h50c80 0 130 -50 130 -130v-365c0 -15 -10 -25 -25 -25h-80c-15 0 -25 10 -25 25v330c0 30 -15 45 -45 45h-45c-35 0 -55 -20 -55 -55v-320c0 -15 -10 -25 -25 -25h-80c-15 0 -25 10 -25 25v460c0 15 10 25 25 25h80c15 0 25 -10 25 -25v-15h10s15 50 85 50z" />
    <glyph glyph-name="p" unicode="p" horiz-adv-x="520" 
d="M285 520h50c80 0 130 -50 130 -130v-260c0 -80 -50 -130 -130 -130h-145v-165c0 -15 -10 -25 -25 -25h-80c-15 0 -25 10 -25 25v650c0 15 10 25 25 25h80c15 0 25 -10 25 -25v-15h10s15 50 85 50zM190 120h100c30 0 45 15 45 45v190c0 30 -15 45 -45 45h-45
c-35 0 -55 -20 -55 -55v-225z" />
    <glyph glyph-name="q" unicode="q" horiz-adv-x="520" 
d="M185 510h250c15 0 25 -10 25 -25v-650c0 -15 -10 -25 -25 -25h-80c-15 0 -25 10 -25 25v165h-145c-80 0 -130 50 -130 130v250c0 80 50 130 130 130zM230 120h100v270h-100c-30 0 -45 -15 -45 -45v-180c0 -30 15 -45 45 -45z" />
    <glyph glyph-name="r" unicode="r" horiz-adv-x="345" 
d="M335 495v-80c0 -15 -10 -25 -25 -25h-65c-35 0 -55 -20 -55 -55v-310c0 -15 -10 -25 -25 -25h-80c-15 0 -25 10 -25 25v460c0 15 10 25 25 25h80c15 0 25 -10 25 -25v-15h10s15 50 85 50h25c15 0 25 -10 25 -25z" />
    <glyph glyph-name="s" unicode="s" horiz-adv-x="470" 
d="M175 520h120c80 0 130 -50 130 -130v-30c0 -15 -10 -25 -25 -25h-80c-15 0 -25 10 -25 25v5c0 25 -10 35 -35 35h-50c-25 0 -35 -10 -35 -35v-5c0 -15 10 -24 40 -35l130 -50c65 -25 90 -50 90 -125v-30c0 -80 -50 -130 -130 -130h-140c-80 0 -130 50 -130 130v35
c0 15 10 25 25 25h80c15 0 25 -10 25 -25v-10c0 -25 10 -35 35 -35h70c25 0 35 10 35 35v5c0 15 -10 24 -40 35l-130 50c-65 25 -90 50 -90 125v30c0 80 50 130 130 130z" />
    <glyph glyph-name="t" unicode="t" horiz-adv-x="355" 
d="M225 510h60c15 0 25 -10 25 -25v-70c0 -15 -10 -25 -25 -25h-60v-225c0 -30 15 -45 45 -45h30c15 0 25 -10 25 -25v-70c0 -15 -10 -25 -25 -25h-75c-80 0 -130 50 -130 130v260h-40c-15 0 -25 10 -25 25v70c0 15 10 25 25 25h40v95c0 15 10 25 25 25h80
c15 0 25 -10 25 -25v-95z" />
    <glyph glyph-name="u" unicode="u" 
d="M240 -10h-50c-80 0 -130 50 -130 130v365c0 15 10 25 25 25h80c15 0 25 -10 25 -25v-330c0 -30 15 -45 45 -45h45c35 0 55 20 55 55v320c0 15 10 25 25 25h80c15 0 25 -10 25 -25v-460c0 -15 -10 -25 -25 -25h-80c-15 0 -25 10 -25 25v15h-10s-15 -50 -85 -50z" />
    <glyph glyph-name="v" unicode="v" horiz-adv-x="454" 
d="M137 485l85 -265h10l85 265c5 15 15 25 35 25h85c12 0 20 -10 15 -25l-155 -460c-5 -15 -15 -25 -35 -25h-70c-20 0 -30 10 -35 25l-155 460c-5 15 2 25 15 25h85c20 0 30 -10 35 -25z" />
    <glyph glyph-name="w" unicode="w" horiz-adv-x="642" 
d="M291 510h60c20 0 27 -10 30 -25l50 -235h10l50 235c3 15 10 25 35 25h90c10 0 19 -10 15 -25l-115 -460c-4 -15 -15 -25 -35 -25h-60c-20 0 -32 10 -35 25l-60 270h-10l-60 -270c-3 -15 -15 -25 -35 -25h-60c-20 0 -31 10 -35 25l-115 460c-4 15 5 25 15 25h90
c25 0 32 -10 35 -25l50 -235h10l50 235c3 15 10 25 30 25z" />
    <glyph glyph-name="x" unicode="x" horiz-adv-x="438" 
d="M214 365h10l55 120c7 15 15 25 40 25h90c10 0 23 -10 15 -25l-115 -220l125 -240c8 -15 0 -25 -15 -25h-90c-20 0 -28 10 -35 25l-70 140h-10l-70 -140c-7 -15 -15 -25 -35 -25h-90c-15 0 -23 10 -15 25l125 240l-115 220c-7 15 5 25 15 25h90c25 0 33 -10 40 -25z" />
    <glyph glyph-name="y" unicode="y" horiz-adv-x="439" 
d="M232 205l70 280c4 15 15 25 35 25h85c13 0 20 -10 15 -25l-155 -515c-33 -110 -85 -160 -185 -160h-20c-15 0 -25 10 -25 25v70c0 15 10 25 25 25h20c35 0 55 20 65 65l-160 490c-5 15 5 25 15 25h85c20 0 30 -10 35 -25l85 -280h10z" />
    <glyph glyph-name="z" unicode="z" horiz-adv-x="430" 
d="M240 380v10h-180c-15 0 -25 10 -25 25v70c0 15 10 25 25 25h315c15 0 25 -10 25 -25v-75c0 -40 -11 -50 -20 -60l-195 -220v-10h195c15 0 25 -10 25 -25v-70c0 -15 -10 -25 -25 -25h-330c-15 0 -25 10 -25 25v75c0 40 11 50 20 60z" />
    <glyph glyph-name="braceleft" unicode="{" horiz-adv-x="375" 
d="M30 240v80c0 15 10 25 25 25c40 0 60 20 60 60v150c0 115 60 175 175 175h35c15 0 25 -10 25 -25v-80c0 -15 -10 -25 -25 -25c-40 0 -65 -25 -65 -65v-165c0 -75 -65 -85 -65 -85v-10s65 -10 65 -85v-165c0 -40 25 -65 65 -65c15 0 25 -10 25 -25v-80
c0 -15 -10 -25 -25 -25h-35c-115 0 -175 60 -175 175v150c0 40 -20 60 -60 60c-15 0 -25 10 -25 25z" />
    <glyph glyph-name="bar" unicode="|" horiz-adv-x="330" 
d="M115 700h100c15 0 25 -10 25 -25v-840c0 -15 -10 -25 -25 -25h-100c-15 0 -25 10 -25 25v840c0 15 10 25 25 25z" />
    <glyph glyph-name="braceright" unicode="}" horiz-adv-x="375" 
d="M345 320v-80c0 -15 -10 -25 -25 -25c-40 0 -60 -20 -60 -60v-150c0 -115 -60 -175 -175 -175h-35c-15 0 -25 10 -25 25v80c0 15 10 25 25 25c40 0 65 25 65 65v165c0 75 65 85 65 85v10s-65 10 -65 85v165c0 40 -25 65 -65 65c-15 0 -25 10 -25 25v80c0 15 10 25 25 25
h35c115 0 175 -60 175 -175v-150c0 -40 20 -60 60 -60c15 0 25 -10 25 -25z" />
    <glyph glyph-name="asciitilde" unicode="~" horiz-adv-x="405" 
d="M295 215c-65 0 -115 75 -140 75c-10 0 -15 -5 -15 -20v-30c0 -15 -10 -25 -25 -25h-60c-15 0 -25 10 -25 25v100c0 50 35 85 80 85c65 0 115 -75 140 -75c10 0 15 5 15 20v30c0 15 10 25 25 25h60c15 0 25 -10 25 -25v-100c0 -50 -35 -85 -80 -85z" />
    <glyph glyph-name="afii10051" unicode="&#x402;" horiz-adv-x="665" 
d="M375 5v85c0 15 10 25 25 25h10c30 0 50 20 50 50v85c0 30 -20 50 -50 50h-130v-275c0 -15 -10 -25 -25 -25h-100c-15 0 -25 10 -25 25v540h-105c-15 0 -25 10 -25 25v85c0 15 10 25 25 25h365c15 0 25 -10 25 -25v-85c0 -15 -10 -25 -25 -25h-110v-130h175
c105 0 155 -50 155 -155v-145c0 -105 -50 -155 -155 -155h-55c-15 0 -25 10 -25 25z" />
    <glyph glyph-name="quotesinglbase" unicode="&#x201a;" horiz-adv-x="200" 
d="M165 110v-75c0 -30 -6 -35 -15 -55l-30 -70c-4 -10 -15 -20 -30 -20h-20c-15 0 -21 5 -15 20l35 90h-30c-15 0 -25 10 -25 25v85c0 15 10 25 25 25h80c15 0 25 -10 25 -25z" />
    <glyph glyph-name="quotedblbase" unicode="&#x201e;" horiz-adv-x="370" 
d="M165 110v-75c0 -30 -6 -35 -15 -55l-30 -70c-4 -10 -15 -20 -30 -20h-20c-15 0 -21 5 -15 20l35 90h-30c-15 0 -25 10 -25 25v85c0 15 10 25 25 25h80c15 0 25 -10 25 -25zM335 110v-75c0 -30 -6 -35 -15 -55l-30 -70c-4 -10 -15 -20 -30 -20h-20c-15 0 -21 5 -15 20
l35 90h-30c-15 0 -25 10 -25 25v85c0 15 10 25 25 25h80c15 0 25 -10 25 -25z" />
    <glyph glyph-name="ellipsis" unicode="&#x2026;" horiz-adv-x="600" 
d="M60 135h80c15 0 25 -10 25 -25v-85c0 -15 -10 -25 -25 -25h-80c-15 0 -25 10 -25 25v85c0 15 10 25 25 25zM260 135h80c15 0 25 -10 25 -25v-85c0 -15 -10 -25 -25 -25h-80c-15 0 -25 10 -25 25v85c0 15 10 25 25 25zM460 135h80c15 0 25 -10 25 -25v-85
c0 -15 -10 -25 -25 -25h-80c-15 0 -25 10 -25 25v85c0 15 10 25 25 25z" />
    <glyph glyph-name="dagger" unicode="&#x2020;" horiz-adv-x="455" 
d="M155 25v380h-95c-15 0 -25 10 -25 25v85c0 15 10 25 25 25h95v135c0 15 10 25 25 25h95c15 0 25 -10 25 -25v-135h95c15 0 25 -10 25 -25v-85c0 -15 -10 -25 -25 -25h-95v-380c0 -15 -10 -25 -25 -25h-95c-15 0 -25 10 -25 25z" />
    <glyph glyph-name="daggerdbl" unicode="&#x2021;" horiz-adv-x="455" 
d="M155 270v160h-95c-15 0 -25 10 -25 25v85c0 15 10 25 25 25h95v110c0 15 10 25 25 25h95c15 0 25 -10 25 -25v-110h95c15 0 25 -10 25 -25v-85c0 -15 -10 -25 -25 -25h-95v-160h95c15 0 25 -10 25 -25v-85c0 -15 -10 -25 -25 -25h-95v-110c0 -15 -10 -25 -25 -25h-95
c-15 0 -25 10 -25 25v110h-95c-15 0 -25 10 -25 25v85c0 15 10 25 25 25h95z" />
    <glyph glyph-name="Euro" unicode="&#x20ac;" horiz-adv-x="685" 
d="M400 230h-160v-55c0 -30 20 -50 50 -50h145c30 0 50 20 50 50v35c0 15 10 25 25 25h100c15 0 25 -10 25 -25v-65c0 -105 -50 -155 -155 -155h-235c-105 0 -155 50 -155 155v85h-25c-15 0 -25 10 -25 25v45c0 15 10 25 25 25h25v45h-25c-15 0 -25 10 -25 25v45
c0 15 10 25 25 25h25v90c0 105 50 155 155 155h235c105 0 155 -50 155 -155v-65c0 -15 -10 -25 -25 -25h-100c-15 0 -25 10 -25 25v35c0 30 -20 50 -50 50h-145c-30 0 -50 -20 -50 -50v-60h160c15 0 25 -10 25 -25v-45c0 -15 -10 -25 -25 -25h-160v-45h160
c15 0 25 -10 25 -25v-45c0 -15 -10 -25 -25 -25z" />
    <glyph glyph-name="perthousand" unicode="&#x2030;" horiz-adv-x="1055" 
d="M180 25l250 650c6 15 15 25 40 25h85c10 0 21 -10 15 -25l-250 -650c-6 -15 -15 -25 -40 -25h-85c-10 0 -21 10 -15 25zM30 480v120c0 80 30 110 110 110h50c80 0 110 -30 110 -110v-120c0 -80 -30 -110 -110 -110h-50c-80 0 -110 30 -110 110zM130 580v-80
c0 -25 10 -35 35 -35s35 10 35 35v80c0 25 -10 35 -35 35s-35 -10 -35 -35zM720 220v-120c0 -80 -30 -110 -110 -110h-50c-80 0 -110 30 -110 110v120c0 80 30 110 110 110h50c80 0 110 -30 110 -110zM620 120v80c0 25 -10 35 -35 35s-35 -10 -35 -35v-80
c0 -25 10 -35 35 -35s35 10 35 35zM1025 220v-120c0 -80 -30 -110 -110 -110h-50c-80 0 -110 30 -110 110v120c0 80 30 110 110 110h50c80 0 110 -30 110 -110zM925 120v80c0 25 -10 35 -35 35s-35 -10 -35 -35v-80c0 -25 10 -35 35 -35s35 10 35 35z" />
    <glyph glyph-name="afii10058" unicode="&#x409;" horiz-adv-x="950" 
d="M560 485h180c105 0 155 -50 155 -155v-175c0 -105 -50 -155 -155 -155h-305c-15 0 -25 10 -25 25v540h-110l-70 -410c-20 -115 -70 -165 -175 -165h-35c-15 0 -25 10 -25 25v85c0 15 10 25 25 25c45 0 60 15 70 75l80 475c3 15 15 25 35 25h330c15 0 25 -10 25 -25v-190z
M560 135h135c30 0 50 20 50 50v115c0 30 -20 50 -50 50h-135v-215z" />
    <glyph glyph-name="guilsinglleft" unicode="&#x2039;" horiz-adv-x="309" 
d="M145 40l-115 215l115 215c11 20 15 25 35 25h80c15 0 23 -10 15 -25l-115 -215l115 -215c8 -15 0 -25 -15 -25h-80c-20 0 -24 5 -35 25z" />
    <glyph glyph-name="afii10059" unicode="&#x40a;" horiz-adv-x="985" 
d="M225 675v-225h210v225c0 15 10 25 25 25h100c15 0 25 -10 25 -25v-225h190c105 0 155 -50 155 -155v-140c0 -105 -50 -155 -155 -155h-315c-15 0 -25 10 -25 25v290h-210v-290c0 -15 -10 -25 -25 -25h-100c-15 0 -25 10 -25 25v650c0 15 10 25 25 25h100
c15 0 25 -10 25 -25zM585 135h145c30 0 50 20 50 50v80c0 30 -20 50 -50 50h-145v-180z" />
    <glyph glyph-name="afii10060" unicode="&#x40b;" horiz-adv-x="665" 
d="M280 565v-130h175c105 0 155 -50 155 -155v-255c0 -15 -10 -25 -25 -25h-100c-15 0 -25 10 -25 25v225c0 30 -20 50 -50 50h-130v-275c0 -15 -10 -25 -25 -25h-100c-15 0 -25 10 -25 25v540h-105c-15 0 -25 10 -25 25v85c0 15 10 25 25 25h365c15 0 25 -10 25 -25v-85
c0 -15 -10 -25 -25 -25h-110z" />
    <glyph glyph-name="afii10145" unicode="&#x40f;" horiz-adv-x="690" 
d="M590 0h-170v-95c0 -15 -10 -25 -25 -25h-100c-15 0 -25 10 -25 25v95h-170c-15 0 -25 10 -25 25v650c0 15 10 25 25 25h100c15 0 25 -10 25 -25v-540h240v540c0 15 10 25 25 25h100c15 0 25 -10 25 -25v-650c0 -15 -10 -25 -25 -25z" />
    <glyph glyph-name="afii10099" unicode="&#x452;" 
d="M270 -5v70c0 15 10 25 25 25c30 0 45 15 45 45v125c0 30 -15 45 -45 45h-100v-280c0 -15 -10 -25 -25 -25h-80c-15 0 -25 10 -25 25v477h-35c-15 0 -25 10 -25 25v68c0 15 10 25 25 25h35v55c0 15 10 25 25 25h80c15 0 25 -10 25 -25v-55h60c15 0 25 -10 25 -25v-68
c0 -15 -10 -25 -25 -25h-60v-77h145c80 0 130 -50 130 -130v-195c0 -80 -50 -130 -130 -130h-45c-15 0 -25 10 -25 25z" />
    <glyph glyph-name="quoteleft" unicode="&#x2018;" horiz-adv-x="200" 
d="M35 480v75c0 30 6 35 15 55l30 70c4 10 15 20 30 20h20c15 0 21 -5 15 -20l-35 -90h30c15 0 25 -10 25 -25v-85c0 -15 -10 -25 -25 -25h-80c-15 0 -25 10 -25 25z" />
    <glyph glyph-name="quoteright" unicode="&#x2019;" horiz-adv-x="200" 
d="M165 675v-75c0 -30 -6 -35 -15 -55l-30 -70c-4 -10 -15 -20 -30 -20h-20c-15 0 -21 5 -15 20l35 90h-30c-15 0 -25 10 -25 25v85c0 15 10 25 25 25h80c15 0 25 -10 25 -25z" />
    <glyph glyph-name="quotedblleft" unicode="&#x201c;" horiz-adv-x="370" 
d="M35 480v75c0 30 6 35 15 55l30 70c4 10 15 20 30 20h20c15 0 21 -5 15 -20l-35 -90h30c15 0 25 -10 25 -25v-85c0 -15 -10 -25 -25 -25h-80c-15 0 -25 10 -25 25zM205 480v75c0 30 6 35 15 55l30 70c4 10 15 20 30 20h20c15 0 21 -5 15 -20l-35 -90h30
c15 0 25 -10 25 -25v-85c0 -15 -10 -25 -25 -25h-80c-15 0 -25 10 -25 25z" />
    <glyph glyph-name="quotedblright" unicode="&#x201d;" horiz-adv-x="370" 
d="M165 675v-75c0 -30 -6 -35 -15 -55l-30 -70c-4 -10 -15 -20 -30 -20h-20c-15 0 -21 5 -15 20l35 90h-30c-15 0 -25 10 -25 25v85c0 15 10 25 25 25h80c15 0 25 -10 25 -25zM335 675v-75c0 -30 -6 -35 -15 -55l-30 -70c-4 -10 -15 -20 -30 -20h-20c-15 0 -21 5 -15 20
l35 90h-30c-15 0 -25 10 -25 25v85c0 15 10 25 25 25h80c15 0 25 -10 25 -25z" />
    <glyph glyph-name="bullet" unicode="&#x2022;" horiz-adv-x="340" 
d="M260 335v-45c0 -45 -25 -70 -75 -70h-30c-50 0 -75 25 -75 70v45c0 45 25 70 75 70h30c50 0 75 -25 75 -70z" />
    <glyph glyph-name="endash" unicode="&#x2013;" horiz-adv-x="530" 
d="M480 245h-430c-15 0 -25 10 -25 25v70c0 15 10 25 25 25h430c15 0 25 -10 25 -25v-70c0 -15 -10 -25 -25 -25z" />
    <glyph glyph-name="emdash" unicode="&#x2014;" horiz-adv-x="695" 
d="M645 245h-595c-15 0 -25 10 -25 25v70c0 15 10 25 25 25h595c15 0 25 -10 25 -25v-70c0 -15 -10 -25 -25 -25z" />
    <glyph glyph-name="uni20BD" unicode="&#x20bd;" horiz-adv-x="620" 
d="M465 120h-220v-95c0 -15 -10 -25 -25 -25h-100c-15 0 -25 10 -25 25v95h-35c-15 0 -25 10 -25 25v60c0 15 10 25 25 25h35v50h-35c-15 0 -25 10 -25 25v60c0 15 10 25 25 25h35v285c0 15 10 25 25 25h295c105 0 155 -50 155 -155v-110c0 -105 -50 -155 -155 -155h-170
v-50h220c15 0 25 -10 25 -25v-60c0 -15 -10 -25 -25 -25zM370 565h-125v-175h125c30 0 50 20 50 50v75c0 30 -20 50 -50 50z" />
    <glyph glyph-name="trademark" unicode="&#x2122;" horiz-adv-x="715" 
d="M85 605h-60c-10 0 -15 5 -15 15v65c0 10 5 15 15 15h225c10 0 15 -5 15 -15v-65c0 -10 -5 -15 -15 -15h-60v-220c0 -10 -5 -15 -15 -15h-75c-10 0 -15 5 -15 15v220zM505 370h-45c-10 0 -17 5 -20 15l-40 125h-5v-125c0 -10 -5 -15 -15 -15h-70c-10 0 -15 5 -15 15v300
c0 10 5 15 15 15h90c10 0 17 -5 20 -15l60 -180h5l60 180c3 10 10 15 20 15h90c10 0 15 -5 15 -15v-300c0 -10 -5 -15 -15 -15h-70c-10 0 -15 5 -15 15v125h-5l-40 -125c-3 -10 -10 -15 -20 -15z" />
    <glyph glyph-name="afii10106" unicode="&#x459;" horiz-adv-x="715" 
d="M240 390l-40 -265c-14 -90 -60 -135 -155 -135h-20c-15 0 -25 10 -25 25v70c0 15 10 25 25 25c30 0 45 15 50 45l55 330c3 15 15 25 35 25h250c15 0 25 -10 25 -25v-135h100c80 0 130 -50 130 -130v-90c0 -80 -50 -130 -130 -130h-205c-15 0 -25 10 -25 25v365h-70z
M540 155v40c0 30 -15 45 -45 45h-55v-130h55c30 0 45 15 45 45z" />
    <glyph glyph-name="guilsinglright" unicode="&#x203a;" horiz-adv-x="309" 
d="M279 255l-115 -215c-11 -20 -15 -25 -35 -25h-80c-15 0 -23 10 -15 25l115 215l-115 215c-8 15 0 25 15 25h80c20 0 24 -5 35 -25z" />
    <glyph glyph-name="afii10107" unicode="&#x45a;" horiz-adv-x="715" 
d="M85 510h80c15 0 25 -10 25 -25v-145h120v145c0 15 10 25 25 25h80c15 0 25 -10 25 -25v-145h100c80 0 130 -50 130 -130v-80c0 -80 -50 -130 -130 -130h-205c-15 0 -25 10 -25 25v195h-120v-195c0 -15 -10 -25 -25 -25h-80c-15 0 -25 10 -25 25v460c0 15 10 25 25 25z
M540 155v30c0 30 -15 45 -45 45h-55v-120h55c30 0 45 15 45 45z" />
    <glyph glyph-name="afii10108" unicode="&#x45b;" horiz-adv-x="530" 
d="M260 502h-60v-77h145c80 0 130 -50 130 -130v-270c0 -15 -10 -25 -25 -25h-80c-15 0 -25 10 -25 25v235c0 30 -15 45 -45 45h-100v-280c0 -15 -10 -25 -25 -25h-80c-15 0 -25 10 -25 25v477h-35c-15 0 -25 10 -25 25v68c0 15 10 25 25 25h35v55c0 15 10 25 25 25h80
c15 0 25 -10 25 -25v-55h60c15 0 25 -10 25 -25v-68c0 -15 -10 -25 -25 -25z" />
    <glyph glyph-name="afii10193" unicode="&#x45f;" 
d="M195 0h-110c-15 0 -25 10 -25 25v460c0 15 10 25 25 25h80c15 0 25 -10 25 -25v-365h145v365c0 15 10 25 25 25h80c15 0 25 -10 25 -25v-460c0 -15 -10 -25 -25 -25h-110v-75c0 -15 -10 -25 -25 -25h-85c-15 0 -25 10 -25 25v75z" />
    <glyph glyph-name="afii10050" unicode="&#x490;" horiz-adv-x="520" 
d="M225 565v-540c0 -15 -10 -25 -25 -25h-100c-15 0 -25 10 -25 25v650c0 15 10 25 25 25h270v75c0 15 10 25 25 25h100c15 0 25 -10 25 -25v-185c0 -15 -10 -25 -25 -25h-270z" />
    <glyph glyph-name="brokenbar" unicode="&#xa6;" horiz-adv-x="330" 
d="M115 185h97c15 0 25 -10 25 -25v-325c0 -15 -10 -25 -25 -25h-97c-15 0 -25 10 -25 25v325c0 15 10 25 25 25zM115 700h100c15 0 25 -10 25 -25v-325c0 -15 -10 -25 -25 -25h-100c-15 0 -25 10 -25 25v325c0 15 10 25 25 25z" />
    <glyph glyph-name="section" unicode="&#xa7;" horiz-adv-x="535" 
d="M325 530v15c0 25 -10 35 -35 35h-50c-25 0 -35 -10 -35 -35v-35c0 -15 10 -24 40 -35l130 -50c65 -25 90 -50 90 -125v-75c0 -80 -60 -110 -60 -110v-10s60 -15 60 -110v-65c0 -80 -50 -130 -130 -130h-135c-82 0 -130 47 -130 130v40c0 15 10 25 25 25h80
c15 0 25 -10 25 -25v-15c0 -25 10 -35 35 -35h65c25 0 35 10 35 35v35c0 15 -10 24 -40 35l-130 50c-65 25 -90 50 -90 125v75c0 80 60 110 60 110v10s-60 15 -60 110v65c0 80 50 130 130 130h120c80 0 130 -50 130 -130v-40c0 -15 -10 -25 -25 -25h-80c-15 0 -25 10 -25 25
zM295 335l-55 20s-35 -10 -35 -50v-100c0 -20 9 -29 40 -40l55 -20s35 10 35 50v100c0 20 -10 29 -40 40z" />
    <glyph glyph-name="afii10023" unicode="&#x401;" horiz-adv-x="595" 
d="M225 290v-155h320c15 0 25 -10 25 -25v-85c0 -15 -10 -25 -25 -25h-445c-15 0 -25 10 -25 25v650c0 15 10 25 25 25h435c15 0 25 -10 25 -25v-85c0 -15 -10 -25 -25 -25h-310v-140h235c15 0 25 -10 25 -25v-85c0 -15 -10 -25 -25 -25h-235zM190 915h70
c15 0 25 -10 25 -25v-80c0 -15 -10 -25 -25 -25h-70c-15 0 -25 10 -25 25v80c0 15 10 25 25 25zM370 915h70c15 0 25 -10 25 -25v-80c0 -15 -10 -25 -25 -25h-70c-15 0 -25 10 -25 25v80c0 15 10 25 25 25z" />
    <glyph glyph-name="copyright" unicode="&#xa9;" horiz-adv-x="780" 
d="M230 705h320c105 0 155 -50 155 -155v-400c0 -105 -50 -155 -155 -155h-320c-105 0 -155 50 -155 155v400c0 105 50 155 155 155zM545 605h-310c-30 0 -50 -20 -50 -50v-410c0 -30 20 -50 50 -50h310c30 0 50 20 50 50v410c0 30 -20 50 -50 50zM255 285v135
c0 65 35 100 100 100h70c65 0 100 -35 100 -100v-10c0 -15 -5 -20 -20 -20h-50c-15 0 -20 5 -20 20s-5 20 -20 20h-40c-15 0 -20 -5 -20 -20v-115c0 -15 5 -20 20 -20h40c15 0 20 5 20 20s5 20 20 20h50c15 0 20 -5 20 -20v-10c0 -65 -35 -100 -100 -100h-70
c-65 0 -100 35 -100 100z" />
    <glyph glyph-name="afii10053" unicode="&#x404;" horiz-adv-x="660" 
d="M610 555v-65c0 -15 -10 -25 -25 -25h-100c-15 0 -25 10 -25 25v35c0 30 -20 50 -50 50h-145c-30 0 -50 -20 -50 -50v-100h160c15 0 25 -10 25 -25v-85c0 -15 -10 -25 -25 -25h-160v-115c0 -30 20 -50 50 -50h145c30 0 50 20 50 50v35c0 15 10 25 25 25h100
c15 0 25 -10 25 -25v-65c0 -105 -50 -155 -155 -155h-235c-105 0 -155 50 -155 155v410c0 105 50 155 155 155h235c105 0 155 -50 155 -155z" />
    <glyph glyph-name="guillemotleft" unicode="&#xab;" horiz-adv-x="484" 
d="M260 445l-100 -190l100 -190c8 -15 0 -25 -15 -25h-80c-15 0 -27 10 -35 25l-100 190l100 190c8 15 20 25 35 25h80c15 0 23 -10 15 -25zM450 445l-100 -190l100 -190c8 -15 0 -25 -15 -25h-80c-15 0 -27 10 -35 25l-100 190l100 190c8 15 20 25 35 25h80
c15 0 23 -10 15 -25z" />
    <glyph glyph-name="logicalnot" unicode="&#xac;" horiz-adv-x="425" 
d="M55 425h315c15 0 25 -10 25 -25v-175c0 -15 -10 -25 -25 -25h-80c-15 0 -25 10 -25 25v75h-210c-15 0 -25 10 -25 25v75c0 15 10 25 25 25z" />
    <glyph glyph-name="uni00AD" unicode="&#xad;" horiz-adv-x="395" 
d="M345 250h-295c-15 0 -25 10 -25 25v75c0 15 10 25 25 25h295c15 0 25 -10 25 -25v-75c0 -15 -10 -25 -25 -25z" />
    <glyph glyph-name="registered" unicode="&#xae;" horiz-adv-x="780" 
d="M430 390v20c0 15 -10 25 -25 25h-50v-70h50c15 0 25 10 25 25zM425 200l-35 85h-35v-85c0 -10 -5 -15 -15 -15h-70c-10 0 -15 5 -15 15v305c0 10 5 15 15 15h155c65 0 100 -35 100 -100v-35c0 -70 -45 -85 -45 -85l50 -100c5 -10 0 -15 -10 -15h-65c-20 0 -26 5 -30 15z
M230 705h320c105 0 155 -50 155 -155v-400c0 -105 -50 -155 -155 -155h-320c-105 0 -155 50 -155 155v400c0 105 50 155 155 155zM545 605h-310c-30 0 -50 -20 -50 -50v-410c0 -30 20 -50 50 -50h310c30 0 50 20 50 50v410c0 30 -20 50 -50 50z" />
    <glyph glyph-name="degree" unicode="&#xb0;" horiz-adv-x="370" 
d="M40 485v105c0 70 40 110 110 110h70c70 0 110 -40 110 -110v-105c0 -70 -40 -110 -110 -110h-70c-70 0 -110 40 -110 110zM145 575v-75c0 -20 10 -30 30 -30h20c20 0 30 10 30 30v75c0 20 -10 30 -30 30h-20c-20 0 -30 -10 -30 -30z" />
    <glyph glyph-name="plusminus" unicode="&#xb1;" horiz-adv-x="460" 
d="M395 80h-330c-15 0 -25 10 -25 25v70c0 15 10 25 25 25h105v110h-110c-15 0 -25 10 -25 25v70c0 15 10 25 25 25h110v120c0 15 10 25 25 25h70c15 0 25 -10 25 -25v-120h110c15 0 25 -10 25 -25v-70c0 -15 -10 -25 -25 -25h-110v-110h105c15 0 25 -10 25 -25v-70
c0 -15 -10 -25 -25 -25z" />
    <glyph glyph-name="afii10098" unicode="&#x491;" horiz-adv-x="390" 
d="M390 565v-150c0 -15 -10 -25 -25 -25h-175v-365c0 -15 -10 -25 -25 -25h-80c-15 0 -25 10 -25 25v460c0 15 10 25 25 25h175v55c0 15 10 25 25 25h80c15 0 25 -10 25 -25z" />
    <glyph glyph-name="mu" unicode="&#xb5;" 
d="M240 -10h-5c-30 0 -45 10 -45 10v-165c0 -15 -10 -25 -25 -25h-80c-15 0 -25 10 -25 25v650c0 15 10 25 25 25h80c15 0 25 -10 25 -25v-330c0 -30 15 -45 45 -45h45c35 0 55 20 55 55v320c0 15 10 25 25 25h80c15 0 25 -10 25 -25v-460c0 -15 -10 -25 -25 -25h-80
c-15 0 -25 10 -25 25v15h-10s-15 -50 -85 -50z" />
    <glyph glyph-name="paragraph" unicode="&#xb6;" horiz-adv-x="610" 
d="M195 -50v365c-100 0 -145 45 -145 145v85c0 105 50 155 155 155h305c15 0 25 -10 25 -25v-720c0 -105 -50 -155 -155 -155h-230c-15 0 -25 10 -25 25v75c0 15 10 25 25 25h20c15 0 25 10 25 25zM325 -75h30c30 0 50 20 50 50v600h-80v-650z" />
    <glyph glyph-name="periodcentered" unicode="&#xb7;" horiz-adv-x="200" 
d="M60 365h80c15 0 25 -10 25 -25v-85c0 -15 -10 -25 -25 -25h-80c-15 0 -25 10 -25 25v85c0 15 10 25 25 25z" />
    <glyph glyph-name="afii10071" unicode="&#x451;" horiz-adv-x="515" 
d="M230 110h60c25 0 35 10 35 35c0 15 10 25 25 25h80c15 0 25 -10 25 -25v-25c0 -80 -50 -130 -130 -130h-140c-80 0 -130 50 -130 130v270c0 80 50 130 130 130h145c80 0 130 -50 130 -130v-155c0 -15 -10 -25 -25 -25h-250v-55c0 -30 15 -45 45 -45zM185 360v-45h145v45
c0 30 -15 45 -45 45h-55c-30 0 -45 -15 -45 -45zM132 720h70c15 0 25 -10 25 -25v-80c0 -15 -10 -25 -25 -25h-70c-15 0 -25 10 -25 25v80c0 15 10 25 25 25zM312 720h70c15 0 25 -10 25 -25v-80c0 -15 -10 -25 -25 -25h-70c-15 0 -25 10 -25 25v80c0 15 10 25 25 25z" />
    <glyph glyph-name="afii61352" unicode="&#x2116;" horiz-adv-x="1005" 
d="M925 15h-220c-15 0 -25 10 -25 25v60c0 15 10 25 25 25h220c15 0 25 -10 25 -25v-60c0 -15 -10 -25 -25 -25zM950 430v-120c0 -80 -30 -110 -110 -110h-50c-80 0 -110 30 -110 110v120c0 80 30 110 110 110h50c80 0 110 -30 110 -110zM850 330v80c0 25 -10 35 -35 35
s-35 -10 -35 -35v-80c0 -25 10 -35 35 -35s35 10 35 35zM465 265h10v410c0 15 10 25 25 25h100c15 0 25 -10 25 -25v-650c0 -15 -10 -25 -25 -25h-125c-20 0 -27 10 -35 25l-205 410h-10v-410c0 -15 -10 -25 -25 -25h-100c-15 0 -25 10 -25 25v650c0 15 10 25 25 25h125
c20 0 27 -10 35 -25z" />
    <glyph glyph-name="afii10101" unicode="&#x454;" horiz-adv-x="505" 
d="M460 390v-50c0 -15 -10 -25 -25 -25h-80c-15 0 -25 10 -25 25v15c0 30 -15 45 -45 45h-55c-30 0 -45 -15 -45 -45v-40h80c15 0 25 -10 25 -25v-70c0 -15 -10 -25 -25 -25h-80v-40c0 -30 15 -45 45 -45h55c30 0 45 15 45 45v15c0 15 10 25 25 25h80c15 0 25 -10 25 -25
v-50c0 -80 -50 -130 -130 -130h-145c-80 0 -130 50 -130 130v270c0 80 50 130 130 130h145c80 0 130 -50 130 -130z" />
    <glyph glyph-name="guillemotright" unicode="&#xbb;" horiz-adv-x="484" 
d="M324 255l-100 190c-8 15 0 25 15 25h80c15 0 27 -10 35 -25l100 -190l-100 -190c-8 -15 -20 -25 -35 -25h-80c-15 0 -23 10 -15 25zM134 255l-100 190c-8 15 0 25 15 25h80c15 0 27 -10 35 -25l100 -190l-100 -190c-8 -15 -20 -25 -35 -25h-80c-15 0 -23 10 -15 25z" />
    <glyph glyph-name="afii10018" unicode="&#x411;" horiz-adv-x="645" 
d="M225 440h215c105 0 155 -50 155 -155v-130c0 -105 -50 -155 -155 -155h-340c-15 0 -25 10 -25 25v650c0 15 10 25 25 25h430c15 0 25 -10 25 -25v-85c0 -15 -10 -25 -25 -25h-305v-125zM225 135h170c30 0 50 20 50 50v70c0 30 -20 50 -50 50h-170v-170z" />
    <glyph glyph-name="afii10020" unicode="&#x413;" horiz-adv-x="520" 
d="M225 565v-540c0 -15 -10 -25 -25 -25h-100c-15 0 -25 10 -25 25v650c0 15 10 25 25 25h395c15 0 25 -10 25 -25v-85c0 -15 -10 -25 -25 -25h-270z" />
    <glyph glyph-name="afii10021" unicode="&#x414;" horiz-adv-x="660" 
d="M20 135h40l90 540c2 15 10 25 35 25h360c15 0 25 -10 25 -25v-540h45c15 0 25 -10 25 -25v-205c0 -15 -10 -25 -25 -25h-100c-15 0 -25 10 -25 25v95h-345v-95c0 -15 -10 -25 -25 -25h-100c-15 0 -25 10 -25 25v205c0 15 10 25 25 25zM420 565h-140l-75 -430h215v430z
" />
    <glyph glyph-name="afii10024" unicode="&#x416;" horiz-adv-x="855" 
d="M503 675v-240h60l110 240c7 15 15 25 35 25h110c10 0 22 -10 15 -25l-140 -305l155 -345c6 -15 -5 -25 -15 -25h-105c-20 0 -33 10 -40 25l-120 275h-65v-275c0 -15 -10 -25 -25 -25h-100c-15 0 -25 10 -25 25v275h-65l-120 -275c-6 -15 -20 -25 -40 -25h-105
c-10 0 -22 10 -15 25l155 345l-140 305c-7 15 5 25 15 25h110c20 0 28 -10 35 -25l110 -240h60v240c0 15 10 25 25 25h100c15 0 25 -10 25 -25z" />
    <glyph glyph-name="afii10025" unicode="&#x417;" horiz-adv-x="635" 
d="M570 555v-85c0 -90 -80 -100 -80 -100v-10s90 -10 90 -120v-95c0 -105 -50 -155 -155 -155h-225c-105 0 -155 50 -155 155v65c0 15 10 25 25 25h100c15 0 25 -10 25 -25v-35c0 -30 20 -50 50 -50h135c30 0 50 20 50 50v65c0 30 -20 50 -50 50h-110c-15 0 -25 10 -25 25
v85c0 15 10 25 25 25h100c30 0 50 20 50 50v50c0 30 -20 50 -50 50h-115c-30 0 -50 -20 -50 -50v-35c0 -15 -10 -25 -25 -25h-100c-15 0 -25 10 -25 25v65c0 105 50 155 155 155h205c105 0 155 -50 155 -155z" />
    <glyph glyph-name="afii10026" unicode="&#x418;" horiz-adv-x="700" 
d="M475 435h-10l-205 -410c-8 -15 -15 -25 -35 -25h-125c-15 0 -25 10 -25 25v650c0 15 10 25 25 25h100c15 0 25 -10 25 -25v-410h10l205 410c8 15 15 25 35 25h125c15 0 25 -10 25 -25v-650c0 -15 -10 -25 -25 -25h-100c-15 0 -25 10 -25 25v410z" />
    <glyph glyph-name="afii10027" unicode="&#x419;" horiz-adv-x="700" 
d="M475 435h-10l-205 -410c-8 -15 -15 -25 -35 -25h-125c-15 0 -25 10 -25 25v650c0 15 10 25 25 25h100c15 0 25 -10 25 -25v-410h10l205 410c8 15 15 25 35 25h125c15 0 25 -10 25 -25v-650c0 -15 -10 -25 -25 -25h-100c-15 0 -25 10 -25 25v410zM398 925v15
c0 15 10 25 25 25h65c15 0 25 -10 25 -25v-40c0 -80 -35 -115 -115 -115h-95c-80 0 -115 35 -115 115v40c0 15 10 25 25 25h65c15 0 25 -10 25 -25v-15c0 -20 10 -30 30 -30h35c20 0 30 10 30 30z" />
    <glyph glyph-name="afii10029" unicode="&#x41b;" horiz-adv-x="665" 
d="M20 125c45 0 60 15 70 75l80 475c3 15 15 25 35 25h360c15 0 25 -10 25 -25v-650c0 -15 -10 -25 -25 -25h-100c-15 0 -25 10 -25 25v540h-140l-70 -410c-20 -115 -70 -165 -175 -165h-35c-15 0 -25 10 -25 25v85c0 15 10 25 25 25z" />
    <glyph glyph-name="afii10033" unicode="&#x41f;" horiz-adv-x="685" 
d="M100 700h485c15 0 25 -10 25 -25v-650c0 -15 -10 -25 -25 -25h-100c-15 0 -25 10 -25 25v540h-235v-540c0 -15 -10 -25 -25 -25h-100c-15 0 -25 10 -25 25v650c0 15 10 25 25 25z" />
    <glyph glyph-name="afii10037" unicode="&#x423;" horiz-adv-x="560" 
d="M208 180l-205 495c-6 15 0 25 15 25h110c20 0 29 -10 35 -25l120 -310h10l105 310c5 15 15 25 35 25h110c11 0 21 -10 15 -25l-195 -520c-45 -120 -90 -165 -210 -165h-30c-15 0 -25 10 -25 25v85c0 15 10 25 25 25h30c35 0 45 10 55 55z" />
    <glyph glyph-name="afii10038" unicode="&#x424;" horiz-adv-x="850" 
d="M500 670h130c105 0 155 -50 155 -155v-320c0 -105 -50 -155 -155 -155h-130v-65c0 -15 -10 -25 -25 -25h-100c-15 0 -25 10 -25 25v65h-130c-105 0 -155 50 -155 155v320c0 105 50 155 155 155h130v65c0 15 10 25 25 25h100c15 0 25 -10 25 -25v-65zM350 535h-85
c-30 0 -50 -20 -50 -50v-260c0 -30 20 -50 50 -50h85v360zM500 175h85c30 0 50 20 50 50v260c0 30 -20 50 -50 50h-85v-360z" />
    <glyph glyph-name="afii10040" unicode="&#x426;" horiz-adv-x="663" 
d="M475 0h-375c-15 0 -25 10 -25 25v650c0 15 10 25 25 25h100c15 0 25 -10 25 -25v-540h210v540c0 15 10 25 25 25h100c15 0 25 -10 25 -25v-580l85 -90c10 -10 10 -25 0 -35l-70 -65c-10 -10 -25 -10 -35 0z" />
    <glyph glyph-name="afii10041" unicode="&#x427;" horiz-adv-x="645" 
d="M265 360h155v315c0 15 10 25 25 25h100c15 0 25 -10 25 -25v-650c0 -15 -10 -25 -25 -25h-100c-15 0 -25 10 -25 25v200h-200c-105 0 -155 50 -155 155v295c0 15 10 25 25 25h100c15 0 25 -10 25 -25v-265c0 -30 20 -50 50 -50z" />
    <glyph glyph-name="afii10042" unicode="&#x428;" horiz-adv-x="900" 
d="M800 0h-700c-15 0 -25 10 -25 25v650c0 15 10 25 25 25h100c15 0 25 -10 25 -25v-540h150v540c0 15 10 25 25 25h100c15 0 25 -10 25 -25v-540h150v540c0 15 10 25 25 25h100c15 0 25 -10 25 -25v-650c0 -15 -10 -25 -25 -25z" />
    <glyph glyph-name="afii10043" unicode="&#x429;" horiz-adv-x="903" 
d="M805 -95l-90 95h-615c-15 0 -25 10 -25 25v650c0 15 10 25 25 25h100c15 0 25 -10 25 -25v-540h150v540c0 15 10 25 25 25h100c15 0 25 -10 25 -25v-540h150v540c0 15 10 25 25 25h100c15 0 25 -10 25 -25v-580l85 -90c10 -10 10 -25 0 -35l-70 -65
c-10 -10 -25 -10 -35 0z" />
    <glyph glyph-name="afii10044" unicode="&#x42a;" horiz-adv-x="670" 
d="M275 485h185c105 0 155 -50 155 -155v-175c0 -105 -50 -155 -155 -155h-310c-15 0 -25 10 -25 25v535h-100c-15 0 -25 10 -25 25v90c0 15 10 25 25 25h225c15 0 25 -10 25 -25v-190zM275 135h140c30 0 50 20 50 50v115c0 30 -20 50 -50 50h-140v-215z" />
    <glyph glyph-name="afii10045" unicode="&#x42b;" horiz-adv-x="855" 
d="M225 485h175c105 0 155 -50 155 -155v-175c0 -105 -50 -155 -155 -155h-300c-15 0 -25 10 -25 25v650c0 15 10 25 25 25h100c15 0 25 -10 25 -25v-190zM225 135h130c30 0 50 20 50 50v115c0 30 -20 50 -50 50h-130v-215zM780 675v-650c0 -15 -10 -25 -25 -25h-100
c-15 0 -25 10 -25 25v650c0 15 10 25 25 25h100c15 0 25 -10 25 -25z" />
    <glyph glyph-name="afii10046" unicode="&#x42c;" horiz-adv-x="645" 
d="M225 485h210c105 0 155 -50 155 -155v-175c0 -105 -50 -155 -155 -155h-335c-15 0 -25 10 -25 25v650c0 15 10 25 25 25h100c15 0 25 -10 25 -25v-190zM225 135h165c30 0 50 20 50 50v115c0 30 -20 50 -50 50h-165v-215z" />
    <glyph glyph-name="afii10047" unicode="&#x42d;" horiz-adv-x="660" 
d="M50 490v65c0 105 50 155 155 155h235c105 0 155 -50 155 -155v-410c0 -105 -50 -155 -155 -155h-235c-105 0 -155 50 -155 155v65c0 15 10 25 25 25h100c15 0 25 -10 25 -25v-35c0 -30 20 -50 50 -50h145c30 0 50 20 50 50v115h-160c-15 0 -25 10 -25 25v85
c0 15 10 25 25 25h160v100c0 30 -20 50 -50 50h-145c-30 0 -50 -20 -50 -50v-35c0 -15 -10 -25 -25 -25h-100c-15 0 -25 10 -25 25z" />
    <glyph glyph-name="afii10048" unicode="&#x42e;" horiz-adv-x="905" 
d="M840 555v-410c0 -105 -50 -155 -155 -155h-210c-105 0 -155 50 -155 155v135h-95v-255c0 -15 -10 -25 -25 -25h-100c-15 0 -25 10 -25 25v650c0 15 10 25 25 25h100c15 0 25 -10 25 -25v-260h95v140c0 105 50 155 155 155h210c105 0 155 -50 155 -155zM690 175v350
c0 30 -20 50 -50 50h-120c-30 0 -50 -20 -50 -50v-350c0 -30 20 -50 50 -50h120c30 0 50 20 50 50z" />
    <glyph glyph-name="afii10049" unicode="&#x42f;" horiz-adv-x="663" 
d="M63 375v170c0 105 50 155 155 155h345c15 0 25 -10 25 -25v-650c0 -15 -10 -25 -25 -25h-100c-15 0 -25 10 -25 25v195h-140l-90 -195c-7 -15 -15 -25 -35 -25h-110c-12 0 -22 10 -15 25l100 205s-85 15 -85 145zM438 565h-175c-30 0 -50 -20 -50 -50v-110
c0 -30 20 -50 50 -50h175v210z" />
    <glyph glyph-name="afii10066" unicode="&#x431;" horiz-adv-x="515" 
d="M285 320h-95v-165c0 -30 15 -45 45 -45h50c30 0 45 15 45 45v120c0 30 -15 45 -45 45zM320 685c0 15 10 25 25 25h80c15 0 25 -10 25 -25v-15c0 -85 -40 -124 -105 -130l-105 -10c-35 -5 -50 -25 -50 -55v-35h140c80 0 130 -50 130 -130v-190c0 -80 -50 -130 -130 -130
h-140c-80 0 -130 50 -130 130v390c0 75 50 122 125 130l100 10c20 2 35 15 35 35z" />
    <glyph glyph-name="afii10067" unicode="&#x432;" horiz-adv-x="490" 
d="M85 510h215c80 0 130 -50 130 -130v-35c0 -60 -50 -70 -50 -70v-10s75 -10 75 -95v-40c0 -80 -50 -130 -130 -130h-240c-15 0 -25 10 -25 25v460c0 15 10 25 25 25zM325 160v5c0 30 -15 45 -45 45h-90v-95h90c30 0 45 15 45 45zM300 350v5c0 25 -15 40 -40 40h-70v-85h70
c25 0 40 15 40 40z" />
    <glyph glyph-name="afii10068" unicode="&#x433;" horiz-adv-x="390" 
d="M60 25v460c0 15 10 25 25 25h280c15 0 25 -10 25 -25v-70c0 -15 -10 -25 -25 -25h-175v-365c0 -15 -10 -25 -25 -25h-80c-15 0 -25 10 -25 25z" />
    <glyph glyph-name="afii10069" unicode="&#x434;" horiz-adv-x="495" 
d="M300 120v270h-80l-43 -270h123zM50 120l60 365c2 15 10 25 30 25h265c15 0 25 -10 25 -25v-365h30c15 0 25 -10 25 -25v-170c0 -15 -10 -25 -25 -25h-80c-15 0 -25 10 -25 25v75h-225v-75c0 -15 -10 -25 -25 -25h-80c-15 0 -25 10 -25 25v170c0 15 10 25 25 25h25z" />
    <glyph glyph-name="afii10072" unicode="&#x436;" horiz-adv-x="656" 
d="M393 485v-160h40l65 160c6 15 15 25 35 25h90c10 0 22 -10 15 -25l-100 -215l110 -245c7 -15 0 -25 -15 -25h-90c-20 0 -29 10 -35 25l-75 180h-40v-180c0 -15 -10 -25 -25 -25h-80c-15 0 -25 10 -25 25v180h-40l-75 -180c-6 -15 -15 -25 -35 -25h-90
c-15 0 -22 10 -15 25l110 245l-100 215c-7 15 5 25 15 25h90c20 0 29 -10 35 -25l65 -160h40v160c0 15 10 25 25 25h80c15 0 25 -10 25 -25z" />
    <glyph glyph-name="afii10073" unicode="&#x437;" horiz-adv-x="485" 
d="M305 360v5c0 30 -15 45 -45 45h-40c-30 0 -45 -15 -45 -45v-20c0 -15 -10 -25 -25 -25h-80c-15 0 -25 10 -25 25v45c0 80 50 130 130 130h130c80 0 130 -50 130 -130v-30c0 -80 -60 -90 -60 -90v-10s70 -10 70 -100v-40c0 -80 -50 -130 -130 -130h-150
c-80 0 -130 50 -130 130v45c0 15 10 25 25 25h80c15 0 25 -10 25 -25v-20c0 -30 15 -45 45 -45h60c30 0 45 15 45 45v15c0 30 -15 45 -45 45h-45c-15 0 -25 10 -25 25v60c0 16 11 25 26 25h34c30 0 45 15 45 45z" />
    <glyph glyph-name="afii10074" unicode="&#x438;" horiz-adv-x="530" 
d="M200 240l125 245c8 15 20 25 35 25h85c15 0 25 -10 25 -25v-460c0 -15 -10 -25 -25 -25h-80c-15 0 -25 10 -25 25v245h-10l-125 -245c-8 -15 -20 -25 -35 -25h-85c-15 0 -25 10 -25 25v460c0 15 10 25 25 25h80c15 0 25 -10 25 -25v-245h10z" />
    <glyph glyph-name="afii10075" unicode="&#x439;" horiz-adv-x="530" 
d="M200 240l125 245c8 15 20 25 35 25h85c15 0 25 -10 25 -25v-460c0 -15 -10 -25 -25 -25h-80c-15 0 -25 10 -25 25v245h-10l-125 -245c-8 -15 -20 -25 -35 -25h-85c-15 0 -25 10 -25 25v460c0 15 10 25 25 25h80c15 0 25 -10 25 -25v-245h10zM225 725v-20
c0 -20 10 -30 30 -30h20c20 0 30 10 30 30v20c0 15 10 25 25 25h55c15 0 25 -10 25 -25v-25c0 -75 -40 -115 -115 -115h-60c-75 0 -115 40 -115 115v25c0 15 10 25 25 25h55c15 0 25 -10 25 -25z" />
    <glyph glyph-name="afii10076" unicode="&#x43a;" horiz-adv-x="473" 
d="M85 510h80c15 0 25 -10 25 -25v-160h55l70 160c7 15 15 25 35 25h90c15 0 22 -10 15 -25l-105 -215l115 -245c7 -15 0 -25 -15 -25h-90c-20 0 -28 10 -35 25l-80 180h-55v-180c0 -15 -10 -25 -25 -25h-80c-15 0 -25 10 -25 25v460c0 15 10 25 25 25z" />
    <glyph glyph-name="afii10077" unicode="&#x43b;" horiz-adv-x="510" 
d="M240 390l-40 -265c-14 -90 -60 -135 -155 -135h-20c-15 0 -25 10 -25 25v70c0 15 10 25 25 25c30 0 45 15 50 45l55 330c3 15 15 25 35 25h260c15 0 25 -10 25 -25v-460c0 -15 -10 -25 -25 -25h-80c-15 0 -25 10 -25 25v365h-80z" />
    <glyph glyph-name="afii10078" unicode="&#x43c;" horiz-adv-x="660" 
d="M350 0h-40c-20 0 -29 10 -35 25l-80 215h-10v-215c0 -15 -10 -25 -25 -25h-75c-15 0 -25 10 -25 25v460c0 15 10 25 25 25h100c20 0 29 -10 35 -25l105 -280h10l105 280c6 15 15 25 35 25h100c15 0 25 -10 25 -25v-460c0 -15 -10 -25 -25 -25h-75c-15 0 -25 10 -25 25
v215h-10l-80 -215c-6 -15 -15 -25 -35 -25z" />
    <glyph glyph-name="afii10079" unicode="&#x43d;" horiz-adv-x="520" 
d="M85 510h80c15 0 25 -10 25 -25v-170h140v170c0 15 10 25 25 25h80c15 0 25 -10 25 -25v-460c0 -15 -10 -25 -25 -25h-80c-15 0 -25 10 -25 25v170h-140v-170c0 -15 -10 -25 -25 -25h-80c-15 0 -25 10 -25 25v460c0 15 10 25 25 25z" />
    <glyph glyph-name="afii10081" unicode="&#x43f;" horiz-adv-x="520" 
d="M85 510h350c15 0 25 -10 25 -25v-460c0 -15 -10 -25 -25 -25h-80c-15 0 -25 10 -25 25v365h-140v-365c0 -15 -10 -25 -25 -25h-80c-15 0 -25 10 -25 25v460c0 15 10 25 25 25z" />
    <glyph glyph-name="afii10084" unicode="&#x442;" horiz-adv-x="410" 
d="M140 25v365h-105c-15 0 -25 10 -25 25v70c0 15 10 25 25 25h340c15 0 25 -10 25 -25v-70c0 -15 -10 -25 -25 -25h-105v-365c0 -15 -10 -25 -25 -25h-80c-15 0 -25 10 -25 25z" />
    <glyph glyph-name="afii10086" unicode="&#x444;" horiz-adv-x="680" 
d="M275 0h-90c-80 0 -130 50 -130 130v250c0 80 50 130 130 130h90v165c0 15 10 25 25 25h80c15 0 25 -10 25 -25v-165h90c82 0 130 -48 130 -130v-250c0 -80 -50 -130 -130 -130h-90v-165c0 -15 -10 -25 -25 -25h-80c-15 0 -25 10 -25 25v165zM275 390h-45
c-30 0 -45 -15 -45 -45v-180c0 -30 15 -45 45 -45h45v270zM405 120h45c30 0 45 15 45 45v180c0 30 -15 45 -45 45h-45v-270z" />
    <glyph glyph-name="afii10088" unicode="&#x446;" horiz-adv-x="523" 
d="M450 485v-395l75 -85c9 -10 10 -25 0 -35l-60 -55c-10 -10 -26 -11 -35 0l-75 85h-270c-15 0 -25 10 -25 25v460c0 15 10 25 25 25h80c15 0 25 -10 25 -25v-365h130v365c0 15 10 25 25 25h80c15 0 25 -10 25 -25z" />
    <glyph glyph-name="afii10089" unicode="&#x447;" horiz-adv-x="500" 
d="M50 290v195c0 15 10 25 25 25h80c15 0 25 -10 25 -25v-160c0 -30 15 -45 45 -45h85v205c0 15 10 25 25 25h80c15 0 25 -10 25 -25v-460c0 -15 -10 -25 -25 -25h-80c-15 0 -25 10 -25 25v135h-130c-80 0 -130 50 -130 130z" />
    <glyph glyph-name="afii10090" unicode="&#x448;" horiz-adv-x="720" 
d="M635 0h-550c-15 0 -25 10 -25 25v460c0 15 10 25 25 25h80c15 0 25 -10 25 -25v-365h105v365c0 15 10 25 25 25h80c15 0 25 -10 25 -25v-365h105v365c0 15 10 25 25 25h80c15 0 25 -10 25 -25v-460c0 -15 -10 -25 -25 -25z" />
    <glyph glyph-name="afii10091" unicode="&#x449;" horiz-adv-x="733" 
d="M565 0h-480c-15 0 -25 10 -25 25v460c0 15 10 25 25 25h80c15 0 25 -10 25 -25v-365h105v365c0 15 10 25 25 25h80c15 0 25 -10 25 -25v-365h105v365c0 15 10 25 25 25h80c15 0 25 -10 25 -25v-395l75 -85c9 -10 10 -25 0 -35l-60 -55c-10 -10 -26 -11 -35 0z" />
    <glyph glyph-name="afii10092" unicode="&#x44a;" horiz-adv-x="515" 
d="M25 510h180c15 0 25 -10 25 -25v-135h115c80 0 130 -50 130 -130v-90c0 -80 -50 -130 -130 -130h-220c-15 0 -25 10 -25 25v365h-75c-15 0 -25 10 -25 25v70c0 15 10 25 25 25zM345 155v40c0 30 -15 45 -45 45h-70v-130h70c30 0 45 15 45 45z" />
    <glyph glyph-name="afii10093" unicode="&#x44b;" horiz-adv-x="675" 
d="M85 510h80c15 0 25 -10 25 -25v-135h110c80 0 130 -50 130 -130v-90c0 -80 -50 -130 -130 -130h-215c-15 0 -25 10 -25 25v460c0 15 10 25 25 25zM300 155v40c0 30 -15 45 -45 45h-65v-130h65c30 0 45 15 45 45zM510 510h80c15 0 25 -10 25 -25v-460
c0 -15 -10 -25 -25 -25h-80c-15 0 -25 10 -25 25v460c0 15 10 25 25 25z" />
    <glyph glyph-name="afii10094" unicode="&#x44c;" horiz-adv-x="480" 
d="M85 510h80c15 0 25 -10 25 -25v-135h120c80 0 130 -50 130 -130v-90c0 -80 -50 -130 -130 -130h-225c-15 0 -25 10 -25 25v460c0 15 10 25 25 25zM310 155v40c0 30 -15 45 -45 45h-75v-130h75c30 0 45 15 45 45z" />
    <glyph glyph-name="afii10095" unicode="&#x44d;" horiz-adv-x="505" 
d="M45 340v50c0 80 50 130 130 130h145c80 0 130 -50 130 -130v-270c0 -80 -50 -130 -130 -130h-145c-80 0 -130 50 -130 130v50c0 15 10 25 25 25h80c15 0 25 -10 25 -25v-15c0 -30 15 -45 45 -45h55c30 0 45 15 45 45v40h-80c-15 0 -25 10 -25 25v70c0 15 10 25 25 25h80
v40c0 30 -15 45 -45 45h-55c-30 0 -45 -15 -45 -45v-15c0 -15 -10 -25 -25 -25h-80c-15 0 -25 10 -25 25z" />
    <glyph glyph-name="afii10096" unicode="&#x44e;" horiz-adv-x="705" 
d="M650 390v-270c0 -80 -50 -130 -130 -130h-130c-80 0 -130 50 -130 130v75h-70v-170c0 -15 -10 -25 -25 -25h-80c-15 0 -25 10 -25 25v460c0 15 10 25 25 25h80c15 0 25 -10 25 -25v-170h70v75c0 80 50 130 130 130h130c80 0 130 -50 130 -130zM520 155v200
c0 30 -15 45 -45 45h-40c-30 0 -45 -15 -45 -45v-200c0 -30 15 -45 45 -45h40c30 0 45 15 45 45z" />
    <glyph glyph-name="afii10097" unicode="&#x44f;" horiz-adv-x="493" 
d="M408 0h-80c-15 0 -25 10 -25 25v135h-65l-55 -135c-6 -15 -15 -25 -35 -25h-90c-10 0 -22 10 -15 25l75 145s-75 20 -75 120v90c0 80 50 130 130 130h235c15 0 25 -10 25 -25v-460c0 -15 -10 -25 -25 -25zM173 355v-40c0 -30 15 -45 45 -45h85v130h-85
c-30 0 -45 -15 -45 -45z" />
    <glyph glyph-name="AE" unicode="&#xc6;" horiz-adv-x="917" 
d="M572 290v-155h295c15 0 25 -10 25 -25v-85c0 -15 -10 -25 -25 -25h-420c-15 0 -25 10 -25 25v120h-225l-35 -120c-5 -15 -15 -25 -35 -25h-110c-13 0 -20 10 -15 25l210 650c5 15 15 25 35 25h610c15 0 25 -10 25 -25v-85c0 -15 -10 -25 -25 -25h-285v-140h210
c15 0 25 -10 25 -25v-85c0 -15 -10 -25 -25 -25h-210zM237 280h185v285h-100z" />
    <glyph glyph-name="Eth" unicode="&#xd0;" horiz-adv-x="700" 
d="M115 700h365c105 0 155 -50 155 -155v-390c0 -105 -50 -155 -155 -155h-365c-15 0 -25 10 -25 25v255h-30c-15 0 -25 10 -25 25v80c0 15 10 25 25 25h30v265c0 15 10 25 25 25zM240 565v-155h90c15 0 25 -10 25 -25v-80c0 -15 -10 -25 -25 -25h-90v-145h195
c30 0 50 20 50 50v330c0 30 -20 50 -50 50h-195z" />
    <glyph glyph-name="Lslash" unicode="&#x141;" horiz-adv-x="555" 
d="M230 675v-230l50 20c25 10 30 5 30 -10v-80c0 -15 -5 -19 -20 -25l-60 -25v-190h300c15 0 25 -10 25 -25v-85c0 -15 -10 -25 -25 -25h-425c-15 0 -25 10 -25 25v235l-40 -15c-25 -10 -30 -5 -30 10v80c0 15 5 19 20 25l50 20v295c0 15 10 25 25 25h100
c15 0 25 -10 25 -25z" />
    <glyph glyph-name="ae" unicode="&#xe6;" horiz-adv-x="755" 
d="M170 160v-15c0 -30 15 -45 45 -45h35c35 0 55 20 55 55v50h-90c-30 0 -45 -15 -45 -45zM435 360v-45h135v45c0 30 -15 45 -45 45h-45c-30 0 -45 -15 -45 -45zM285 -10h-115c-80 0 -130 50 -130 130v55c0 80 50 130 130 130h135v50c0 30 -15 45 -45 45h-35
c-25 0 -35 -10 -35 -35c0 -15 -10 -25 -25 -25h-80c-15 0 -25 10 -25 25v25c0 80 50 130 130 130h95c65 0 80 -50 80 -50h10s15 50 80 50h115c80 0 130 -50 130 -130v-155c0 -15 -10 -25 -25 -25h-240v-55c0 -30 15 -45 45 -45h50c25 0 35 10 35 35c0 15 10 25 25 25h80
c15 0 25 -10 25 -25v-25c0 -80 -50 -130 -130 -130h-110c-65 0 -80 50 -80 50h-10s-15 -50 -80 -50z" />
    <glyph glyph-name="dcroat" unicode="&#x111;" horiz-adv-x="520" 
d="M230 -10h-50c-80 0 -130 50 -130 130v180c0 80 50 130 130 130h145v70h-68c-15 0 -25 10 -25 25v70c0 15 10 25 25 25h68v55c0 15 10 25 25 25h80c15 0 25 -10 25 -25v-55h30c15 0 25 -10 25 -25v-70c0 -15 -10 -25 -25 -25h-30v-475c0 -15 -10 -25 -25 -25h-80
c-15 0 -25 10 -25 25v15h-10s-15 -50 -85 -50zM325 310h-100c-30 0 -45 -15 -45 -45v-110c0 -30 15 -45 45 -45h45c35 0 55 20 55 55v145z" />
    <glyph glyph-name="eth" unicode="&#xf0;" horiz-adv-x="505" 
d="M200 680l15 35c6 15 15 20 30 15l60 -25c14 -6 22 -16 15 -30l-15 -30c100 -45 140 -85 140 -170v-355c0 -80 -50 -130 -130 -130h-135c-80 0 -130 50 -130 130v170c0 80 50 130 130 130h135v60c0 30 -15 45 -50 55l-15 -35c-7 -17 -18 -20 -30 -15l-60 25
c-14 6 -22 16 -15 30l15 30l-40 20c-12 6 -16 15 -10 30l25 60c6 14 16 21 30 15zM315 300h-90c-30 0 -45 -15 -45 -45v-100c0 -30 15 -45 45 -45h45c30 0 45 15 45 45v145z" />
    <glyph glyph-name="lslash" unicode="&#x142;" horiz-adv-x="300" 
d="M110 700h80c15 0 25 -10 25 -25v-235l45 20c22 10 30 0 30 -10v-75c0 -15 -5 -23 -20 -30l-55 -25v-295c0 -15 -10 -25 -25 -25h-80c-15 0 -25 10 -25 25v240l-45 -20c-21 -9 -30 0 -30 10v75c0 15 5 23 20 30l55 25v290c0 15 10 25 25 25z" />
    <glyph glyph-name="Oslash" unicode="&#xd8;" horiz-adv-x="685" 
d="M620 555v-410c0 -105 -50 -155 -155 -155h-245c-105 0 -155 50 -155 155v410c0 105 50 155 155 155h245c105 0 155 -50 155 -155zM220 225l195 350h-150c-30 0 -50 -20 -50 -50v-300h5zM470 175v300h-5l-195 -350h150c30 0 50 20 50 50z" />
    <glyph glyph-name="OE" unicode="&#x152;" horiz-adv-x="925" 
d="M220 700h645c15 0 25 -10 25 -25v-85c0 -15 -10 -25 -25 -25h-285v-140h210c15 0 25 -10 25 -25v-85c0 -15 -10 -25 -25 -25h-210v-155h295c15 0 25 -10 25 -25v-85c0 -15 -10 -25 -25 -25h-655c-105 0 -155 50 -155 155v390c0 105 50 155 155 155zM215 515v-330
c0 -30 20 -50 50 -50h165v430h-165c-30 0 -50 -20 -50 -50z" />
    <glyph glyph-name="Thorn" unicode="&#xde;" horiz-adv-x="680" 
d="M225 610h240c105 0 155 -50 155 -155v-210c0 -105 -50 -155 -155 -155h-240v-65c0 -15 -10 -25 -25 -25h-100c-15 0 -25 10 -25 25v650c0 15 10 25 25 25h100c15 0 25 -10 25 -25v-65zM225 225h195c30 0 50 20 50 50v150c0 30 -20 50 -50 50h-195v-250z" />
    <glyph glyph-name="oslash" unicode="&#xf8;" 
d="M470 390v-270c0 -80 -50 -130 -130 -130h-155c-80 0 -130 50 -130 130v270c0 80 50 130 130 130h155c80 0 130 -50 130 -130zM185 195l110 205h-70c-30 0 -45 -15 -45 -45v-160h5zM345 155v160h-5l-110 -205h70c30 0 45 15 45 45z" />
    <glyph glyph-name="oe" unicode="&#x153;" horiz-adv-x="775" 
d="M325 155v200c0 30 -15 45 -45 45h-50c-30 0 -45 -15 -45 -45v-200c0 -30 15 -45 45 -45h50c30 0 45 15 45 45zM455 360v-45h135v45c0 30 -15 45 -45 45h-45c-30 0 -45 -15 -45 -45zM305 -10h-120c-80 0 -130 50 -130 130v270c0 80 50 130 130 130h120c65 0 80 -50 80 -50
h10s15 50 80 50h115c80 0 130 -50 130 -130v-155c0 -15 -10 -25 -25 -25h-240v-55c0 -30 15 -45 45 -45h50c25 0 35 10 35 35c0 15 10 25 25 25h80c15 0 25 -10 25 -25v-25c0 -80 -50 -130 -130 -130h-110c-65 0 -80 50 -80 50h-10s-15 -50 -80 -50z" />
    <glyph glyph-name="thorn" unicode="&#xfe;" 
d="M170 -190h-80c-15 0 -25 10 -25 25v840c0 15 10 25 25 25h80c15 0 25 -10 25 -25v-165h145c80 0 130 -50 130 -130v-250c0 -80 -50 -130 -130 -130h-145v-165c0 -15 -10 -25 -25 -25zM295 390h-100v-270h100c30 0 45 15 45 45v180c0 30 -15 45 -45 45z" />
    <glyph glyph-name="cent" unicode="&#xa2;" horiz-adv-x="505" 
d="M460 390v-60c0 -15 -10 -25 -25 -25h-80c-15 0 -25 10 -25 25v25c0 30 -15 45 -45 45h-55c-30 0 -45 -15 -45 -45v-200c0 -30 15 -45 45 -45h55c30 0 45 15 45 45v25c0 15 10 25 25 25h80c15 0 25 -10 25 -25v-60c0 -80 -50 -130 -130 -130h-5v-50c0 -15 -10 -25 -25 -25
h-80c-15 0 -25 10 -25 25v50h-10c-80 0 -130 50 -130 130v270c0 80 50 130 130 130h10v50c0 15 10 25 25 25h80c15 0 25 -10 25 -25v-50h5c80 0 130 -50 130 -130z" />
    <glyph glyph-name="florin" unicode="&#x192;" horiz-adv-x="340" 
d="M0 -175v70c0 15 10 25 25 25h30c30 0 45 15 45 45v395h-40c-15 0 -25 10 -25 25v70c0 15 10 25 25 25h40v90c0 80 49 130 130 130h75c15 0 25 -10 25 -25v-70c0 -15 -10 -25 -25 -25h-30c-30 0 -45 -15 -45 -45v-55h60c15 0 25 -10 25 -25v-70c0 -15 -10 -25 -25 -25h-60
v-430c0 -80 -50 -130 -130 -130h-75c-15 0 -25 10 -25 25z" />
    <glyph glyph-name="germandbls" unicode="&#xdf;" horiz-adv-x="540" 
d="M450 570v-120c0 -70 -45 -80 -45 -80v-10s85 -10 85 -105v-125c0 -80 -50 -130 -130 -130h-65c-15 0 -25 10 -25 25v70c0 15 10 25 25 25h20c30 0 45 15 45 45v77c0 30 -17 48 -47 48h-28c-15 0 -25 10 -25 25v70c0 15 10 25 25 25c25 0 35 10 35 35v90
c0 30 -15 45 -45 45h-35c-30 0 -45 -15 -45 -45v-510c0 -15 -10 -25 -25 -25h-80c-15 0 -25 10 -25 25v545c0 80 50 130 130 130h125c80 0 130 -50 130 -130z" />
    <glyph glyph-name="Germandbls" horiz-adv-x="665" 
d="M75 25v520c0 105 50 155 155 155h330c15 0 25 -10 25 -25v-60c0 -30 -9 -40 -25 -60l-100 -125v-10c105 0 155 -50 155 -155v-110c0 -105 -50 -155 -155 -155h-110c-15 0 -25 10 -25 25v85c0 15 10 25 25 25h65c30 0 50 20 50 50v65c0 30 -20 50 -50 50h-95
c-15 0 -25 10 -25 25v45c0 30 8 40 20 55l100 130v10h-140c-30 0 -50 -20 -50 -50v-490c0 -15 -10 -25 -25 -25h-100c-15 0 -25 10 -25 25z" />
    <glyph glyph-name="uni1E9E" unicode="&#x1e9e;" horiz-adv-x="665" 
d="M75 25v520c0 105 50 155 155 155h330c15 0 25 -10 25 -25v-60c0 -30 -9 -40 -25 -60l-100 -125v-10c105 0 155 -50 155 -155v-110c0 -105 -50 -155 -155 -155h-110c-15 0 -25 10 -25 25v85c0 15 10 25 25 25h65c30 0 50 20 50 50v65c0 30 -20 50 -50 50h-95
c-15 0 -25 10 -25 25v45c0 30 8 40 20 55l100 130v10h-140c-30 0 -50 -20 -50 -50v-490c0 -15 -10 -25 -25 -25h-100c-15 0 -25 10 -25 25z" />
    <glyph glyph-name="yen" unicode="&#xa5;" horiz-adv-x="578" 
d="M459 245h-95v-40h95c15 0 25 -10 25 -25v-55c0 -15 -10 -25 -25 -25h-95v-75c0 -15 -10 -25 -25 -25h-100c-15 0 -25 10 -25 25v75h-95c-15 0 -25 10 -25 25v55c0 15 10 25 25 25h95v40h-95c-15 0 -25 10 -25 25v55c0 15 10 25 25 25h45l-165 325c-8 15 0 25 15 25h110
c25 0 33 -10 40 -25l120 -260h10l120 260c7 15 15 25 40 25h110c15 0 23 -10 15 -25l-165 -325h45c15 0 25 -10 25 -25v-55c0 -15 -10 -25 -25 -25z" />
    <glyph glyph-name="sterling" unicode="&#xa3;" horiz-adv-x="480" 
d="M455 0h-410c-15 0 -25 10 -25 25v80c0 15 10 25 25 25h70v155h-30c-15 0 -25 10 -25 25v80c0 15 10 25 25 25h30v130c0 105 50 155 155 155h90c15 0 25 -10 25 -25v-80c0 -15 -10 -25 -25 -25h-55c-30 0 -50 -20 -50 -50v-105h70c15 0 25 -10 25 -25v-80
c0 -15 -10 -25 -25 -25h-70v-155h200c15 0 25 -10 25 -25v-80c0 -15 -10 -25 -25 -25z" />
    <glyph glyph-name="uni20B4" unicode="&#x20b4;" horiz-adv-x="650" 
d="M65 330h520c15 0 25 -10 25 -25v-40c0 -15 -10 -25 -25 -25h-355v-75c0 -30 20 -50 50 -50h90c30 0 50 20 50 50v15c0 15 10 25 25 25h100c15 0 25 -10 25 -25v-35c0 -105 -50 -155 -155 -155h-180c-105 0 -155 50 -155 155v95h-15c-15 0 -25 10 -25 25v40
c0 15 10 25 25 25zM585 370h-520c-15 0 -25 10 -25 25v40c0 15 10 25 25 25h355v75c0 30 -20 50 -50 50h-90c-30 0 -50 -20 -50 -50v-15c0 -15 -10 -25 -25 -25h-100c-15 0 -25 10 -25 25v35c0 105 50 155 155 155h180c105 0 155 -50 155 -155v-95h15c15 0 25 -10 25 -25
v-40c0 -15 -10 -25 -25 -25z" />
    <glyph glyph-name="exclamdown" unicode="&#xa1;" horiz-adv-x="280" 
d="M180 375h-80c-15 0 -25 10 -25 25v85c0 15 10 25 25 25h80c15 0 25 -10 25 -25v-85c0 -15 -10 -25 -25 -25zM65 -165v265l25 170c2 15 10 25 30 25h40c20 0 28 -10 30 -25l25 -170v-265c0 -15 -10 -25 -25 -25h-100c-15 0 -25 10 -25 25z" />
    <glyph glyph-name="questiondown" unicode="&#xbf;" horiz-adv-x="530" 
d="M520 0v-45c0 -105 -50 -155 -155 -155h-165c-105 0 -155 50 -155 155v135c0 105 50 155 155 155h30l5 25c3 15 10 25 30 25h40c20 0 28 -10 30 -25l20 -120v-10c0 -15 -10 -25 -25 -25h-85c-30 0 -50 -20 -50 -50v-80c0 -30 20 -50 50 -50h75c30 0 50 20 50 50v15
c0 15 10 25 25 25h100c15 0 25 -10 25 -25zM325 375h-80c-15 0 -25 10 -25 25v85c0 15 10 25 25 25h80c15 0 25 -10 25 -25v-85c0 -15 -10 -25 -25 -25z" />
    <glyph glyph-name="acute" unicode="&#xb4;" horiz-adv-x="241" 
d="M207 675l-75 -130c-9 -15 -20 -25 -35 -25h-50c-13 0 -20 10 -15 25l45 130c5 15 15 25 35 25h80c15 0 24 -10 15 -25z" />
    <glyph glyph-name="hungarumlaut" unicode="&#x2dd;" horiz-adv-x="376" 
d="M187 675l-75 -130c-8 -15 -20 -25 -35 -25h-30c-10 0 -20 10 -15 25l40 130c5 15 15 25 35 25h65c15 0 24 -10 15 -25zM342 675l-75 -130c-8 -15 -20 -25 -35 -25h-30c-10 0 -20 10 -15 25l40 130c5 15 15 25 35 25h65c15 0 24 -10 15 -25z" />
    <glyph glyph-name="afii57929" unicode="&#x2bc;" horiz-adv-x="185" 
d="M155 675v-70c0 -35 -5 -40 -15 -60l-30 -60c-5 -10 -15 -20 -30 -20h-20c-15 0 -20 7 -15 20l35 85h-25c-15 0 -25 10 -25 25v80c0 15 10 25 25 25h75c15 0 25 -10 25 -25z" />
    <glyph glyph-name="breve" unicode="&#x2d8;" horiz-adv-x="350" 
d="M135 675v-20c0 -20 10 -30 30 -30h20c20 0 30 10 30 30v20c0 15 10 25 25 25h55c15 0 25 -10 25 -25v-25c0 -75 -40 -115 -115 -115h-60c-75 0 -115 40 -115 115v25c0 15 10 25 25 25h55c15 0 25 -10 25 -25z" />
    <glyph glyph-name="caron" unicode="&#x2c7;" horiz-adv-x="373" 
d="M219 520h-65c-20 0 -31 10 -40 25l-80 130c-9 15 0 25 15 25h60c20 0 32 -10 40 -25l35 -65h5l35 65c8 15 20 25 40 25h60c15 0 24 -10 15 -25l-80 -130c-9 -15 -20 -25 -40 -25z" />
    <glyph glyph-name="circumflex" unicode="&#x2c6;" horiz-adv-x="373" 
d="M154 700h65c20 0 31 -10 40 -25l80 -130c9 -15 0 -25 -15 -25h-60c-20 0 -32 10 -40 25l-35 65h-5l-35 -65c-8 -15 -20 -25 -40 -25h-60c-15 0 -24 10 -15 25l80 130c9 15 20 25 40 25z" />
    <glyph glyph-name="dieresis" unicode="&#xa8;" horiz-adv-x="360" 
d="M55 700h70c15 0 25 -10 25 -25v-80c0 -15 -10 -25 -25 -25h-70c-15 0 -25 10 -25 25v80c0 15 10 25 25 25zM235 700h70c15 0 25 -10 25 -25v-80c0 -15 -10 -25 -25 -25h-70c-15 0 -25 10 -25 25v80c0 15 10 25 25 25z" />
    <glyph glyph-name="dotaccent" unicode="&#x2d9;" horiz-adv-x="190" 
d="M55 700h80c15 0 25 -10 25 -25v-80c0 -15 -10 -25 -25 -25h-80c-15 0 -25 10 -25 25v80c0 15 10 25 25 25z" />
    <glyph glyph-name="tilde" unicode="&#x2dc;" horiz-adv-x="310" 
d="M225 535c-50 0 -75 50 -95 50c-10 0 -15 -5 -15 -15v-15c0 -10 -10 -20 -20 -20h-45c-10 0 -20 10 -20 20v90c0 35 20 55 55 55c50 0 75 -50 95 -50c10 0 15 5 15 15v15c0 10 10 20 20 20h45c10 0 20 -10 20 -20v-90c0 -35 -20 -55 -55 -55z" />
    <glyph glyph-name="ring" unicode="&#x2da;" horiz-adv-x="265" 
d="M235 610v-50c0 -60 -27 -90 -90 -90h-25c-63 0 -90 30 -90 90v50c0 60 30 90 90 90h25c60 0 90 -30 90 -90zM165 570v30c0 20 -10 30 -30 30h-5c-20 0 -30 -10 -30 -30v-30c0 -20 10 -30 27 -30h10c18 0 28 10 28 30z" />
    <glyph glyph-name="cyrbreve" unicode="&#xf6d4;" horiz-adv-x="350" 
d="M135 725v-20c0 -20 10 -30 30 -30h20c20 0 30 10 30 30v20c0 15 10 25 25 25h55c15 0 25 -10 25 -25v-25c0 -75 -40 -115 -115 -115h-60c-75 0 -115 40 -115 115v25c0 15 10 25 25 25h55c15 0 25 -10 25 -25z" />
    <glyph glyph-name="cyrBreve" unicode="&#xf6d1;" horiz-adv-x="385" 
d="M240 925v15c0 15 10 25 25 25h65c15 0 25 -10 25 -25v-40c0 -80 -35 -115 -115 -115h-95c-80 0 -115 35 -115 115v40c0 15 10 25 25 25h65c15 0 25 -10 25 -25v-15c0 -20 10 -30 30 -30h35c20 0 30 10 30 30z" />
    <glyph glyph-name="macron" unicode="&#xaf;" horiz-adv-x="320" 
d="M265 595h-210c-15 0 -25 10 -25 25v55c0 15 10 25 25 25h210c15 0 25 -10 25 -25v-55c0 -15 -10 -25 -25 -25z" />
    <glyph glyph-name="minus" unicode="&#x2212;" horiz-adv-x="400" 
d="M350 255h-300c-15 0 -25 10 -25 25v70c0 15 10 25 25 25h300c15 0 25 -10 25 -25v-70c0 -15 -10 -25 -25 -25z" />
    <glyph glyph-name="multiply" unicode="&#xd7;" horiz-adv-x="406" 
d="M288 320l75 -80c10 -10 10 -20 0 -30l-50 -55c-10 -11 -25 -10 -35 0l-75 80l-75 -80c-10 -10 -25 -11 -35 0l-50 55c-10 10 -10 20 0 30l75 80l-75 80c-10 10 -10 20 0 30l50 55c10 11 25 10 35 0l75 -80l75 80c10 10 25 11 35 0l50 -55c10 -10 10 -20 0 -30z" />
    <glyph glyph-name="divide" unicode="&#xf7;" horiz-adv-x="400" 
d="M350 255h-300c-15 0 -25 10 -25 25v70c0 15 10 25 25 25h300c15 0 25 -10 25 -25v-70c0 -15 -10 -25 -25 -25zM160 180h80c15 0 25 -10 25 -25v-85c0 -15 -10 -25 -25 -25h-80c-15 0 -25 10 -25 25v85c0 15 10 25 25 25zM160 585h80c15 0 25 -10 25 -25v-85
c0 -15 -10 -25 -25 -25h-80c-15 0 -25 10 -25 25v85c0 15 10 25 25 25z" />
    <glyph glyph-name="cedilla" unicode="&#xb8;" horiz-adv-x="240" 
d="M50 -195h60c15 0 20 5 20 20v20c0 15 -5 20 -20 20h-50c-15 0 -20 5 -20 20v30c0 25 5 30 10 40l20 45h65l-25 -60c65 0 100 -35 100 -90v-35c0 -55 -35 -90 -90 -90h-70c-15 0 -20 5 -20 20v40c0 15 5 20 20 20z" />
    <glyph glyph-name="ogonek" unicode="&#x2db;" horiz-adv-x="230" 
d="M120 0h75s-80 -60 -80 -130c0 -15 10 -25 30 -25h35c15 0 20 -5 20 -20v-45c0 -15 -5 -20 -20 -20h-55c-60 0 -95 35 -95 95c0 95 90 145 90 145z" />
    <glyph glyph-name="commaaccent" unicode="&#xf6c3;" horiz-adv-x="185" 
d="M155 -125v-70c0 -35 -5 -40 -15 -60l-30 -60c-5 -10 -15 -20 -30 -20h-20c-15 0 -20 7 -15 20l35 85h-25c-15 0 -25 10 -25 25v80c0 15 10 25 25 25h75c15 0 25 -10 25 -25z" />
    <glyph glyph-name="ordfeminine" unicode="&#xaa;" horiz-adv-x="345" 
d="M175 620h-15c-15 0 -25 -10 -25 -20c0 -15 -5 -20 -15 -20h-55c-15 0 -20 5 -20 20c0 60 40 100 100 100h50c65 0 110 -45 110 -110v-210c0 -15 -5 -20 -20 -20h-65c-15 0 -20 5 -20 20v10h-5s-10 -30 -55 -30h-20c-55 0 -90 35 -90 90v20c0 55 40 90 90 90h80v35
c0 15 -10 25 -25 25zM135 470v-5c0 -15 10 -25 25 -25h10c20 0 30 10 30 40v15h-40c-15 0 -25 -10 -25 -25z" />
    <glyph glyph-name="ordmasculine" unicode="&#xba;" horiz-adv-x="340" 
d="M35 470v120c0 65 45 110 110 110h50c65 0 110 -45 110 -110v-120c0 -65 -45 -110 -110 -110h-50c-65 0 -110 45 -110 110zM135 570v-80c0 -25 10 -35 35 -35s35 10 35 35v80c0 25 -10 35 -35 35s-35 -10 -35 -35z" />
    <glyph glyph-name="onesuperior" unicode="&#xb9;" horiz-adv-x="245" 
d="M100 705h-50c-15 0 -20 5 -20 20v55c0 15 5 20 20 20h135c15 0 20 -5 20 -20v-300c0 -15 -5 -20 -20 -20h-65c-15 0 -20 5 -20 20v225z" />
    <glyph glyph-name="twosuperior" unicode="&#xb2;" horiz-adv-x="300" 
d="M275 700v-20c0 -45 -25 -69 -50 -85l-70 -45v-5h100c15 0 20 -5 20 -20v-45c0 -15 -5 -20 -20 -20h-210c-15 0 -20 5 -20 20v55c0 25 5 30 20 40l110 75c9 6 20 15 20 35c0 15 -10 25 -25 25c-35 0 -15 -30 -40 -30h-65c-15 0 -20 5 -20 20c0 75 25 100 100 100h50
c75 0 100 -25 100 -100z" />
    <glyph glyph-name="threesuperior" unicode="&#xb3;" horiz-adv-x="310" 
d="M280 580v-20c0 -75 -25 -100 -100 -100h-55c-75 0 -100 25 -100 100c0 15 5 20 20 20h65c20 0 0 -30 40 -30h5c15 0 25 10 25 25s-10 25 -25 25h-40c-15 0 -20 5 -20 20v30c0 15 5 21 18 30l47 30v5h-105c-15 0 -20 5 -20 20v45c0 15 5 20 20 20h195c15 0 20 -5 20 -20
v-45c0 -25 -5 -30 -20 -40l-45 -30v-5s75 -5 75 -80z" />
    <glyph glyph-name="foursuperior" unicode="&#x2074;" horiz-adv-x="295" 
d="M245 780v-160h10c15 0 20 -5 20 -20v-45c0 -15 -5 -20 -20 -20h-10v-55c0 -15 -5 -20 -20 -20h-60c-15 0 -20 5 -20 20v55h-115c-15 0 -20 5 -20 20v40c0 25 5 28 15 45l80 140c6 10 15 20 40 20h80c15 0 20 -5 20 -20zM100 620h45v80h-5l-40 -75v-5z" />
    <glyph glyph-name="fraction" unicode="&#x2044;" horiz-adv-x="164" 
d="M-113 25l250 650c6 15 15 25 40 25h85c10 0 21 -10 15 -25l-250 -650c-6 -15 -15 -25 -40 -25h-85c-10 0 -21 10 -15 25z" />
    <glyph glyph-name="onehalf" unicode="&#xbd;" horiz-adv-x="705" 
d="M125 25l250 650c6 15 15 25 40 25h85c10 0 21 -10 15 -25l-250 -650c-6 -15 -15 -25 -40 -25h-85c-10 0 -21 10 -15 25zM90 605h-50c-15 0 -20 5 -20 20v55c0 15 5 20 20 20h135c15 0 20 -5 20 -20v-300c0 -15 -5 -20 -20 -20h-65c-15 0 -20 5 -20 20v225zM665 240v-20
c0 -45 -25 -69 -50 -85l-70 -45v-5h100c15 0 20 -5 20 -20v-45c0 -15 -5 -20 -20 -20h-210c-15 0 -20 5 -20 20v55c0 25 5 30 20 40l110 75c9 6 20 15 20 35c0 15 -10 25 -25 25c-35 0 -15 -30 -40 -30h-65c-15 0 -20 5 -20 20c0 75 25 100 100 100h50
c75 0 100 -25 100 -100z" />
    <glyph glyph-name="onequarter" unicode="&#xbc;" horiz-adv-x="665" 
d="M125 25l250 650c6 15 15 25 40 25h85c10 0 21 -10 15 -25l-250 -650c-6 -15 -15 -25 -40 -25h-85c-10 0 -21 10 -15 25zM90 605h-50c-15 0 -20 5 -20 20v55c0 15 5 20 20 20h135c15 0 20 -5 20 -20v-300c0 -15 -5 -20 -20 -20h-65c-15 0 -20 5 -20 20v225zM610 320v-160
h10c15 0 20 -5 20 -20v-45c0 -15 -5 -20 -20 -20h-10v-55c0 -15 -5 -20 -20 -20h-60c-15 0 -20 5 -20 20v55h-115c-15 0 -20 5 -20 20v40c0 25 5 28 15 45l80 140c6 10 15 20 40 20h80c15 0 20 -5 20 -20zM465 160h45v80h-5l-40 -75v-5z" />
    <glyph glyph-name="threequarters" unicode="&#xbe;" horiz-adv-x="715" 
d="M175 25l250 650c6 15 15 25 40 25h85c10 0 21 -10 15 -25l-250 -650c-6 -15 -15 -25 -40 -25h-85c-10 0 -21 10 -15 25zM280 480v-20c0 -75 -25 -100 -100 -100h-55c-75 0 -100 25 -100 100c0 15 5 20 20 20h65c20 0 0 -30 40 -30h5c15 0 25 10 25 25s-10 25 -25 25h-40
c-15 0 -20 5 -20 20v30c0 15 5 21 18 30l47 30v5h-105c-15 0 -20 5 -20 20v45c0 15 5 20 20 20h195c15 0 20 -5 20 -20v-45c0 -25 -5 -30 -20 -40l-45 -30v-5s75 -5 75 -80zM660 320v-160h10c15 0 20 -5 20 -20v-45c0 -15 -5 -20 -20 -20h-10v-55c0 -15 -5 -20 -20 -20h-60
c-15 0 -20 5 -20 20v55h-115c-15 0 -20 5 -20 20v40c0 25 5 28 15 45l80 140c6 10 15 20 40 20h80c15 0 20 -5 20 -20zM515 160h45v80h-5l-40 -75v-5z" />
    <glyph glyph-name="CR" unicode="&#xd;" horiz-adv-x="0" 
 />
    <glyph glyph-name="foundryicon" horiz-adv-x="1230" 
d="M100 -110v920h1030v-920h-1030zM1110 -90v880h-990v-880h990zM635 610h110c50 0 80 -30 80 -65s-30 -65 -80 -65h-55v-80h-55v210zM635 300h110c50 0 80 -30 80 -65s-30 -65 -80 -65h-55v-80h-55v210zM495 170l-75 130h60l40 -75h5l40 75h65l-80 -130v-80h-55v80z
M495 480l-75 130h60l40 -75h5l40 75h65l-80 -130v-80h-55v80zM300 255h-65v45h165l25 -45h-70v-165h-55v165zM300 565h-65v45h165l25 -45h-70v-165h-55v165zM790 400v65c25 5 55 30 60 60h80v-45h-85v-35h120v-45h-175zM790 90v65c25 5 55 30 60 60h80v-45h-85v-35h120v-45
h-175zM810 300h155v-45h-115c-5 20 -20 40 -40 45zM810 610h155v-45h-115c-5 20 -20 40 -40 45zM765 545c0 10 -10 20 -20 20h-55v-40h55c10 0 20 9 20 20zM765 235c0 10 -10 20 -20 20h-55v-40h55c10 0 20 9 20 20z" />
    <glyph glyph-name="Aogonek" unicode="&#x104;" horiz-adv-x="614" 
d="M522 0h-35c-20 0 -30 10 -35 25l-35 120h-220l-35 -120c-4 -15 -15 -25 -35 -25h-110c-13 0 -20 10 -15 25l210 650c5 15 15 25 35 25h120c20 0 30 -10 35 -25l210 -650c5 -15 -3 -25 -15 -25c0 0 -80 -60 -80 -130c0 -15 10 -25 30 -25h35c15 0 20 -5 20 -20v-45
c0 -15 -5 -20 -20 -20h-55c-60 0 -95 35 -95 95c0 95 90 145 90 145zM237 280h140l-65 220h-10z" />
    <glyph glyph-name="Ccedilla" unicode="&#xc7;" horiz-adv-x="660" 
d="M295 -195h60c15 0 20 5 20 20v20c0 15 -5 20 -20 20h-50c-15 0 -20 5 -20 20v30c0 25 5 30 10 40l15 35h-90c-105 0 -155 50 -155 155v410c0 105 50 155 155 155h235c105 0 155 -50 155 -155v-65c0 -15 -10 -25 -25 -25h-100c-15 0 -25 10 -25 25v35c0 30 -20 50 -50 50
h-145c-30 0 -50 -20 -50 -50v-350c0 -30 20 -50 50 -50h145c30 0 50 20 50 50v35c0 15 10 25 25 25h100c15 0 25 -10 25 -25v-65c0 -105 -50 -155 -155 -155h-80l-20 -50c65 0 100 -35 100 -90v-35c0 -55 -35 -90 -90 -90h-70c-15 0 -20 5 -20 20v40c0 15 5 20 20 20z" />
    <glyph glyph-name="Eogonek" unicode="&#x118;" horiz-adv-x="595" 
d="M315 0h-215c-15 0 -25 10 -25 25v650c0 15 10 25 25 25h435c15 0 25 -10 25 -25v-85c0 -15 -10 -25 -25 -25h-310v-140h235c15 0 25 -10 25 -25v-85c0 -15 -10 -25 -25 -25h-235v-155h320c15 0 25 -10 25 -25v-85c0 -15 -10 -25 -25 -25h-155s-80 -60 -80 -130
c0 -15 10 -25 30 -25h35c15 0 20 -5 20 -20v-45c0 -15 -5 -20 -20 -20h-55c-60 0 -95 35 -95 95c0 95 90 145 90 145z" />
    <glyph glyph-name="aogonek" unicode="&#x105;" horiz-adv-x="495" 
d="M335 0h-5c-15 0 -25 10 -25 25v15h-10s-15 -50 -85 -50h-40c-80 0 -130 50 -130 130v55c0 80 50 130 130 130h135v50c0 30 -15 45 -45 45h-35c-25 0 -35 -10 -35 -35c0 -15 -10 -25 -25 -25h-80c-15 0 -25 10 -25 25v25c0 80 50 130 130 130h115c80 0 130 -50 130 -130
v-365c0 -15 -10 -25 -25 -25c0 0 -80 -60 -80 -130c0 -15 10 -25 30 -25h35c15 0 20 -5 20 -20v-45c0 -15 -5 -20 -20 -20h-55c-60 0 -95 35 -95 95c0 95 90 145 90 145zM170 160v-15c0 -30 15 -45 45 -45h35c35 0 55 20 55 55v50h-90c-30 0 -45 -15 -45 -45z" />
    <glyph glyph-name="ccedilla" unicode="&#xe7;" horiz-adv-x="505" 
d="M205 -195h60c15 0 20 5 20 20v20c0 15 -5 20 -20 20h-50c-15 0 -20 5 -20 20v30c0 25 5 30 10 40l15 35h-35c-80 0 -130 50 -130 130v270c0 80 50 130 130 130h145c80 0 130 -50 130 -130v-60c0 -15 -10 -25 -25 -25h-80c-15 0 -25 10 -25 25v25c0 30 -15 45 -45 45h-55
c-30 0 -45 -15 -45 -45v-200c0 -30 15 -45 45 -45h55c30 0 45 15 45 45v25c0 15 10 25 25 25h80c15 0 25 -10 25 -25v-60c0 -80 -50 -130 -130 -130h-45l-20 -50c65 0 100 -35 100 -90v-35c0 -55 -35 -90 -90 -90h-70c-15 0 -20 5 -20 20v40c0 15 5 20 20 20z" />
    <glyph glyph-name="eogonek" unicode="&#x119;" horiz-adv-x="515" 
d="M230 110h60c25 0 35 10 35 35c0 15 10 25 25 25h80c15 0 25 -10 25 -25v-25c0 -80 -50 -130 -130 -130h-10s-70 -55 -70 -120c0 -15 10 -25 30 -25h35c15 0 20 -5 20 -20v-45c0 -15 -5 -20 -20 -20h-55c-60 0 -95 35 -95 95c0 85 75 135 75 135h-50
c-80 0 -130 50 -130 130v270c0 80 50 130 130 130h145c80 0 130 -50 130 -130v-155c0 -15 -10 -25 -25 -25h-250v-55c0 -30 15 -45 45 -45zM185 360v-45h145v45c0 30 -15 45 -45 45h-55c-30 0 -45 -15 -45 -45z" />
    <glyph glyph-name="Iogonek" unicode="&#x12e;" horiz-adv-x="300" 
d="M125 0h-25c-15 0 -25 10 -25 25v650c0 15 10 25 25 25h100c15 0 25 -10 25 -25v-650c0 -15 -10 -25 -25 -25c0 0 -80 -60 -80 -130c0 -15 10 -25 30 -25h35c15 0 20 -5 20 -20v-45c0 -15 -5 -20 -20 -20h-55c-60 0 -95 35 -95 95c0 95 90 145 90 145z" />
    <glyph glyph-name="Scedilla" unicode="&#x15e;" horiz-adv-x="615" 
d="M260 -195h60c15 0 20 5 20 20v20c0 15 -5 20 -20 20h-50c-15 0 -20 5 -20 20v30c0 25 5 30 10 40l15 35h-75c-105 0 -155 50 -155 155v65c0 15 10 25 25 25h100c15 0 25 -10 25 -25v-35c0 -30 20 -50 50 -50h125c30 0 50 20 50 50v30c0 25 -10 35 -35 45l-220 85
c-75 29 -110 65 -110 150v70c0 105 50 155 155 155h195c105 0 155 -50 155 -155v-65c0 -15 -10 -25 -25 -25h-100c-15 0 -25 10 -25 25v35c0 30 -20 50 -50 50h-105c-30 0 -50 -20 -50 -50v-30c0 -25 10 -35 35 -45l220 -85c75 -29 110 -65 110 -150v-70
c0 -105 -50 -155 -155 -155h-75l-20 -50c65 0 100 -35 100 -90v-35c0 -55 -35 -90 -90 -90h-70c-15 0 -20 5 -20 20v40c0 15 5 20 20 20z" />
    <glyph glyph-name="dotlessi" unicode="&#x131;" horiz-adv-x="250" 
d="M85 510h80c15 0 25 -10 25 -25v-460c0 -15 -10 -25 -25 -25h-80c-15 0 -25 10 -25 25v460c0 15 10 25 25 25z" />
    <glyph glyph-name="iogonek" unicode="&#x12f;" horiz-adv-x="250" 
d="M90 0h-5c-15 0 -25 10 -25 25v450c0 15 10 25 25 25h80c15 0 25 -10 25 -25v-450c0 -15 -10 -25 -25 -25c0 0 -80 -60 -80 -130c0 -15 10 -25 30 -25h35c15 0 20 -5 20 -20v-45c0 -15 -5 -20 -20 -20h-55c-60 0 -95 35 -95 95c0 95 90 145 90 145zM85 710h80
c15 0 25 -10 25 -25v-80c0 -15 -10 -25 -25 -25h-80c-15 0 -25 10 -25 25v80c0 15 10 25 25 25z" />
    <glyph glyph-name="scedilla" unicode="&#x15f;" horiz-adv-x="470" 
d="M190 -195h60c15 0 20 5 20 20v20c0 15 -5 20 -20 20h-50c-15 0 -20 5 -20 20v30c0 25 5 30 10 40l15 35h-40c-80 0 -130 50 -130 130v35c0 15 10 25 25 25h80c15 0 25 -10 25 -25v-10c0 -25 10 -35 35 -35h70c25 0 35 10 35 35v5c0 15 -10 24 -40 35l-130 50
c-65 25 -90 50 -90 125v30c0 80 50 130 130 130h120c80 0 130 -50 130 -130v-30c0 -15 -10 -25 -25 -25h-80c-15 0 -25 10 -25 25v5c0 25 -10 35 -35 35h-50c-25 0 -35 -10 -35 -35v-5c0 -15 10 -24 40 -35l130 -50c65 -25 90 -50 90 -125v-30c0 -80 -50 -130 -130 -130h-35
l-20 -50c65 0 100 -35 100 -90v-35c0 -55 -35 -90 -90 -90h-70c-15 0 -20 5 -20 20v40c0 15 5 20 20 20z" />
    <glyph glyph-name="Uogonek" unicode="&#x172;" horiz-adv-x="685" 
d="M75 145v530c0 15 10 25 25 25h100c15 0 25 -10 25 -25v-500c0 -30 20 -50 50 -50h135c30 0 50 20 50 50v500c0 15 10 25 25 25h100c15 0 25 -10 25 -25v-530c0 -105 -50 -155 -155 -155h-35s-70 -55 -70 -120c0 -15 10 -25 30 -25h35c15 0 20 -5 20 -20v-45
c0 -15 -5 -20 -20 -20h-55c-60 0 -95 35 -95 95c0 85 75 135 75 135h-110c-105 0 -155 50 -155 155z" />
    <glyph glyph-name="uogonek" unicode="&#x173;" 
d="M365 0h-5c-15 0 -25 10 -25 25v15h-10s-15 -50 -85 -50h-50c-80 0 -130 50 -130 130v365c0 15 10 25 25 25h80c15 0 25 -10 25 -25v-330c0 -30 15 -45 45 -45h45c35 0 55 20 55 55v320c0 15 10 25 25 25h80c15 0 25 -10 25 -25v-460c0 -15 -10 -25 -25 -25
c0 0 -80 -60 -80 -130c0 -15 10 -25 30 -25h35c15 0 20 -5 20 -20v-45c0 -15 -5 -20 -20 -20h-55c-60 0 -95 35 -95 95c0 95 90 145 90 145z" />
    <glyph glyph-name="afii10017" unicode="&#x410;" horiz-adv-x="614" 
d="M417 145h-220l-35 -120c-4 -15 -15 -25 -35 -25h-110c-13 0 -20 10 -15 25l210 650c5 15 15 25 35 25h120c20 0 30 -10 35 -25l210 -650c5 -15 -3 -25 -15 -25h-110c-20 0 -30 10 -35 25zM237 280h140l-65 220h-10z" />
    <glyph glyph-name="afii10019" unicode="&#x412;" horiz-adv-x="645" 
d="M75 25v650c0 15 10 25 25 25h310c105 0 155 -50 155 -155v-65c0 -85 -65 -100 -65 -100v-10s100 -15 100 -120v-95c0 -105 -50 -155 -155 -155h-345c-15 0 -25 10 -25 25zM225 135h175c30 0 50 20 50 50v65c0 30 -20 50 -50 50h-175v-165zM365 565h-140v-135h140
c30 0 50 20 50 50v35c0 30 -20 50 -50 50z" />
    <glyph glyph-name="afii10022" unicode="&#x415;" horiz-adv-x="595" 
d="M225 290v-155h320c15 0 25 -10 25 -25v-85c0 -15 -10 -25 -25 -25h-445c-15 0 -25 10 -25 25v650c0 15 10 25 25 25h435c15 0 25 -10 25 -25v-85c0 -15 -10 -25 -25 -25h-310v-140h235c15 0 25 -10 25 -25v-85c0 -15 -10 -25 -25 -25h-235z" />
    <glyph glyph-name="afii10028" unicode="&#x41a;" horiz-adv-x="618" 
d="M225 675v-240h95l110 240c7 15 15 25 35 25h110c13 0 22 -10 15 -25l-140 -305l160 -345c7 -15 -5 -25 -20 -25h-100c-20 0 -33 10 -40 25l-125 275h-100v-275c0 -15 -10 -25 -25 -25h-100c-15 0 -25 10 -25 25v650c0 15 10 25 25 25h100c15 0 25 -10 25 -25z" />
    <glyph glyph-name="afii10030" unicode="&#x41c;" horiz-adv-x="860" 
d="M460 0h-60c-20 0 -30 10 -35 25l-130 380h-10v-380c0 -15 -10 -25 -25 -25h-100c-15 0 -25 10 -25 25v650c0 15 10 25 25 25h140c20 0 30 -10 35 -25l150 -430h10l150 430c5 15 15 25 35 25h140c15 0 25 -10 25 -25v-650c0 -15 -10 -25 -25 -25h-100c-15 0 -25 10 -25 25
v380h-10l-130 -380c-5 -15 -15 -25 -35 -25z" />
    <glyph glyph-name="afii10031" unicode="&#x41d;" horiz-adv-x="685" 
d="M225 675v-260h235v260c0 15 10 25 25 25h100c15 0 25 -10 25 -25v-650c0 -15 -10 -25 -25 -25h-100c-15 0 -25 10 -25 25v255h-235v-255c0 -15 -10 -25 -25 -25h-100c-15 0 -25 10 -25 25v650c0 15 10 25 25 25h100c15 0 25 -10 25 -25z" />
    <glyph glyph-name="afii10032" unicode="&#x41e;" horiz-adv-x="685" 
d="M620 555v-410c0 -105 -50 -155 -155 -155h-245c-105 0 -155 50 -155 155v410c0 105 50 155 155 155h245c105 0 155 -50 155 -155zM470 175v350c0 30 -20 50 -50 50h-155c-30 0 -50 -20 -50 -50v-350c0 -30 20 -50 50 -50h155c30 0 50 20 50 50z" />
    <glyph glyph-name="afii10034" unicode="&#x420;" horiz-adv-x="650" 
d="M440 205h-215v-180c0 -15 -10 -25 -25 -25h-100c-15 0 -25 10 -25 25v650c0 15 10 25 25 25h340c105 0 155 -50 155 -155v-185c0 -105 -50 -155 -155 -155zM395 565h-170v-225h170c30 0 50 20 50 50v125c0 30 -20 50 -50 50z" />
    <glyph glyph-name="afii10035" unicode="&#x421;" horiz-adv-x="660" 
d="M610 555v-65c0 -15 -10 -25 -25 -25h-100c-15 0 -25 10 -25 25v35c0 30 -20 50 -50 50h-145c-30 0 -50 -20 -50 -50v-350c0 -30 20 -50 50 -50h145c30 0 50 20 50 50v35c0 15 10 25 25 25h100c15 0 25 -10 25 -25v-65c0 -105 -50 -155 -155 -155h-235
c-105 0 -155 50 -155 155v410c0 105 50 155 155 155h235c105 0 155 -50 155 -155z" />
    <glyph glyph-name="afii10036" unicode="&#x422;" horiz-adv-x="540" 
d="M345 565v-540c0 -15 -10 -25 -25 -25h-100c-15 0 -25 10 -25 25v540h-160c-15 0 -25 10 -25 25v85c0 15 10 25 25 25h470c15 0 25 -10 25 -25v-85c0 -15 -10 -25 -25 -25h-160z" />
    <glyph glyph-name="afii10039" unicode="&#x425;" horiz-adv-x="576" 
d="M283 490h10l95 185c8 15 20 25 40 25h110c15 0 23 -10 15 -25l-170 -305l190 -345c8 -15 -2 -25 -15 -25h-115c-20 0 -32 10 -40 25l-110 220h-10l-110 -220c-8 -15 -20 -25 -40 -25h-115c-12 0 -23 10 -15 25l190 345l-170 305c-9 15 0 25 15 25h110c20 0 32 -10 40 -25
z" />
    <glyph glyph-name="afii10065" unicode="&#x430;" horiz-adv-x="495" 
d="M260 400h-35c-25 0 -35 -10 -35 -35c0 -15 -10 -25 -25 -25h-80c-15 0 -25 10 -25 25v25c0 80 50 130 130 130h115c80 0 130 -50 130 -130v-365c0 -15 -10 -25 -25 -25h-80c-15 0 -25 10 -25 25v15h-10s-15 -50 -85 -50h-40c-80 0 -130 50 -130 130v55
c0 80 50 130 130 130h135v50c0 30 -15 45 -45 45zM170 160v-15c0 -30 15 -45 45 -45h35c35 0 55 20 55 55v50h-90c-30 0 -45 -15 -45 -45z" />
    <glyph glyph-name="afii10070" unicode="&#x435;" horiz-adv-x="515" 
d="M230 110h60c25 0 35 10 35 35c0 15 10 25 25 25h80c15 0 25 -10 25 -25v-25c0 -80 -50 -130 -130 -130h-140c-80 0 -130 50 -130 130v270c0 80 50 130 130 130h145c80 0 130 -50 130 -130v-155c0 -15 -10 -25 -25 -25h-250v-55c0 -30 15 -45 45 -45zM185 360v-45h145v45
c0 30 -15 45 -45 45h-55c-30 0 -45 -15 -45 -45z" />
    <glyph glyph-name="afii10080" unicode="&#x43e;" 
d="M340 155v200c0 30 -15 45 -45 45h-65c-30 0 -45 -15 -45 -45v-200c0 -30 15 -45 45 -45h65c30 0 45 15 45 45zM470 390v-270c0 -80 -50 -130 -130 -130h-155c-80 0 -130 50 -130 130v270c0 80 50 130 130 130h155c80 0 130 -50 130 -130z" />
    <glyph glyph-name="afii10082" unicode="&#x440;" horiz-adv-x="520" 
d="M285 520h50c80 0 130 -50 130 -130v-260c0 -80 -50 -130 -130 -130h-145v-165c0 -15 -10 -25 -25 -25h-80c-15 0 -25 10 -25 25v650c0 15 10 25 25 25h80c15 0 25 -10 25 -25v-15h10s15 50 85 50zM190 120h100c30 0 45 15 45 45v190c0 30 -15 45 -45 45h-45
c-35 0 -55 -20 -55 -55v-225z" />
    <glyph glyph-name="afii10083" unicode="&#x441;" horiz-adv-x="505" 
d="M460 390v-60c0 -15 -10 -25 -25 -25h-80c-15 0 -25 10 -25 25v25c0 30 -15 45 -45 45h-55c-30 0 -45 -15 -45 -45v-200c0 -30 15 -45 45 -45h55c30 0 45 15 45 45v25c0 15 10 25 25 25h80c15 0 25 -10 25 -25v-60c0 -80 -50 -130 -130 -130h-145c-80 0 -130 50 -130 130
v270c0 80 50 130 130 130h145c80 0 130 -50 130 -130z" />
    <glyph glyph-name="afii10085" unicode="&#x443;" horiz-adv-x="439" 
d="M232 205l70 280c4 15 15 25 35 25h85c13 0 20 -10 15 -25l-155 -515c-33 -110 -85 -160 -185 -160h-20c-15 0 -25 10 -25 25v70c0 15 10 25 25 25h20c35 0 55 20 65 65l-160 490c-5 15 5 25 15 25h85c20 0 30 -10 35 -25l85 -280h10z" />
    <glyph glyph-name="afii10087" unicode="&#x445;" horiz-adv-x="438" 
d="M214 365h10l55 120c7 15 15 25 40 25h90c10 0 23 -10 15 -25l-115 -220l125 -240c8 -15 0 -25 -15 -25h-90c-20 0 -28 10 -35 25l-70 140h-10l-70 -140c-7 -15 -15 -25 -35 -25h-90c-15 0 -23 10 -15 25l125 240l-115 220c-7 15 5 25 15 25h90c25 0 33 -10 40 -25z" />
    <glyph glyph-name="currency" unicode="&#xa4;" horiz-adv-x="620" 
d="M465 120h-220v-95c0 -15 -10 -25 -25 -25h-100c-15 0 -25 10 -25 25v95h-35c-15 0 -25 10 -25 25v60c0 15 10 25 25 25h35v50h-35c-15 0 -25 10 -25 25v60c0 15 10 25 25 25h35v285c0 15 10 25 25 25h295c105 0 155 -50 155 -155v-110c0 -105 -50 -155 -155 -155h-170
v-50h220c15 0 25 -10 25 -25v-60c0 -15 -10 -25 -25 -25zM370 565h-125v-175h125c30 0 50 20 50 50v75c0 30 -20 50 -50 50z" />
    <glyph glyph-name="period" unicode="." horiz-adv-x="200" 
d="M60 135h80c15 0 25 -10 25 -25v-85c0 -15 -10 -25 -25 -25h-80c-15 0 -25 10 -25 25v85c0 15 10 25 25 25z" />
    <glyph glyph-name="afii10052" unicode="&#x403;" horiz-adv-x="520" 
d="M225 565v-540c0 -15 -10 -25 -25 -25h-100c-15 0 -25 10 -25 25v650c0 15 10 25 25 25h395c15 0 25 -10 25 -25v-85c0 -15 -10 -25 -25 -25h-270zM425 925l-75 -130c-9 -15 -20 -25 -35 -25h-50c-13 0 -20 10 -15 25l45 130c5 15 15 25 35 25h80c15 0 24 -10 15 -25z" />
    <glyph glyph-name="afii10100" unicode="&#x453;" horiz-adv-x="390" 
d="M60 25v460c0 15 10 25 25 25h280c15 0 25 -10 25 -25v-70c0 -15 -10 -25 -25 -25h-175v-365c0 -15 -10 -25 -25 -25h-80c-15 0 -25 10 -25 25zM355 725l-75 -130c-9 -15 -20 -25 -35 -25h-50c-13 0 -20 10 -15 25l45 130c5 15 15 25 35 25h80c15 0 24 -10 15 -25z" />
    <glyph glyph-name="afii10061" unicode="&#x40c;" horiz-adv-x="618" 
d="M225 675v-240h95l110 240c7 15 15 25 35 25h110c13 0 22 -10 15 -25l-140 -305l160 -345c7 -15 -5 -25 -20 -25h-100c-20 0 -33 10 -40 25l-125 275h-100v-275c0 -15 -10 -25 -25 -25h-100c-15 0 -25 10 -25 25v650c0 15 10 25 25 25h100c15 0 25 -10 25 -25zM460 925
l-75 -130c-9 -15 -20 -25 -35 -25h-50c-13 0 -20 10 -15 25l45 130c5 15 15 25 35 25h80c15 0 24 -10 15 -25z" />
    <glyph glyph-name="afii10109" unicode="&#x45c;" horiz-adv-x="473" 
d="M85 510h80c15 0 25 -10 25 -25v-160h55l70 160c7 15 15 25 35 25h90c15 0 22 -10 15 -25l-105 -215l115 -245c7 -15 0 -25 -15 -25h-90c-20 0 -28 10 -35 25l-80 180h-55v-180c0 -15 -10 -25 -25 -25h-80c-15 0 -25 10 -25 25v460c0 15 10 25 25 25zM385 725l-75 -130
c-9 -15 -20 -25 -35 -25h-50c-13 0 -20 10 -15 25l45 130c5 15 15 25 35 25h80c15 0 24 -10 15 -25z" />
    <glyph glyph-name="afii10062" unicode="&#x40e;" horiz-adv-x="560" 
d="M208 180l-205 495c-6 15 0 25 15 25h110c20 0 29 -10 35 -25l120 -310h10l105 310c5 15 15 25 35 25h110c11 0 21 -10 15 -25l-195 -520c-45 -120 -90 -165 -210 -165h-30c-15 0 -25 10 -25 25v85c0 15 10 25 25 25h30c35 0 45 10 55 55zM330 925v15c0 15 10 25 25 25h65
c15 0 25 -10 25 -25v-40c0 -80 -35 -115 -115 -115h-95c-80 0 -115 35 -115 115v40c0 15 10 25 25 25h65c15 0 25 -10 25 -25v-15c0 -20 10 -30 30 -30h35c20 0 30 10 30 30z" />
    <glyph glyph-name="afii10110" unicode="&#x45e;" horiz-adv-x="439" 
d="M232 205l70 280c4 15 15 25 35 25h85c13 0 20 -10 15 -25l-155 -515c-33 -110 -85 -160 -185 -160h-20c-15 0 -25 10 -25 25v70c0 15 10 25 25 25h20c35 0 55 20 65 65l-160 490c-5 15 5 25 15 25h85c20 0 30 -10 35 -25l85 -280h10zM180 725v-20c0 -20 10 -30 30 -30h20
c20 0 30 10 30 30v20c0 15 10 25 25 25h55c15 0 25 -10 25 -25v-25c0 -75 -40 -115 -115 -115h-60c-75 0 -115 40 -115 115v25c0 15 10 25 25 25h55c15 0 25 -10 25 -25z" />
    <glyph glyph-name="afii10057" unicode="&#x408;" horiz-adv-x="605" 
d="M530 675v-530c0 -105 -50 -155 -155 -155h-190c-105 0 -155 50 -155 155v85c0 15 10 25 25 25h100c15 0 25 -10 25 -25v-55c0 -30 20 -50 50 -50h100c30 0 50 20 50 50v500c0 15 10 25 25 25h100c15 0 25 -10 25 -25z" />
    <glyph glyph-name="afii10055" unicode="&#x406;" horiz-adv-x="300" 
d="M225 675v-650c0 -15 -10 -25 -25 -25h-100c-15 0 -25 10 -25 25v650c0 15 10 25 25 25h100c15 0 25 -10 25 -25z" />
    <glyph glyph-name="afii10103" unicode="&#x456;" horiz-adv-x="250" 
d="M85 500h80c15 0 25 -10 25 -25v-450c0 -15 -10 -25 -25 -25h-80c-15 0 -25 10 -25 25v450c0 15 10 25 25 25zM85 710h80c15 0 25 -10 25 -25v-80c0 -15 -10 -25 -25 -25h-80c-15 0 -25 10 -25 25v80c0 15 10 25 25 25z" />
    <glyph glyph-name="afii10102" unicode="&#x455;" horiz-adv-x="470" 
d="M175 520h120c80 0 130 -50 130 -130v-30c0 -15 -10 -25 -25 -25h-80c-15 0 -25 10 -25 25v5c0 25 -10 35 -35 35h-50c-25 0 -35 -10 -35 -35v-5c0 -15 10 -24 40 -35l130 -50c65 -25 90 -50 90 -125v-30c0 -80 -50 -130 -130 -130h-140c-80 0 -130 50 -130 130v35
c0 15 10 25 25 25h80c15 0 25 -10 25 -25v-10c0 -25 10 -35 35 -35h70c25 0 35 10 35 35v5c0 15 -10 24 -40 35l-130 50c-65 25 -90 50 -90 125v30c0 80 50 130 130 130z" />
    <glyph glyph-name="afii10054" unicode="&#x405;" horiz-adv-x="615" 
d="M420 175v30c0 25 -10 35 -35 45l-220 85c-75 29 -110 65 -110 150v70c0 105 50 155 155 155h195c105 0 155 -50 155 -155v-65c0 -15 -10 -25 -25 -25h-100c-15 0 -25 10 -25 25v35c0 30 -20 50 -50 50h-105c-30 0 -50 -20 -50 -50v-30c0 -25 10 -35 35 -45l220 -85
c75 -29 110 -65 110 -150v-70c0 -105 -50 -155 -155 -155h-215c-105 0 -155 50 -155 155v65c0 15 10 25 25 25h100c15 0 25 -10 25 -25v-35c0 -30 20 -50 50 -50h125c30 0 50 20 50 50z" />
    <glyph glyph-name="afii10105" unicode="&#x458;" horiz-adv-x="250" 
d="M-40 -175v70c0 15 10 25 25 25h30c30 0 45 15 45 45v510c0 15 10 25 25 25h80c15 0 25 -10 25 -25v-545c0 -80 -50 -130 -130 -130h-75c-15 0 -25 10 -25 25zM85 710h80c15 0 25 -10 25 -25v-80c0 -15 -10 -25 -25 -25h-80c-15 0 -25 10 -25 25v80c0 15 10 25 25 25z" />
    <glyph glyph-name="afii10056" unicode="&#x407;" horiz-adv-x="300" 
d="M225 675v-650c0 -15 -10 -25 -25 -25h-100c-15 0 -25 10 -25 25v650c0 15 10 25 25 25h100c15 0 25 -10 25 -25zM25 910h70c15 0 25 -10 25 -25v-80c0 -15 -10 -25 -25 -25h-70c-15 0 -25 10 -25 25v80c0 15 10 25 25 25zM205 910h70c15 0 25 -10 25 -25v-80
c0 -15 -10 -25 -25 -25h-70c-15 0 -25 10 -25 25v80c0 15 10 25 25 25z" />
    <glyph glyph-name="afii10104" unicode="&#x457;" horiz-adv-x="270" 
d="M95 510h80c15 0 25 -10 25 -25v-460c0 -15 -10 -25 -25 -25h-80c-15 0 -25 10 -25 25v460c0 15 10 25 25 25zM10 710h70c15 0 25 -10 25 -25v-80c0 -15 -10 -25 -25 -25h-70c-15 0 -25 10 -25 25v80c0 15 10 25 25 25zM190 710h70c15 0 25 -10 25 -25v-80
c0 -15 -10 -25 -25 -25h-70c-15 0 -25 10 -25 25v80c0 15 10 25 25 25z" />
    <glyph glyph-name="Agrave" unicode="&#xc0;" horiz-adv-x="614" 
d="M417 145h-220l-35 -120c-4 -15 -15 -25 -35 -25h-110c-13 0 -20 10 -15 25l210 650c5 15 15 25 35 25h120c20 0 30 -10 35 -25l210 -650c5 -15 -3 -25 -15 -25h-110c-20 0 -30 10 -35 25zM237 280h140l-65 220h-10zM247 795l-75 130c-9 15 0 25 15 25h80
c20 0 30 -10 35 -25l45 -130c5 -15 -2 -25 -15 -25h-50c-15 0 -26 10 -35 25z" />
    <glyph glyph-name="Aacute" unicode="&#xc1;" horiz-adv-x="614" 
d="M417 145h-220l-35 -120c-4 -15 -15 -25 -35 -25h-110c-13 0 -20 10 -15 25l210 650c5 15 15 25 35 25h120c20 0 30 -10 35 -25l210 -650c5 -15 -3 -25 -15 -25h-110c-20 0 -30 10 -35 25zM237 280h140l-65 220h-10zM442 925l-75 -130c-9 -15 -20 -25 -35 -25h-50
c-13 0 -20 10 -15 25l45 130c5 15 15 25 35 25h80c15 0 24 -10 15 -25z" />
    <glyph glyph-name="Abreve" unicode="&#x102;" horiz-adv-x="614" 
d="M417 145h-220l-35 -120c-4 -15 -15 -25 -35 -25h-110c-13 0 -20 10 -15 25l210 650c5 15 15 25 35 25h120c20 0 30 -10 35 -25l210 -650c5 -15 -3 -25 -15 -25h-110c-20 0 -30 10 -35 25zM237 280h140l-65 220h-10zM267 915v-20c0 -20 10 -30 30 -30h20c20 0 30 10 30 30
v20c0 15 10 25 25 25h55c15 0 25 -10 25 -25v-25c0 -75 -40 -115 -115 -115h-60c-75 0 -115 40 -115 115v25c0 15 10 25 25 25h55c15 0 25 -10 25 -25z" />
    <glyph glyph-name="Acircumflex" unicode="&#xc2;" horiz-adv-x="614" 
d="M417 145h-220l-35 -120c-4 -15 -15 -25 -35 -25h-110c-13 0 -20 10 -15 25l210 650c5 15 15 25 35 25h120c20 0 30 -10 35 -25l210 -650c5 -15 -3 -25 -15 -25h-110c-20 0 -30 10 -35 25zM237 280h140l-65 220h-10zM275 950h65c20 0 31 -10 40 -25l80 -130
c9 -15 0 -25 -15 -25h-60c-20 0 -32 10 -40 25l-35 65h-5l-35 -65c-8 -15 -20 -25 -40 -25h-60c-15 0 -24 10 -15 25l80 130c9 15 20 25 40 25z" />
    <glyph glyph-name="Adieresis" unicode="&#xc4;" horiz-adv-x="614" 
d="M417 145h-220l-35 -120c-4 -15 -15 -25 -35 -25h-110c-13 0 -20 10 -15 25l210 650c5 15 15 25 35 25h120c20 0 30 -10 35 -25l210 -650c5 -15 -3 -25 -15 -25h-110c-20 0 -30 10 -35 25zM237 280h140l-65 220h-10zM182 920h70c15 0 25 -10 25 -25v-80
c0 -15 -10 -25 -25 -25h-70c-15 0 -25 10 -25 25v80c0 15 10 25 25 25zM362 920h70c15 0 25 -10 25 -25v-80c0 -15 -10 -25 -25 -25h-70c-15 0 -25 10 -25 25v80c0 15 10 25 25 25z" />
    <glyph glyph-name="Amacron" unicode="&#x100;" horiz-adv-x="614" 
d="M417 145h-220l-35 -120c-4 -15 -15 -25 -35 -25h-110c-13 0 -20 10 -15 25l210 650c5 15 15 25 35 25h120c20 0 30 -10 35 -25l210 -650c5 -15 -3 -25 -15 -25h-110c-20 0 -30 10 -35 25zM237 280h140l-65 220h-10zM412 800h-210c-15 0 -25 10 -25 25v55
c0 15 10 25 25 25h210c15 0 25 -10 25 -25v-55c0 -15 -10 -25 -25 -25z" />
    <glyph glyph-name="Aring" unicode="&#xc5;" horiz-adv-x="614" 
d="M417 145h-220l-35 -120c-4 -15 -15 -25 -35 -25h-110c-13 0 -20 10 -15 25l210 650c5 15 15 25 35 25h120c20 0 30 -10 35 -25l210 -650c5 -15 -3 -25 -15 -25h-110c-20 0 -30 10 -35 25zM237 280h140l-65 220h-10zM410 900v-50c0 -60 -27 -90 -90 -90h-25
c-63 0 -90 30 -90 90v50c0 60 30 90 90 90h25c60 0 90 -30 90 -90zM340 860v30c0 20 -10 30 -30 30h-5c-20 0 -30 -10 -30 -30v-30c0 -20 10 -30 27 -30h10c18 0 28 10 28 30z" />
    <glyph glyph-name="Atilde" unicode="&#xc3;" horiz-adv-x="614" 
d="M417 145h-220l-35 -120c-4 -15 -15 -25 -35 -25h-110c-13 0 -20 10 -15 25l210 650c5 15 15 25 35 25h120c20 0 30 -10 35 -25l210 -650c5 -15 -3 -25 -15 -25h-110c-20 0 -30 10 -35 25zM237 280h140l-65 220h-10zM377 775c-50 0 -75 50 -95 50c-10 0 -15 -5 -15 -15
v-15c0 -10 -10 -20 -20 -20h-45c-10 0 -20 10 -20 20v90c0 35 20 55 55 55c50 0 75 -50 95 -50c10 0 15 5 15 15v15c0 10 10 20 20 20h45c10 0 20 -10 20 -20v-90c0 -35 -20 -55 -55 -55z" />
    <glyph glyph-name="Dcroat" unicode="&#x110;" horiz-adv-x="700" 
d="M115 700h365c105 0 155 -50 155 -155v-390c0 -105 -50 -155 -155 -155h-365c-15 0 -25 10 -25 25v255h-30c-15 0 -25 10 -25 25v80c0 15 10 25 25 25h30v265c0 15 10 25 25 25zM240 565v-155h90c15 0 25 -10 25 -25v-80c0 -15 -10 -25 -25 -25h-90v-145h195
c30 0 50 20 50 50v330c0 30 -20 50 -50 50h-195z" />
    <glyph glyph-name="Dcaron" unicode="&#x10e;" horiz-adv-x="685" 
d="M100 700h365c105 0 155 -50 155 -155v-390c0 -105 -50 -155 -155 -155h-365c-15 0 -25 10 -25 25v650c0 15 10 25 25 25zM225 565v-430h195c30 0 50 20 50 50v330c0 30 -20 50 -50 50h-195zM370 770h-65c-20 0 -31 10 -40 25l-80 130c-9 15 0 25 15 25h60
c20 0 32 -10 40 -25l35 -65h5l35 65c8 15 20 25 40 25h60c15 0 24 -10 15 -25l-80 -130c-9 -15 -20 -25 -40 -25z" />
    <glyph glyph-name="Ccircumflex" unicode="&#x108;" horiz-adv-x="660" 
d="M610 555v-65c0 -15 -10 -25 -25 -25h-100c-15 0 -25 10 -25 25v35c0 30 -20 50 -50 50h-145c-30 0 -50 -20 -50 -50v-350c0 -30 20 -50 50 -50h145c30 0 50 20 50 50v35c0 15 10 25 25 25h100c15 0 25 -10 25 -25v-65c0 -105 -50 -155 -155 -155h-235
c-105 0 -155 50 -155 155v410c0 105 50 155 155 155h235c105 0 155 -50 155 -155zM305 950h65c20 0 31 -10 40 -25l80 -130c9 -15 0 -25 -15 -25h-60c-20 0 -32 10 -40 25l-35 65h-5l-35 -65c-8 -15 -20 -25 -40 -25h-60c-15 0 -24 10 -15 25l80 130c9 15 20 25 40 25z" />
    <glyph glyph-name="Ccaron" unicode="&#x10c;" horiz-adv-x="660" 
d="M610 555v-65c0 -15 -10 -25 -25 -25h-100c-15 0 -25 10 -25 25v35c0 30 -20 50 -50 50h-145c-30 0 -50 -20 -50 -50v-350c0 -30 20 -50 50 -50h145c30 0 50 20 50 50v35c0 15 10 25 25 25h100c15 0 25 -10 25 -25v-65c0 -105 -50 -155 -155 -155h-235
c-105 0 -155 50 -155 155v410c0 105 50 155 155 155h235c105 0 155 -50 155 -155zM370 770h-65c-20 0 -31 10 -40 25l-80 130c-9 15 0 25 15 25h60c20 0 32 -10 40 -25l35 -65h5l35 65c8 15 20 25 40 25h60c15 0 24 -10 15 -25l-80 -130c-9 -15 -20 -25 -40 -25z" />
    <glyph glyph-name="Cacute" unicode="&#x106;" horiz-adv-x="660" 
d="M610 555v-65c0 -15 -10 -25 -25 -25h-100c-15 0 -25 10 -25 25v35c0 30 -20 50 -50 50h-145c-30 0 -50 -20 -50 -50v-350c0 -30 20 -50 50 -50h145c30 0 50 20 50 50v35c0 15 10 25 25 25h100c15 0 25 -10 25 -25v-65c0 -105 -50 -155 -155 -155h-235
c-105 0 -155 50 -155 155v410c0 105 50 155 155 155h235c105 0 155 -50 155 -155zM470 925l-75 -130c-9 -15 -20 -25 -35 -25h-50c-13 0 -20 10 -15 25l45 130c5 15 15 25 35 25h80c15 0 24 -10 15 -25z" />
    <glyph glyph-name="Egrave" unicode="&#xc8;" horiz-adv-x="595" 
d="M225 290v-155h320c15 0 25 -10 25 -25v-85c0 -15 -10 -25 -25 -25h-445c-15 0 -25 10 -25 25v650c0 15 10 25 25 25h435c15 0 25 -10 25 -25v-85c0 -15 -10 -25 -25 -25h-310v-140h235c15 0 25 -10 25 -25v-85c0 -15 -10 -25 -25 -25h-235zM275 795l-75 130
c-9 15 0 25 15 25h80c20 0 30 -10 35 -25l45 -130c5 -15 -2 -25 -15 -25h-50c-15 0 -26 10 -35 25z" />
    <glyph glyph-name="Eacute" unicode="&#xc9;" horiz-adv-x="595" 
d="M225 290v-155h320c15 0 25 -10 25 -25v-85c0 -15 -10 -25 -25 -25h-445c-15 0 -25 10 -25 25v650c0 15 10 25 25 25h435c15 0 25 -10 25 -25v-85c0 -15 -10 -25 -25 -25h-310v-140h235c15 0 25 -10 25 -25v-85c0 -15 -10 -25 -25 -25h-235zM445 925l-75 -130
c-9 -15 -20 -25 -35 -25h-50c-13 0 -20 10 -15 25l45 130c5 15 15 25 35 25h80c15 0 24 -10 15 -25z" />
    <glyph glyph-name="Ecaron" unicode="&#x11a;" horiz-adv-x="595" 
d="M225 290v-155h320c15 0 25 -10 25 -25v-85c0 -15 -10 -25 -25 -25h-445c-15 0 -25 10 -25 25v650c0 15 10 25 25 25h435c15 0 25 -10 25 -25v-85c0 -15 -10 -25 -25 -25h-310v-140h235c15 0 25 -10 25 -25v-85c0 -15 -10 -25 -25 -25h-235zM353 770h-65
c-20 0 -31 10 -40 25l-80 130c-9 15 0 25 15 25h60c20 0 32 -10 40 -25l35 -65h5l35 65c8 15 20 25 40 25h60c15 0 24 -10 15 -25l-80 -130c-9 -15 -20 -25 -40 -25z" />
    <glyph glyph-name="Ecircumflex" unicode="&#xca;" horiz-adv-x="595" 
d="M225 290v-155h320c15 0 25 -10 25 -25v-85c0 -15 -10 -25 -25 -25h-445c-15 0 -25 10 -25 25v650c0 15 10 25 25 25h435c15 0 25 -10 25 -25v-85c0 -15 -10 -25 -25 -25h-310v-140h235c15 0 25 -10 25 -25v-85c0 -15 -10 -25 -25 -25h-235zM288 950h65
c20 0 31 -10 40 -25l80 -130c9 -15 0 -25 -15 -25h-60c-20 0 -32 10 -40 25l-35 65h-5l-35 -65c-8 -15 -20 -25 -40 -25h-60c-15 0 -24 10 -15 25l80 130c9 15 20 25 40 25z" />
    <glyph glyph-name="Edieresis" unicode="&#xcb;" horiz-adv-x="595" 
d="M225 290v-155h320c15 0 25 -10 25 -25v-85c0 -15 -10 -25 -25 -25h-445c-15 0 -25 10 -25 25v650c0 15 10 25 25 25h435c15 0 25 -10 25 -25v-85c0 -15 -10 -25 -25 -25h-310v-140h235c15 0 25 -10 25 -25v-85c0 -15 -10 -25 -25 -25h-235zM195 930h70
c15 0 25 -10 25 -25v-80c0 -15 -10 -25 -25 -25h-70c-15 0 -25 10 -25 25v80c0 15 10 25 25 25zM375 930h70c15 0 25 -10 25 -25v-80c0 -15 -10 -25 -25 -25h-70c-15 0 -25 10 -25 25v80c0 15 10 25 25 25z" />
    <glyph glyph-name="Edotaccent" unicode="&#x116;" horiz-adv-x="595" 
d="M225 290v-155h320c15 0 25 -10 25 -25v-85c0 -15 -10 -25 -25 -25h-445c-15 0 -25 10 -25 25v650c0 15 10 25 25 25h435c15 0 25 -10 25 -25v-85c0 -15 -10 -25 -25 -25h-310v-140h235c15 0 25 -10 25 -25v-85c0 -15 -10 -25 -25 -25h-235zM280 930h80
c15 0 25 -10 25 -25v-80c0 -15 -10 -25 -25 -25h-80c-15 0 -25 10 -25 25v80c0 15 10 25 25 25z" />
    <glyph glyph-name="Emacron" unicode="&#x112;" horiz-adv-x="595" 
d="M225 290v-155h320c15 0 25 -10 25 -25v-85c0 -15 -10 -25 -25 -25h-445c-15 0 -25 10 -25 25v650c0 15 10 25 25 25h435c15 0 25 -10 25 -25v-85c0 -15 -10 -25 -25 -25h-310v-140h235c15 0 25 -10 25 -25v-85c0 -15 -10 -25 -25 -25h-235zM425 800h-210
c-15 0 -25 10 -25 25v55c0 15 10 25 25 25h210c15 0 25 -10 25 -25v-55c0 -15 -10 -25 -25 -25z" />
    <glyph glyph-name="Gbreve" unicode="&#x11e;" horiz-adv-x="675" 
d="M610 365v-220c0 -105 -50 -155 -155 -155h-235c-105 0 -155 50 -155 155v410c0 105 50 155 155 155h235c105 0 155 -50 155 -155v-65c0 -15 -10 -25 -25 -25h-100c-15 0 -25 10 -25 25v35c0 30 -20 50 -50 50h-145c-30 0 -50 -20 -50 -50v-350c0 -30 20 -50 50 -50h145
c30 0 50 20 50 50v80h-95c-15 0 -25 10 -25 25v85c0 15 10 25 25 25h220c15 0 25 -10 25 -25zM297 925v-20c0 -20 10 -30 30 -30h20c20 0 30 10 30 30v20c0 15 10 25 25 25h55c15 0 25 -10 25 -25v-25c0 -75 -40 -115 -115 -115h-60c-75 0 -115 40 -115 115v25
c0 15 10 25 25 25h55c15 0 25 -10 25 -25z" />
    <glyph glyph-name="Gcommaaccent" unicode="&#x122;" horiz-adv-x="675" 
d="M610 365v-220c0 -105 -50 -155 -155 -155h-235c-105 0 -155 50 -155 155v410c0 105 50 155 155 155h235c105 0 155 -50 155 -155v-65c0 -15 -10 -25 -25 -25h-100c-15 0 -25 10 -25 25v35c0 30 -20 50 -50 50h-145c-30 0 -50 -20 -50 -50v-350c0 -30 20 -50 50 -50h145
c30 0 50 20 50 50v80h-95c-15 0 -25 10 -25 25v85c0 15 10 25 25 25h220c15 0 25 -10 25 -25zM400 -115v-70c0 -35 -5 -40 -15 -60l-30 -60c-5 -10 -15 -20 -30 -20h-20c-15 0 -20 7 -15 20l35 85h-25c-15 0 -25 10 -25 25v80c0 15 10 25 25 25h75c15 0 25 -10 25 -25z" />
    <glyph glyph-name="Kcommaaccent" unicode="&#x136;" horiz-adv-x="618" 
d="M225 675v-240h95l110 240c7 15 15 25 35 25h110c13 0 22 -10 15 -25l-140 -305l160 -345c7 -15 -5 -25 -20 -25h-100c-20 0 -33 10 -40 25l-125 275h-100v-275c0 -15 -10 -25 -25 -25h-100c-15 0 -25 10 -25 25v650c0 15 10 25 25 25h100c15 0 25 -10 25 -25zM405 -115
v-70c0 -35 -5 -40 -15 -60l-30 -60c-5 -10 -15 -20 -30 -20h-20c-15 0 -20 7 -15 20l35 85h-25c-15 0 -25 10 -25 25v80c0 15 10 25 25 25h75c15 0 25 -10 25 -25z" />
    <glyph glyph-name="Lacute" unicode="&#x139;" horiz-adv-x="550" 
d="M225 675v-540h300c15 0 25 -10 25 -25v-85c0 -15 -10 -25 -25 -25h-425c-15 0 -25 10 -25 25v650c0 15 10 25 25 25h100c15 0 25 -10 25 -25zM285 925l-75 -130c-9 -15 -20 -25 -35 -25h-50c-13 0 -20 10 -15 25l45 130c5 15 15 25 35 25h80c15 0 24 -10 15 -25z" />
    <glyph glyph-name="Lcaron" unicode="&#x13d;" horiz-adv-x="550" 
d="M225 675v-540h300c15 0 25 -10 25 -25v-85c0 -15 -10 -25 -25 -25h-425c-15 0 -25 10 -25 25v650c0 15 10 25 25 25h100c15 0 25 -10 25 -25zM410 675v-70c0 -35 -5 -40 -15 -60l-30 -60c-5 -10 -15 -20 -30 -20h-20c-15 0 -20 7 -15 20l35 85h-25c-15 0 -25 10 -25 25
v80c0 15 10 25 25 25h75c15 0 25 -10 25 -25z" />
    <glyph glyph-name="Lcommaaccent" unicode="&#x13b;" horiz-adv-x="550" 
d="M225 675v-540h300c15 0 25 -10 25 -25v-85c0 -15 -10 -25 -25 -25h-425c-15 0 -25 10 -25 25v650c0 15 10 25 25 25h100c15 0 25 -10 25 -25zM380 -115v-70c0 -35 -5 -40 -15 -60l-30 -60c-5 -10 -15 -20 -30 -20h-20c-15 0 -20 7 -15 20l35 85h-25c-15 0 -25 10 -25 25
v80c0 15 10 25 25 25h75c15 0 25 -10 25 -25z" />
    <glyph glyph-name="agrave" unicode="&#xe0;" horiz-adv-x="495" 
d="M260 400h-35c-25 0 -35 -10 -35 -35c0 -15 -10 -25 -25 -25h-80c-15 0 -25 10 -25 25v25c0 80 50 130 130 130h115c80 0 130 -50 130 -130v-365c0 -15 -10 -25 -25 -25h-80c-15 0 -25 10 -25 25v15h-10s-15 -50 -85 -50h-40c-80 0 -130 50 -130 130v55
c0 80 50 130 130 130h135v50c0 30 -15 45 -45 45zM170 160v-15c0 -30 15 -45 45 -45h35c35 0 55 20 55 55v50h-90c-30 0 -45 -15 -45 -45zM205 605l-75 130c-9 15 0 25 15 25h80c20 0 30 -10 35 -25l45 -130c5 -15 -2 -25 -15 -25h-50c-15 0 -26 10 -35 25z" />
    <glyph glyph-name="aacute" unicode="&#xe1;" horiz-adv-x="495" 
d="M260 400h-35c-25 0 -35 -10 -35 -35c0 -15 -10 -25 -25 -25h-80c-15 0 -25 10 -25 25v25c0 80 50 130 130 130h115c80 0 130 -50 130 -130v-365c0 -15 -10 -25 -25 -25h-80c-15 0 -25 10 -25 25v15h-10s-15 -50 -85 -50h-40c-80 0 -130 50 -130 130v55
c0 80 50 130 130 130h135v50c0 30 -15 45 -45 45zM170 160v-15c0 -30 15 -45 45 -45h35c35 0 55 20 55 55v50h-90c-30 0 -45 -15 -45 -45zM385 735l-75 -130c-9 -15 -20 -25 -35 -25h-50c-13 0 -20 10 -15 25l45 130c5 15 15 25 35 25h80c15 0 24 -10 15 -25z" />
    <glyph glyph-name="abreve" unicode="&#x103;" horiz-adv-x="495" 
d="M260 400h-35c-25 0 -35 -10 -35 -35c0 -15 -10 -25 -25 -25h-80c-15 0 -25 10 -25 25v25c0 80 50 130 130 130h115c80 0 130 -50 130 -130v-365c0 -15 -10 -25 -25 -25h-80c-15 0 -25 10 -25 25v15h-10s-15 -50 -85 -50h-40c-80 0 -130 50 -130 130v55
c0 80 50 130 130 130h135v50c0 30 -15 45 -45 45zM170 160v-15c0 -30 15 -45 45 -45h35c35 0 55 20 55 55v50h-90c-30 0 -45 -15 -45 -45zM207 725v-20c0 -20 10 -30 30 -30h20c20 0 30 10 30 30v20c0 15 10 25 25 25h55c15 0 25 -10 25 -25v-25c0 -75 -40 -115 -115 -115
h-60c-75 0 -115 40 -115 115v25c0 15 10 25 25 25h55c15 0 25 -10 25 -25z" />
    <glyph glyph-name="acircumflex" unicode="&#xe2;" horiz-adv-x="495" 
d="M260 400h-35c-25 0 -35 -10 -35 -35c0 -15 -10 -25 -25 -25h-80c-15 0 -25 10 -25 25v25c0 80 50 130 130 130h115c80 0 130 -50 130 -130v-365c0 -15 -10 -25 -25 -25h-80c-15 0 -25 10 -25 25v15h-10s-15 -50 -85 -50h-40c-80 0 -130 50 -130 130v55
c0 80 50 130 130 130h135v50c0 30 -15 45 -45 45zM170 160v-15c0 -30 15 -45 45 -45h35c35 0 55 20 55 55v50h-90c-30 0 -45 -15 -45 -45zM215 760h65c20 0 31 -10 40 -25l80 -130c9 -15 0 -25 -15 -25h-60c-20 0 -32 10 -40 25l-35 65h-5l-35 -65c-8 -15 -20 -25 -40 -25
h-60c-15 0 -24 10 -15 25l80 130c9 15 20 25 40 25z" />
    <glyph glyph-name="adieresis" unicode="&#xe4;" horiz-adv-x="495" 
d="M260 400h-35c-25 0 -35 -10 -35 -35c0 -15 -10 -25 -25 -25h-80c-15 0 -25 10 -25 25v25c0 80 50 130 130 130h115c80 0 130 -50 130 -130v-365c0 -15 -10 -25 -25 -25h-80c-15 0 -25 10 -25 25v15h-10s-15 -50 -85 -50h-40c-80 0 -130 50 -130 130v55
c0 80 50 130 130 130h135v50c0 30 -15 45 -45 45zM170 160v-15c0 -30 15 -45 45 -45h35c35 0 55 20 55 55v50h-90c-30 0 -45 -15 -45 -45zM122 730h70c15 0 25 -10 25 -25v-80c0 -15 -10 -25 -25 -25h-70c-15 0 -25 10 -25 25v80c0 15 10 25 25 25zM302 730h70
c15 0 25 -10 25 -25v-80c0 -15 -10 -25 -25 -25h-70c-15 0 -25 10 -25 25v80c0 15 10 25 25 25z" />
    <glyph glyph-name="amacron" unicode="&#x101;" horiz-adv-x="495" 
d="M260 400h-35c-25 0 -35 -10 -35 -35c0 -15 -10 -25 -25 -25h-80c-15 0 -25 10 -25 25v25c0 80 50 130 130 130h115c80 0 130 -50 130 -130v-365c0 -15 -10 -25 -25 -25h-80c-15 0 -25 10 -25 25v15h-10s-15 -50 -85 -50h-40c-80 0 -130 50 -130 130v55
c0 80 50 130 130 130h135v50c0 30 -15 45 -45 45zM170 160v-15c0 -30 15 -45 45 -45h35c35 0 55 20 55 55v50h-90c-30 0 -45 -15 -45 -45zM352 610h-210c-15 0 -25 10 -25 25v55c0 15 10 25 25 25h210c15 0 25 -10 25 -25v-55c0 -15 -10 -25 -25 -25z" />
    <glyph glyph-name="aring" unicode="&#xe5;" horiz-adv-x="495" 
d="M260 400h-35c-25 0 -35 -10 -35 -35c0 -15 -10 -25 -25 -25h-80c-15 0 -25 10 -25 25v25c0 80 50 130 130 130h115c80 0 130 -50 130 -130v-365c0 -15 -10 -25 -25 -25h-80c-15 0 -25 10 -25 25v15h-10s-15 -50 -85 -50h-40c-80 0 -130 50 -130 130v55
c0 80 50 130 130 130h135v50c0 30 -15 45 -45 45zM170 160v-15c0 -30 15 -45 45 -45h35c35 0 55 20 55 55v50h-90c-30 0 -45 -15 -45 -45zM350 710v-50c0 -60 -27 -90 -90 -90h-25c-63 0 -90 30 -90 90v50c0 60 30 90 90 90h25c60 0 90 -30 90 -90zM280 670v30
c0 20 -10 30 -30 30h-5c-20 0 -30 -10 -30 -30v-30c0 -20 10 -30 27 -30h10c18 0 28 10 28 30z" />
    <glyph glyph-name="atilde" unicode="&#xe3;" horiz-adv-x="495" 
d="M260 400h-35c-25 0 -35 -10 -35 -35c0 -15 -10 -25 -25 -25h-80c-15 0 -25 10 -25 25v25c0 80 50 130 130 130h115c80 0 130 -50 130 -130v-365c0 -15 -10 -25 -25 -25h-80c-15 0 -25 10 -25 25v15h-10s-15 -50 -85 -50h-40c-80 0 -130 50 -130 130v55
c0 80 50 130 130 130h135v50c0 30 -15 45 -45 45zM170 160v-15c0 -30 15 -45 45 -45h35c35 0 55 20 55 55v50h-90c-30 0 -45 -15 -45 -45zM317 575c-50 0 -75 50 -95 50c-10 0 -15 -5 -15 -15v-15c0 -10 -10 -20 -20 -20h-45c-10 0 -20 10 -20 20v90c0 35 20 55 55 55
c50 0 75 -50 95 -50c10 0 15 5 15 15v15c0 10 10 20 20 20h45c10 0 20 -10 20 -20v-90c0 -35 -20 -55 -55 -55z" />
    <glyph glyph-name="cacute" unicode="&#x107;" horiz-adv-x="505" 
d="M460 390v-60c0 -15 -10 -25 -25 -25h-80c-15 0 -25 10 -25 25v25c0 30 -15 45 -45 45h-55c-30 0 -45 -15 -45 -45v-200c0 -30 15 -45 45 -45h55c30 0 45 15 45 45v25c0 15 10 25 25 25h80c15 0 25 -10 25 -25v-60c0 -80 -50 -130 -130 -130h-145c-80 0 -130 50 -130 130
v270c0 80 50 130 130 130h145c80 0 130 -50 130 -130zM390 735l-75 -130c-9 -15 -20 -25 -35 -25h-50c-13 0 -20 10 -15 25l45 130c5 15 15 25 35 25h80c15 0 24 -10 15 -25z" />
    <glyph glyph-name="ccaron" unicode="&#x10d;" horiz-adv-x="505" 
d="M460 390v-60c0 -15 -10 -25 -25 -25h-80c-15 0 -25 10 -25 25v25c0 30 -15 45 -45 45h-55c-30 0 -45 -15 -45 -45v-200c0 -30 15 -45 45 -45h55c30 0 45 15 45 45v25c0 15 10 25 25 25h80c15 0 25 -10 25 -25v-60c0 -80 -50 -130 -130 -130h-145c-80 0 -130 50 -130 130
v270c0 80 50 130 130 130h145c80 0 130 -50 130 -130zM295 580h-65c-20 0 -31 10 -40 25l-80 130c-9 15 0 25 15 25h60c20 0 32 -10 40 -25l35 -65h5l35 65c8 15 20 25 40 25h60c15 0 24 -10 15 -25l-80 -130c-9 -15 -20 -25 -40 -25z" />
    <glyph glyph-name="ccircumflex" unicode="&#x109;" horiz-adv-x="505" 
d="M460 390v-60c0 -15 -10 -25 -25 -25h-80c-15 0 -25 10 -25 25v25c0 30 -15 45 -45 45h-55c-30 0 -45 -15 -45 -45v-200c0 -30 15 -45 45 -45h55c30 0 45 15 45 45v25c0 15 10 25 25 25h80c15 0 25 -10 25 -25v-60c0 -80 -50 -130 -130 -130h-145c-80 0 -130 50 -130 130
v270c0 80 50 130 130 130h145c80 0 130 -50 130 -130zM225 760h65c20 0 31 -10 40 -25l80 -130c9 -15 0 -25 -15 -25h-60c-20 0 -32 10 -40 25l-35 65h-5l-35 -65c-8 -15 -20 -25 -40 -25h-60c-15 0 -24 10 -15 25l80 130c9 15 20 25 40 25z" />
    <glyph glyph-name="dcaron" unicode="&#x10f;" horiz-adv-x="605" 
d="M235 -10h-50c-80 0 -130 50 -130 130v260c0 80 50 130 130 130h145v165c0 15 10 25 25 25h80c15 0 25 -10 25 -25v-650c0 -15 -10 -25 -25 -25h-80c-15 0 -25 10 -25 25v15h-10s-15 -50 -85 -50zM330 390h-100c-30 0 -45 -15 -45 -45v-190c0 -30 15 -45 45 -45h45
c35 0 55 20 55 55v225zM645 675v-70c0 -35 -5 -40 -15 -60l-30 -60c-5 -10 -15 -20 -30 -20h-20c-15 0 -20 7 -15 20l35 85h-25c-15 0 -25 10 -25 25v80c0 15 10 25 25 25h75c15 0 25 -10 25 -25z" />
    <glyph glyph-name="egrave" unicode="&#xe8;" horiz-adv-x="515" 
d="M230 110h60c25 0 35 10 35 35c0 15 10 25 25 25h80c15 0 25 -10 25 -25v-25c0 -80 -50 -130 -130 -130h-140c-80 0 -130 50 -130 130v270c0 80 50 130 130 130h145c80 0 130 -50 130 -130v-155c0 -15 -10 -25 -25 -25h-250v-55c0 -30 15 -45 45 -45zM185 360v-45h145v45
c0 30 -15 45 -45 45h-55c-30 0 -45 -15 -45 -45zM205 605l-75 130c-9 15 0 25 15 25h80c20 0 30 -10 35 -25l45 -130c5 -15 -2 -25 -15 -25h-50c-15 0 -26 10 -35 25z" />
    <glyph glyph-name="eacute" unicode="&#xe9;" horiz-adv-x="515" 
d="M230 110h60c25 0 35 10 35 35c0 15 10 25 25 25h80c15 0 25 -10 25 -25v-25c0 -80 -50 -130 -130 -130h-140c-80 0 -130 50 -130 130v270c0 80 50 130 130 130h145c80 0 130 -50 130 -130v-155c0 -15 -10 -25 -25 -25h-250v-55c0 -30 15 -45 45 -45zM185 360v-45h145v45
c0 30 -15 45 -45 45h-55c-30 0 -45 -15 -45 -45zM390 735l-75 -130c-9 -15 -20 -25 -35 -25h-50c-13 0 -20 10 -15 25l45 130c5 15 15 25 35 25h80c15 0 24 -10 15 -25z" />
    <glyph glyph-name="ecaron" unicode="&#x11b;" horiz-adv-x="515" 
d="M230 110h60c25 0 35 10 35 35c0 15 10 25 25 25h80c15 0 25 -10 25 -25v-25c0 -80 -50 -130 -130 -130h-140c-80 0 -130 50 -130 130v270c0 80 50 130 130 130h145c80 0 130 -50 130 -130v-155c0 -15 -10 -25 -25 -25h-250v-55c0 -30 15 -45 45 -45zM185 360v-45h145v45
c0 30 -15 45 -45 45h-55c-30 0 -45 -15 -45 -45zM290 580h-65c-20 0 -31 10 -40 25l-80 130c-9 15 0 25 15 25h60c20 0 32 -10 40 -25l35 -65h5l35 65c8 15 20 25 40 25h60c15 0 24 -10 15 -25l-80 -130c-9 -15 -20 -25 -40 -25z" />
    <glyph glyph-name="ecircumflex" unicode="&#xea;" horiz-adv-x="515" 
d="M230 110h60c25 0 35 10 35 35c0 15 10 25 25 25h80c15 0 25 -10 25 -25v-25c0 -80 -50 -130 -130 -130h-140c-80 0 -130 50 -130 130v270c0 80 50 130 130 130h145c80 0 130 -50 130 -130v-155c0 -15 -10 -25 -25 -25h-250v-55c0 -30 15 -45 45 -45zM185 360v-45h145v45
c0 30 -15 45 -45 45h-55c-30 0 -45 -15 -45 -45zM225 760h65c20 0 31 -10 40 -25l80 -130c9 -15 0 -25 -15 -25h-60c-20 0 -32 10 -40 25l-35 65h-5l-35 -65c-8 -15 -20 -25 -40 -25h-60c-15 0 -24 10 -15 25l80 130c9 15 20 25 40 25z" />
    <glyph glyph-name="edieresis" unicode="&#xeb;" horiz-adv-x="515" 
d="M230 110h60c25 0 35 10 35 35c0 15 10 25 25 25h80c15 0 25 -10 25 -25v-25c0 -80 -50 -130 -130 -130h-140c-80 0 -130 50 -130 130v270c0 80 50 130 130 130h145c80 0 130 -50 130 -130v-155c0 -15 -10 -25 -25 -25h-250v-55c0 -30 15 -45 45 -45zM185 360v-45h145v45
c0 30 -15 45 -45 45h-55c-30 0 -45 -15 -45 -45zM132 730h70c15 0 25 -10 25 -25v-80c0 -15 -10 -25 -25 -25h-70c-15 0 -25 10 -25 25v80c0 15 10 25 25 25zM312 730h70c15 0 25 -10 25 -25v-80c0 -15 -10 -25 -25 -25h-70c-15 0 -25 10 -25 25v80c0 15 10 25 25 25z" />
    <glyph glyph-name="edotaccent" unicode="&#x117;" horiz-adv-x="515" 
d="M230 110h60c25 0 35 10 35 35c0 15 10 25 25 25h80c15 0 25 -10 25 -25v-25c0 -80 -50 -130 -130 -130h-140c-80 0 -130 50 -130 130v270c0 80 50 130 130 130h145c80 0 130 -50 130 -130v-155c0 -15 -10 -25 -25 -25h-250v-55c0 -30 15 -45 45 -45zM185 360v-45h145v45
c0 30 -15 45 -45 45h-55c-30 0 -45 -15 -45 -45zM217 730h80c15 0 25 -10 25 -25v-80c0 -15 -10 -25 -25 -25h-80c-15 0 -25 10 -25 25v80c0 15 10 25 25 25z" />
    <glyph glyph-name="emacron" unicode="&#x113;" horiz-adv-x="515" 
d="M230 110h60c25 0 35 10 35 35c0 15 10 25 25 25h80c15 0 25 -10 25 -25v-25c0 -80 -50 -130 -130 -130h-140c-80 0 -130 50 -130 130v270c0 80 50 130 130 130h145c80 0 130 -50 130 -130v-155c0 -15 -10 -25 -25 -25h-250v-55c0 -30 15 -45 45 -45zM185 360v-45h145v45
c0 30 -15 45 -45 45h-55c-30 0 -45 -15 -45 -45zM362 610h-210c-15 0 -25 10 -25 25v55c0 15 10 25 25 25h210c15 0 25 -10 25 -25v-55c0 -15 -10 -25 -25 -25z" />
    <glyph glyph-name="gbreve" unicode="&#x11f;" horiz-adv-x="520" 
d="M330 -35v75h-145c-80 0 -130 50 -130 130v220c0 80 50 130 130 130h50c70 0 85 -50 85 -50h10v15c0 15 10 25 25 25h80c15 0 25 -10 25 -25v-555c0 -80 -50 -130 -130 -130h-135c-80 0 -130 50 -130 130v40c0 15 10 25 25 25h80c15 0 25 -10 25 -25v-5
c0 -30 15 -45 45 -45h45c30 0 45 15 45 45zM230 160h100v185c0 35 -20 55 -55 55h-45c-30 0 -45 -15 -45 -45v-150c0 -30 15 -45 45 -45zM220 740v-20c0 -20 10 -30 30 -30h20c20 0 30 10 30 30v20c0 15 10 25 25 25h55c15 0 25 -10 25 -25v-25c0 -75 -40 -115 -115 -115
h-60c-75 0 -115 40 -115 115v25c0 15 10 25 25 25h55c15 0 25 -10 25 -25z" />
    <glyph glyph-name="gcommaaccent" unicode="&#x123;" horiz-adv-x="520" 
d="M200 625v70c0 35 5 40 15 60l30 60c5 10 15 20 30 20h20c15 0 20 -7 15 -20l-35 -85h25c15 0 25 -10 25 -25v-80c0 -15 -10 -25 -25 -25h-75c-15 0 -25 10 -25 25zM330 -35v75h-145c-80 0 -130 50 -130 130v220c0 80 50 130 130 130h50c70 0 85 -50 85 -50h10v15
c0 15 10 25 25 25h80c15 0 25 -10 25 -25v-555c0 -80 -50 -130 -130 -130h-135c-80 0 -130 50 -130 130v40c0 15 10 25 25 25h80c15 0 25 -10 25 -25v-5c0 -30 15 -45 45 -45h45c30 0 45 15 45 45zM230 160h100v185c0 35 -20 55 -55 55h-45c-30 0 -45 -15 -45 -45v-150
c0 -30 15 -45 45 -45z" />
    <glyph glyph-name="kcommaaccent" unicode="&#x137;" horiz-adv-x="478" 
d="M90 700h80c15 0 25 -10 25 -25v-350h55l70 160c7 15 15 25 35 25h90c15 0 22 -10 15 -25l-105 -215l115 -245c7 -15 0 -25 -15 -25h-90c-20 0 -28 10 -35 25l-80 180h-55v-180c0 -15 -10 -25 -25 -25h-80c-15 0 -25 10 -25 25v650c0 15 10 25 25 25zM335 -105v-70
c0 -35 -5 -40 -15 -60l-30 -60c-5 -10 -15 -20 -30 -20h-20c-15 0 -20 7 -15 20l35 85h-25c-15 0 -25 10 -25 25v80c0 15 10 25 25 25h75c15 0 25 -10 25 -25z" />
    <glyph glyph-name="lacute" unicode="&#x13a;" horiz-adv-x="260" 
d="M90 700h80c15 0 25 -10 25 -25v-650c0 -15 -10 -25 -25 -25h-80c-15 0 -25 10 -25 25v650c0 15 10 25 25 25zM266 925l-75 -130c-9 -15 -20 -25 -35 -25h-50c-13 0 -20 10 -15 25l45 130c5 15 15 25 35 25h80c15 0 24 -10 15 -25z" />
    <glyph glyph-name="lcaron" unicode="&#x13e;" horiz-adv-x="340" 
d="M90 700h80c15 0 25 -10 25 -25v-650c0 -15 -10 -25 -25 -25h-80c-15 0 -25 10 -25 25v650c0 15 10 25 25 25zM380 675v-70c0 -35 -5 -40 -15 -60l-30 -60c-5 -10 -15 -20 -30 -20h-20c-15 0 -20 7 -15 20l35 85h-25c-15 0 -25 10 -25 25v80c0 15 10 25 25 25h75
c15 0 25 -10 25 -25z" />
    <glyph glyph-name="lcommaaccent" unicode="&#x13c;" horiz-adv-x="260" 
d="M90 700h80c15 0 25 -10 25 -25v-650c0 -15 -10 -25 -25 -25h-80c-15 0 -25 10 -25 25v650c0 15 10 25 25 25zM193 -115v-70c0 -35 -5 -40 -15 -60l-30 -60c-5 -10 -15 -20 -30 -20h-20c-15 0 -20 7 -15 20l35 85h-25c-15 0 -25 10 -25 25v80c0 15 10 25 25 25h75
c15 0 25 -10 25 -25z" />
    <glyph glyph-name="Igrave" unicode="&#xcc;" horiz-adv-x="300" 
d="M225 675v-650c0 -15 -10 -25 -25 -25h-100c-15 0 -25 10 -25 25v650c0 15 10 25 25 25h100c15 0 25 -10 25 -25zM99 795l-75 130c-9 15 0 25 15 25h80c20 0 30 -10 35 -25l45 -130c5 -15 -2 -25 -15 -25h-50c-15 0 -26 10 -35 25z" />
    <glyph glyph-name="Iacute" unicode="&#xcd;" horiz-adv-x="300" 
d="M225 675v-650c0 -15 -10 -25 -25 -25h-100c-15 0 -25 10 -25 25v650c0 15 10 25 25 25h100c15 0 25 -10 25 -25zM281 925l-75 -130c-9 -15 -20 -25 -35 -25h-50c-13 0 -20 10 -15 25l45 130c5 15 15 25 35 25h80c15 0 24 -10 15 -25z" />
    <glyph glyph-name="Icircumflex" unicode="&#xce;" horiz-adv-x="303" 
d="M226 675v-650c0 -15 -10 -25 -25 -25h-100c-15 0 -25 10 -25 25v650c0 15 10 25 25 25h100c15 0 25 -10 25 -25zM119 950h65c20 0 31 -10 40 -25l80 -130c9 -15 0 -25 -15 -25h-60c-20 0 -32 10 -40 25l-35 65h-5l-35 -65c-8 -15 -20 -25 -40 -25h-60
c-15 0 -24 10 -15 25l80 130c9 15 20 25 40 25z" />
    <glyph glyph-name="Idieresis" unicode="&#xcf;" horiz-adv-x="300" 
d="M225 675v-650c0 -15 -10 -25 -25 -25h-100c-15 0 -25 10 -25 25v650c0 15 10 25 25 25h100c15 0 25 -10 25 -25zM25 920h70c15 0 25 -10 25 -25v-80c0 -15 -10 -25 -25 -25h-70c-15 0 -25 10 -25 25v80c0 15 10 25 25 25zM205 920h70c15 0 25 -10 25 -25v-80
c0 -15 -10 -25 -25 -25h-70c-15 0 -25 10 -25 25v80c0 15 10 25 25 25z" />
    <glyph glyph-name="Idotaccent" unicode="&#x130;" horiz-adv-x="300" 
d="M225 675v-650c0 -15 -10 -25 -25 -25h-100c-15 0 -25 10 -25 25v650c0 15 10 25 25 25h100c15 0 25 -10 25 -25zM110 920h80c15 0 25 -10 25 -25v-80c0 -15 -10 -25 -25 -25h-80c-15 0 -25 10 -25 25v80c0 15 10 25 25 25z" />
    <glyph glyph-name="Imacron" unicode="&#x12a;" horiz-adv-x="300" 
d="M225 675v-650c0 -15 -10 -25 -25 -25h-100c-15 0 -25 10 -25 25v650c0 15 10 25 25 25h100c15 0 25 -10 25 -25zM255 810h-210c-15 0 -25 10 -25 25v55c0 15 10 25 25 25h210c15 0 25 -10 25 -25v-55c0 -15 -10 -25 -25 -25z" />
    <glyph glyph-name="Nacute" unicode="&#x143;" horiz-adv-x="700" 
d="M465 265h10v410c0 15 10 25 25 25h100c15 0 25 -10 25 -25v-650c0 -15 -10 -25 -25 -25h-125c-20 0 -27 10 -35 25l-205 410h-10v-410c0 -15 -10 -25 -25 -25h-100c-15 0 -25 10 -25 25v650c0 15 10 25 25 25h125c20 0 27 -10 35 -25zM490 925l-75 -130
c-9 -15 -20 -25 -35 -25h-50c-13 0 -20 10 -15 25l45 130c5 15 15 25 35 25h80c15 0 24 -10 15 -25z" />
    <glyph glyph-name="Ncaron" unicode="&#x147;" horiz-adv-x="700" 
d="M465 265h10v410c0 15 10 25 25 25h100c15 0 25 -10 25 -25v-650c0 -15 -10 -25 -25 -25h-125c-20 0 -27 10 -35 25l-205 410h-10v-410c0 -15 -10 -25 -25 -25h-100c-15 0 -25 10 -25 25v650c0 15 10 25 25 25h125c20 0 27 -10 35 -25zM385 770h-65c-20 0 -31 10 -40 25
l-80 130c-9 15 0 25 15 25h60c20 0 32 -10 40 -25l35 -65h5l35 65c8 15 20 25 40 25h60c15 0 24 -10 15 -25l-80 -130c-9 -15 -20 -25 -40 -25z" />
    <glyph glyph-name="Ncommaaccent" unicode="&#x145;" horiz-adv-x="700" 
d="M465 265h10v410c0 15 10 25 25 25h100c15 0 25 -10 25 -25v-650c0 -15 -10 -25 -25 -25h-125c-20 0 -27 10 -35 25l-205 410h-10v-410c0 -15 -10 -25 -25 -25h-100c-15 0 -25 10 -25 25v650c0 15 10 25 25 25h125c20 0 27 -10 35 -25zM415 -115v-70c0 -35 -5 -40 -15 -60
l-30 -60c-5 -10 -15 -20 -30 -20h-20c-15 0 -20 7 -15 20l35 85h-25c-15 0 -25 10 -25 25v80c0 15 10 25 25 25h75c15 0 25 -10 25 -25z" />
    <glyph glyph-name="Ntilde" unicode="&#xd1;" horiz-adv-x="700" 
d="M465 265h10v410c0 15 10 25 25 25h100c15 0 25 -10 25 -25v-650c0 -15 -10 -25 -25 -25h-125c-20 0 -27 10 -35 25l-205 410h-10v-410c0 -15 -10 -25 -25 -25h-100c-15 0 -25 10 -25 25v650c0 15 10 25 25 25h125c20 0 27 -10 35 -25zM425 775c-50 0 -75 50 -95 50
c-10 0 -15 -5 -15 -15v-15c0 -10 -10 -20 -20 -20h-45c-10 0 -20 10 -20 20v90c0 35 20 55 55 55c50 0 75 -50 95 -50c10 0 15 5 15 15v15c0 10 10 20 20 20h45c10 0 20 -10 20 -20v-90c0 -35 -20 -55 -55 -55z" />
    <glyph glyph-name="Ograve" unicode="&#xd2;" horiz-adv-x="685" 
d="M620 555v-410c0 -105 -50 -155 -155 -155h-245c-105 0 -155 50 -155 155v410c0 105 50 155 155 155h245c105 0 155 -50 155 -155zM470 175v350c0 30 -20 50 -50 50h-155c-30 0 -50 -20 -50 -50v-350c0 -30 20 -50 50 -50h155c30 0 50 20 50 50zM290 805l-75 130
c-9 15 0 25 15 25h80c20 0 30 -10 35 -25l45 -130c5 -15 -2 -25 -15 -25h-50c-15 0 -26 10 -35 25z" />
    <glyph glyph-name="Oacute" unicode="&#xd3;" horiz-adv-x="685" 
d="M620 555v-410c0 -105 -50 -155 -155 -155h-245c-105 0 -155 50 -155 155v410c0 105 50 155 155 155h245c105 0 155 -50 155 -155zM470 175v350c0 30 -20 50 -50 50h-155c-30 0 -50 -20 -50 -50v-350c0 -30 20 -50 50 -50h155c30 0 50 20 50 50zM475 935l-75 -130
c-9 -15 -20 -25 -35 -25h-50c-13 0 -20 10 -15 25l45 130c5 15 15 25 35 25h80c15 0 24 -10 15 -25z" />
    <glyph glyph-name="Ocircumflex" unicode="&#xd4;" horiz-adv-x="685" 
d="M620 555v-410c0 -105 -50 -155 -155 -155h-245c-105 0 -155 50 -155 155v410c0 105 50 155 155 155h245c105 0 155 -50 155 -155zM470 175v350c0 30 -20 50 -50 50h-155c-30 0 -50 -20 -50 -50v-350c0 -30 20 -50 50 -50h155c30 0 50 20 50 50zM310 960h65
c20 0 31 -10 40 -25l80 -130c9 -15 0 -25 -15 -25h-60c-20 0 -32 10 -40 25l-35 65h-5l-35 -65c-8 -15 -20 -25 -40 -25h-60c-15 0 -24 10 -15 25l80 130c9 15 20 25 40 25z" />
    <glyph glyph-name="Odieresis" unicode="&#xd6;" horiz-adv-x="685" 
d="M620 555v-410c0 -105 -50 -155 -155 -155h-245c-105 0 -155 50 -155 155v410c0 105 50 155 155 155h245c105 0 155 -50 155 -155zM470 175v350c0 30 -20 50 -50 50h-155c-30 0 -50 -20 -50 -50v-350c0 -30 20 -50 50 -50h155c30 0 50 20 50 50zM217 930h70
c15 0 25 -10 25 -25v-80c0 -15 -10 -25 -25 -25h-70c-15 0 -25 10 -25 25v80c0 15 10 25 25 25zM397 930h70c15 0 25 -10 25 -25v-80c0 -15 -10 -25 -25 -25h-70c-15 0 -25 10 -25 25v80c0 15 10 25 25 25z" />
    <glyph glyph-name="Ohungarumlaut" unicode="&#x150;" horiz-adv-x="685" 
d="M620 555v-410c0 -105 -50 -155 -155 -155h-245c-105 0 -155 50 -155 155v410c0 105 50 155 155 155h245c105 0 155 -50 155 -155zM470 175v350c0 30 -20 50 -50 50h-155c-30 0 -50 -20 -50 -50v-350c0 -30 20 -50 50 -50h155c30 0 50 20 50 50zM385 935l-75 -130
c-8 -15 -20 -25 -35 -25h-30c-10 0 -20 10 -15 25l40 130c5 15 15 25 35 25h65c15 0 24 -10 15 -25zM540 935l-75 -130c-8 -15 -20 -25 -35 -25h-30c-10 0 -20 10 -15 25l40 130c5 15 15 25 35 25h65c15 0 24 -10 15 -25z" />
    <glyph glyph-name="Omacron" unicode="&#x14c;" horiz-adv-x="685" 
d="M620 555v-410c0 -105 -50 -155 -155 -155h-245c-105 0 -155 50 -155 155v410c0 105 50 155 155 155h245c105 0 155 -50 155 -155zM470 175v350c0 30 -20 50 -50 50h-155c-30 0 -50 -20 -50 -50v-350c0 -30 20 -50 50 -50h155c30 0 50 20 50 50zM447 810h-210
c-15 0 -25 10 -25 25v55c0 15 10 25 25 25h210c15 0 25 -10 25 -25v-55c0 -15 -10 -25 -25 -25z" />
    <glyph glyph-name="Otilde" unicode="&#xd5;" horiz-adv-x="685" 
d="M620 555v-410c0 -105 -50 -155 -155 -155h-245c-105 0 -155 50 -155 155v410c0 105 50 155 155 155h245c105 0 155 -50 155 -155zM470 175v350c0 30 -20 50 -50 50h-155c-30 0 -50 -20 -50 -50v-350c0 -30 20 -50 50 -50h155c30 0 50 20 50 50zM412 775
c-50 0 -75 50 -95 50c-10 0 -15 -5 -15 -15v-15c0 -10 -10 -20 -20 -20h-45c-10 0 -20 10 -20 20v90c0 35 20 55 55 55c50 0 75 -50 95 -50c10 0 15 5 15 15v15c0 10 10 20 20 20h45c10 0 20 -10 20 -20v-90c0 -35 -20 -55 -55 -55z" />
    <glyph glyph-name="Racute" unicode="&#x154;" horiz-adv-x="658" 
d="M600 375c0 -135 -95 -145 -95 -145l100 -205c7 -15 -5 -25 -15 -25h-108c-22 0 -30 10 -37 25l-90 195h-130v-195c0 -15 -10 -25 -25 -25h-100c-15 0 -25 10 -25 25v650c0 15 10 25 25 25h345c105 0 155 -50 155 -155v-170zM400 565h-175v-210h175c30 0 50 20 50 50v110
c0 30 -20 50 -50 50zM455 925l-75 -130c-9 -15 -20 -25 -35 -25h-50c-13 0 -20 10 -15 25l45 130c5 15 15 25 35 25h80c15 0 24 -10 15 -25z" />
    <glyph glyph-name="Rcaron" unicode="&#x158;" horiz-adv-x="658" 
d="M600 375c0 -135 -95 -145 -95 -145l100 -205c7 -15 -5 -25 -15 -25h-108c-22 0 -30 10 -37 25l-90 195h-130v-195c0 -15 -10 -25 -25 -25h-100c-15 0 -25 10 -25 25v650c0 15 10 25 25 25h345c105 0 155 -50 155 -155v-170zM400 565h-175v-210h175c30 0 50 20 50 50v110
c0 30 -20 50 -50 50zM360 770h-65c-20 0 -31 10 -40 25l-80 130c-9 15 0 25 15 25h60c20 0 32 -10 40 -25l35 -65h5l35 65c8 15 20 25 40 25h60c15 0 24 -10 15 -25l-80 -130c-9 -15 -20 -25 -40 -25z" />
    <glyph glyph-name="Rcommaaccent" unicode="&#x156;" horiz-adv-x="658" 
d="M600 375c0 -135 -95 -145 -95 -145l100 -205c7 -15 -5 -25 -15 -25h-108c-22 0 -30 10 -37 25l-90 195h-130v-195c0 -15 -10 -25 -25 -25h-100c-15 0 -25 10 -25 25v650c0 15 10 25 25 25h345c105 0 155 -50 155 -155v-170zM400 565h-175v-210h175c30 0 50 20 50 50v110
c0 30 -20 50 -50 50zM405 -105v-70c0 -35 -5 -40 -15 -60l-30 -60c-5 -10 -15 -20 -30 -20h-20c-15 0 -20 7 -15 20l35 85h-25c-15 0 -25 10 -25 25v80c0 15 10 25 25 25h75c15 0 25 -10 25 -25z" />
    <glyph glyph-name="Sacute" unicode="&#x15a;" horiz-adv-x="615" 
d="M420 175v30c0 25 -10 35 -35 45l-220 85c-75 29 -110 65 -110 150v70c0 105 50 155 155 155h195c105 0 155 -50 155 -155v-65c0 -15 -10 -25 -25 -25h-100c-15 0 -25 10 -25 25v35c0 30 -20 50 -50 50h-105c-30 0 -50 -20 -50 -50v-30c0 -25 10 -35 35 -45l220 -85
c75 -29 110 -65 110 -150v-70c0 -105 -50 -155 -155 -155h-215c-105 0 -155 50 -155 155v65c0 15 10 25 25 25h100c15 0 25 -10 25 -25v-35c0 -30 20 -50 50 -50h125c30 0 50 20 50 50zM440 925l-75 -130c-9 -15 -20 -25 -35 -25h-50c-13 0 -20 10 -15 25l45 130
c5 15 15 25 35 25h80c15 0 24 -10 15 -25z" />
    <glyph glyph-name="Scaron" unicode="&#x160;" horiz-adv-x="615" 
d="M420 175v30c0 25 -10 35 -35 45l-220 85c-75 29 -110 65 -110 150v70c0 105 50 155 155 155h195c105 0 155 -50 155 -155v-65c0 -15 -10 -25 -25 -25h-100c-15 0 -25 10 -25 25v35c0 30 -20 50 -50 50h-105c-30 0 -50 -20 -50 -50v-30c0 -25 10 -35 35 -45l220 -85
c75 -29 110 -65 110 -150v-70c0 -105 -50 -155 -155 -155h-215c-105 0 -155 50 -155 155v65c0 15 10 25 25 25h100c15 0 25 -10 25 -25v-35c0 -30 20 -50 50 -50h125c30 0 50 20 50 50zM340 770h-65c-20 0 -31 10 -40 25l-80 130c-9 15 0 25 15 25h60c20 0 32 -10 40 -25
l35 -65h5l35 65c8 15 20 25 40 25h60c15 0 24 -10 15 -25l-80 -130c-9 -15 -20 -25 -40 -25z" />
    <glyph glyph-name="Scommaaccent" unicode="&#x218;" horiz-adv-x="615" 
d="M420 175v30c0 25 -10 35 -35 45l-220 85c-75 29 -110 65 -110 150v70c0 105 50 155 155 155h195c105 0 155 -50 155 -155v-65c0 -15 -10 -25 -25 -25h-100c-15 0 -25 10 -25 25v35c0 30 -20 50 -50 50h-105c-30 0 -50 -20 -50 -50v-30c0 -25 10 -35 35 -45l220 -85
c75 -29 110 -65 110 -150v-70c0 -105 -50 -155 -155 -155h-215c-105 0 -155 50 -155 155v65c0 15 10 25 25 25h100c15 0 25 -10 25 -25v-35c0 -30 20 -50 50 -50h125c30 0 50 20 50 50zM370 -105v-70c0 -35 -5 -40 -15 -60l-30 -60c-5 -10 -15 -20 -30 -20h-20
c-15 0 -20 7 -15 20l35 85h-25c-15 0 -25 10 -25 25v80c0 15 10 25 25 25h75c15 0 25 -10 25 -25z" />
    <glyph glyph-name="Tcaron" unicode="&#x164;" horiz-adv-x="540" 
d="M345 565v-540c0 -15 -10 -25 -25 -25h-100c-15 0 -25 10 -25 25v540h-160c-15 0 -25 10 -25 25v85c0 15 10 25 25 25h470c15 0 25 -10 25 -25v-85c0 -15 -10 -25 -25 -25h-160zM303 770h-65c-20 0 -31 10 -40 25l-80 130c-9 15 0 25 15 25h60c20 0 32 -10 40 -25l35 -65
h5l35 65c8 15 20 25 40 25h60c15 0 24 -10 15 -25l-80 -130c-9 -15 -20 -25 -40 -25z" />
    <glyph glyph-name="Tcommaaccent" unicode="&#x162;" horiz-adv-x="540" 
d="M345 565v-540c0 -15 -10 -25 -25 -25h-100c-15 0 -25 10 -25 25v540h-160c-15 0 -25 10 -25 25v85c0 15 10 25 25 25h470c15 0 25 -10 25 -25v-85c0 -15 -10 -25 -25 -25h-160zM333 -105v-70c0 -35 -5 -40 -15 -60l-30 -60c-5 -10 -15 -20 -30 -20h-20
c-15 0 -20 7 -15 20l35 85h-25c-15 0 -25 10 -25 25v80c0 15 10 25 25 25h75c15 0 25 -10 25 -25z" />
    <glyph glyph-name="Yacute" unicode="&#xdd;" horiz-adv-x="578" 
d="M164 675l120 -260h10l120 260c7 15 15 25 40 25h110c15 0 23 -10 15 -25l-215 -435v-215c0 -15 -10 -25 -25 -25h-100c-15 0 -25 10 -25 25v215l-215 435c-8 15 0 25 15 25h110c25 0 33 -10 40 -25zM420 925l-75 -130c-9 -15 -20 -25 -35 -25h-50c-13 0 -20 10 -15 25
l45 130c5 15 15 25 35 25h80c15 0 24 -10 15 -25z" />
    <glyph glyph-name="Ydieresis" unicode="&#x178;" horiz-adv-x="578" 
d="M164 675l120 -260h10l120 260c7 15 15 25 40 25h110c15 0 23 -10 15 -25l-215 -435v-215c0 -15 -10 -25 -25 -25h-100c-15 0 -25 10 -25 25v215l-215 435c-8 15 0 25 15 25h110c25 0 33 -10 40 -25zM164 930h70c15 0 25 -10 25 -25v-80c0 -15 -10 -25 -25 -25h-70
c-15 0 -25 10 -25 25v80c0 15 10 25 25 25zM344 930h70c15 0 25 -10 25 -25v-80c0 -15 -10 -25 -25 -25h-70c-15 0 -25 10 -25 25v80c0 15 10 25 25 25z" />
    <glyph glyph-name="idieresis" unicode="&#xef;" horiz-adv-x="250" 
d="M85 510h80c15 0 25 -10 25 -25v-460c0 -15 -10 -25 -25 -25h-80c-15 0 -25 10 -25 25v460c0 15 10 25 25 25zM0 730h70c15 0 25 -10 25 -25v-80c0 -15 -10 -25 -25 -25h-70c-15 0 -25 10 -25 25v80c0 15 10 25 25 25zM180 730h70c15 0 25 -10 25 -25v-80
c0 -15 -10 -25 -25 -25h-70c-15 0 -25 10 -25 25v80c0 15 10 25 25 25z" />
    <glyph glyph-name="icircumflex" unicode="&#xee;" horiz-adv-x="263" 
d="M91 510h80c15 0 25 -10 25 -25v-460c0 -15 -10 -25 -25 -25h-80c-15 0 -25 10 -25 25v460c0 15 10 25 25 25zM99 760h65c20 0 31 -10 40 -25l80 -130c9 -15 0 -25 -15 -25h-60c-20 0 -32 10 -40 25l-35 65h-5l-35 -65c-8 -15 -20 -25 -40 -25h-60c-15 0 -24 10 -15 25
l80 130c9 15 20 25 40 25z" />
    <glyph glyph-name="iacute" unicode="&#xed;" horiz-adv-x="250" 
d="M85 510h80c15 0 25 -10 25 -25v-460c0 -15 -10 -25 -25 -25h-80c-15 0 -25 10 -25 25v460c0 15 10 25 25 25zM261 735l-75 -130c-9 -15 -20 -25 -35 -25h-50c-13 0 -20 10 -15 25l45 130c5 15 15 25 35 25h80c15 0 24 -10 15 -25z" />
    <glyph glyph-name="igrave" unicode="&#xec;" horiz-adv-x="250" 
d="M85 510h80c15 0 25 -10 25 -25v-460c0 -15 -10 -25 -25 -25h-80c-15 0 -25 10 -25 25v460c0 15 10 25 25 25zM74 605l-75 130c-9 15 0 25 15 25h80c20 0 30 -10 35 -25l45 -130c5 -15 -2 -25 -15 -25h-50c-15 0 -26 10 -35 25z" />
    <glyph glyph-name="imacron" unicode="&#x12b;" horiz-adv-x="250" 
d="M85 510h80c15 0 25 -10 25 -25v-460c0 -15 -10 -25 -25 -25h-80c-15 0 -25 10 -25 25v460c0 15 10 25 25 25zM230 610h-210c-15 0 -25 10 -25 25v55c0 15 10 25 25 25h210c15 0 25 -10 25 -25v-55c0 -15 -10 -25 -25 -25z" />
    <glyph glyph-name="nacute" unicode="&#x144;" 
d="M285 520h50c80 0 130 -50 130 -130v-365c0 -15 -10 -25 -25 -25h-80c-15 0 -25 10 -25 25v330c0 30 -15 45 -45 45h-45c-35 0 -55 -20 -55 -55v-320c0 -15 -10 -25 -25 -25h-80c-15 0 -25 10 -25 25v460c0 15 10 25 25 25h80c15 0 25 -10 25 -25v-15h10s15 50 85 50z
M385 735l-75 -130c-9 -15 -20 -25 -35 -25h-50c-13 0 -20 10 -15 25l45 130c5 15 15 25 35 25h80c15 0 24 -10 15 -25z" />
    <glyph glyph-name="ncaron" unicode="&#x148;" 
d="M285 520h50c80 0 130 -50 130 -130v-365c0 -15 -10 -25 -25 -25h-80c-15 0 -25 10 -25 25v330c0 30 -15 45 -45 45h-45c-35 0 -55 -20 -55 -55v-320c0 -15 -10 -25 -25 -25h-80c-15 0 -25 10 -25 25v460c0 15 10 25 25 25h80c15 0 25 -10 25 -25v-15h10s15 50 85 50z
M295 580h-65c-20 0 -31 10 -40 25l-80 130c-9 15 0 25 15 25h60c20 0 32 -10 40 -25l35 -65h5l35 65c8 15 20 25 40 25h60c15 0 24 -10 15 -25l-80 -130c-9 -15 -20 -25 -40 -25z" />
    <glyph glyph-name="ncommaaccent" unicode="&#x146;" 
d="M285 520h50c80 0 130 -50 130 -130v-365c0 -15 -10 -25 -25 -25h-80c-15 0 -25 10 -25 25v330c0 30 -15 45 -45 45h-45c-35 0 -55 -20 -55 -55v-320c0 -15 -10 -25 -25 -25h-80c-15 0 -25 10 -25 25v460c0 15 10 25 25 25h80c15 0 25 -10 25 -25v-15h10s15 50 85 50z
M325 -105v-70c0 -35 -5 -40 -15 -60l-30 -60c-5 -10 -15 -20 -30 -20h-20c-15 0 -20 7 -15 20l35 85h-25c-15 0 -25 10 -25 25v80c0 15 10 25 25 25h75c15 0 25 -10 25 -25z" />
    <glyph glyph-name="ntilde" unicode="&#xf1;" 
d="M285 520h50c80 0 130 -50 130 -130v-365c0 -15 -10 -25 -25 -25h-80c-15 0 -25 10 -25 25v330c0 30 -15 45 -45 45h-45c-35 0 -55 -20 -55 -55v-320c0 -15 -10 -25 -25 -25h-80c-15 0 -25 10 -25 25v460c0 15 10 25 25 25h80c15 0 25 -10 25 -25v-15h10s15 50 85 50z
M330 585c-50 0 -75 50 -95 50c-10 0 -15 -5 -15 -15v-15c0 -10 -10 -20 -20 -20h-45c-10 0 -20 10 -20 20v90c0 35 20 55 55 55c50 0 75 -50 95 -50c10 0 15 5 15 15v15c0 10 10 20 20 20h45c10 0 20 -10 20 -20v-90c0 -35 -20 -55 -55 -55z" />
    <glyph glyph-name="ograve" unicode="&#xf2;" 
d="M340 155v200c0 30 -15 45 -45 45h-65c-30 0 -45 -15 -45 -45v-200c0 -30 15 -45 45 -45h65c30 0 45 15 45 45zM470 390v-270c0 -80 -50 -130 -130 -130h-155c-80 0 -130 50 -130 130v270c0 80 50 130 130 130h155c80 0 130 -50 130 -130zM210 605l-75 130
c-9 15 0 25 15 25h80c20 0 30 -10 35 -25l45 -130c5 -15 -2 -25 -15 -25h-50c-15 0 -26 10 -35 25z" />
    <glyph glyph-name="oacute" unicode="&#xf3;" 
d="M340 155v200c0 30 -15 45 -45 45h-65c-30 0 -45 -15 -45 -45v-200c0 -30 15 -45 45 -45h65c30 0 45 15 45 45zM470 390v-270c0 -80 -50 -130 -130 -130h-155c-80 0 -130 50 -130 130v270c0 80 50 130 130 130h155c80 0 130 -50 130 -130zM400 735l-75 -130
c-9 -15 -20 -25 -35 -25h-50c-13 0 -20 10 -15 25l45 130c5 15 15 25 35 25h80c15 0 24 -10 15 -25z" />
    <glyph glyph-name="ocircumflex" unicode="&#xf4;" 
d="M340 155v200c0 30 -15 45 -45 45h-65c-30 0 -45 -15 -45 -45v-200c0 -30 15 -45 45 -45h65c30 0 45 15 45 45zM470 390v-270c0 -80 -50 -130 -130 -130h-155c-80 0 -130 50 -130 130v270c0 80 50 130 130 130h155c80 0 130 -50 130 -130zM230 760h65c20 0 31 -10 40 -25
l80 -130c9 -15 0 -25 -15 -25h-60c-20 0 -32 10 -40 25l-35 65h-5l-35 -65c-8 -15 -20 -25 -40 -25h-60c-15 0 -24 10 -15 25l80 130c9 15 20 25 40 25z" />
    <glyph glyph-name="odieresis" unicode="&#xf6;" 
d="M340 155v200c0 30 -15 45 -45 45h-65c-30 0 -45 -15 -45 -45v-200c0 -30 15 -45 45 -45h65c30 0 45 15 45 45zM470 390v-270c0 -80 -50 -130 -130 -130h-155c-80 0 -130 50 -130 130v270c0 80 50 130 130 130h155c80 0 130 -50 130 -130zM137 740h70c15 0 25 -10 25 -25
v-80c0 -15 -10 -25 -25 -25h-70c-15 0 -25 10 -25 25v80c0 15 10 25 25 25zM317 740h70c15 0 25 -10 25 -25v-80c0 -15 -10 -25 -25 -25h-70c-15 0 -25 10 -25 25v80c0 15 10 25 25 25z" />
    <glyph glyph-name="ohungarumlaut" unicode="&#x151;" 
d="M310 735l-75 -130c-8 -15 -20 -25 -35 -25h-30c-10 0 -20 10 -15 25l40 130c5 15 15 25 35 25h65c15 0 24 -10 15 -25zM465 735l-75 -130c-8 -15 -20 -25 -35 -25h-30c-10 0 -20 10 -15 25l40 130c5 15 15 25 35 25h65c15 0 24 -10 15 -25zM340 155v200
c0 30 -15 45 -45 45h-65c-30 0 -45 -15 -45 -45v-200c0 -30 15 -45 45 -45h65c30 0 45 15 45 45zM470 390v-270c0 -80 -50 -130 -130 -130h-155c-80 0 -130 50 -130 130v270c0 80 50 130 130 130h155c80 0 130 -50 130 -130z" />
    <glyph glyph-name="omacron" unicode="&#x14d;" 
d="M340 155v200c0 30 -15 45 -45 45h-65c-30 0 -45 -15 -45 -45v-200c0 -30 15 -45 45 -45h65c30 0 45 15 45 45zM470 390v-270c0 -80 -50 -130 -130 -130h-155c-80 0 -130 50 -130 130v270c0 80 50 130 130 130h155c80 0 130 -50 130 -130zM367 610h-210
c-15 0 -25 10 -25 25v55c0 15 10 25 25 25h210c15 0 25 -10 25 -25v-55c0 -15 -10 -25 -25 -25z" />
    <glyph glyph-name="otilde" unicode="&#xf5;" 
d="M340 155v200c0 30 -15 45 -45 45h-65c-30 0 -45 -15 -45 -45v-200c0 -30 15 -45 45 -45h65c30 0 45 15 45 45zM470 390v-270c0 -80 -50 -130 -130 -130h-155c-80 0 -130 50 -130 130v270c0 80 50 130 130 130h155c80 0 130 -50 130 -130zM332 585c-50 0 -75 50 -95 50
c-10 0 -15 -5 -15 -15v-15c0 -10 -10 -20 -20 -20h-45c-10 0 -20 10 -20 20v90c0 35 20 55 55 55c50 0 75 -50 95 -50c10 0 15 5 15 15v15c0 10 10 20 20 20h45c10 0 20 -10 20 -20v-90c0 -35 -20 -55 -55 -55z" />
    <glyph glyph-name="racute" unicode="&#x155;" horiz-adv-x="345" 
d="M335 495v-80c0 -15 -10 -25 -25 -25h-65c-35 0 -55 -20 -55 -55v-310c0 -15 -10 -25 -25 -25h-80c-15 0 -25 10 -25 25v460c0 15 10 25 25 25h80c15 0 25 -10 25 -25v-15h10s15 50 85 50h25c15 0 25 -10 25 -25zM325 735l-75 -130c-9 -15 -20 -25 -35 -25h-50
c-13 0 -20 10 -15 25l45 130c5 15 15 25 35 25h80c15 0 24 -10 15 -25z" />
    <glyph glyph-name="rcaron" unicode="&#x159;" horiz-adv-x="343" 
d="M333 495v-80c0 -15 -10 -25 -25 -25h-65c-35 0 -55 -20 -55 -55v-310c0 -15 -10 -25 -25 -25h-80c-15 0 -25 10 -25 25v460c0 15 10 25 25 25h80c15 0 25 -10 25 -25v-15h10s15 50 85 50h25c15 0 25 -10 25 -25zM229 580h-65c-20 0 -31 10 -40 25l-80 130
c-9 15 0 25 15 25h60c20 0 32 -10 40 -25l35 -65h5l35 65c8 15 20 25 40 25h60c15 0 24 -10 15 -25l-80 -130c-9 -15 -20 -25 -40 -25z" />
    <glyph glyph-name="rcommaaccent" unicode="&#x157;" horiz-adv-x="345" 
d="M335 495v-80c0 -15 -10 -25 -25 -25h-65c-35 0 -55 -20 -55 -55v-310c0 -15 -10 -25 -25 -25h-80c-15 0 -25 10 -25 25v460c0 15 10 25 25 25h80c15 0 25 -10 25 -25v-15h10s15 50 85 50h25c15 0 25 -10 25 -25zM188 -105v-70c0 -35 -5 -40 -15 -60l-30 -60
c-5 -10 -15 -20 -30 -20h-20c-15 0 -20 7 -15 20l35 85h-25c-15 0 -25 10 -25 25v80c0 15 10 25 25 25h75c15 0 25 -10 25 -25z" />
    <glyph glyph-name="sacute" unicode="&#x15b;" horiz-adv-x="470" 
d="M175 520h120c80 0 130 -50 130 -130v-30c0 -15 -10 -25 -25 -25h-80c-15 0 -25 10 -25 25v5c0 25 -10 35 -35 35h-50c-25 0 -35 -10 -35 -35v-5c0 -15 10 -24 40 -35l130 -50c65 -25 90 -50 90 -125v-30c0 -80 -50 -130 -130 -130h-140c-80 0 -130 50 -130 130v35
c0 15 10 25 25 25h80c15 0 25 -10 25 -25v-10c0 -25 10 -35 35 -35h70c25 0 35 10 35 35v5c0 15 -10 24 -40 35l-130 50c-65 25 -90 50 -90 125v30c0 80 50 130 130 130zM360 735l-75 -130c-9 -15 -20 -25 -35 -25h-50c-13 0 -20 10 -15 25l45 130c5 15 15 25 35 25h80
c15 0 24 -10 15 -25z" />
    <glyph glyph-name="scaron" unicode="&#x161;" horiz-adv-x="470" 
d="M175 520h120c80 0 130 -50 130 -130v-30c0 -15 -10 -25 -25 -25h-80c-15 0 -25 10 -25 25v5c0 25 -10 35 -35 35h-50c-25 0 -35 -10 -35 -35v-5c0 -15 10 -24 40 -35l130 -50c65 -25 90 -50 90 -125v-30c0 -80 -50 -130 -130 -130h-140c-80 0 -130 50 -130 130v35
c0 15 10 25 25 25h80c15 0 25 -10 25 -25v-10c0 -25 10 -35 35 -35h70c25 0 35 10 35 35v5c0 15 -10 24 -40 35l-130 50c-65 25 -90 50 -90 125v30c0 80 50 130 130 130zM268 580h-65c-20 0 -31 10 -40 25l-80 130c-9 15 0 25 15 25h60c20 0 32 -10 40 -25l35 -65h5l35 65
c8 15 20 25 40 25h60c15 0 24 -10 15 -25l-80 -130c-9 -15 -20 -25 -40 -25z" />
    <glyph glyph-name="scommaaccent" unicode="&#x219;" horiz-adv-x="470" 
d="M175 520h120c80 0 130 -50 130 -130v-30c0 -15 -10 -25 -25 -25h-80c-15 0 -25 10 -25 25v5c0 25 -10 35 -35 35h-50c-25 0 -35 -10 -35 -35v-5c0 -15 10 -24 40 -35l130 -50c65 -25 90 -50 90 -125v-30c0 -80 -50 -130 -130 -130h-140c-80 0 -130 50 -130 130v35
c0 15 10 25 25 25h80c15 0 25 -10 25 -25v-10c0 -25 10 -35 35 -35h70c25 0 35 10 35 35v5c0 15 -10 24 -40 35l-130 50c-65 25 -90 50 -90 125v30c0 80 50 130 130 130zM298 -105v-70c0 -35 -5 -40 -15 -60l-30 -60c-5 -10 -15 -20 -30 -20h-20c-15 0 -20 7 -15 20l35 85
h-25c-15 0 -25 10 -25 25v80c0 15 10 25 25 25h75c15 0 25 -10 25 -25z" />
    <glyph glyph-name="tcaron" unicode="&#x165;" horiz-adv-x="430" 
d="M225 510h60c15 0 25 -10 25 -25v-70c0 -15 -10 -25 -25 -25h-60v-225c0 -30 15 -45 45 -45h30c15 0 25 -10 25 -25v-70c0 -15 -10 -25 -25 -25h-75c-80 0 -130 50 -130 130v260h-40c-15 0 -25 10 -25 25v70c0 15 10 25 25 25h40v95c0 15 10 25 25 25h80
c15 0 25 -10 25 -25v-95zM470 675v-70c0 -35 -5 -40 -15 -60l-30 -60c-5 -10 -15 -20 -30 -20h-20c-15 0 -20 7 -15 20l35 85h-25c-15 0 -25 10 -25 25v80c0 15 10 25 25 25h75c15 0 25 -10 25 -25z" />
    <glyph glyph-name="tcommaaccent" unicode="&#x163;" horiz-adv-x="355" 
d="M225 510h60c15 0 25 -10 25 -25v-70c0 -15 -10 -25 -25 -25h-60v-225c0 -30 15 -45 45 -45h30c15 0 25 -10 25 -25v-70c0 -15 -10 -25 -25 -25h-75c-80 0 -130 50 -130 130v260h-40c-15 0 -25 10 -25 25v70c0 15 10 25 25 25h40v95c0 15 10 25 25 25h80
c15 0 25 -10 25 -25v-95zM270 -115v-70c0 -35 -5 -40 -15 -60l-30 -60c-5 -10 -15 -20 -30 -20h-20c-15 0 -20 7 -15 20l35 85h-25c-15 0 -25 10 -25 25v80c0 15 10 25 25 25h75c15 0 25 -10 25 -25z" />
    <glyph glyph-name="yacute" unicode="&#xfd;" horiz-adv-x="439" 
d="M232 205l70 280c4 15 15 25 35 25h85c13 0 20 -10 15 -25l-155 -515c-33 -110 -85 -160 -185 -160h-20c-15 0 -25 10 -25 25v70c0 15 10 25 25 25h20c35 0 55 20 65 65l-160 490c-5 15 5 25 15 25h85c20 0 30 -10 35 -25l85 -280h10zM355 735l-75 -130
c-9 -15 -20 -25 -35 -25h-50c-13 0 -20 10 -15 25l45 130c5 15 15 25 35 25h80c15 0 24 -10 15 -25z" />
    <glyph glyph-name="ydieresis" unicode="&#xff;" horiz-adv-x="439" 
d="M232 205l70 280c4 15 15 25 35 25h85c13 0 20 -10 15 -25l-155 -515c-33 -110 -85 -160 -185 -160h-20c-15 0 -25 10 -25 25v70c0 15 10 25 25 25h20c35 0 55 20 65 65l-160 490c-5 15 5 25 15 25h85c20 0 30 -10 35 -25l85 -280h10zM94 740h70c15 0 25 -10 25 -25v-80
c0 -15 -10 -25 -25 -25h-70c-15 0 -25 10 -25 25v80c0 15 10 25 25 25zM274 740h70c15 0 25 -10 25 -25v-80c0 -15 -10 -25 -25 -25h-70c-15 0 -25 10 -25 25v80c0 15 10 25 25 25z" />
    <glyph glyph-name="Ugrave" unicode="&#xd9;" horiz-adv-x="685" 
d="M75 145v530c0 15 10 25 25 25h100c15 0 25 -10 25 -25v-500c0 -30 20 -50 50 -50h135c30 0 50 20 50 50v500c0 15 10 25 25 25h100c15 0 25 -10 25 -25v-530c0 -105 -50 -155 -155 -155h-225c-105 0 -155 50 -155 155zM290 795l-75 130c-9 15 0 25 15 25h80
c20 0 30 -10 35 -25l45 -130c5 -15 -2 -25 -15 -25h-50c-15 0 -26 10 -35 25z" />
    <glyph glyph-name="Uacute" unicode="&#xda;" horiz-adv-x="685" 
d="M75 145v530c0 15 10 25 25 25h100c15 0 25 -10 25 -25v-500c0 -30 20 -50 50 -50h135c30 0 50 20 50 50v500c0 15 10 25 25 25h100c15 0 25 -10 25 -25v-530c0 -105 -50 -155 -155 -155h-225c-105 0 -155 50 -155 155zM470 925l-75 -130c-9 -15 -20 -25 -35 -25h-50
c-13 0 -20 10 -15 25l45 130c5 15 15 25 35 25h80c15 0 24 -10 15 -25z" />
    <glyph glyph-name="Ucircumflex" unicode="&#xdb;" horiz-adv-x="685" 
d="M75 145v530c0 15 10 25 25 25h100c15 0 25 -10 25 -25v-500c0 -30 20 -50 50 -50h135c30 0 50 20 50 50v500c0 15 10 25 25 25h100c15 0 25 -10 25 -25v-530c0 -105 -50 -155 -155 -155h-225c-105 0 -155 50 -155 155zM310 960h65c20 0 31 -10 40 -25l80 -130
c9 -15 0 -25 -15 -25h-60c-20 0 -32 10 -40 25l-35 65h-5l-35 -65c-8 -15 -20 -25 -40 -25h-60c-15 0 -24 10 -15 25l80 130c9 15 20 25 40 25z" />
    <glyph glyph-name="Udieresis" unicode="&#xdc;" horiz-adv-x="685" 
d="M75 145v530c0 15 10 25 25 25h100c15 0 25 -10 25 -25v-500c0 -30 20 -50 50 -50h135c30 0 50 20 50 50v500c0 15 10 25 25 25h100c15 0 25 -10 25 -25v-530c0 -105 -50 -155 -155 -155h-225c-105 0 -155 50 -155 155zM217 930h70c15 0 25 -10 25 -25v-80
c0 -15 -10 -25 -25 -25h-70c-15 0 -25 10 -25 25v80c0 15 10 25 25 25zM397 930h70c15 0 25 -10 25 -25v-80c0 -15 -10 -25 -25 -25h-70c-15 0 -25 10 -25 25v80c0 15 10 25 25 25z" />
    <glyph glyph-name="Uhungarumlaut" unicode="&#x170;" horiz-adv-x="685" 
d="M75 145v530c0 15 10 25 25 25h100c15 0 25 -10 25 -25v-500c0 -30 20 -50 50 -50h135c30 0 50 20 50 50v500c0 15 10 25 25 25h100c15 0 25 -10 25 -25v-530c0 -105 -50 -155 -155 -155h-225c-105 0 -155 50 -155 155zM385 925l-75 -130c-8 -15 -20 -25 -35 -25h-30
c-10 0 -20 10 -15 25l40 130c5 15 15 25 35 25h65c15 0 24 -10 15 -25zM540 925l-75 -130c-8 -15 -20 -25 -35 -25h-30c-10 0 -20 10 -15 25l40 130c5 15 15 25 35 25h65c15 0 24 -10 15 -25z" />
    <glyph glyph-name="Umacron" unicode="&#x16a;" horiz-adv-x="685" 
d="M75 145v530c0 15 10 25 25 25h100c15 0 25 -10 25 -25v-500c0 -30 20 -50 50 -50h135c30 0 50 20 50 50v500c0 15 10 25 25 25h100c15 0 25 -10 25 -25v-530c0 -105 -50 -155 -155 -155h-225c-105 0 -155 50 -155 155zM447 810h-210c-15 0 -25 10 -25 25v55
c0 15 10 25 25 25h210c15 0 25 -10 25 -25v-55c0 -15 -10 -25 -25 -25z" />
    <glyph glyph-name="Uring" unicode="&#x16e;" horiz-adv-x="685" 
d="M75 145v530c0 15 10 25 25 25h100c15 0 25 -10 25 -25v-500c0 -30 20 -50 50 -50h135c30 0 50 20 50 50v500c0 15 10 25 25 25h100c15 0 25 -10 25 -25v-530c0 -105 -50 -155 -155 -155h-225c-105 0 -155 50 -155 155zM445 900v-50c0 -60 -27 -90 -90 -90h-25
c-63 0 -90 30 -90 90v50c0 60 30 90 90 90h25c60 0 90 -30 90 -90zM375 860v30c0 20 -10 30 -30 30h-5c-20 0 -30 -10 -30 -30v-30c0 -20 10 -30 27 -30h10c18 0 28 10 28 30z" />
    <glyph glyph-name="Zacute" unicode="&#x179;" horiz-adv-x="565" 
d="M350 555v10h-285c-15 0 -25 10 -25 25v85c0 15 10 25 25 25h440c15 0 25 -10 25 -25v-85c0 -40 -8 -50 -20 -65l-300 -380v-10h300c15 0 25 -10 25 -25v-85c0 -15 -10 -25 -25 -25h-455c-15 0 -25 10 -25 25v85c0 40 8 50 20 65zM420 925l-75 -130
c-9 -15 -20 -25 -35 -25h-50c-13 0 -20 10 -15 25l45 130c5 15 15 25 35 25h80c15 0 24 -10 15 -25z" />
    <glyph glyph-name="Zcaron" unicode="&#x17d;" horiz-adv-x="565" 
d="M350 555v10h-285c-15 0 -25 10 -25 25v85c0 15 10 25 25 25h440c15 0 25 -10 25 -25v-85c0 -40 -8 -50 -20 -65l-300 -380v-10h300c15 0 25 -10 25 -25v-85c0 -15 -10 -25 -25 -25h-455c-15 0 -25 10 -25 25v85c0 40 8 50 20 65zM318 770h-65c-20 0 -31 10 -40 25
l-80 130c-9 15 0 25 15 25h60c20 0 32 -10 40 -25l35 -65h5l35 65c8 15 20 25 40 25h60c15 0 24 -10 15 -25l-80 -130c-9 -15 -20 -25 -40 -25z" />
    <glyph glyph-name="Zdotaccent" unicode="&#x17b;" horiz-adv-x="565" 
d="M350 555v10h-285c-15 0 -25 10 -25 25v85c0 15 10 25 25 25h440c15 0 25 -10 25 -25v-85c0 -40 -8 -50 -20 -65l-300 -380v-10h300c15 0 25 -10 25 -25v-85c0 -15 -10 -25 -25 -25h-455c-15 0 -25 10 -25 25v85c0 40 8 50 20 65zM245 930h80c15 0 25 -10 25 -25v-80
c0 -15 -10 -25 -25 -25h-80c-15 0 -25 10 -25 25v80c0 15 10 25 25 25z" />
    <glyph glyph-name="ugrave" unicode="&#xf9;" 
d="M240 -10h-50c-80 0 -130 50 -130 130v365c0 15 10 25 25 25h80c15 0 25 -10 25 -25v-330c0 -30 15 -45 45 -45h45c35 0 55 20 55 55v320c0 15 10 25 25 25h80c15 0 25 -10 25 -25v-460c0 -15 -10 -25 -25 -25h-80c-15 0 -25 10 -25 25v15h-10s-15 -50 -85 -50zM210 595
l-75 130c-9 15 0 25 15 25h80c20 0 30 -10 35 -25l45 -130c5 -15 -2 -25 -15 -25h-50c-15 0 -26 10 -35 25z" />
    <glyph glyph-name="uacute" unicode="&#xfa;" 
d="M240 -10h-50c-80 0 -130 50 -130 130v365c0 15 10 25 25 25h80c15 0 25 -10 25 -25v-330c0 -30 15 -45 45 -45h45c35 0 55 20 55 55v320c0 15 10 25 25 25h80c15 0 25 -10 25 -25v-460c0 -15 -10 -25 -25 -25h-80c-15 0 -25 10 -25 25v15h-10s-15 -50 -85 -50zM390 725
l-75 -130c-9 -15 -20 -25 -35 -25h-50c-13 0 -20 10 -15 25l45 130c5 15 15 25 35 25h80c15 0 24 -10 15 -25z" />
    <glyph glyph-name="ucircumflex" unicode="&#xfb;" 
d="M240 -10h-50c-80 0 -130 50 -130 130v365c0 15 10 25 25 25h80c15 0 25 -10 25 -25v-330c0 -30 15 -45 45 -45h45c35 0 55 20 55 55v320c0 15 10 25 25 25h80c15 0 25 -10 25 -25v-460c0 -15 -10 -25 -25 -25h-80c-15 0 -25 10 -25 25v15h-10s-15 -50 -85 -50zM230 750
h65c20 0 31 -10 40 -25l80 -130c9 -15 0 -25 -15 -25h-60c-20 0 -32 10 -40 25l-35 65h-5l-35 -65c-8 -15 -20 -25 -40 -25h-60c-15 0 -24 10 -15 25l80 130c9 15 20 25 40 25z" />
    <glyph glyph-name="udieresis" unicode="&#xfc;" 
d="M240 -10h-50c-80 0 -130 50 -130 130v365c0 15 10 25 25 25h80c15 0 25 -10 25 -25v-330c0 -30 15 -45 45 -45h45c35 0 55 20 55 55v320c0 15 10 25 25 25h80c15 0 25 -10 25 -25v-460c0 -15 -10 -25 -25 -25h-80c-15 0 -25 10 -25 25v15h-10s-15 -50 -85 -50zM137 730
h70c15 0 25 -10 25 -25v-80c0 -15 -10 -25 -25 -25h-70c-15 0 -25 10 -25 25v80c0 15 10 25 25 25zM317 730h70c15 0 25 -10 25 -25v-80c0 -15 -10 -25 -25 -25h-70c-15 0 -25 10 -25 25v80c0 15 10 25 25 25z" />
    <glyph glyph-name="uhungarumlaut" unicode="&#x171;" 
d="M240 -10h-50c-80 0 -130 50 -130 130v365c0 15 10 25 25 25h80c15 0 25 -10 25 -25v-330c0 -30 15 -45 45 -45h45c35 0 55 20 55 55v320c0 15 10 25 25 25h80c15 0 25 -10 25 -25v-460c0 -15 -10 -25 -25 -25h-80c-15 0 -25 10 -25 25v15h-10s-15 -50 -85 -50zM305 725
l-75 -130c-8 -15 -20 -25 -35 -25h-30c-10 0 -20 10 -15 25l40 130c5 15 15 25 35 25h65c15 0 24 -10 15 -25zM460 725l-75 -130c-8 -15 -20 -25 -35 -25h-30c-10 0 -20 10 -15 25l40 130c5 15 15 25 35 25h65c15 0 24 -10 15 -25z" />
    <glyph glyph-name="umacron" unicode="&#x16b;" 
d="M240 -10h-50c-80 0 -130 50 -130 130v365c0 15 10 25 25 25h80c15 0 25 -10 25 -25v-330c0 -30 15 -45 45 -45h45c35 0 55 20 55 55v320c0 15 10 25 25 25h80c15 0 25 -10 25 -25v-460c0 -15 -10 -25 -25 -25h-80c-15 0 -25 10 -25 25v15h-10s-15 -50 -85 -50zM367 610
h-210c-15 0 -25 10 -25 25v55c0 15 10 25 25 25h210c15 0 25 -10 25 -25v-55c0 -15 -10 -25 -25 -25z" />
    <glyph glyph-name="uring" unicode="&#x16f;" 
d="M240 -10h-50c-80 0 -130 50 -130 130v365c0 15 10 25 25 25h80c15 0 25 -10 25 -25v-330c0 -30 15 -45 45 -45h45c35 0 55 20 55 55v320c0 15 10 25 25 25h80c15 0 25 -10 25 -25v-460c0 -15 -10 -25 -25 -25h-80c-15 0 -25 10 -25 25v15h-10s-15 -50 -85 -50zM365 710
v-50c0 -60 -27 -90 -90 -90h-25c-63 0 -90 30 -90 90v50c0 60 30 90 90 90h25c60 0 90 -30 90 -90zM295 670v30c0 20 -10 30 -30 30h-5c-20 0 -30 -10 -30 -30v-30c0 -20 10 -30 27 -30h10c18 0 28 10 28 30z" />
    <glyph glyph-name="zacute" unicode="&#x17a;" horiz-adv-x="430" 
d="M240 380v10h-180c-15 0 -25 10 -25 25v70c0 15 10 25 25 25h315c15 0 25 -10 25 -25v-75c0 -40 -11 -50 -20 -60l-195 -220v-10h195c15 0 25 -10 25 -25v-70c0 -15 -10 -25 -25 -25h-330c-15 0 -25 10 -25 25v75c0 40 11 50 20 60zM355 725l-75 -130
c-9 -15 -20 -25 -35 -25h-50c-13 0 -20 10 -15 25l45 130c5 15 15 25 35 25h80c15 0 24 -10 15 -25z" />
    <glyph glyph-name="zcaron" unicode="&#x17e;" horiz-adv-x="430" 
d="M240 380v10h-180c-15 0 -25 10 -25 25v70c0 15 10 25 25 25h315c15 0 25 -10 25 -25v-75c0 -40 -11 -50 -20 -60l-195 -220v-10h195c15 0 25 -10 25 -25v-70c0 -15 -10 -25 -25 -25h-330c-15 0 -25 10 -25 25v75c0 40 11 50 20 60zM253 570h-65c-20 0 -31 10 -40 25
l-80 130c-9 15 0 25 15 25h60c20 0 32 -10 40 -25l35 -65h5l35 65c8 15 20 25 40 25h60c15 0 24 -10 15 -25l-80 -130c-9 -15 -20 -25 -40 -25z" />
    <glyph glyph-name="zdotaccent" unicode="&#x17c;" horiz-adv-x="430" 
d="M240 380v10h-180c-15 0 -25 10 -25 25v70c0 15 10 25 25 25h315c15 0 25 -10 25 -25v-75c0 -40 -11 -50 -20 -60l-195 -220v-10h195c15 0 25 -10 25 -25v-70c0 -15 -10 -25 -25 -25h-330c-15 0 -25 10 -25 25v75c0 40 11 50 20 60zM180 730h80c15 0 25 -10 25 -25v-80
c0 -15 -10 -25 -25 -25h-80c-15 0 -25 10 -25 25v80c0 15 10 25 25 25z" />
    <glyph glyph-name="space" unicode=" " horiz-adv-x="200" 
 />
    <glyph glyph-name="zero.tab" horiz-adv-x="665" 
d="M590 555v-410c0 -105 -50 -155 -155 -155h-200c-105 0 -155 50 -155 155v410c0 105 50 155 155 155h200c105 0 155 -50 155 -155zM440 175v350c0 30 -20 50 -50 50h-110c-30 0 -50 -20 -50 -50v-350c0 -30 20 -50 50 -50h110c30 0 50 20 50 50z" />
    <glyph glyph-name="one.tab" horiz-adv-x="665" 
d="M405 675v-540h120c15 0 25 -10 25 -25v-85c0 -15 -10 -25 -25 -25h-390c-15 0 -25 10 -25 25v85c0 15 10 25 25 25h120v430h-95c-15 0 -25 10 -25 25v85c0 15 10 25 25 25h220c15 0 25 -10 25 -25z" />
    <glyph glyph-name="two.tab" horiz-adv-x="665" 
d="M130 170l255 255c25 25 35 35 35 70v30c0 30 -20 50 -50 50h-70c-30 0 -50 -20 -50 -50v-35c0 -15 -10 -25 -25 -25h-100c-15 0 -25 10 -25 25v65c0 105 50 155 155 155h160c105 0 155 -50 155 -155v-80c0 -65 -35 -100 -70 -135l-195 -195v-10h240c15 0 25 -10 25 -25
v-85c0 -15 -10 -25 -25 -25h-425c-15 0 -25 10 -25 25v70c0 40 10 50 35 75z" />
    <glyph glyph-name="three.tab" horiz-adv-x="665" 
d="M230 330v42c0 30 10 43 20 53l125 130v10h-240c-15 0 -25 10 -25 25v85c0 15 10 25 25 25h405c15 0 25 -10 25 -25v-60c0 -30 -10 -40 -25 -55l-125 -130v-10c110 0 160 -50 160 -155v-120c0 -105 -50 -155 -155 -155h-175c-112 0 -155 50 -155 155v60c0 15 10 25 25 25
h100c15 0 25 -10 25 -25v-30c0 -30 20 -50 50 -50h85c30 0 50 20 50 50v80c0 30 -20 50 -50 50h-120c-15 0 -25 10 -25 25z" />
    <glyph glyph-name="four.tab" horiz-adv-x="665" 
d="M595 265v-85c0 -15 -10 -25 -25 -25h-40v-130c0 -15 -10 -25 -25 -25h-100c-15 0 -25 10 -25 25v130h-285c-15 0 -25 10 -25 25v70c0 25 4 30 20 55l235 370c10 15 18 25 50 25h130c15 0 25 -10 25 -25v-385h40c15 0 25 -10 25 -25zM370 520l-140 -220v-10h150v230h-10z
" />
    <glyph glyph-name="five.tab" horiz-adv-x="665" 
d="M265 565v-125h150c105 0 155 -50 155 -155v-140c0 -105 -50 -155 -155 -155h-170c-105 0 -155 50 -155 155v55c0 15 10 25 25 25h100c15 0 25 -10 25 -25v-25c0 -30 20 -50 50 -50h80c30 0 50 20 50 50v80c0 30 -20 50 -50 50h-230c-15 0 -25 10 -25 25v345
c0 15 10 25 25 25h380c15 0 25 -10 25 -25v-85c0 -15 -10 -25 -25 -25h-255z" />
    <glyph glyph-name="six.tab" horiz-adv-x="665" 
d="M560 555v-50c0 -15 -10 -25 -25 -25h-100c-15 0 -25 10 -25 25v20c0 30 -20 50 -50 50h-65c-30 0 -50 -20 -50 -50v-100h170c105 0 155 -50 155 -155v-125c0 -105 -50 -155 -155 -155h-165c-105 0 -155 50 -155 155v410c0 105 50 155 155 155h155c105 0 155 -50 155 -155
zM295 125h75c30 0 50 20 50 50v65c0 30 -20 50 -50 50h-125v-115c0 -30 20 -50 50 -50z" />
    <glyph glyph-name="seven.tab" horiz-adv-x="665" 
d="M560 675v-50c0 -55 -9 -65 -15 -80l-195 -520c-6 -15 -15 -25 -30 -25h-110c-10 0 -21 10 -15 25l200 530v10h-270c-15 0 -25 10 -25 25v85c0 15 10 25 25 25h410c15 0 25 -10 25 -25z" />
    <glyph glyph-name="eight.tab" horiz-adv-x="665" 
d="M570 555v-85c0 -90 -80 -100 -80 -100v-10s90 -10 90 -120v-95c0 -105 -50 -155 -155 -155h-185c-105 0 -155 50 -155 155v95c0 110 90 120 90 120v10s-80 10 -80 100v85c0 105 50 155 155 155h165c105 0 155 -50 155 -155zM380 290h-95c-30 0 -50 -20 -50 -50v-65
c0 -30 20 -50 50 -50h95c30 0 50 20 50 50v65c0 30 -20 50 -50 50zM370 575h-75c-30 0 -50 -20 -50 -50v-55c0 -30 20 -50 50 -50h75c30 0 50 20 50 50v55c0 30 -20 50 -50 50z" />
    <glyph glyph-name="nine.tab" horiz-adv-x="665" 
d="M105 145v50c0 15 10 25 25 25h100c15 0 25 -10 25 -25v-20c0 -30 20 -50 50 -50h65c30 0 50 20 50 50v100h-170c-105 0 -155 50 -155 155v125c0 105 50 155 155 155h165c105 0 155 -50 155 -155v-410c0 -105 -50 -155 -155 -155h-155c-105 0 -155 50 -155 155zM370 575
h-75c-30 0 -50 -20 -50 -50v-65c0 -30 20 -50 50 -50h125v115c0 30 -20 50 -50 50z" />
    <glyph glyph-name="fivesuperior" unicode="&#x2075;" horiz-adv-x="315" 
d="M145 685h45c75 0 100 -25 100 -100v-25c0 -75 -25 -100 -100 -100h-55c-75 0 -100 25 -100 100c0 15 5 20 20 20h65c20 0 0 -30 40 -30h5c15 0 25 10 25 25v10c0 15 -10 25 -25 25h-100c-15 0 -20 5 -20 20v150c0 15 5 20 20 20h195c15 0 20 -5 20 -20v-45
c0 -15 -5 -20 -20 -20h-115v-30z" />
    <glyph glyph-name="sixsuperior" unicode="&#x2076;" horiz-adv-x="315" 
d="M35 560v140c0 75 25 100 100 100h50c75 0 100 -25 100 -95c0 -15 -5 -20 -20 -20h-65c-25 0 -5 35 -40 35c-15 0 -25 -10 -25 -25v-25h55c75 0 100 -25 100 -100v-10c0 -75 -25 -100 -100 -100h-55c-75 0 -100 25 -100 100zM135 600v-35c0 -15 10 -25 25 -25h5
c15 0 25 10 25 25v10c0 15 -10 25 -25 25h-30z" />
    <glyph glyph-name="sevensuperior" unicode="&#x2077;" horiz-adv-x="255" 
d="M148 705h-113c-15 0 -20 5 -20 20v55c0 15 5 20 20 20h200c15 0 20 -5 20 -20v-45c0 -25 -6 -29 -15 -55l-70 -200c-5 -16 -10 -20 -25 -20h-70c-15 0 -21 5 -15 20z" />
    <glyph glyph-name="eightsuperior" unicode="&#x2078;" horiz-adv-x="320" 
d="M135 800h50c75 0 100 -25 100 -100c0 -45 -35 -60 -35 -60s45 -10 45 -65v-15c0 -75 -25 -100 -100 -100h-70c-75 0 -100 25 -100 100v15c0 55 45 65 45 65s-35 15 -35 60c0 75 25 100 100 100zM170 600h-20c-15 0 -25 -10 -25 -25v-15c0 -15 10 -25 25 -25h20
c15 0 25 10 25 25v15c0 15 -10 25 -25 25zM155 665h10c15 0 25 10 25 25v10c0 15 -10 25 -25 25h-10c-15 0 -25 -10 -25 -25v-10c0 -15 10 -25 25 -25z" />
    <glyph glyph-name="ninesuperior" unicode="&#x2079;" horiz-adv-x="315" 
d="M280 700v-140c0 -75 -25 -100 -100 -100h-50c-75 0 -100 25 -100 95c0 15 5 20 20 20h65c25 0 5 -35 40 -35c15 0 25 10 25 25v25h-55c-75 0 -100 25 -100 100v10c0 75 25 100 100 100h55c75 0 100 -25 100 -100zM180 660v35c0 15 -10 25 -25 25h-5
c-15 0 -25 -10 -25 -25v-10c0 -15 10 -25 25 -25h30z" />
    <glyph glyph-name="zerosuperior" unicode="&#x2070;" horiz-adv-x="330" 
d="M30 570v120c0 80 30 110 110 110h50c80 0 110 -30 110 -110v-120c0 -80 -30 -110 -110 -110h-50c-80 0 -110 30 -110 110zM130 670v-80c0 -25 10 -35 35 -35s35 10 35 35v80c0 25 -10 35 -35 35s-35 -10 -35 -35z" />
    <glyph glyph-name=".null" horiz-adv-x="0" 
 />
    <glyph glyph-name=".null" horiz-adv-x="0" 
 />
    <glyph glyph-name="zeroinferior" unicode="&#x2080;" horiz-adv-x="330" 
d="M30 10v120c0 80 30 110 110 110h50c80 0 110 -30 110 -110v-120c0 -80 -30 -110 -110 -110h-50c-80 0 -110 30 -110 110zM130 110v-80c0 -25 10 -35 35 -35s35 10 35 35v80c0 25 -10 35 -35 35s-35 -10 -35 -35z" />
    <glyph glyph-name="oneinferior" unicode="&#x2081;" horiz-adv-x="245" 
d="M100 145h-50c-15 0 -20 5 -20 20v55c0 15 5 20 20 20h135c15 0 20 -5 20 -20v-300c0 -15 -5 -20 -20 -20h-65c-15 0 -20 5 -20 20v225z" />
    <glyph glyph-name="twoinferior" unicode="&#x2082;" horiz-adv-x="300" 
d="M275 140v-20c0 -45 -25 -69 -50 -85l-70 -45v-5h100c15 0 20 -5 20 -20v-45c0 -15 -5 -20 -20 -20h-210c-15 0 -20 5 -20 20v55c0 25 5 30 20 40l110 75c9 6 20 15 20 35c0 15 -10 25 -25 25c-35 0 -15 -30 -40 -30h-65c-15 0 -20 5 -20 20c0 75 25 100 100 100h50
c75 0 100 -25 100 -100z" />
    <glyph glyph-name="threeinferior" unicode="&#x2083;" horiz-adv-x="310" 
d="M280 20v-20c0 -75 -25 -100 -100 -100h-55c-75 0 -100 25 -100 100c0 15 5 20 20 20h65c20 0 0 -30 40 -30h5c15 0 25 10 25 25s-10 25 -25 25h-40c-15 0 -20 5 -20 20v30c0 15 5 21 18 30l47 30v5h-105c-15 0 -20 5 -20 20v45c0 15 5 20 20 20h195c15 0 20 -5 20 -20
v-45c0 -25 -5 -30 -20 -40l-45 -30v-5s75 -5 75 -80z" />
    <glyph glyph-name="fourinferior" unicode="&#x2084;" horiz-adv-x="295" 
d="M245 220v-160h10c15 0 20 -5 20 -20v-45c0 -15 -5 -20 -20 -20h-10v-55c0 -15 -5 -20 -20 -20h-60c-15 0 -20 5 -20 20v55h-115c-15 0 -20 5 -20 20v40c0 25 5 28 15 45l80 140c6 10 15 20 40 20h80c15 0 20 -5 20 -20zM100 60h45v80h-5l-40 -75v-5z" />
    <glyph glyph-name="fiveinferior" unicode="&#x2085;" horiz-adv-x="315" 
d="M145 125h45c75 0 100 -25 100 -100v-25c0 -75 -25 -100 -100 -100h-55c-75 0 -100 25 -100 100c0 15 5 20 20 20h65c20 0 0 -30 40 -30h5c15 0 25 10 25 25v10c0 15 -10 25 -25 25h-100c-15 0 -20 5 -20 20v150c0 15 5 20 20 20h195c15 0 20 -5 20 -20v-45
c0 -15 -5 -20 -20 -20h-115v-30z" />
    <glyph glyph-name="sixinferior" unicode="&#x2086;" horiz-adv-x="315" 
d="M35 0v140c0 75 25 100 100 100h50c75 0 100 -25 100 -95c0 -15 -5 -20 -20 -20h-65c-25 0 -5 35 -40 35c-15 0 -25 -10 -25 -25v-25h55c75 0 100 -25 100 -100v-10c0 -75 -25 -100 -100 -100h-55c-75 0 -100 25 -100 100zM135 40v-35c0 -15 10 -25 25 -25h5
c15 0 25 10 25 25v10c0 15 -10 25 -25 25h-30z" />
    <glyph glyph-name="seveninferior" unicode="&#x2087;" horiz-adv-x="255" 
d="M148 145h-113c-15 0 -20 5 -20 20v55c0 15 5 20 20 20h200c15 0 20 -5 20 -20v-45c0 -25 -6 -29 -15 -55l-70 -200c-5 -16 -10 -20 -25 -20h-70c-15 0 -21 5 -15 20z" />
    <glyph glyph-name="eightinferior" unicode="&#x2088;" horiz-adv-x="320" 
d="M135 240h50c75 0 100 -25 100 -100c0 -45 -35 -60 -35 -60s45 -10 45 -65v-15c0 -75 -25 -100 -100 -100h-70c-75 0 -100 25 -100 100v15c0 55 45 65 45 65s-35 15 -35 60c0 75 25 100 100 100zM170 40h-20c-15 0 -25 -10 -25 -25v-15c0 -15 10 -25 25 -25h20
c15 0 25 10 25 25v15c0 15 -10 25 -25 25zM155 105h10c15 0 25 10 25 25v10c0 15 -10 25 -25 25h-10c-15 0 -25 -10 -25 -25v-10c0 -15 10 -25 25 -25z" />
    <glyph glyph-name="nineinferior" unicode="&#x2089;" horiz-adv-x="315" 
d="M280 140v-140c0 -75 -25 -100 -100 -100h-50c-75 0 -100 25 -100 95c0 15 5 20 20 20h65c25 0 5 -35 40 -35c15 0 25 10 25 25v25h-55c-75 0 -100 25 -100 100v10c0 75 25 100 100 100h55c75 0 100 -25 100 -100zM180 100v35c0 15 -10 25 -25 25h-5
c-15 0 -25 -10 -25 -25v-10c0 -15 10 -25 25 -25h30z" />
    <glyph glyph-name="zero.numr" unicode="&#xf64d;" horiz-adv-x="330" 
d="M30 470v120c0 80 30 110 110 110h50c80 0 110 -30 110 -110v-120c0 -80 -30 -110 -110 -110h-50c-80 0 -110 30 -110 110zM130 570v-80c0 -25 10 -35 35 -35s35 10 35 35v80c0 25 -10 35 -35 35s-35 -10 -35 -35z" />
    <glyph glyph-name="one.numr" unicode="&#xf64e;" horiz-adv-x="245" 
d="M100 605h-50c-15 0 -20 5 -20 20v55c0 15 5 20 20 20h135c15 0 20 -5 20 -20v-300c0 -15 -5 -20 -20 -20h-65c-15 0 -20 5 -20 20v225z" />
    <glyph glyph-name="two.numr" unicode="&#xf64f;" horiz-adv-x="300" 
d="M275 600v-20c0 -45 -25 -69 -50 -85l-70 -45v-5h100c15 0 20 -5 20 -20v-45c0 -15 -5 -20 -20 -20h-210c-15 0 -20 5 -20 20v55c0 25 5 30 20 40l110 75c9 6 20 15 20 35c0 15 -10 25 -25 25c-35 0 -15 -30 -40 -30h-65c-15 0 -20 5 -20 20c0 75 25 100 100 100h50
c75 0 100 -25 100 -100z" />
    <glyph glyph-name="three.numr" unicode="&#xf650;" horiz-adv-x="310" 
d="M280 480v-20c0 -75 -25 -100 -100 -100h-55c-75 0 -100 25 -100 100c0 15 5 20 20 20h65c20 0 0 -30 40 -30h5c15 0 25 10 25 25s-10 25 -25 25h-40c-15 0 -20 5 -20 20v30c0 15 5 21 18 30l47 30v5h-105c-15 0 -20 5 -20 20v45c0 15 5 20 20 20h195c15 0 20 -5 20 -20
v-45c0 -25 -5 -30 -20 -40l-45 -30v-5s75 -5 75 -80z" />
    <glyph glyph-name="four.numr" unicode="&#xf651;" horiz-adv-x="295" 
d="M245 680v-160h10c15 0 20 -5 20 -20v-45c0 -15 -5 -20 -20 -20h-10v-55c0 -15 -5 -20 -20 -20h-60c-15 0 -20 5 -20 20v55h-115c-15 0 -20 5 -20 20v40c0 25 5 28 15 45l80 140c6 10 15 20 40 20h80c15 0 20 -5 20 -20zM100 520h45v80h-5l-40 -75v-5z" />
    <glyph glyph-name="five.numr" unicode="&#xf652;" horiz-adv-x="315" 
d="M145 585h45c75 0 100 -25 100 -100v-25c0 -75 -25 -100 -100 -100h-55c-75 0 -100 25 -100 100c0 15 5 20 20 20h65c20 0 0 -30 40 -30h5c15 0 25 10 25 25v10c0 15 -10 25 -25 25h-100c-15 0 -20 5 -20 20v150c0 15 5 20 20 20h195c15 0 20 -5 20 -20v-45
c0 -15 -5 -20 -20 -20h-115v-30z" />
    <glyph glyph-name="six.numr" unicode="&#xf653;" horiz-adv-x="315" 
d="M35 460v140c0 75 25 100 100 100h50c75 0 100 -25 100 -95c0 -15 -5 -20 -20 -20h-65c-25 0 -5 35 -40 35c-15 0 -25 -10 -25 -25v-25h55c75 0 100 -25 100 -100v-10c0 -75 -25 -100 -100 -100h-55c-75 0 -100 25 -100 100zM135 500v-35c0 -15 10 -25 25 -25h5
c15 0 25 10 25 25v10c0 15 -10 25 -25 25h-30z" />
    <glyph glyph-name="seven.numr" unicode="&#xf654;" horiz-adv-x="255" 
d="M148 605h-113c-15 0 -20 5 -20 20v55c0 15 5 20 20 20h200c15 0 20 -5 20 -20v-45c0 -25 -6 -29 -15 -55l-70 -200c-5 -16 -10 -20 -25 -20h-70c-15 0 -21 5 -15 20z" />
    <glyph glyph-name="eight.numr" unicode="&#xf655;" horiz-adv-x="320" 
d="M135 700h50c75 0 100 -25 100 -100c0 -45 -35 -60 -35 -60s45 -10 45 -65v-15c0 -75 -25 -100 -100 -100h-70c-75 0 -100 25 -100 100v15c0 55 45 65 45 65s-35 15 -35 60c0 75 25 100 100 100zM170 500h-20c-15 0 -25 -10 -25 -25v-15c0 -15 10 -25 25 -25h20
c15 0 25 10 25 25v15c0 15 -10 25 -25 25zM155 565h10c15 0 25 10 25 25v10c0 15 -10 25 -25 25h-10c-15 0 -25 -10 -25 -25v-10c0 -15 10 -25 25 -25z" />
    <glyph glyph-name="nine.numr" unicode="&#xf656;" horiz-adv-x="315" 
d="M280 600v-140c0 -75 -25 -100 -100 -100h-50c-75 0 -100 25 -100 95c0 15 5 20 20 20h65c25 0 5 -35 40 -35c15 0 25 10 25 25v25h-55c-75 0 -100 25 -100 100v10c0 75 25 100 100 100h55c75 0 100 -25 100 -100zM180 560v35c0 15 -10 25 -25 25h-5
c-15 0 -25 -10 -25 -25v-10c0 -15 10 -25 25 -25h30z" />
    <glyph glyph-name="zero.dnom" unicode="&#xf643;" horiz-adv-x="330" 
d="M30 110v120c0 80 30 110 110 110h50c80 0 110 -30 110 -110v-120c0 -80 -30 -110 -110 -110h-50c-80 0 -110 30 -110 110zM130 210v-80c0 -25 10 -35 35 -35s35 10 35 35v80c0 25 -10 35 -35 35s-35 -10 -35 -35z" />
    <glyph glyph-name="one.dnom" unicode="&#xf644;" horiz-adv-x="247" 
d="M100 245h-50c-15 0 -20 5 -20 20v55c0 15 5 20 20 20h135c15 0 20 -5 20 -20v-300c0 -15 -5 -20 -20 -20h-65c-15 0 -20 5 -20 20v225z" />
    <glyph glyph-name="two.dnom" unicode="&#xf645;" horiz-adv-x="300" 
d="M275 240v-20c0 -45 -25 -69 -50 -85l-70 -45v-5h100c15 0 20 -5 20 -20v-45c0 -15 -5 -20 -20 -20h-210c-15 0 -20 5 -20 20v55c0 25 5 30 20 40l110 75c9 6 20 15 20 35c0 15 -10 25 -25 25c-35 0 -15 -30 -40 -30h-65c-15 0 -20 5 -20 20c0 75 25 100 100 100h50
c75 0 100 -25 100 -100z" />
    <glyph glyph-name="three.dnom" unicode="&#xf646;" horiz-adv-x="310" 
d="M280 120v-20c0 -75 -25 -100 -100 -100h-55c-75 0 -100 25 -100 100c0 15 5 20 20 20h65c20 0 0 -30 40 -30h5c15 0 25 10 25 25s-10 25 -25 25h-40c-15 0 -20 5 -20 20v30c0 15 5 21 18 30l47 30v5h-105c-15 0 -20 5 -20 20v45c0 15 5 20 20 20h195c15 0 20 -5 20 -20
v-45c0 -25 -5 -30 -20 -40l-45 -30v-5s75 -5 75 -80z" />
    <glyph glyph-name="four.dnom" unicode="&#xf647;" horiz-adv-x="295" 
d="M245 320v-160h10c15 0 20 -5 20 -20v-45c0 -15 -5 -20 -20 -20h-10v-55c0 -15 -5 -20 -20 -20h-60c-15 0 -20 5 -20 20v55h-115c-15 0 -20 5 -20 20v40c0 25 5 28 15 45l80 140c6 10 15 20 40 20h80c15 0 20 -5 20 -20zM100 160h45v80h-5l-40 -75v-5z" />
    <glyph glyph-name="five.dnom" unicode="&#xf648;" horiz-adv-x="315" 
d="M145 225h45c75 0 100 -25 100 -100v-25c0 -75 -25 -100 -100 -100h-55c-75 0 -100 25 -100 100c0 15 5 20 20 20h65c20 0 0 -30 40 -30h5c15 0 25 10 25 25v10c0 15 -10 25 -25 25h-100c-15 0 -20 5 -20 20v150c0 15 5 20 20 20h195c15 0 20 -5 20 -20v-45
c0 -15 -5 -20 -20 -20h-115v-30z" />
    <glyph glyph-name="six.dnom" unicode="&#xf649;" horiz-adv-x="315" 
d="M35 100v140c0 75 25 100 100 100h50c75 0 100 -25 100 -95c0 -15 -5 -20 -20 -20h-65c-25 0 -5 35 -40 35c-15 0 -25 -10 -25 -25v-25h55c75 0 100 -25 100 -100v-10c0 -75 -25 -100 -100 -100h-55c-75 0 -100 25 -100 100zM135 140v-35c0 -15 10 -25 25 -25h5
c15 0 25 10 25 25v10c0 15 -10 25 -25 25h-30z" />
    <glyph glyph-name="seven.dnom" unicode="&#xf64a;" horiz-adv-x="255" 
d="M148 245h-113c-15 0 -20 5 -20 20v55c0 15 5 20 20 20h200c15 0 20 -5 20 -20v-45c0 -25 -6 -29 -15 -55l-70 -200c-5 -16 -10 -20 -25 -20h-70c-15 0 -21 5 -15 20z" />
    <glyph glyph-name="eight.dnom" unicode="&#xf64b;" horiz-adv-x="320" 
d="M135 340h50c75 0 100 -25 100 -100c0 -45 -35 -60 -35 -60s45 -10 45 -65v-15c0 -75 -25 -100 -100 -100h-70c-75 0 -100 25 -100 100v15c0 55 45 65 45 65s-35 15 -35 60c0 75 25 100 100 100zM170 140h-20c-15 0 -25 -10 -25 -25v-15c0 -15 10 -25 25 -25h20
c15 0 25 10 25 25v15c0 15 -10 25 -25 25zM155 205h10c15 0 25 10 25 25v10c0 15 -10 25 -25 25h-10c-15 0 -25 -10 -25 -25v-10c0 -15 10 -25 25 -25z" />
    <glyph glyph-name="nine.dnom" unicode="&#xf64c;" horiz-adv-x="315" 
d="M280 240v-140c0 -75 -25 -100 -100 -100h-50c-75 0 -100 25 -100 95c0 15 5 20 20 20h65c25 0 5 -35 40 -35c15 0 25 10 25 25v25h-55c-75 0 -100 25 -100 100v10c0 75 25 100 100 100h55c75 0 100 -25 100 -100zM180 200v35c0 15 -10 25 -25 25h-5
c-15 0 -25 -10 -25 -25v-10c0 -15 10 -25 25 -25h30z" />
    <glyph glyph-name="at.cap" horiz-adv-x="895" 
d="M400 375v-130c0 -20 10 -30 30 -30h40c20 0 30 10 30 30v130c0 20 -10 30 -30 30h-40c-20 0 -30 -10 -30 -30zM675 105h-140c-15 0 -25 10 -25 25v5h-10s-5 -35 -60 -35h-50c-70 0 -110 40 -110 110v200c0 70 40 110 110 110h40c55 0 60 -35 60 -35h10v5
c0 15 10 25 25 25h70c15 0 25 -10 25 -25v-270h40c30 0 50 20 50 50v310c0 30 -20 50 -50 50h-415c-30 0 -50 -20 -50 -50v-540c0 -30 20 -50 50 -50h460c15 0 25 -10 25 -25v-65c0 -15 -10 -25 -25 -25h-475c-105 0 -155 50 -155 155v560c0 105 50 155 155 155h445
c105 0 155 -50 155 -155v-330c0 -105 -50 -155 -155 -155z" />
    <glyph glyph-name="parenleft.cap" horiz-adv-x="360" 
d="M75 55v550c0 115 60 175 175 175h55c15 0 25 -10 25 -25v-80c0 -15 -10 -25 -25 -25h-20c-40 0 -65 -25 -65 -65v-510c0 -40 25 -65 65 -65h20c15 0 25 -10 25 -25v-80c0 -15 -10 -25 -25 -25h-55c-115 0 -175 60 -175 175z" />
    <glyph glyph-name="parenright.cap" horiz-adv-x="360" 
d="M285 605v-550c0 -115 -60 -175 -175 -175h-55c-15 0 -25 10 -25 25v80c0 15 10 25 25 25h20c40 0 65 25 65 65v510c0 40 -25 65 -65 65h-20c-15 0 -25 10 -25 25v80c0 15 10 25 25 25h55c115 0 175 -60 175 -175z" />
    <glyph glyph-name="bracketleft.cap" horiz-adv-x="345" 
d="M220 650v-640h75c15 0 25 -10 25 -25v-80c0 -15 -10 -25 -25 -25h-195c-15 0 -25 10 -25 25v850c0 15 10 25 25 25h195c15 0 25 -10 25 -25v-80c0 -15 -10 -25 -25 -25h-75z" />
    <glyph glyph-name="bracketright.cap" horiz-adv-x="345" 
d="M125 10v640h-75c-15 0 -25 10 -25 25v80c0 15 10 25 25 25h195c15 0 25 -10 25 -25v-850c0 -15 -10 -25 -25 -25h-195c-15 0 -25 10 -25 25v80c0 15 10 25 25 25h75z" />
    <glyph glyph-name="braceleft.cap" horiz-adv-x="375" 
d="M30 290v80c0 15 10 25 25 25c40 0 60 20 60 60v150c0 115 60 175 175 175h35c15 0 25 -10 25 -25v-80c0 -15 -10 -25 -25 -25c-40 0 -65 -25 -65 -65v-165c0 -75 -65 -85 -65 -85v-10s65 -10 65 -85v-165c0 -40 25 -65 65 -65c15 0 25 -10 25 -25v-80
c0 -15 -10 -25 -25 -25h-35c-115 0 -175 60 -175 175v150c0 40 -20 60 -60 60c-15 0 -25 10 -25 25z" />
    <glyph glyph-name="braceright.cap" horiz-adv-x="375" 
d="M345 370v-80c0 -15 -10 -25 -25 -25c-40 0 -60 -20 -60 -60v-150c0 -115 -60 -175 -175 -175h-35c-15 0 -25 10 -25 25v80c0 15 10 25 25 25c40 0 65 25 65 65v165c0 75 65 85 65 85v10s-65 10 -65 85v165c0 40 -25 65 -65 65c-15 0 -25 10 -25 25v80c0 15 10 25 25 25
h35c115 0 175 -60 175 -175v-150c0 -40 20 -60 60 -60c15 0 25 -10 25 -25z" />
    <glyph glyph-name="exclamdown.cap" horiz-adv-x="280" 
d="M180 565h-80c-15 0 -25 10 -25 25v85c0 15 10 25 25 25h80c15 0 25 -10 25 -25v-85c0 -15 -10 -25 -25 -25zM65 25v265l25 170c2 15 10 25 30 25h40c20 0 28 -10 30 -25l25 -170v-265c0 -15 -10 -25 -25 -25h-100c-15 0 -25 10 -25 25z" />
    <glyph glyph-name="questiondown.cap" horiz-adv-x="550" 
d="M520 190v-45c0 -105 -50 -155 -155 -155h-165c-105 0 -155 50 -155 155v135c0 105 50 155 155 155h30l5 25c3 15 10 25 30 25h40c20 0 28 -10 30 -25l20 -120v-10c0 -15 -10 -25 -25 -25h-85c-30 0 -50 -20 -50 -50v-80c0 -30 20 -50 50 -50h75c30 0 50 20 50 50v15
c0 15 10 25 25 25h100c15 0 25 -10 25 -25zM325 565h-80c-15 0 -25 10 -25 25v85c0 15 10 25 25 25h80c15 0 25 -10 25 -25v-85c0 -15 -10 -25 -25 -25z" />
    <glyph glyph-name="guillemotleft.cap" horiz-adv-x="484" 
d="M260 495l-100 -190l100 -190c8 -15 0 -25 -15 -25h-80c-15 0 -27 10 -35 25l-100 190l100 190c8 15 20 25 35 25h80c15 0 23 -10 15 -25zM450 495l-100 -190l100 -190c8 -15 0 -25 -15 -25h-80c-15 0 -27 10 -35 25l-100 190l100 190c8 15 20 25 35 25h80
c15 0 23 -10 15 -25z" />
    <glyph glyph-name="guillemotright.cap" horiz-adv-x="484" 
d="M324 305l-100 190c-8 15 0 25 15 25h80c15 0 27 -10 35 -25l100 -190l-100 -190c-8 -15 -20 -25 -35 -25h-80c-15 0 -23 10 -15 25zM134 305l-100 190c-8 15 0 25 15 25h80c15 0 27 -10 35 -25l100 -190l-100 -190c-8 -15 -20 -25 -35 -25h-80c-15 0 -23 10 -15 25z" />
    <glyph glyph-name="guilsinglleft.cap" horiz-adv-x="309" 
d="M145 90l-115 215l115 215c11 20 15 25 35 25h80c15 0 23 -10 15 -25l-115 -215l115 -215c8 -15 0 -25 -15 -25h-80c-20 0 -24 5 -35 25z" />
    <glyph glyph-name="guilsinglright.cap" horiz-adv-x="309" 
d="M279 305l-115 -215c-11 -20 -15 -25 -35 -25h-80c-15 0 -23 10 -15 25l115 215l-115 215c-8 15 0 25 15 25h80c20 0 24 -5 35 -25z" />
    <glyph glyph-name="hyphen.cap" horiz-adv-x="395" 
d="M345 300h-295c-15 0 -25 10 -25 25v75c0 15 10 25 25 25h295c15 0 25 -10 25 -25v-75c0 -15 -10 -25 -25 -25z" />
    <glyph glyph-name="endash.cap" horiz-adv-x="530" 
d="M480 295h-430c-15 0 -25 10 -25 25v70c0 15 10 25 25 25h430c15 0 25 -10 25 -25v-70c0 -15 -10 -25 -25 -25z" />
    <glyph glyph-name="emdash.cap" horiz-adv-x="695" 
d="M645 295h-595c-15 0 -25 10 -25 25v70c0 15 10 25 25 25h595c15 0 25 -10 25 -25v-70c0 -15 -10 -25 -25 -25z" />
    <glyph glyph-name="periodcentered.cap" horiz-adv-x="200" 
d="M60 415h80c15 0 25 -10 25 -25v-85c0 -15 -10 -25 -25 -25h-80c-15 0 -25 10 -25 25v85c0 15 10 25 25 25z" />
    <glyph glyph-name="o" unicode="o" 
d="M340 155v200c0 30 -15 45 -45 45h-65c-30 0 -45 -15 -45 -45v-200c0 -30 15 -45 45 -45h65c30 0 45 15 45 45zM470 390v-270c0 -80 -50 -130 -130 -130h-155c-80 0 -130 50 -130 130v270c0 80 50 130 130 130h155c80 0 130 -50 130 -130z" />
    <glyph glyph-name="exclam" unicode="!" horiz-adv-x="280" 
d="M100 135h80c15 0 25 -10 25 -25v-85c0 -15 -10 -25 -25 -25h-80c-15 0 -25 10 -25 25v85c0 15 10 25 25 25zM215 675v-265l-25 -170c-2 -15 -10 -25 -30 -25h-40c-20 0 -28 10 -30 25l-25 170v265c0 15 10 25 25 25h100c15 0 25 -10 25 -25z" />
    <glyph glyph-name="nbspace" unicode="&#xa0;" horiz-adv-x="200" 
 />
    </font>
</defs>
</svg>
