<?xml version="1.0" standalone="no"?>
<!DOCTYPE svg PUBLIC "-//W3C//DTD SVG 1.1//EN" "http://www.w3.org/Graphics/SVG/1.1/DTD/svg11.dtd" >
<svg xmlns="http://www.w3.org/2000/svg" xmlns:xlink="http://www.w3.org/1999/xlink" version="1.1">
<metadata>
Created by FontForge 20161116 at Tue Feb 15 16:36:29 2005
 By Jimmy Wärting
Copyright (C) 1993; Type Market Ltd. Moscow, 119136, Box 20; phone:(095)2071022; Created by A.Kustov
</metadata>
<defs>
<font id="HeliosC-BoldItalic" horiz-adv-x="562" >
  <font-face 
    font-family="HeliosC"
    font-weight="700"
    font-style="italic"
    font-stretch="normal"
    units-per-em="1000"
    panose-1="0 0 8 0 0 0 0 0 0 0"
    ascent="775"
    descent="-225"
    x-height="538"
    cap-height="726"
    bbox="-115 -225 1273 937"
    underline-thickness="50"
    underline-position="-100"
    slope="-12"
    stemh="113"
    stemv="141"
    unicode-range="U+0020-2122"
  />
<missing-glyph horiz-adv-x="500" 
 />
    <glyph glyph-name=".notdef" horiz-adv-x="500" 
 />
    <glyph glyph-name="brokenbar" unicode="&#xa6;" horiz-adv-x="282" 
d="M3 -19l62 293h113l-62 -293h-113zM103 452l62 293h113l-62 -293h-113z" />
    <glyph glyph-name="space" unicode=" " horiz-adv-x="281" 
 />
    <glyph glyph-name="space" unicode="&#xa0;" horiz-adv-x="281" 
 />
    <glyph glyph-name="exclam" unicode="!" horiz-adv-x="337" 
d="M216 143l-30 -143h-148l30 143h148zM192 726h148l-39 -185l-109 -342h-75l36 342z" />
    <glyph glyph-name="quotedbl" unicode="&#x22;" horiz-adv-x="478" 
d="M251 452l58 274h99l-58 -274h-99zM70 452l58 274h99l-58 -274h-99z" />
    <glyph glyph-name="numbersign" unicode="#" 
d="M501 292l-31 -91h-98l-71 -201h-95l71 201h-98l-71 -201h-95l71 201h-98l32 91h98l43 121h-98l31 91h98l71 200h95l-71 -200h99l70 200h95l-70 -200h96l-31 -91h-97l-44 -121h98zM352 413h-98l-43 -121h97z" />
    <glyph glyph-name="dollar" unicode="$" 
d="M574 506h-130c2 14 3 26 3 37c0 59 -30 67 -64 67l-40 -189c140 -49 183 -83 183 -171c0 -112 -82 -252 -276 -267l-21 -99h-46l21 99c-131 11 -187 58 -187 156c0 23 3 49 9 78h132c-2 -12 -4 -33 -4 -47c0 -43 15 -69 72 -80l45 212c-82 23 -173 56 -173 159
c0 129 101 256 262 256l13 65h46l-13 -65c67 -7 171 -27 171 -165c0 -14 -1 -29 -3 -46zM300 435l37 175c-75 -5 -105 -60 -105 -104c0 -47 35 -63 68 -71zM314 285l-42 -195c32 0 112 29 112 119c0 44 -37 65 -70 76z" />
    <glyph glyph-name="percent" unicode="%" horiz-adv-x="897" 
d="M707 355c87 0 148 -63 148 -146c0 -118 -114 -222 -226 -222c-88 0 -149 61 -149 145c0 119 114 223 227 223zM685 251c-44 0 -99 -41 -99 -97c0 -30 21 -63 65 -63c43 0 98 40 98 97c0 29 -21 63 -64 63zM310 717c87 0 148 -63 148 -146c0 -118 -114 -222 -226 -222
c-88 0 -149 61 -149 145c0 119 114 223 227 223zM288 613c-44 0 -99 -41 -99 -97c0 -30 21 -63 65 -63c43 0 98 40 98 97c0 29 -21 63 -64 63zM782 717l-558 -737h-74l558 737h74z" />
    <glyph glyph-name="ampersand" unicode="&#x26;" horiz-adv-x="729" 
d="M370 468c44 24 88 58 88 107c0 23 -15 43 -49 43c-32 0 -73 -26 -73 -68c0 -22 8 -44 34 -82zM556 158l97 -158h-170l-37 61c-51 -42 -115 -81 -224 -81c-120 0 -186 75 -186 165c0 74 40 180 205 262c-18 27 -37 66 -37 113c0 119 106 205 232 205
c70 0 146 -40 146 -130c0 -119 -123 -195 -161 -211l76 -127c24 28 45 64 63 119h125c-30 -98 -68 -154 -129 -218zM392 150l-97 167c-74 -43 -114 -81 -114 -140c0 -21 11 -78 88 -78c47 0 94 29 123 51z" />
    <glyph glyph-name="quotesingle" unicode="'" horiz-adv-x="240" 
d="M42 452l58 274h99l-58 -274h-99z" />
    <glyph glyph-name="parenleft" unicode="(" horiz-adv-x="337" 
d="M314 742h104c-135 -156 -258 -406 -258 -664c0 -112 25 -202 56 -288h-104c-48 91 -91 202 -91 336c0 247 143 465 293 616z" />
    <glyph glyph-name="parenright" unicode=")" horiz-adv-x="337" 
d="M120 742h105c48 -91 91 -202 91 -336c0 -247 -143 -465 -293 -616h-104c135 155 258 406 258 664c0 112 -26 202 -57 288z" />
    <glyph glyph-name="asterisk" unicode="*" horiz-adv-x="393" 
d="M358 640l10 -74l-113 -32l48 -98l-72 -45l-50 92l-89 -92l-54 45l89 98l-98 32l39 74l96 -35l26 121h86l-26 -120z" />
    <glyph glyph-name="plus" unicode="+" horiz-adv-x="590" 
d="M250 312l42 200h113l-42 -200h199l-24 -113h-199l-42 -199h-113l42 199h-198l24 113h198z" />
    <glyph glyph-name="comma" unicode="," horiz-adv-x="280" 
d="M66 0l32 147h151l-27 -127c-27 -124 -100 -169 -192 -190l12 54c41 13 86 31 109 116h-85z" />
    <glyph glyph-name="hyphen" unicode="-" horiz-adv-x="362" 
d="M351 312l-24 -113h-282l24 113h282z" />
    <glyph glyph-name="hyphen" unicode="&#xad;" horiz-adv-x="362" 
d="M351 312l-24 -113h-282l24 113h282z" />
    <glyph glyph-name="period" unicode="." horiz-adv-x="280" 
d="M231 147l-32 -147h-151l32 147h151z" />
    <glyph glyph-name="slash" unicode="/" horiz-adv-x="280" 
d="M395 745l-392 -764h-118l392 764h118z" />
    <glyph glyph-name="zero" unicode="0" 
d="M53 349c54 252 159 368 328 368c127 0 188 -65 188 -204c0 -46 -7 -101 -20 -164c-53 -251 -157 -369 -326 -369c-127 0 -190 67 -190 206c0 46 7 100 20 163zM198 349c-15 -70 -23 -124 -23 -164c0 -65 22 -92 72 -92c81 0 118 71 157 256c15 70 23 123 23 163
c0 65 -22 92 -72 92c-81 0 -117 -70 -157 -255z" />
    <glyph glyph-name="one" unicode="1" 
d="M118 494l21 99h21c136 0 187 70 201 124h116l-152 -717h-141l105 494h-171z" />
    <glyph glyph-name="two" unicode="2" 
d="M215 464h-137c49 233 223 253 287 253c119 0 204 -60 204 -172c0 -153 -114 -235 -204 -287c-111 -64 -167 -100 -191 -133h311l-26 -125h-488c18 85 47 172 226 285c158 100 229 148 229 236c0 40 -23 77 -80 77c-99 0 -120 -81 -131 -134z" />
    <glyph glyph-name="three" unicode="3" 
d="M220 486h-131c29 135 124 231 286 231c85 0 185 -39 185 -152c0 -94 -54 -155 -120 -185l-1 -2c21 -6 78 -34 78 -118c0 -158 -142 -279 -298 -279c-60 0 -206 12 -206 169c0 21 2 44 8 70h138l-2 -1c-2 -11 -4 -26 -4 -41c0 -40 14 -84 83 -84c58 0 134 49 134 144
c0 73 -82 76 -142 76l21 101h23c57 0 143 21 143 119c0 30 -12 70 -73 70c-92 0 -116 -88 -122 -118z" />
    <glyph glyph-name="four" unicode="4" 
d="M136 272h176c37 174 63 283 68 305h-2zM387 717h160l-94 -445h80l-24 -113h-80l-34 -159h-141l34 159h-282l26 122z" />
    <glyph glyph-name="five" unicode="5" 
d="M273 585l-58 -155c30 18 67 39 136 39c83 0 175 -49 175 -170c0 -104 -74 -318 -322 -318c-101 0 -192 53 -192 169c0 9 2 31 4 42h142c-1 -5 -2 -14 -2 -21c0 -47 24 -77 79 -77c77 0 141 79 141 172c0 49 -22 90 -82 90c-19 0 -68 -1 -106 -51l-125 6l133 393h394
l-25 -119h-292z" />
    <glyph glyph-name="six" unicode="6" 
d="M571 535h-140c0 43 -16 69 -69 69c-92 0 -135 -106 -160 -198l2 -2c24 26 66 59 146 59c125 0 178 -80 178 -169c0 -182 -151 -313 -295 -313c-155 0 -201 92 -201 210c0 47 7 99 18 150c29 136 98 376 346 376c108 0 179 -63 179 -148c0 -11 -1 -27 -4 -34zM301 350
c-60 0 -138 -48 -138 -162c0 -57 32 -94 88 -94c73 0 132 85 132 168c0 66 -44 88 -82 88z" />
    <glyph glyph-name="seven" unicode="7" 
d="M120 704h509l-23 -109c-85 -74 -306 -286 -389 -595h-146c77 286 305 515 379 579h-357z" />
    <glyph glyph-name="eight" unicode="8" 
d="M318 426c64 0 110 51 110 112c0 41 -28 66 -67 66c-64 0 -118 -42 -118 -109c0 -23 14 -69 75 -69zM169 380c-40 23 -62 55 -62 101c0 144 135 236 269 236c128 0 191 -67 191 -149c0 -78 -43 -146 -117 -183c48 -27 76 -60 76 -119c0 -98 -79 -285 -303 -285
c-156 0 -207 85 -207 170c0 61 27 176 153 229zM293 319c-75 0 -129 -65 -129 -144c0 -50 30 -81 84 -81c87 0 129 86 129 142c0 42 -20 83 -84 83z" />
    <glyph glyph-name="nine" unicode="9" 
d="M298 348c60 0 135 57 135 167c0 54 -27 86 -85 86c-88 0 -134 -88 -134 -172c0 -65 40 -81 84 -81zM27 165h139v-1c0 -51 24 -70 68 -70c58 0 128 48 160 199l-1 2c-43 -48 -101 -60 -149 -60c-117 0 -176 75 -176 171c0 128 94 311 304 311c158 0 194 -109 194 -214
c0 -60 -11 -118 -19 -155c-59 -278 -209 -367 -338 -367c-113 0 -184 60 -184 160c0 11 1 20 2 24z" />
    <glyph glyph-name="colon" unicode=":" horiz-adv-x="337" 
d="M220 147l-32 -147h-151l32 147h151zM299 517l-32 -147h-151l32 147h151z" />
    <glyph glyph-name="semicolon" unicode=";" horiz-adv-x="337" 
d="M56 0l32 147h151l-27 -127c-27 -124 -100 -169 -192 -190l12 54c41 13 86 31 109 116h-85zM317 517l-32 -147h-151l32 147h151z" />
    <glyph glyph-name="less" unicode="&#x3c;" horiz-adv-x="590" 
d="M519 101l-23 -109l-466 220l19 89l559 219l-23 -109l-400 -155z" />
    <glyph glyph-name="equal" unicode="=" horiz-adv-x="590" 
d="M585 424l-24 -113h-509l24 113h509zM537 199l-24 -113h-509l24 113h509z" />
    <glyph glyph-name="greater" unicode="&#x3e;" horiz-adv-x="590" 
d="M5 101l400 155l-334 155l23 109l467 -219l-19 -89l-560 -220z" />
    <glyph glyph-name="question" unicode="?" horiz-adv-x="617" 
d="M374 210h-147c20 97 43 140 150 205c57 34 87 72 87 129c0 55 -43 71 -79 71c-91 0 -119 -68 -134 -116v-1h-142c37 176 182 236 292 236c55 0 219 -14 219 -163c0 -110 -60 -171 -168 -237c-51 -31 -63 -51 -78 -124zM359 142l-30 -142h-147l30 142h147z" />
    <glyph glyph-name="at" unicode="@" horiz-adv-x="985" 
d="M528 466c-81 0 -150 -95 -150 -162c0 -39 22 -64 63 -64c77 0 152 90 152 161c0 39 -24 65 -65 65zM646 498l24 54h89c-26 -61 -130 -290 -130 -307c0 -4 1 -14 12 -14c69 0 159 106 159 239c0 125 -94 194 -229 194c-195 0 -360 -172 -360 -376c0 -138 97 -226 246 -226
c84 0 166 32 229 82h90c-92 -104 -216 -163 -342 -163c-190 0 -324 124 -324 301c0 253 243 463 480 463c163 0 297 -97 297 -251c0 -242 -240 -355 -328 -355c-29 0 -45 13 -45 53l-2 1c-33 -29 -79 -54 -119 -54c-75 0 -128 60 -128 138c0 122 124 287 273 287
c51 0 89 -18 108 -66z" />
    <glyph glyph-name="A" unicode="A" horiz-adv-x="730" 
d="M376 726h175l101 -726h-164l-15 150h-267l-83 -150h-159zM426 562l-154 -287h194l-38 287h-2z" />
    <glyph glyph-name="B" unicode="B" horiz-adv-x="718" 
d="M13 0l154 726h358c147 0 187 -77 187 -145c0 -122 -90 -179 -124 -190c61 -24 80 -70 80 -120c0 -59 -27 -271 -343 -271h-312zM232 320l-42 -195h184c75 0 142 42 142 128c0 48 -43 67 -92 67h-192zM292 601l-34 -159h177c65 0 127 30 127 102c0 42 -37 57 -97 57h-173z
" />
    <glyph glyph-name="C" unicode="C" horiz-adv-x="730" 
d="M738 488h-151c-3 44 -9 129 -134 129c-162 0 -247 -191 -247 -341c0 -94 39 -167 139 -167c84 0 154 51 191 140h151c-64 -158 -190 -268 -372 -268c-160 0 -263 90 -263 264c0 138 85 500 427 500c197 0 261 -123 261 -226c0 -11 -1 -24 -2 -31z" />
    <glyph glyph-name="D" unicode="D" horiz-adv-x="731" 
d="M13 0l154 726h320c186 0 235 -120 235 -238c0 -166 -106 -488 -395 -488h-314zM289 601l-102 -476h148c155 0 229 204 229 341c0 123 -76 135 -129 135h-146z" />
    <glyph glyph-name="E" unicode="E" horiz-adv-x="667" 
d="M167 726h536l-26 -125h-385l-32 -150h353l-27 -125h-353l-43 -201h401l-26 -125h-552z" />
    <glyph glyph-name="F" unicode="F" horiz-adv-x="613" 
d="M167 726h517l-26 -125h-366l-32 -150h320l-27 -125h-320l-69 -326h-151z" />
    <glyph glyph-name="G" unicode="G" horiz-adv-x="790" 
d="M417 269l26 122h303l-83 -391h-101l4 91c-45 -45 -117 -110 -249 -110c-148 0 -265 89 -265 270c0 213 148 494 446 494c203 0 270 -121 270 -218c0 -9 -1 -20 -2 -27h-151c0 35 -26 117 -133 117c-186 0 -276 -190 -276 -342c0 -129 84 -166 170 -166
c34 0 148 14 210 160h-169z" />
    <glyph glyph-name="H" unicode="H" horiz-adv-x="725" 
d="M318 726l-58 -275h283l58 275h151l-154 -726h-151l69 326h-283l-69 -326h-151l154 726h151z" />
    <glyph glyph-name="I" unicode="I" horiz-adv-x="291" 
d="M318 726l-154 -726h-151l154 726h151z" />
    <glyph glyph-name="J" unicode="J" horiz-adv-x="561" 
d="M437 726h151l-109 -516c-33 -154 -128 -229 -274 -229c-159 0 -198 69 -198 156c0 43 9 90 19 136h141c-9 -44 -16 -79 -16 -106c0 -43 17 -64 67 -64c79 0 98 51 110 107z" />
    <glyph glyph-name="K" unicode="K" horiz-adv-x="716" 
d="M318 726l-63 -295l340 295h196l-359 -297l222 -429h-195l-156 319l-87 -73l-52 -246h-151l154 726h151z" />
    <glyph glyph-name="L" unicode="L" horiz-adv-x="611" 
d="M318 726l-128 -601h362l-26 -125h-513l154 726h151z" />
    <glyph glyph-name="M" unicode="M" horiz-adv-x="842" 
d="M167 726h221l10 -572h2l250 572h219l-154 -726h-141l129 607h-1l-265 -607h-149l-3 607h-2l-129 -607h-141z" />
    <glyph glyph-name="N" unicode="N" horiz-adv-x="731" 
d="M167 726h160l181 -505h2l107 505h141l-154 -726h-152l-185 518h-3l-110 -518h-141z" />
    <glyph glyph-name="O" unicode="O" horiz-adv-x="786" 
d="M332 -19c-84 0 -280 32 -280 267c0 218 137 497 442 497c84 0 280 -32 280 -267c0 -256 -164 -497 -442 -497zM359 109c180 0 261 197 261 341c0 131 -84 167 -153 167c-160 0 -261 -170 -261 -341c0 -131 84 -167 153 -167z" />
    <glyph glyph-name="P" unicode="P" horiz-adv-x="671" 
d="M220 262l-56 -262h-151l154 726h332c118 0 182 -62 182 -167c0 -64 -50 -297 -287 -297h-174zM292 601l-46 -214h141c116 0 141 93 141 143c0 49 -36 71 -115 71h-121z" />
    <glyph glyph-name="Q" unicode="Q" horiz-adv-x="786" 
d="M390 197l96 81l61 -71c43 47 76 165 76 243c0 130 -83 167 -152 167c-178 0 -262 -198 -262 -341c0 -132 85 -167 154 -167c25 0 56 5 86 19zM697 29l-97 -82l-68 82c-78 -41 -155 -48 -197 -48c-84 0 -280 31 -280 266c0 187 118 498 443 498c84 0 279 -32 279 -267
c0 -145 -64 -298 -142 -374z" />
    <glyph glyph-name="R" unicode="R" horiz-adv-x="712" 
d="M224 284l-60 -284h-151l154 726h370c156 0 188 -93 188 -162c0 -95 -62 -188 -152 -216c38 -19 63 -36 63 -96c0 -68 -30 -151 -30 -196c0 -20 7 -30 21 -36l-4 -20h-167c-1 5 -2 18 -2 27c0 74 27 144 27 195c0 44 -23 62 -100 62h-157zM292 601l-42 -195h178
c100 0 141 54 141 124c0 35 -18 71 -89 71h-188z" />
    <glyph glyph-name="S" unicode="S" horiz-adv-x="673" 
d="M29 224h145c-1 -7 -2 -15 -2 -24c0 -41 22 -94 131 -94c125 0 174 54 174 109c0 41 -42 56 -115 75l-138 36c-81 21 -126 66 -126 143c0 85 55 276 332 276c187 0 237 -103 237 -189c0 -16 -2 -32 -5 -46h-146c1 4 2 13 2 21c0 36 -17 89 -125 89
c-58 0 -148 -26 -148 -104c0 -42 34 -52 63 -59l168 -43c84 -22 154 -63 154 -147c0 -126 -103 -286 -342 -286c-216 0 -265 102 -265 189c0 19 3 38 6 54z" />
    <glyph glyph-name="T" unicode="T" horiz-adv-x="617" 
d="M455 601l-128 -601h-151l128 601h-219l26 125h589l-26 -125h-219z" />
    <glyph glyph-name="U" unicode="U" horiz-adv-x="717" 
d="M169 726h151l-99 -467c-5 -25 -6 -35 -6 -50c0 -69 44 -100 103 -100c104 0 156 51 175 138l102 479h151l-100 -470c-40 -191 -169 -275 -352 -275c-107 0 -235 37 -235 191c0 22 2 48 8 74z" />
    <glyph glyph-name="V" unicode="V" horiz-adv-x="673" 
d="M116 726h162l39 -550h2l275 550h157l-400 -726h-145z" />
    <glyph glyph-name="W" unicode="W" horiz-adv-x="954" 
d="M113 726h162c4 -76 6 -316 6 -383c0 -73 -2 -118 -4 -148h2c65 171 143 360 214 531h161v-323c0 -30 -2 -148 -5 -208h2c27 69 52 132 231 531h154l-358 -726h-146v185c0 121 4 279 8 381h-2c-51 -139 -75 -192 -232 -566h-142z" />
    <glyph glyph-name="X" unicode="X" horiz-adv-x="673" 
d="M124 726h181l79 -235l182 235h175l-295 -349l156 -377h-185l-84 248l-199 -248h-177l313 371z" />
    <glyph glyph-name="Y" unicode="Y" horiz-adv-x="673" 
d="M119 726h172l83 -316l210 316h172l-339 -452l-58 -274h-151l58 274z" />
    <glyph glyph-name="Z" unicode="Z" horiz-adv-x="618" 
d="M132 726h557l-27 -128l-485 -470h385l-27 -128h-567l27 129l475 469h-365z" />
    <glyph glyph-name="bracketleft" unicode="[" horiz-adv-x="336" 
d="M183 730h248l-21 -97h-125l-156 -734h125l-21 -97h-248z" />
    <glyph glyph-name="backslash" unicode="\" horiz-adv-x="280" 
d="M67 745h118l68 -764h-118z" />
    <glyph glyph-name="bracketright" unicode="]" horiz-adv-x="336" 
d="M143 730h248l-198 -928h-248l21 97h125l156 734h-125z" />
    <glyph glyph-name="asciicircum" unicode="^" horiz-adv-x="590" 
d="M285 705h100l102 -379h-111l-65 266l-178 -266h-110z" />
    <glyph glyph-name="underscore" unicode="_" 
d="M557 -126h-562l10 50h562z" />
    <glyph glyph-name="grave" unicode="`" horiz-adv-x="336" 
d="M109 610l-116 147h155l63 -147h-102z" />
    <glyph glyph-name="a" unicode="a" horiz-adv-x="567" 
d="M208 364h-136c51 165 170 188 280 188c69 0 185 -19 185 -122c0 -11 -1 -21 -4 -34l-62 -291c-4 -20 -6 -35 -6 -46c0 -25 9 -33 19 -37l-4 -22h-152c-1 5 -2 20 -2 30c0 12 1 26 2 34c-39 -33 -94 -78 -190 -78c-71 0 -134 35 -134 117c0 152 146 214 295 226
c61 5 94 22 94 63c0 42 -46 47 -82 47c-71 0 -92 -44 -103 -75zM367 262c-17 -11 -43 -20 -103 -29c-75 -11 -115 -41 -115 -97c0 -34 26 -49 54 -49c62 0 135 41 149 106z" />
    <glyph glyph-name="b" unicode="b" horiz-adv-x="618" 
d="M351 430c-105 0 -162 -119 -162 -218c0 -55 20 -110 88 -110c117 0 166 126 166 225c0 58 -22 103 -92 103zM298 726l-55 -258h3c29 34 82 84 173 84c99 0 175 -61 175 -188c0 -171 -112 -378 -299 -378c-58 0 -114 22 -135 82h-2l-14 -68h-141l154 726h141z" />
    <glyph glyph-name="c" unicode="c" horiz-adv-x="564" 
d="M370 196h142c-16 -55 -92 -210 -289 -210c-157 0 -200 93 -200 188c0 111 65 378 329 378c78 0 196 -33 196 -169c0 -12 -1 -24 -3 -37h-143c0 38 -8 87 -75 87c-122 0 -156 -158 -156 -238c0 -48 17 -93 83 -93c72 0 111 69 116 94z" />
    <glyph glyph-name="d" unicode="d" horiz-adv-x="617" 
d="M648 726l-155 -726h-138l15 68h-2c-47 -60 -115 -82 -173 -82c-126 0 -175 88 -175 197c0 228 156 369 293 369c91 0 122 -50 137 -84h2l55 258h141zM329 430c-105 0 -162 -119 -162 -218c0 -55 20 -110 88 -110c117 0 166 126 166 225c0 58 -22 103 -92 103z" />
    <glyph glyph-name="e" unicode="e" horiz-adv-x="580" 
d="M370 158h145c-64 -129 -180 -172 -272 -172c-126 0 -218 50 -218 195c0 89 49 371 328 371c126 0 205 -57 205 -183c0 -25 -4 -66 -21 -138h-365c-2 -9 -5 -29 -5 -42c0 -42 18 -90 100 -90c40 0 84 21 103 59zM191 323h220c1 5 2 19 2 23c0 68 -46 90 -87 90
c-67 0 -112 -43 -135 -113z" />
    <glyph glyph-name="f" unicode="f" horiz-adv-x="337" 
d="M244 437l-93 -437h-141l93 437h-78l21 101h78l9 43c24 111 94 153 191 153h73l-25 -116h-40c-48 0 -53 -15 -62 -59l-5 -21h93l-21 -101h-93z" />
    <glyph glyph-name="g" unicode="g" horiz-adv-x="617" 
d="M502 538h135l-108 -509c-20 -93 -61 -254 -325 -254c-103 0 -202 42 -202 138c0 8 1 15 2 24h153c0 -27 5 -55 87 -55c76 0 127 42 145 128l15 67h-4c-32 -41 -90 -91 -166 -91c-108 0 -186 69 -186 200c0 180 122 366 298 366c100 0 127 -59 137 -94h2zM358 430
c-105 0 -162 -119 -162 -218c0 -55 20 -110 88 -110c117 0 166 126 166 225c0 58 -22 103 -92 103z" />
    <glyph glyph-name="h" unicode="h" horiz-adv-x="605" 
d="M298 726l-55 -258h2c28 44 97 84 174 84c90 0 153 -46 153 -134c0 -14 -3 -38 -84 -418h-141c72 340 75 355 75 370c0 32 -14 63 -75 63c-63 0 -120 -43 -138 -125l-65 -308h-141l154 726h141z" />
    <glyph glyph-name="i" unicode="i" horiz-adv-x="261" 
d="M258 538l-115 -538h-141l115 538h141zM299 732l-28 -131h-141l28 131h141z" />
    <glyph glyph-name="j" unicode="j" horiz-adv-x="261" 
d="M120 538h141l-127 -594c-30 -141 -99 -160 -242 -160l24 113c53 0 69 6 78 50zM302 732l-28 -131h-141l28 131h141z" />
    <glyph glyph-name="k" unicode="k" 
d="M298 726l-83 -392l221 204h173l-233 -208l124 -330h-169l-79 231l-72 -61l-36 -170h-141l154 726h141z" />
    <glyph glyph-name="l" unicode="l" horiz-adv-x="261" 
d="M298 726l-154 -726h-141l154 726h141z" />
    <glyph glyph-name="m" unicode="m" horiz-adv-x="889" 
d="M116 538h136l-17 -79h2c25 35 77 93 172 93c78 0 107 -29 131 -86c29 33 80 86 162 86c90 0 152 -45 152 -133c0 -14 -3 -39 -84 -419h-141c73 337 75 356 75 368c0 48 -26 65 -59 65c-71 0 -107 -47 -120 -111l-69 -322h-141c72 331 74 349 74 363c0 36 -15 70 -67 70
c-66 0 -97 -45 -110 -103l-70 -330h-141z" />
    <glyph glyph-name="n" unicode="n" horiz-adv-x="605" 
d="M116 538h135l-17 -79h2c26 32 80 93 181 93c90 0 153 -46 153 -134c0 -14 -3 -38 -84 -418h-141c72 340 75 355 75 370c0 32 -14 63 -75 63c-63 0 -120 -43 -138 -125l-65 -308h-141z" />
    <glyph glyph-name="o" unicode="o" horiz-adv-x="619" 
d="M370 552c123 0 223 -64 223 -205c0 -168 -122 -361 -343 -361c-124 0 -224 66 -224 207c0 186 138 359 344 359zM345 433c-128 0 -171 -135 -171 -221c0 -55 21 -107 101 -107c134 0 171 146 171 223c0 54 -21 105 -101 105z" />
    <glyph glyph-name="p" unicode="p" horiz-adv-x="618" 
d="M353 430c-105 0 -162 -119 -162 -218c0 -55 20 -110 88 -110c117 0 166 126 166 225c0 58 -22 103 -92 103zM255 538l-17 -78h2c35 42 85 92 180 92c99 0 175 -65 175 -193c0 -172 -111 -373 -299 -373c-99 0 -122 54 -133 83l-3 1l-61 -286h-141l161 754h136z" />
    <glyph glyph-name="q" unicode="q" horiz-adv-x="618" 
d="M357 430c-105 0 -162 -119 -162 -218c0 -55 20 -110 88 -110c117 0 166 126 166 225c0 58 -22 103 -92 103zM501 538h136l-161 -754h-141l61 286l-3 -1c-23 -29 -70 -83 -169 -83c-127 0 -177 87 -177 197c0 204 137 369 295 369c95 0 123 -50 140 -92h2z" />
    <glyph glyph-name="r" unicode="r" horiz-adv-x="389" 
d="M116 538h136l-20 -93h2c40 54 84 107 170 107c7 0 21 -1 27 -2l-30 -144c-13 2 -28 3 -41 3c-110 0 -145 -67 -158 -127l-60 -282h-141z" />
    <glyph glyph-name="s" unicode="s" horiz-adv-x="563" 
d="M534 374h-138c0 37 -4 71 -80 71c-77 0 -98 -33 -98 -53c0 -84 293 -46 293 -190c0 -109 -100 -216 -278 -216c-110 0 -223 35 -223 146c0 12 1 26 4 40h145c-1 -4 -2 -13 -2 -16c0 -38 25 -63 103 -63c73 0 102 38 102 63c0 78 -290 23 -290 184c0 87 74 212 259 212
c96 0 206 -22 206 -143c0 -11 -1 -23 -3 -35z" />
    <glyph glyph-name="t" unicode="t" horiz-adv-x="337" 
d="M156 682h141l-31 -145h88l-21 -101h-88c-60 -273 -65 -303 -65 -312c0 -16 11 -23 53 -23c9 0 26 1 29 2l-22 -106c-20 -1 -45 -3 -67 -3c-113 0 -143 30 -143 77c0 16 5 41 74 365h-72l21 101h72z" />
    <glyph glyph-name="u" unicode="u" horiz-adv-x="603" 
d="M119 538h141l-71 -334c-3 -13 -4 -24 -4 -34c0 -53 38 -65 75 -65c46 0 114 27 135 123l66 310h141l-115 -538h-135l16 76h-2c-44 -57 -108 -90 -183 -90c-89 0 -147 42 -147 136c0 19 2 39 7 62z" />
    <glyph glyph-name="v" unicode="v" 
d="M70 538h151l30 -397h2l202 397h151l-308 -538h-149z" />
    <glyph glyph-name="w" unicode="w" horiz-adv-x="786" 
d="M67 538h151l2 -387h1l158 387h143l-1 -387h1l166 387h146l-269 -538h-146v393h-2l-167 -393h-145z" />
    <glyph glyph-name="x" unicode="x" 
d="M79 538h172l58 -157l122 157h167l-233 -264l125 -274h-175l-59 162l-127 -162h-171l241 274z" />
    <glyph glyph-name="y" unicode="y" 
d="M78 538h158l31 -396h2l194 396h150l-297 -528c-98 -175 -133 -226 -256 -226c-19 0 -44 1 -64 2l24 113c6 -1 15 -2 27 -2c52 0 81 7 110 81z" />
    <glyph glyph-name="z" unicode="z" horiz-adv-x="504" 
d="M96 538h435l-24 -116l-345 -309h290l-24 -113h-465l23 110l350 315h-264z" />
    <glyph glyph-name="braceleft" unicode="{" horiz-adv-x="393" 
d="M488 730l-19 -89h-46c-51 0 -65 -35 -71 -65l-42 -198c-18 -84 -105 -108 -139 -111v-2c29 -3 95 -12 95 -78c0 -22 -49 -223 -49 -253c0 -23 10 -43 46 -43h46l-19 -89h-84c-56 0 -116 34 -116 107c0 25 49 234 49 251c0 42 -52 60 -81 60l20 93c29 0 98 14 111 76
l43 202c20 95 108 139 172 139h84z" />
    <glyph glyph-name="bar" unicode="|" horiz-adv-x="282" 
d="M298 745l-162 -764h-113l162 764h113z" />
    <glyph glyph-name="braceright" unicode="}" horiz-adv-x="393" 
d="M124 641l19 89h84c56 0 115 -33 115 -105c0 -27 -48 -233 -48 -251c0 -45 52 -61 81 -62l-20 -92c-29 0 -99 -14 -112 -76l-43 -202c-20 -95 -107 -140 -171 -140h-84l19 89h46c51 0 64 37 71 67l42 198c18 88 105 106 139 109v2c-29 3 -95 23 -95 87c0 36 48 214 48 248
c0 21 -9 39 -45 39h-46z" />
    <glyph glyph-name="asciitilde" unicode="~" horiz-adv-x="590" 
d="M511 347l17 -91c-39 -42 -81 -87 -144 -87c-80 0 -115 70 -205 70c-45 0 -77 -39 -100 -74l-17 91c31 42 76 87 144 87c78 0 144 -70 201 -70c40 0 74 39 104 74z" />
    <glyph glyph-name="afii10051" unicode="&#x402;" horiz-adv-x="826" 
d="M455 601l-34 -159c31 5 78 9 151 9c140 0 205 -79 205 -178c0 -142 -115 -273 -304 -273h-59l26 125h44c74 0 140 53 140 126c0 46 -29 75 -97 75c-37 0 -111 -6 -133 -9l-67 -317h-151l128 601h-219l26 125h589l-26 -125h-219z" />
    <glyph glyph-name="afii10052" unicode="&#x403;" horiz-adv-x="613" 
d="M167 726h517l-27 -125h-366l-127 -601h-151zM635 937l-180 -147h-102l127 147h155z" />
    <glyph glyph-name="quotesinglbase" unicode="&#x201a;" horiz-adv-x="280" 
d="M66 0l32 147h151l-27 -127c-27 -124 -100 -169 -192 -190l12 54c41 13 86 31 109 116h-85z" />
    <glyph glyph-name="afii10100" unicode="&#x453;" horiz-adv-x="442" 
d="M117 538h365l-24 -113h-224l-91 -425h-141zM463 733l-137 -113h-83l98 113h122z" />
    <glyph glyph-name="quotedblbase" unicode="&#x201e;" horiz-adv-x="504" 
d="M56 0l32 147h151l-27 -127c-27 -124 -100 -169 -192 -190l12 54c41 13 86 31 109 116h-85zM290 0l32 147h151l-27 -127c-27 -124 -100 -169 -192 -190l12 54c41 13 86 31 109 116h-85z" />
    <glyph glyph-name="ellipsis" unicode="&#x2026;" horiz-adv-x="1010" 
d="M260 147l-32 -147h-151l32 147h151zM596 147l-32 -147h-151l32 147h151zM932 147l-32 -147h-151l32 147h151z" />
    <glyph glyph-name="dagger" unicode="&#x2020;" 
d="M573 504l-24 -113h-177l-119 -563h-135l119 563h-176l24 113h176l47 221h135l-47 -221h177z" />
    <glyph glyph-name="perthousand" unicode="&#x2030;" horiz-adv-x="1311" 
d="M707 355c87 0 148 -63 148 -146c0 -118 -114 -222 -226 -222c-88 0 -149 61 -149 145c0 119 114 223 227 223zM685 251c-44 0 -99 -41 -99 -97c0 -30 21 -63 65 -63c43 0 98 40 98 97c0 29 -21 63 -64 63zM310 717c87 0 148 -63 148 -146c0 -118 -114 -222 -226 -222
c-88 0 -149 61 -149 145c0 119 114 223 227 223zM288 613c-44 0 -99 -41 -99 -97c0 -30 21 -63 65 -63c43 0 98 40 98 97c0 29 -21 63 -64 63zM782 717l-558 -737h-74l558 737h74zM1125 355c87 0 148 -63 148 -146c0 -118 -114 -222 -226 -222c-88 0 -149 61 -149 145
c0 119 114 223 227 223zM1103 251c-44 0 -99 -41 -99 -97c0 -30 21 -63 65 -63c43 0 98 40 98 97c0 29 -21 63 -64 63z" />
    <glyph glyph-name="afii10058" unicode="&#x409;" horiz-adv-x="1133" 
d="M241 726h507l-58 -275h189c121 0 205 -64 205 -175c0 -175 -145 -276 -303 -276h-338l128 601h-205l-66 -310c-40 -188 -112 -310 -255 -310c-34 0 -65 3 -90 11l25 116c8 -3 24 -6 44 -6c68 0 95 48 128 205zM663 326l-43 -201h171c80 0 140 57 140 128
c0 49 -38 73 -97 73h-171z" />
    <glyph glyph-name="guilsinglleft" unicode="&#x2039;" horiz-adv-x="337" 
d="M297 489l-25 -117l-120 -89l82 -89l-25 -117l-138 145l26 122z" />
    <glyph glyph-name="afii10059" unicode="&#x40a;" horiz-adv-x="1137" 
d="M318 726l-58 -275h283l58 275h151l-58 -275h189c121 0 205 -64 205 -175c0 -175 -145 -276 -303 -276h-338l69 326h-283l-69 -326h-151l154 726h151zM667 326l-43 -201h171c80 0 140 57 140 128c0 49 -38 73 -97 73h-171z" />
    <glyph glyph-name="afii10061" unicode="&#x40c;" horiz-adv-x="716" 
d="M318 726l-63 -295l340 295h196l-359 -297l222 -429h-195l-156 319l-87 -73l-52 -246h-151l154 726h151zM658 937l-180 -147h-102l127 147h155z" />
    <glyph glyph-name="afii10060" unicode="&#x40b;" horiz-adv-x="826" 
d="M455 601l-34 -159c31 5 78 9 151 9c122 0 205 -64 205 -175c0 -13 -2 -35 -6 -54l-47 -222h-151l48 225c2 8 3 20 3 28c0 49 -38 73 -97 73c-37 0 -111 -6 -133 -9l-67 -317h-151l128 601h-219l26 125h589l-26 -125h-219z" />
    <glyph glyph-name="afii10145" unicode="&#x40f;" horiz-adv-x="725" 
d="M318 726l-128 -601h283l128 601h151l-155 -726h-222l-33 -154h-141l33 154h-221l154 726h151z" />
    <glyph glyph-name="afii10099" unicode="&#x452;" horiz-adv-x="605" 
d="M2 0l126 586h-60l18 87h60l11 53h141l-11 -53h161l-18 -87h-161l-26 -118h2c27 44 97 84 174 84c90 0 152 -45 152 -133c0 -14 -1 -30 -5 -47c-79 -372 -133 -513 -370 -546l26 119c103 27 140 129 194 382c3 12 5 27 5 42c0 32 -13 64 -75 64c-63 0 -120 -43 -137 -125
l-66 -308h-141z" />
    <glyph glyph-name="quoteleft" unicode="&#x2018;" horiz-adv-x="280" 
d="M208 587l-27 -128h-141l22 103c27 127 115 160 175 172l-11 -51c-71 -21 -85 -58 -95 -96h77z" />
    <glyph glyph-name="quoteright" unicode="&#x2019;" horiz-adv-x="280" 
d="M71 597l27 128h141l-21 -102c-27 -127 -115 -161 -175 -173l11 51c71 21 85 58 95 96h-78z" />
    <glyph glyph-name="quotedblleft" unicode="&#x201c;" horiz-adv-x="504" 
d="M203 587l-27 -128h-141l22 103c27 127 115 160 175 172l-11 -51c-71 -21 -85 -58 -95 -96h77zM437 587l-27 -128h-141l22 103c27 127 115 160 175 172l-11 -51c-71 -21 -85 -58 -95 -96h77z" />
    <glyph glyph-name="quotedblright" unicode="&#x201d;" horiz-adv-x="504" 
d="M66 597l27 128h141l-21 -102c-27 -127 -115 -161 -175 -173l11 51c71 21 85 58 95 96h-78zM300 597l27 128h141l-21 -102c-27 -127 -115 -161 -175 -173l11 51c71 21 85 58 95 96h-78z" />
    <glyph glyph-name="bullet" unicode="&#x2022;" horiz-adv-x="354" 
d="M142 196c-81 0 -136 55 -136 132c0 106 98 201 207 201c80 0 134 -54 134 -129c0 -109 -102 -204 -205 -204z" />
    <glyph glyph-name="endash" unicode="&#x2013;" 
d="M574 312l-24 -113h-562l24 113h562z" />
    <glyph glyph-name="emdash" unicode="&#x2014;" horiz-adv-x="1010" 
d="M1022 312l-24 -113h-1010l24 113h1010z" />
    <glyph glyph-name="trademark" unicode="&#x2122;" horiz-adv-x="1010" 
d="M666 725l42 -252l147 252h154l-88 -416h-107l60 284h-5l-156 -284h-81l-39 284h-2l-60 -284h-107l88 416h154zM433 725l-18 -86h-116l-70 -330h-113l70 330h-116l18 86h345z" />
    <glyph glyph-name="afii10106" unicode="&#x459;" horiz-adv-x="906" 
d="M179 538h433l-42 -201h99c115 0 184 -51 184 -139c0 -134 -121 -198 -254 -198h-242l90 425h-151l-35 -166c-44 -206 -119 -271 -218 -271c-25 0 -65 4 -84 12l22 105c3 -2 21 -4 42 -4c42 0 68 21 103 185zM549 240l-31 -143h96c60 0 96 33 96 86c0 35 -22 57 -65 57
h-96z" />
    <glyph glyph-name="guilsinglright" unicode="&#x203a;" horiz-adv-x="337" 
d="M185 283l-82 89l25 117l138 -145l-26 -122l-200 -145l25 117z" />
    <glyph glyph-name="afii10107" unicode="&#x45a;" horiz-adv-x="895" 
d="M258 538l-43 -201h201l43 201h141l-42 -201h99c115 0 184 -51 184 -139c0 -134 -121 -198 -254 -198h-242l51 240h-201l-52 -240h-141l115 538h141zM537 240l-31 -143h96c60 0 96 33 96 86c0 35 -22 57 -65 57h-96z" />
    <glyph glyph-name="afii10109" unicode="&#x45c;" 
d="M258 538l-44 -204l221 204h173l-233 -208l124 -330h-169l-79 231l-72 -61l-36 -170h-141l115 538h141zM523 733l-138 -113h-82l98 113h122z" />
    <glyph glyph-name="afii10108" unicode="&#x45b;" horiz-adv-x="612" 
d="M2 0l124 586h-60l18 87h60l11 53h141l-11 -53h161l-18 -87h-161l-25 -118h2c28 44 97 84 174 84c90 0 153 -46 153 -134c0 -14 -3 -38 -84 -418h-141c72 340 75 355 75 370c0 32 -14 63 -75 63c-63 0 -120 -43 -138 -125l-65 -308h-141z" />
    <glyph glyph-name="afii10193" unicode="&#x45f;" horiz-adv-x="604" 
d="M259 538l-91 -425h202l91 425h141l-115 -538h-177l-30 -145h-130l30 145h-177l115 538h141z" />
    <glyph glyph-name="afii10062" unicode="&#x40e;" horiz-adv-x="708" 
d="M108 726h171l109 -406l238 406h171l-398 -614c-73 -112 -128 -131 -199 -131c-30 0 -76 5 -91 9l28 129c11 -6 37 -12 56 -12c41 0 56 11 90 57zM417 937c0 -29 2 -70 83 -70c84 0 102 40 113 70h67c-12 -41 -62 -147 -197 -147c-114 0 -135 76 -135 124c0 9 1 17 2 23
h67z" />
    <glyph glyph-name="afii10110" unicode="&#x45e;" 
d="M78 538h158l31 -396h2l194 396h150l-297 -528c-99 -175 -134 -226 -257 -226c-19 0 -43 1 -63 2l24 113c6 -1 15 -2 27 -2c52 0 81 7 110 81zM507 758h66c-14 -46 -61 -148 -212 -148c-111 0 -131 72 -131 121c0 10 1 20 2 27h67c0 -27 3 -71 84 -71c47 0 99 5 124 71z
" />
    <glyph glyph-name="afii10057" unicode="&#x408;" horiz-adv-x="561" 
d="M437 726h151l-109 -516c-33 -154 -128 -229 -274 -229c-159 0 -198 69 -198 156c0 43 9 90 19 136h141c-9 -44 -16 -79 -16 -106c0 -43 17 -64 67 -64c79 0 98 51 110 107z" />
    <glyph glyph-name="currency" unicode="&#xa4;" 
d="M257 247c72 0 132 67 132 143c0 57 -31 83 -84 83c-71 0 -130 -64 -130 -141c0 -49 29 -85 82 -85zM43 576l81 67l78 -99c35 19 81 33 125 33c46 0 86 -14 111 -33l120 99l53 -67l-120 -99c8 -18 13 -43 13 -69c0 -58 -28 -127 -63 -165l78 -99l-81 -67l-78 99
c-33 -19 -79 -33 -125 -33c-44 0 -84 14 -111 33l-120 -99l-53 67l120 99c-7 19 -12 42 -12 67c0 57 29 129 62 167z" />
    <glyph glyph-name="afii10050" unicode="&#x490;" horiz-adv-x="613" 
d="M167 726h384l27 127h133l-54 -252h-366l-127 -601h-151z" />
    <glyph glyph-name="section" unicode="&#xa7;" 
d="M543 550h-129c1 4 2 12 2 18c0 37 -21 59 -64 59c-48 0 -87 -33 -87 -68c0 -12 4 -27 30 -42l145 -81c50 -28 91 -62 91 -125c0 -45 -31 -129 -129 -175c16 -16 39 -48 39 -96c0 -135 -134 -226 -263 -226c-147 0 -175 93 -175 154c0 14 1 26 3 35h134
c-1 -3 -2 -11 -2 -16c0 -33 14 -66 72 -66c62 0 91 54 91 87c0 22 -13 35 -47 54l-137 79c-52 29 -82 59 -82 115c0 83 52 146 128 181c-15 16 -31 43 -31 82c0 107 99 215 244 215c85 0 171 -32 171 -142c0 -13 -1 -27 -4 -42zM221 387c-33 -11 -57 -45 -57 -72
c0 -20 10 -35 34 -49l141 -85c30 15 58 40 58 78c0 22 -18 38 -44 53z" />
    <glyph glyph-name="afii10023" unicode="&#x401;" horiz-adv-x="667" 
d="M167 726h536l-26 -125h-385l-32 -150h353l-27 -125h-353l-43 -201h401l-26 -125h-552zM449 924l-24 -116h-127l24 116h127zM658 924l-24 -116h-127l24 116h127z" />
    <glyph glyph-name="copyright" unicode="&#xa9;" horiz-adv-x="745" 
d="M454 745c175 0 313 -106 313 -291c0 -290 -253 -473 -475 -473c-175 0 -313 107 -313 293c0 290 253 471 475 471zM435 657c-171 0 -344 -157 -344 -365c0 -136 91 -223 219 -223c163 0 345 155 345 359c0 140 -91 229 -220 229zM466 306h91
c-38 -102 -127 -158 -215 -158c-108 0 -169 69 -169 165c0 149 116 272 260 272c91 0 146 -52 146 -154h-87c0 46 -34 66 -78 66c-73 0 -135 -70 -135 -165c0 -56 31 -96 82 -96c50 0 91 23 105 70z" />
    <glyph glyph-name="afii10053" unicode="&#x404;" horiz-adv-x="735" 
d="M449 445l-26 -125h-210c-2 -16 -3 -31 -3 -46c0 -92 37 -165 136 -165c83 0 154 51 191 140h151c-64 -158 -190 -268 -372 -268c-160 0 -264 91 -264 265c0 213 139 499 428 499c197 0 261 -123 261 -226c0 -11 -1 -24 -2 -31h-151c-3 44 -10 129 -135 129
c-62 0 -153 -39 -208 -172h204z" />
    <glyph glyph-name="guillemotleft" unicode="&#xab;" 
d="M277 372l-120 -89l82 -89l-25 -117l-138 145l26 122l200 145zM492 372l-120 -89l82 -89l-25 -117l-138 145l26 122l200 145z" />
    <glyph glyph-name="logicalnot" unicode="&#xac;" horiz-adv-x="590" 
d="M403 0l42 199h-396l24 113h509l-66 -312h-113z" />
    <glyph glyph-name="registered" unicode="&#xae;" horiz-adv-x="745" 
d="M303 331l-37 -173h-88l88 411h153c92 0 146 -22 146 -89c0 -93 -64 -142 -125 -142l66 -180h-104l-58 173h-41zM339 499l-21 -98h77c40 0 75 17 75 65c0 28 -37 33 -70 33h-61zM454 745c175 0 312 -106 312 -291c0 -290 -252 -473 -474 -473c-176 0 -313 106 -313 291
c0 290 252 473 475 473zM435 656c-168 0 -344 -154 -344 -365c0 -135 91 -222 220 -222c162 0 343 155 343 357c0 140 -90 230 -219 230z" />
    <glyph glyph-name="afii10056" unicode="&#x407;" horiz-adv-x="291" 
d="M318 726l-154 -726h-151l154 726h151zM250 924l-24 -116h-127l24 116h127zM447 924l-24 -116h-127l24 116h127z" />
    <glyph glyph-name="degree" unicode="&#xb0;" horiz-adv-x="404" 
d="M171 431c-69 0 -116 48 -116 113c0 93 88 176 178 176c70 0 117 -49 117 -114c0 -93 -89 -175 -179 -175zM184 488c48 0 108 44 108 106c0 31 -23 69 -71 69s-108 -45 -108 -105c0 -34 23 -70 71 -70z" />
    <glyph glyph-name="plusminus" unicode="&#xb1;" horiz-adv-x="590" 
d="M265 451l27 127h113l-27 -127h199l-24 -113h-199l-27 -127h-113l27 127h-198l24 113h198zM-14 66l24 113h510l-24 -113h-510z" />
    <glyph glyph-name="afii10055" unicode="&#x406;" horiz-adv-x="291" 
d="M318 726l-154 -726h-151l154 726h151z" />
    <glyph glyph-name="afii10103" unicode="&#x456;" horiz-adv-x="261" 
d="M258 538l-115 -538h-141l115 538h141zM299 732l-28 -131h-141l28 131h141z" />
    <glyph glyph-name="afii10098" unicode="&#x491;" horiz-adv-x="442" 
d="M117 538h268l20 95h97l-44 -208h-224l-91 -425h-141z" />
    <glyph glyph-name="mu" unicode="&#xb5;" horiz-adv-x="617" 
d="M132 538h141l-70 -334c-3 -13 -4 -24 -4 -34c0 -53 37 -65 74 -65c46 0 116 28 136 123l65 310h141l-114 -538h-135l16 76h-2c-44 -59 -104 -90 -144 -90s-59 7 -74 26l-47 -221h-141z" />
    <glyph glyph-name="mu" unicode="&#x3bc;" horiz-adv-x="617" 
d="M132 538h141l-70 -334c-3 -13 -4 -24 -4 -34c0 -53 37 -65 74 -65c46 0 116 28 136 123l65 310h141l-114 -538h-135l16 76h-2c-44 -59 -104 -90 -144 -90s-59 7 -74 26l-47 -221h-141z" />
    <glyph glyph-name="paragraph" unicode="&#xb6;" 
d="M120 -192l116 543c-125 0 -191 51 -191 135c0 66 35 222 284 222h312l-192 -900h-113l173 814h-103l-173 -814h-113z" />
    <glyph glyph-name="periodcentered" unicode="&#xb7;" horiz-adv-x="280" 
d="M157 338c45 0 67 -34 67 -66c0 -54 -54 -98 -101 -98s-67 36 -67 66c0 45 46 98 101 98z" />
    <glyph glyph-name="periodcentered" unicode="&#x2219;" horiz-adv-x="280" 
d="M157 338c45 0 67 -34 67 -66c0 -54 -54 -98 -101 -98s-67 36 -67 66c0 45 46 98 101 98z" />
    <glyph glyph-name="afii10071" unicode="&#x451;" horiz-adv-x="580" 
d="M357 736l-24 -116h-127l24 116h127zM554 736l-24 -116h-127l24 116h127zM370 158h145c-64 -129 -180 -172 -272 -172c-126 0 -218 50 -218 195c0 89 49 371 328 371c126 0 205 -57 205 -183c0 -25 -4 -66 -21 -138h-365c-2 -9 -5 -29 -5 -42c0 -42 18 -90 100 -90
c40 0 84 21 103 59zM191 323h220c1 5 2 19 2 23c0 68 -46 90 -87 90c-67 0 -112 -43 -135 -113z" />
    <glyph glyph-name="afii61352" unicode="&#x2116;" horiz-adv-x="1181" 
d="M509 222l107 504h141l-154 -726h-150l-187 519h-2l-110 -519h-141l154 726h159l181 -504h2zM992 504c108 0 147 -65 147 -132c0 -89 -72 -208 -219 -208c-107 0 -146 64 -146 131c0 88 70 209 218 209zM976 431c-60 0 -102 -64 -102 -126c0 -39 20 -68 61 -68
c60 0 104 61 104 124c0 39 -20 70 -63 70zM759 119h303l-17 -81h-303z" />
    <glyph glyph-name="afii10101" unicode="&#x454;" 
d="M511 196c-16 -55 -92 -210 -289 -210c-157 0 -199 94 -199 188c0 107 62 378 328 378c87 0 191 -36 191 -191h-140c0 32 -17 72 -76 72c-72 0 -106 -47 -129 -104h132l-20 -92h-133c-2 -11 -4 -29 -4 -42c0 -52 20 -90 80 -90c72 0 113 66 118 91h141z" />
    <glyph glyph-name="guillemotright" unicode="&#xbb;" 
d="M405 283l-82 89l25 117l138 -145l-26 -122l-200 -145l25 117zM190 283l-82 89l25 117l138 -145l-26 -122l-200 -145l25 117z" />
    <glyph glyph-name="afii10105" unicode="&#x458;" horiz-adv-x="261" 
d="M120 538h141l-127 -594c-30 -141 -99 -160 -242 -160l24 113c53 0 69 6 78 50zM302 732l-28 -131h-141l28 131h141z" />
    <glyph glyph-name="afii10054" unicode="&#x405;" horiz-adv-x="673" 
d="M29 224h145c-1 -7 -2 -15 -2 -24c0 -41 22 -94 131 -94c125 0 174 54 174 109c0 41 -42 56 -115 75l-138 36c-81 21 -126 66 -126 143c0 85 55 276 332 276c187 0 237 -103 237 -189c0 -16 -2 -32 -5 -46h-146c1 4 2 13 2 21c0 36 -17 89 -125 89
c-58 0 -148 -26 -148 -104c0 -42 34 -52 63 -59l168 -43c84 -22 154 -63 154 -147c0 -126 -103 -286 -342 -286c-216 0 -265 102 -265 189c0 19 3 38 6 54z" />
    <glyph glyph-name="afii10102" unicode="&#x455;" horiz-adv-x="563" 
d="M534 374h-138c0 37 -4 71 -80 71c-77 0 -98 -33 -98 -53c0 -84 293 -46 293 -190c0 -109 -100 -216 -278 -216c-110 0 -223 35 -223 146c0 12 1 26 4 40h145c-1 -4 -2 -13 -2 -16c0 -38 25 -63 103 -63c73 0 102 38 102 63c0 78 -290 23 -290 184c0 87 74 212 259 212
c96 0 206 -22 206 -143c0 -11 -1 -23 -3 -35z" />
    <glyph glyph-name="afii10104" unicode="&#x457;" horiz-adv-x="261" 
d="M258 538l-115 -538h-141l115 538h141zM195 736l-24 -116h-127l24 116h127zM392 736l-24 -116h-127l24 116h127z" />
    <glyph glyph-name="afii10017" unicode="&#x410;" horiz-adv-x="730" 
d="M376 726h175l101 -726h-164l-15 150h-267l-83 -150h-159zM426 562l-154 -287h194l-38 287h-2z" />
    <glyph glyph-name="afii10018" unicode="&#x411;" horiz-adv-x="703" 
d="M167 726h534l-26 -125h-383l-32 -150h189c121 0 205 -64 205 -175c0 -175 -145 -276 -303 -276h-338zM233 326l-43 -201h171c80 0 140 57 140 128c0 49 -38 73 -97 73h-171z" />
    <glyph glyph-name="afii10019" unicode="&#x412;" horiz-adv-x="718" 
d="M13 0l154 726h358c147 0 187 -77 187 -145c0 -122 -90 -179 -124 -190c61 -24 80 -70 80 -120c0 -59 -27 -271 -343 -271h-312zM232 320l-42 -195h184c75 0 142 42 142 128c0 48 -43 67 -92 67h-192zM292 601l-34 -159h177c65 0 127 30 127 102c0 42 -37 57 -97 57h-173z
" />
    <glyph glyph-name="afii10020" unicode="&#x413;" horiz-adv-x="613" 
d="M167 726h517l-26 -125h-366l-128 -601h-151z" />
    <glyph glyph-name="afii10021" unicode="&#x414;" horiz-adv-x="761" 
d="M278 726h491l-128 -601h71l-59 -278h-141l32 153h-427l-32 -153h-141l59 278h65c89 103 124 200 164 385zM591 601h-198l-22 -101c-40 -184 -69 -272 -153 -375h272z" />
    <glyph glyph-name="afii10022" unicode="&#x415;" horiz-adv-x="667" 
d="M167 726h536l-26 -125h-385l-32 -150h353l-27 -125h-353l-43 -201h401l-26 -125h-552z" />
    <glyph glyph-name="afii10024" unicode="&#x416;" horiz-adv-x="1039" 
d="M131 726h184l162 -299l63 299h151l-63 -297l289 297h184l-312 -305l177 -421h-184l-118 321l-75 -77l-52 -244h-151l52 244l-42 77l-254 -321h-184l355 421z" />
    <glyph glyph-name="afii10025" unicode="&#x417;" horiz-adv-x="673" 
d="M239 510h-142c34 120 147 235 333 235c177 0 240 -86 240 -162c0 -81 -64 -174 -164 -198c64 -12 116 -59 116 -142c0 -135 -114 -262 -344 -262c-203 0 -260 85 -260 180c0 21 3 42 7 63h141c-2 -7 -3 -22 -3 -33c0 -49 30 -85 136 -85c101 0 173 49 173 129
c0 56 -48 85 -112 85h-70l26 122h66c80 0 138 47 138 111c0 38 -33 67 -113 67c-101 0 -147 -41 -168 -110z" />
    <glyph glyph-name="afii10026" unicode="&#x418;" horiz-adv-x="751" 
d="M318 726l-107 -506h1l396 506h170l-154 -726h-151l110 517h-2l-406 -517h-162l154 726h151z" />
    <glyph glyph-name="afii10027" unicode="&#x419;" horiz-adv-x="751" 
d="M318 726l-108 -506h2l396 506h170l-154 -726h-151l109 517h-2l-405 -517h-162l154 726h151zM419 937c0 -29 2 -70 83 -70c84 0 102 40 113 70h67c-12 -41 -62 -147 -197 -147c-114 0 -135 76 -135 124c0 9 1 17 2 23h67z" />
    <glyph glyph-name="afii10028" unicode="&#x41a;" horiz-adv-x="716" 
d="M318 726l-63 -295l340 295h196l-359 -297l222 -429h-195l-156 319l-87 -73l-52 -246h-151l154 726h151z" />
    <glyph glyph-name="afii10029" unicode="&#x41b;" horiz-adv-x="721" 
d="M241 726h507l-154 -726h-151l128 601h-205l-66 -310c-40 -188 -112 -310 -255 -310c-34 0 -65 3 -90 11l25 116c8 -3 24 -6 44 -6c68 0 95 48 128 205z" />
    <glyph glyph-name="afii10030" unicode="&#x41c;" horiz-adv-x="842" 
d="M167 726h221l10 -572h2l250 572h219l-154 -726h-141l129 607h-1l-265 -607h-149l-3 607h-2l-129 -607h-141z" />
    <glyph glyph-name="afii10031" unicode="&#x41d;" horiz-adv-x="725" 
d="M318 726l-58 -275h283l58 275h151l-154 -726h-151l69 326h-283l-69 -326h-151l154 726h151z" />
    <glyph glyph-name="afii10032" unicode="&#x41e;" horiz-adv-x="786" 
d="M332 -19c-84 0 -280 32 -280 267c0 218 137 497 442 497c84 0 280 -32 280 -267c0 -256 -164 -497 -442 -497zM359 109c180 0 261 197 261 341c0 131 -84 167 -153 167c-160 0 -261 -170 -261 -341c0 -131 84 -167 153 -167z" />
    <glyph glyph-name="afii10033" unicode="&#x41f;" horiz-adv-x="725" 
d="M167 726h585l-154 -726h-151l128 601h-283l-128 -601h-151z" />
    <glyph glyph-name="afii10034" unicode="&#x420;" horiz-adv-x="671" 
d="M220 262l-56 -262h-151l154 726h332c118 0 182 -62 182 -167c0 -64 -50 -297 -287 -297h-174zM292 601l-46 -214h141c116 0 141 93 141 143c0 49 -36 71 -115 71h-121z" />
    <glyph glyph-name="afii10035" unicode="&#x421;" horiz-adv-x="730" 
d="M738 488h-151c-3 44 -9 129 -134 129c-162 0 -247 -191 -247 -341c0 -94 39 -167 139 -167c84 0 154 51 191 140h151c-64 -158 -190 -268 -372 -268c-160 0 -263 90 -263 264c0 138 85 500 427 500c197 0 261 -123 261 -226c0 -11 -1 -24 -2 -31z" />
    <glyph glyph-name="afii10036" unicode="&#x422;" horiz-adv-x="617" 
d="M455 601l-128 -601h-151l128 601h-219l26 125h589l-26 -125h-219z" />
    <glyph glyph-name="afii10037" unicode="&#x423;" horiz-adv-x="708" 
d="M108 726h171l110 -406l237 406h171l-397 -614c-73 -112 -128 -131 -199 -131c-30 0 -76 5 -91 9l27 129c12 -6 38 -12 57 -12c41 0 55 11 90 57z" />
    <glyph glyph-name="afii10038" unicode="&#x424;" horiz-adv-x="903" 
d="M624 726l-16 -74c115 0 277 -54 277 -223c0 -229 -209 -351 -399 -351l-16 -78h-151l16 78c-115 0 -277 51 -277 219c0 206 182 355 399 355l16 74h151zM361 200l70 330c-166 0 -220 -123 -220 -213c0 -97 83 -117 150 -117zM582 530l-70 -330c160 0 220 112 220 209
c0 98 -83 121 -150 121z" />
    <glyph glyph-name="afii10039" unicode="&#x425;" horiz-adv-x="673" 
d="M124 726h181l79 -235l182 235h175l-295 -349l156 -377h-185l-84 248l-199 -248h-177l313 371z" />
    <glyph glyph-name="afii10040" unicode="&#x426;" horiz-adv-x="748" 
d="M318 726l-128 -601h283l128 601h151l-128 -601h72l-60 -279h-141l33 154h-515l154 726h151z" />
    <glyph glyph-name="afii10041" unicode="&#x427;" horiz-adv-x="705" 
d="M168 726h151l-45 -213c-2 -9 -3 -17 -3 -25c0 -51 41 -72 94 -72c49 0 101 4 153 11l63 299h151l-154 -726h-151l64 303c-66 -11 -128 -12 -193 -12c-100 0 -182 43 -182 158c0 20 3 42 8 67z" />
    <glyph glyph-name="afii10042" unicode="&#x428;" horiz-adv-x="973" 
d="M318 726l-128 -601h188l130 601h151l-128 -601h190l128 601h151l-154 -726h-833l154 726h151z" />
    <glyph glyph-name="afii10043" unicode="&#x429;" horiz-adv-x="996" 
d="M318 726l-128 -601h190l128 601h151l-128 -601h190l128 601h151l-128 -601h72l-60 -279h-141l37 154h-767l154 726h151z" />
    <glyph glyph-name="afii10044" unicode="&#x42a;" horiz-adv-x="801" 
d="M104 726h312l-58 -275h189c121 0 205 -64 205 -175c0 -175 -145 -276 -303 -276h-338l128 601h-161zM331 326l-43 -201h171c80 0 140 57 140 128c0 49 -38 73 -97 73h-171z" />
    <glyph glyph-name="afii10045" unicode="&#x42b;" horiz-adv-x="1006" 
d="M318 726l-58 -275h189c121 0 205 -64 205 -175c0 -175 -145 -276 -303 -276h-338l154 726h151zM233 326l-43 -201h171c80 0 140 57 140 128c0 49 -38 73 -97 73h-171zM1033 726l-154 -726h-151l154 726h151z" />
    <glyph glyph-name="afii10046" unicode="&#x42c;" horiz-adv-x="703" 
d="M318 726l-58 -275h189c121 0 205 -64 205 -175c0 -175 -145 -276 -303 -276h-338l154 726h151zM233 326l-43 -201h171c80 0 140 57 140 128c0 49 -38 73 -97 73h-171z" />
    <glyph glyph-name="afii10047" unicode="&#x42d;" horiz-adv-x="734" 
d="M358 445h204c0 135 -72 172 -134 172c-125 0 -168 -85 -189 -129h-151c30 107 150 257 367 257c157 0 267 -90 267 -269c0 -203 -127 -495 -427 -495c-182 0 -258 108 -258 268h151c0 -89 48 -140 131 -140c115 0 188 98 223 211h-210z" />
    <glyph glyph-name="afii10048" unicode="&#x42e;" horiz-adv-x="1008" 
d="M318 726l-58 -275h104c91 259 304 294 381 294c74 0 252 -31 252 -260c0 -220 -136 -504 -414 -504c-75 0 -253 32 -253 260c0 26 2 54 7 85h-104l-69 -326h-151l154 726h151zM610 109c156 0 233 217 233 350c0 124 -70 158 -125 158c-149 0 -233 -196 -233 -348
c0 -125 71 -160 125 -160z" />
    <glyph glyph-name="afii10049" unicode="&#x42f;" horiz-adv-x="715" 
d="M742 726l-154 -726h-151l60 284h-112l-228 -284h-177l240 298c-65 23 -125 75 -125 162c0 133 125 266 280 266h367zM524 409l41 192h-187c-93 0 -129 -70 -129 -116s33 -76 100 -76h175z" />
    <glyph glyph-name="afii10065" unicode="&#x430;" horiz-adv-x="567" 
d="M208 364h-136c51 165 170 188 280 188c69 0 185 -19 185 -122c0 -11 -1 -21 -4 -34l-62 -291c-4 -20 -6 -35 -6 -46c0 -25 9 -33 19 -37l-4 -22h-152c-1 5 -2 20 -2 30c0 12 1 26 2 34c-39 -33 -94 -78 -190 -78c-71 0 -134 35 -134 117c0 152 146 214 295 226
c61 5 94 22 94 63c0 42 -46 47 -82 47c-71 0 -92 -44 -103 -75zM367 262c-17 -11 -43 -20 -103 -29c-75 -11 -115 -41 -115 -97c0 -34 26 -49 54 -49c62 0 135 41 149 106z" />
    <glyph glyph-name="afii10066" unicode="&#x431;" horiz-adv-x="601" 
d="M167 405c46 63 118 113 195 113c113 0 207 -50 207 -178c0 -145 -98 -354 -334 -354c-133 0 -212 70 -212 205c0 29 4 64 11 95c44 208 121 356 322 402c97 22 153 25 169 59h107c-35 -90 -104 -131 -214 -148c-119 -18 -213 -62 -251 -194zM329 405
c-114 0 -162 -113 -162 -200c0 -53 22 -100 94 -100c114 0 158 122 158 201c0 53 -21 99 -90 99z" />
    <glyph glyph-name="afii10067" unicode="&#x432;" 
d="M3 0l114 538h243c108 0 182 -40 182 -113c0 -75 -63 -127 -128 -142c45 -11 91 -39 91 -102c0 -119 -99 -181 -232 -181h-270zM194 235l-30 -138h104c52 0 101 20 101 87c0 31 -21 51 -73 51h-102zM238 441l-26 -121h92c47 0 95 22 95 77c0 26 -21 44 -68 44h-93z" />
    <glyph glyph-name="afii10068" unicode="&#x433;" horiz-adv-x="442" 
d="M117 538h365l-24 -113h-224l-91 -425h-141z" />
    <glyph glyph-name="afii10069" unicode="&#x434;" horiz-adv-x="637" 
d="M203 538h415l-91 -425h65l-54 -258h-131l30 145h-334l-30 -145h-131l54 258h59c46 45 89 150 117 279zM453 425h-143l-14 -66c-31 -144 -64 -205 -101 -246h191z" />
    <glyph glyph-name="afii10070" unicode="&#x435;" horiz-adv-x="580" 
d="M370 158h145c-64 -129 -180 -172 -272 -172c-126 0 -218 50 -218 195c0 89 49 371 328 371c126 0 205 -57 205 -183c0 -25 -4 -66 -21 -138h-365c-2 -9 -5 -29 -5 -42c0 -42 18 -90 100 -90c40 0 84 21 103 59zM191 323h220c1 5 2 19 2 23c0 68 -46 90 -87 90
c-67 0 -112 -43 -135 -113z" />
    <glyph glyph-name="afii10072" unicode="&#x436;" horiz-adv-x="817" 
d="M70 538h166l118 -198l42 198h141l-42 -200l201 200h167l-233 -215l124 -323h-170l-73 220l-51 -44l-37 -176h-141l37 175l-31 46l-166 -221h-170l260 324z" />
    <glyph glyph-name="afii10073" unicode="&#x437;" horiz-adv-x="559" 
d="M200 374h-136c51 121 148 178 277 178c117 0 194 -50 194 -120c0 -68 -55 -136 -150 -152c58 -8 116 -36 116 -105c0 -135 -137 -189 -277 -189c-121 0 -217 38 -217 148c0 12 1 24 3 38h137c-1 -4 -2 -14 -2 -18c0 -37 27 -61 95 -61c73 0 122 24 122 87
c0 26 -16 56 -76 56h-60l19 90h53c46 0 95 23 95 74c0 24 -20 45 -79 45c-68 0 -100 -37 -114 -71z" />
    <glyph glyph-name="afii10074" unicode="&#x438;" horiz-adv-x="616" 
d="M258 538l-72 -341l276 341h152l-115 -538h-141l73 342l-277 -342h-152l115 538h141z" />
    <glyph glyph-name="afii10075" unicode="&#x439;" horiz-adv-x="616" 
d="M258 538l-73 -341l277 341h151l-115 -538h-141l73 342l-277 -342h-151l115 538h141zM535 758h66c-14 -46 -61 -148 -212 -148c-111 0 -131 72 -131 121c0 10 1 20 2 27h67c0 -27 3 -71 84 -71c47 0 99 5 124 71z" />
    <glyph glyph-name="afii10076" unicode="&#x43a;" 
d="M258 538l-43 -204l221 204h173l-233 -208l124 -330h-169l-79 231l-72 -61l-37 -170h-141l115 538h141z" />
    <glyph glyph-name="afii10077" unicode="&#x43b;" horiz-adv-x="614" 
d="M179 538h434l-115 -538h-141l90 425h-151l-35 -166c-44 -206 -119 -271 -218 -271c-25 0 -65 4 -84 12l22 105c3 -2 21 -4 42 -4c42 0 68 21 103 185z" />
    <glyph glyph-name="afii10078" unicode="&#x43c;" horiz-adv-x="748" 
d="M117 538h195l39 -366h4l194 366h196l-114 -538h-135l70 330c6 29 17 63 17 63h-4l-210 -393h-104l-44 393h-4s-3 -34 -9 -63l-70 -330h-135z" />
    <glyph glyph-name="afii10079" unicode="&#x43d;" horiz-adv-x="603" 
d="M258 538l-43 -201h201l43 201h142l-115 -538h-141l47 224h-201l-48 -224h-141l115 538h141z" />
    <glyph glyph-name="afii10080" unicode="&#x43e;" horiz-adv-x="619" 
d="M370 552c123 0 223 -64 223 -205c0 -168 -122 -361 -343 -361c-124 0 -224 66 -224 207c0 186 138 359 344 359zM345 433c-128 0 -171 -135 -171 -221c0 -55 21 -107 101 -107c134 0 171 146 171 223c0 54 -21 105 -101 105z" />
    <glyph glyph-name="afii10081" unicode="&#x43f;" horiz-adv-x="603" 
d="M117 538h484l-115 -538h-141l90 425h-201l-91 -425h-141z" />
    <glyph glyph-name="afii10082" unicode="&#x440;" horiz-adv-x="618" 
d="M353 430c-105 0 -162 -119 -162 -218c0 -55 20 -110 88 -110c117 0 166 126 166 225c0 58 -22 103 -92 103zM255 538l-17 -78h2c35 42 85 92 180 92c99 0 175 -65 175 -193c0 -172 -111 -373 -299 -373c-99 0 -122 54 -133 83l-3 1l-61 -286h-141l161 754h136z" />
    <glyph glyph-name="afii10083" unicode="&#x441;" horiz-adv-x="564" 
d="M370 196h142c-16 -55 -92 -210 -289 -210c-157 0 -200 93 -200 188c0 111 65 378 329 378c78 0 196 -33 196 -169c0 -12 -1 -24 -3 -37h-143c0 38 -8 87 -75 87c-122 0 -156 -158 -156 -238c0 -48 17 -93 83 -93c72 0 111 69 116 94z" />
    <glyph glyph-name="afii10084" unicode="&#x442;" horiz-adv-x="495" 
d="M261 0h-141l90 425h-160l24 113h461l-24 -113h-160z" />
    <glyph glyph-name="afii10085" unicode="&#x443;" 
d="M78 538h158l31 -396h2l194 396h150l-297 -528c-98 -175 -133 -226 -256 -226c-19 0 -44 1 -64 2l24 113c6 -1 15 -2 27 -2c52 0 81 7 110 81z" />
    <glyph glyph-name="afii10086" unicode="&#x444;" horiz-adv-x="901" 
d="M477 726h141l-56 -266h1c35 42 81 92 164 92c87 0 151 -60 151 -181c0 -170 -99 -385 -274 -385c-87 0 -112 54 -123 83h-3l-60 -285h-141l60 285h-2c-23 -29 -70 -83 -157 -83c-112 0 -155 84 -155 188c0 184 111 378 272 378c83 0 108 -50 125 -92h1zM593 104
c103 0 136 170 136 238c0 52 -17 91 -67 91c-107 0 -155 -139 -155 -235c0 -53 21 -94 86 -94zM314 433c-92 0 -142 -141 -142 -236c0 -49 15 -93 67 -93c114 0 155 137 155 234c0 56 -21 95 -80 95z" />
    <glyph glyph-name="afii10087" unicode="&#x445;" 
d="M79 538h172l58 -157l122 157h167l-233 -264l125 -274h-175l-59 162l-127 -162h-171l241 274z" />
    <glyph glyph-name="afii10088" unicode="&#x446;" horiz-adv-x="609" 
d="M259 538l-91 -425h202l91 425h141l-91 -425h64l-54 -258h-131l30 145h-417l115 538h141z" />
    <glyph glyph-name="afii10089" unicode="&#x447;" horiz-adv-x="595" 
d="M117 538h141c-34 -159 -36 -175 -36 -178c0 -44 41 -52 79 -52c43 0 84 3 103 8l48 222h141l-115 -538h-141l44 206c-53 -11 -102 -17 -156 -17c-89 0 -149 36 -149 128c0 23 2 44 41 221z" />
    <glyph glyph-name="afii10090" unicode="&#x448;" horiz-adv-x="889" 
d="M258 538l-90 -425h173l90 425h141l-90 -425h173l90 425h141l-114 -538h-770l115 538h141z" />
    <glyph glyph-name="afii10091" unicode="&#x449;" horiz-adv-x="893" 
d="M259 538l-91 -425h173l91 425h141l-91 -425h173l91 425h141l-91 -425h65l-54 -258h-131l30 145h-703l115 538h141z" />
    <glyph glyph-name="afii10092" unicode="&#x44a;" horiz-adv-x="595" 
d="M57 538h246l-43 -201h99c115 0 184 -51 184 -139c0 -134 -121 -198 -254 -198h-242l91 425h-105zM239 240l-31 -143h96c60 0 96 33 96 86c0 35 -22 57 -65 57h-96z" />
    <glyph glyph-name="afii10093" unicode="&#x44b;" horiz-adv-x="814" 
d="M258 538l-43 -201h99c115 0 184 -51 184 -139c0 -134 -121 -198 -254 -198h-242l115 538h141zM194 240l-31 -143h96c60 0 96 33 96 86c0 35 -22 57 -65 57h-96zM811 538l-115 -538h-141l115 538h141z" />
    <glyph glyph-name="afii10094" unicode="&#x44c;" horiz-adv-x="563" 
d="M268 538l-43 -201h99c115 0 184 -51 184 -139c0 -134 -121 -198 -254 -198h-242l115 538h141zM204 240l-31 -143h96c60 0 96 33 96 86c0 35 -22 57 -65 57h-96z" />
    <glyph glyph-name="afii10095" unicode="&#x44d;" 
d="M20 196h141c-1 -3 -2 -9 -2 -11c0 -30 19 -83 82 -83c75 0 115 64 135 138h-142l19 92h142c0 67 -14 104 -84 104c-59 0 -95 -41 -111 -75h-140c60 146 189 191 276 191c138 0 199 -80 199 -201c0 -131 -67 -365 -316 -365c-174 0 -201 121 -201 187c0 9 1 17 2 23z" />
    <glyph glyph-name="afii10096" unicode="&#x44e;" horiz-adv-x="836" 
d="M258 538l-43 -201h98c52 140 178 215 295 215c110 0 202 -64 202 -202c0 -198 -137 -364 -322 -364c-108 0 -201 57 -201 201c0 12 1 28 2 37h-98l-48 -224h-141l115 538h141zM583 433c-108 0 -152 -144 -152 -226c0 -53 19 -102 82 -102c112 0 154 150 154 223
c0 54 -20 105 -84 105z" />
    <glyph glyph-name="afii10097" unicode="&#x44f;" horiz-adv-x="561" 
d="M559 538l-115 -538h-141l45 212h-61l-153 -212h-164l179 225c-39 10 -95 42 -95 115c0 130 105 198 251 198h254zM368 305l29 136h-104c-48 0 -100 -29 -100 -85c0 -30 19 -51 71 -51h104z" />
    <glyph glyph-name="sterling" unicode="&#xa3;" 
d="M407 386l-13 -61h-120c0 -90 -56 -167 -145 -220l1 -3c47 18 84 27 120 27c66 0 92 -26 119 -26s83 21 110 37l19 -110c-42 -22 -98 -46 -164 -46c-67 0 -130 41 -187 41c-26 0 -45 -6 -118 -36l-42 98c69 27 155 99 155 181c0 22 -3 45 -7 57h-93l13 61h59
c-11 44 -17 69 -17 94c0 78 68 246 289 246c92 0 200 -37 200 -170c0 -19 -2 -41 -7 -64h-133c1 7 2 23 2 34c0 52 -14 87 -87 87c-78 0 -121 -69 -121 -105c0 -22 4 -54 22 -122h145z" />
    <glyph glyph-name="Euro" unicode="&#x20ac;" 
d="M608 680l-27 -129c-18 23 -59 46 -128 46c-87 0 -144 -44 -175 -124h254l-53 -94h-233c-2 -8 -4 -17 -6 -27c-3 -12 -5 -24 -6 -32h212l-52 -95h-168c-3 -81 37 -124 122 -124c67 0 117 21 146 44l-27 -129c-23 -15 -81 -35 -164 -35c-143 0 -220 77 -211 244h-80l52 95
h39c1 8 3 18 5 31c3 11 5 20 8 28h-72l52 94h48c56 146 156 244 316 244c75 0 129 -21 148 -37z" />
    </font>
</defs>
</svg>
